# Alias OBJ Model File
# Exported from SketchUp, (c) 2000-2006 Google, Inc.
# File units = inches

mtllib c2b6f11d2408ff63c9705948bf42ca58_obj0_object.mtl

g Mesh1 Group1 IKEA_Vittsj__Laptop_Table1 Model

usemtl _Charcoal_
v 39.3701 27.5591 -13.3858
vt -39.3701 13.3858
vn 0 -1 -0
v 38.5827 27.5591 -0.787402
vt -38.5827 0.787402
v 38.5827 27.5591 -13.3858
vt -38.5827 13.3858
f 1/1/1 2/2/1 3/3/1

v 39.3701 27.5591 -0.787402
vt -39.3701 0.787402
f 2/2/1 1/1/1 4/4/1

v 39.3701 28.3465 -14.1732
vt 14.1732 28.3465
vn 1 0 -0
vt 0.787402 27.5591
vt 13.3858 27.5591
f 5/5/2 4/6/2 1/7/2

v 39.3701 28.3465 -0
vt 0 28.3465
f 6/8/2 4/6/2 5/5/2

v 39.3701 22.8346 -0.787402
vt 0.787402 22.8346
f 4/6/2 6/8/2 7/9/2

v 39.3701 4.72441 -0.787402
vt 0.787402 4.72441
f 7/9/2 6/8/2 8/10/2

v 39.3701 0 -0.787402
vt 0.787402 0
f 6/8/2 9/11/2 8/10/2

v 39.3701 0 -0
vt 0 0
f 9/11/2 6/8/2 10/12/2

vt 39.3701 28.3465
vn 0 0 1
v 38.5827 0 -0
vt 38.5827 0
vt 39.3701 0
f 6/13/3 11/14/3 10/15/3

v 38.5827 22.8346 -0
vt 38.5827 22.8346
f 11/14/3 6/13/3 12/16/3

v 38.5827 23.622 -0
vt 38.5827 23.622
f 12/16/3 6/13/3 13/17/3

v 38.5827 27.5591 -0
vt 38.5827 27.5591
f 13/17/3 6/13/3 14/18/3

v 25.9843 27.5591 -0
vt 25.9843 27.5591
f 14/18/3 6/13/3 15/19/3

v 25.1969 27.5591 -0
vt 25.1969 27.5591
f 15/19/3 6/13/3 16/20/3

v 0.787402 27.5591 -0
vt 0.787402 27.5591
f 16/20/3 6/13/3 17/21/3

v 0 28.3465 -0
f 18/8/3 17/21/3 6/13/3

v 0.787402 2.22045e-016 -0
vt 0.787402 2.22045e-016
f 18/8/3 19/22/3 17/21/3

v 0 0 -0
f 19/22/3 18/8/3 20/12/3

vn -1 0 -0
v 0 27.5591 -0.787402
vt -0.787402 27.5591
f 18/8/4 21/23/4 20/12/4

v 0 28.3465 -14.1732
vt -14.1732 28.3465
f 21/23/4 18/8/4 22/24/4

vn 0 1 -0
v 0.393701 28.3465 -0.393701
vt 0.393701 0.393701
vt 0 14.1732
f 18/12/5 23/25/5 22/26/5

f 23/25/5 18/12/5 6/15/5

v 38.9764 28.3465 -0.393701
vt 38.9764 0.393701
f 23/25/5 6/15/5 24/27/5

v 38.9764 28.3465 -13.7795
vt 38.9764 13.7795
f 24/27/5 6/15/5 25/28/5

vt 39.3701 14.1732
f 5/29/5 25/28/5 6/15/5

v 0.393701 28.3465 -13.7795
vt 0.393701 13.7795
f 5/29/5 26/30/5 25/28/5

f 22/26/5 26/30/5 5/29/5

f 26/30/5 22/26/5 23/25/5

vt 0.393701 28.3465
v 0.393701 28.0512 -13.7795
vt 13.7795 28.0512
vt 13.7795 28.3465
f 23/31/2 27/32/2 26/33/2

v 0.393701 28.0512 -0.393701
vt 0.393701 28.0512
f 27/32/2 23/31/2 28/34/2

vt -0.393701 28.3465
vn 2.87752e-018 0 -1
v 38.9764 28.0512 -0.393701
vt -38.9764 28.0512
vt -0.393701 28.0512
f 23/35/6 29/36/6 28/37/6

vt -38.9764 28.3465
f 29/36/6 23/35/6 24/38/6

vt -13.7795 28.3465
vt -0.393701 28.0512
vt -0.393701 28.3465
f 25/39/4 29/40/4 24/41/4

v 38.9764 28.0512 -13.7795
vt -13.7795 28.0512
f 29/40/4 25/39/4 30/42/4

vt 38.9764 28.3465
vt 38.9764 28.0512
f 25/43/3 27/34/3 30/44/3

f 27/34/3 25/43/3 26/31/3

v 0.787402 28.0512 -13.3858
vt 0.787402 13.3858
f 27/30/5 31/45/5 30/28/5

v 0.787402 28.0512 -0.787402
vt 0.787402 0.787402
f 31/45/5 27/30/5 32/46/5

f 28/25/5 32/46/5 27/30/5

f 32/46/5 28/25/5 29/27/5

v 38.5827 28.0512 -0.787402
vt 38.5827 0.787402
f 32/46/5 29/27/5 33/47/5

v 38.5827 28.0512 -13.3858
vt 38.5827 13.3858
f 33/47/5 29/27/5 34/48/5

f 30/28/5 34/48/5 29/27/5

f 30/28/5 31/45/5 34/48/5

v 0.787402 27.5591 -13.3858
vn -3.96951e-018 1.7754e-016 1
vt 38.5827 28.0512
vt 0.787402 28.0512
f 35/21/7 34/49/7 31/50/7

v 25.1969 27.5591 -13.3858
f 36/20/7 34/49/7 35/21/7

v 25.9843 27.5591 -13.3858
f 37/19/7 34/49/7 36/20/7

f 34/49/7 37/19/7 3/18/7

vt -25.9843 13.3858
v 38.5827 27.5591 -14.1732
vt -38.5827 14.1732
f 37/51/1 38/52/1 3/3/1

v 25.9843 27.5591 -14.1732
vt -25.9843 14.1732
f 38/52/1 37/51/1 39/53/1

v 25.9843 23.622 -14.1732
vt 14.1732 23.622
vt 14.1732 27.5591
f 37/7/2 40/54/2 39/55/2

v 25.9843 23.622 -13.3858
vt 13.3858 23.622
f 40/54/2 37/7/2 41/56/2

v 25.1969 23.622 -13.3858
vt 25.1969 23.622
vt 25.9843 23.622
f 37/19/7 42/57/7 41/58/7

f 42/57/7 37/19/7 36/20/7

v 25.1969 27.5591 -14.1732
vt -14.1732 27.5591
vt -13.3858 23.622
vt -13.3858 27.5591
f 43/59/4 42/60/4 36/61/4

v 25.1969 22.8346 -14.1732
vt -14.1732 22.8346
f 44/62/4 42/60/4 43/59/4

v 25.1969 23.622 -0.787402
vt -0.787402 23.622
f 44/62/4 45/63/4 42/60/4

v 25.1969 22.8346 -0
vt 0 22.8346
f 46/64/4 45/63/4 44/62/4

v 25.1969 27.5591 -0.787402
vt -0.787402 27.5591
f 46/64/4 47/65/4 45/63/4

vt 0 27.5591
f 47/65/4 46/64/4 16/66/4

vt 25.1969 22.8346
v 25.9843 23.622 -0
f 46/67/3 48/58/3 16/20/3

f 48/58/3 46/67/3 13/17/3

f 12/16/3 13/17/3 46/67/3

vt -25.1969 0
v 38.5827 22.8346 -14.1732
vt -38.5827 0
f 46/68/1 49/52/1 12/69/1

vt -25.1969 14.1732
f 49/52/1 46/68/1 44/70/1

vt -25.1969 22.8346
vn 0 0 -1
vt -25.9843 23.622
vt -38.5827 22.8346
f 44/71/8 40/72/8 49/73/8

vt -25.1969 27.5591
f 40/72/8 44/71/8 43/74/8

vt -25.9843 27.5591
f 40/72/8 43/74/8 39/75/8

f 43/74/8 22/8/8 39/75/8

v 0.787402 27.5591 -14.1732
vt -0.787402 27.5591
f 50/76/8 22/8/8 43/74/8

v 0.787402 4.72441 -14.1732
vt -0.787402 4.72441
f 51/77/8 22/8/8 50/76/8

v 0.787402 3.93701 -14.1732
vt -0.787402 3.93701
f 52/78/8 22/8/8 51/77/8

v 0.787402 0 -14.1732
vt -0.787402 0
f 53/79/8 22/8/8 52/78/8

v 0 0 -14.1732
f 22/8/8 53/79/8 54/12/8

vt -0.787402 14.1732
vn 1.40998e-016 -1 1.40998e-016
v 0 0 -13.3858
vt 0 13.3858
f 53/80/9 55/81/9 54/26/9

v 0.787402 2.22045e-016 -13.3858
vt -0.787402 13.3858
f 55/81/9 53/80/9 56/82/9

vt 14.1732 2.3794e-034
vn 1 -3.02184e-034 -8.4599e-016
v 0.787402 3.93701 -13.3858
vt 13.3858 3.93701
vt 13.3858 2.22045e-016
f 53/83/10 57/84/10 56/85/10

vt 14.1732 3.93701
f 57/84/10 53/83/10 52/86/10

v 38.5827 3.93701 -14.1732
f 58/52/1 57/82/1 52/80/1

v 38.5827 3.93701 -13.3858
f 57/82/1 58/52/1 59/3/1

vt -14.1732 3.93701
v 38.5827 0 -13.3858
vt -13.3858 0
vt -13.3858 3.93701
f 58/87/4 60/88/4 59/89/4

v 38.5827 0 -14.1732
vt -14.1732 0
f 60/88/4 58/87/4 61/90/4

vt -38.5827 3.93701
v 39.3701 0 -14.1732
vt -39.3701 0
f 58/91/8 62/92/8 61/69/8

vt -39.3701 28.3465
f 62/92/8 58/91/8 5/93/8

v 38.5827 4.72441 -14.1732
vt -38.5827 4.72441
f 5/93/8 58/91/8 63/94/8

f 58/91/8 51/77/8 63/94/8

f 52/78/8 51/77/8 58/91/8

v 0.787402 4.72441 -13.3858
vt 0.787402 13.3858
vn 2.34997e-017 1 1.12799e-015
vt 38.5827 14.1732
vt 0.787402 14.1732
f 64/95/11 63/96/11 51/97/11

v 38.5827 4.72441 -13.3858
vt 38.5827 13.3858
f 63/96/11 64/95/11 65/98/11

vt 0.787402 3.93701
vt 38.5827 4.72441
vt 0.787402 4.72441
f 57/99/3 65/100/3 64/101/3

vt 38.5827 3.93701
f 65/100/3 57/99/3 59/102/3

v 38.5827 3.93701 -0.787402
vt -0.787402 3.93701
vt -13.3858 4.72441
f 66/103/4 65/104/4 59/89/4

v 38.5827 4.72441 -0.787402
vt -0.787402 4.72441
f 65/104/4 66/103/4 67/105/4

v 38.5827 0 -0.787402
vt -0.787402 0
f 68/106/4 67/105/4 66/103/4

f 11/12/4 67/105/4 68/106/4

v 38.5827 22.8346 -0.787402
vt -0.787402 22.8346
f 11/12/4 69/107/4 67/105/4

f 69/107/4 11/12/4 12/64/4

v 38.5827 22.8346 -13.3858
vt -38.5827 0.787402
f 12/69/1 70/3/1 69/108/1

f 12/69/1 49/52/1 70/3/1

vt -13.3858 22.8346
f 49/62/4 65/104/4 70/109/4

vt -14.1732 4.72441
f 65/104/4 49/62/4 63/110/4

f 5/93/8 63/94/8 49/73/8

v 38.5827 23.622 -14.1732
vt -38.5827 23.622
f 5/93/8 49/73/8 71/111/8

f 71/111/8 49/73/8 40/72/8

vt 25.9843 14.1732
vt 38.5827 14.1732
f 40/112/5 13/14/5 71/113/5

vt 25.9843 13.3858
f 41/114/5 13/14/5 40/112/5

v 25.9843 23.622 -0.787402
vt 25.9843 0.787402
f 72/115/5 13/14/5 41/114/5

vt 25.9843 0
f 13/14/5 72/115/5 48/116/5

vt 0.787402 23.622
vt 0 23.622
f 72/117/2 15/66/2 48/118/2

v 25.9843 27.5591 -0.787402
f 15/66/2 72/117/2 73/21/2

vn 6.37657e-018 -5.708e-018 -1
f 72/72/12 47/74/12 73/75/12

vt -25.1969 23.622
f 47/74/12 72/72/12 45/119/12

vt 25.1969 13.3858
vt 25.1969 0.787402
f 72/115/5 42/120/5 45/121/5

f 42/120/5 72/115/5 41/114/5

vt -0.787402 28.0512
f 47/74/12 32/122/12 73/75/12

v 0.787402 27.5591 -0.787402
f 32/122/12 47/74/12 74/65/12

vt -25.1969 0.787402
vt -0.787402 0
vt -0.787402 0.787402
f 47/123/1 17/124/1 74/125/1

f 17/124/1 47/123/1 16/68/1

vt 0.787402 27.5591
v 0.787402 4.72441 -0.787402
vt 0.787402 4.72441
f 74/126/2 17/66/2 75/127/2

v 0.787402 0 -0.787402
vt 0.787402 0
f 17/66/2 76/128/2 75/127/2

vt 0 2.22045e-016
f 76/128/2 17/66/2 19/129/2

vn 1.40998e-016 -1 1.40998e-016
vt -0.787402 0.787402
vt -0.787402 -1.5654e-032
f 20/12/13 76/130/13 19/131/13

v 0 0 -0.787402
vt 0 0.787402
f 76/130/13 20/12/13 77/132/13

v 0 4.72441 -0.787402
vt -0.787402 4.72441
vt -0.787402 0
f 78/133/4 77/134/4 20/12/4

v 0 3.93701 -0.787402
vt -0.787402 3.93701
f 77/134/4 78/133/4 79/135/4

v 0 4.72441 -13.3858
f 79/135/4 78/133/4 80/104/4

vt 0.787402 0.787402
vt 0 0.787402
f 75/136/5 80/81/5 78/137/5

f 80/81/5 75/136/5 64/45/5

v 0.787402 3.93701 -0.787402
vt 0.787402 3.93701
vt 13.3858 4.72441
f 75/127/2 81/138/2 64/139/2

f 75/127/2 76/128/2 81/138/2

vt -0.787402 4.44089e-017
vn 0 -5.63993e-017 -1
vt 0 3.93701
vt -0.787402 3.93701
f 76/140/14 79/141/14 81/142/14

vt 0 4.44089e-017
f 79/141/14 76/140/14 77/143/14

vt 0 0.787402
vt -0.787402 0.787402
f 79/144/1 57/82/1 81/145/1

v 0 3.93701 -13.3858
f 57/82/1 79/144/1 82/81/1

f 79/135/4 80/104/4 82/89/4

f 80/104/4 22/24/4 82/89/4

v 0 27.5591 -13.3858
f 83/61/4 22/24/4 80/104/4

f 21/23/4 22/24/4 83/61/4

vt 0 0.787402
f 35/82/1 21/146/1 83/81/1

f 21/146/1 35/82/1 74/125/1

vt 13.3858 28.0512
f 31/147/2 74/126/2 35/7/2

vt 0.787402 28.0512
f 74/126/2 31/147/2 32/148/2

vt -0.787402 4.72441
vn 0 -9.72402e-018 -1
f 75/149/15 21/66/15 74/65/15

vt 0 4.72441
f 21/66/15 75/149/15 78/150/15

f 20/12/4 21/23/4 78/133/4

f 80/150/3 35/21/3 83/66/3

f 35/21/3 80/150/3 64/101/3

vt 14.1732 4.72441
vn 1 1.4586e-017 -1.26898e-015
f 51/151/16 35/7/16 64/139/16

f 35/7/16 51/151/16 50/55/16

vt -0.787402 14.1732
f 43/70/1 35/82/1 50/152/1

vt -25.1969 13.3858
f 35/82/1 43/70/1 36/153/1

f 82/89/4 22/24/4 55/88/4

f 55/88/4 22/24/4 54/90/4

f 56/22/3 82/141/3 55/12/3

f 82/141/3 56/22/3 57/99/3

f 64/139/2 81/138/2 57/84/2

vt -38.5827 27.5591
f 73/75/12 32/122/12 2/154/12

vt -38.5827 28.0512
f 2/154/12 32/122/12 33/155/12

vt -13.3858 28.0512
vn -1 -1.80478e-014 -5.36774e-033
vt -0.787402 27.5591
vt -0.787402 28.0512
f 34/156/17 2/157/17 33/158/17

vt -13.3858 27.5591
f 2/157/17 34/156/17 3/159/17

vt -25.9843 0
vt -25.9843 0.787402
f 2/2/1 15/160/1 73/161/1

f 15/160/1 2/2/1 14/69/1

vt -0.787402 27.5591
f 2/162/4 13/118/4 14/66/4

v 38.5827 23.622 -0.787402
vt -0.787402 23.622
f 13/118/4 2/162/4 84/163/4

v 39.3701 23.622 -0.787402
vt -39.3701 23.622
f 2/154/8 85/164/8 84/111/8

vt -39.3701 27.5591
f 85/164/8 2/154/8 4/165/8

vt 0.787402 23.622
f 4/6/2 7/9/2 85/166/2

v 39.3701 22.8346 -13.3858
vt 13.3858 22.8346
f 86/167/2 85/166/2 7/9/2

v 39.3701 23.622 -13.3858
f 85/166/2 86/167/2 87/56/2

vt 14.1732 0
f 86/167/2 62/168/2 87/56/2

v 39.3701 4.72441 -13.3858
vt 13.3858 4.72441
f 88/169/2 62/168/2 86/167/2

v 39.3701 3.93701 -13.3858
f 89/84/2 62/168/2 88/169/2

v 39.3701 0 -13.3858
vt 13.3858 0
f 62/168/2 89/84/2 90/170/2

vt 39.3701 3.93701
vn -2.25597e-015 0 1
vt 38.5827 0
vt 39.3701 0
f 89/171/18 60/172/18 90/173/18

vt 38.5827 3.93701
f 60/172/18 89/171/18 59/174/18

f 89/1/1 66/2/1 59/3/1

v 39.3701 3.93701 -0.787402
f 66/2/1 89/1/1 91/4/1

vt 0.787402 3.93701
f 88/169/2 91/175/2 89/84/2

f 8/10/2 91/175/2 88/169/2

f 8/10/2 9/11/2 91/175/2

vt -39.3701 3.93701
f 9/92/8 66/91/8 91/176/8

f 66/91/8 9/92/8 68/69/8

f 9/4/1 11/69/1 68/2/1

f 11/69/1 9/4/1 10/92/1

vn -5.63993e-016 1 3.52496e-017
vt 39.3701 0.787402
vt 39.3701 13.3858
f 65/48/19 8/177/19 88/178/19

vt 38.5827 0.787402
f 8/177/19 65/48/19 67/179/19

vt -39.3701 4.72441
f 69/73/8 8/180/8 67/94/8

vt -39.3701 22.8346
f 8/180/8 69/73/8 7/181/8

vt -39.3701 0.787402
f 69/108/1 86/1/1 7/182/1

f 86/1/1 69/108/1 70/3/1

vt 39.3701 4.72441
vt 39.3701 22.8346
f 70/16/3 88/183/3 86/184/3

f 88/183/3 70/16/3 65/100/3

vt -39.3701 14.1732
f 60/3/1 62/185/1 90/1/1

f 62/185/1 60/3/1 61/52/1

f 87/56/2 62/168/2 1/7/2

f 5/5/2 1/7/2 62/168/2

vt 39.3701 27.5591
v 38.5827 23.622 -13.3858
vt 39.3701 23.622
f 1/186/3 92/17/3 87/187/3

f 92/17/3 1/186/3 3/18/3

f 38/59/4 92/60/4 3/61/4

vt -14.1732 23.622
f 92/60/4 38/59/4 71/188/4

f 5/93/8 71/111/8 38/154/8

f 5/93/8 38/154/8 22/8/8

f 39/75/8 22/8/8 38/154/8

vt 38.5827 0.787402
f 71/113/5 84/189/5 92/48/5

f 71/113/5 13/14/5 84/189/5

vt 39.3701 0.787402
f 85/190/5 92/48/5 84/189/5

f 92/48/5 85/190/5 87/178/5

f 16/20/3 48/58/3 15/19/3

g Mesh2 Group2 IKEA_Vittsj__Laptop_Table1 Model

usemtl Translucent_Glass_Blue
vt 38.5827 0.0984252
vn -2.87752e-018 0 1
v 0.393701 28.248 -0.393701
vt -3.19469e-034 0
v 38.9764 28.248 -0.393701
f 24/191/20 93/192/20 94/14/20

vt -3.19469e-034 0.0984252
f 93/192/20 24/191/20 23/193/20

vt 0 1.11022e-016
f 24/14/5 26/81/5 23/194/5

f 26/81/5 24/14/5 25/48/5

vt 0 0.0984252
v 38.9764 28.248 -13.7795
vt 13.3858 0.0984252
f 24/195/2 95/170/2 25/196/2

f 95/170/2 24/195/2 94/12/2

f 93/194/1 95/3/1 94/69/1

v 0.393701 28.248 -13.7795
f 95/3/1 93/194/1 96/81/1

vt -1.11022e-016 0
vt -13.3858 0.0984252
f 93/197/4 26/198/4 96/88/4

vt -1.11022e-016 0.0984252
f 26/198/4 93/197/4 23/199/4

f 26/195/8 95/69/8 96/12/8

vt -38.5827 0.0984252
f 95/69/8 26/195/8 25/200/8

