# Alias OBJ Model File
# Exported from SketchUp, (c) 2000-2006 Google, Inc.
# File units = inches

mtllib boksel_table_1_obj0_object.mtl

g Mesh1 Model

usemtl Color_008
v 30.4778 0 -41.6815
vt -30.4778 41.6815
vn 0 -1 -0
v 31.9286 0 -27.0565
vt -31.9286 27.0565
v 30.4778 0 -26.3065
vt -30.4778 26.3065
f 1/1/1 2/2/1 3/3/1

v 85.2278 0 -41.6815
vt -85.2278 41.6815
f 2/2/1 1/1/1 4/4/1

usemtl black
v 30.4778 24.375 -41.6815
vt -30.4778 24.375
vn 0 0 -1
vt -85.2278 0
vt -30.4778 0
f 5/5/2 4/6/2 1/7/2

v 85.2278 24.375 -41.6815
vt -85.2278 24.375
f 4/6/2 5/5/2 6/8/2

usemtl Color_008
vt 30.4778 41.6815
vn 0 1 -0
v 85.2278 24.375 -26.3065
vt 85.2278 26.3065
vt 85.2278 41.6815
f 5/9/3 7/10/3 6/11/3

v 30.4778 24.375 -26.3065
vt 30.4778 26.3065
f 7/10/3 5/9/3 8/12/3

usemtl black
vt -41.6815 24.375
vn -1 0 -0
vt -26.3065 0
vt -26.3065 24.375
f 5/13/4 3/14/4 8/15/4

vt -41.6815 0
f 3/14/4 5/13/4 1/16/4

usemtl Color_008
vt 30.4778 0
vn 0 0 1
v 31.9286 1.75 -26.3065
vt 31.9286 1.75
vt 30.4778 24.375
f 3/17/5 9/18/5 8/19/5

v 31.9286 0 -26.3065
vt 31.9286 0
f 9/18/5 3/17/5 10/20/5

vt -31.9286 26.3065
f 10/21/1 3/3/1 2/2/1

usemtl black
vt 27.0565 0
vn 1 0 -0
vt 26.3065 1.75
vt 26.3065 0
f 2/22/6 9/23/6 10/24/6

v 31.9286 1.75 -27.0565
vt 27.0565 1.75
f 9/23/6 2/22/6 11/25/6

usemtl Color_008
v 83.9911 1.75 -27.0565
vt 83.9911 1.75
f 2/20/5 12/26/5 11/18/5

v 83.9911 0 -27.0565
vt 83.9911 0
f 12/26/5 2/20/5 13/27/5

vt -83.9911 27.0565
f 2/2/1 4/4/1 13/28/1

v 83.9911 0 -26.3065
vt -83.9911 26.3065
f 13/28/1 4/4/1 14/29/1

v 85.2278 0 -26.3065
vt -85.2278 26.3065
f 14/29/1 4/4/1 15/30/1

usemtl black
vt 41.6815 0
vt 26.3065 24.375
f 4/31/6 7/32/6 15/24/6

vt 41.6815 24.375
f 7/32/6 4/31/6 6/33/6

usemtl Color_008
vt 85.2278 24.375
vt 85.2278 0
f 7/34/5 14/27/5 15/35/5

v 83.9911 1.75 -26.3065
f 14/27/5 7/34/5 16/26/5

v 84.3339 12.8607 -26.3065
vt 84.3339 12.8607
f 16/26/5 7/34/5 17/36/5

v 84.3339 17.6107 -26.3065
vt 84.3339 17.6107
f 17/36/5 7/34/5 18/37/5

v 84.3339 17.8607 -26.3065
vt 84.3339 17.8607
f 18/37/5 7/34/5 19/38/5

v 84.3339 22.8607 -26.3065
vt 84.3339 22.8607
f 19/38/5 7/34/5 20/39/5

v 58.9589 22.8607 -26.3065
vt 58.9589 22.8607
f 20/39/5 7/34/5 21/40/5

f 8/19/5 21/40/5 7/34/5

v 32.1686 22.8131 -26.3065
vt 32.1686 22.8131
f 8/19/5 22/41/5 21/40/5

v 32.1686 17.8131 -26.3065
vt 32.1686 17.8131
f 8/19/5 23/42/5 22/41/5

v 32.1686 17.5631 -26.3065
vt 32.1686 17.5631
f 8/19/5 24/43/5 23/42/5

v 32.1686 12.8131 -26.3065
vt 32.1686 12.8131
f 8/19/5 25/44/5 24/43/5

f 8/19/5 9/18/5 25/44/5

v 57.5436 12.8131 -26.3065
vt 57.5436 12.8131
f 25/44/5 9/18/5 26/45/5

f 9/18/5 17/36/5 26/45/5

f 16/26/5 17/36/5 9/18/5

f 9/21/1 12/28/1 16/29/1

f 12/28/1 9/21/1 11/2/1

usemtl black
vt -27.0565 1.75
vt -26.3065 1.75
f 12/46/4 14/14/4 16/47/4

vt -27.0565 0
f 14/14/4 12/46/4 13/48/4

usemtl Color_008
v 58.9589 12.8607 -26.3065
vt 58.9589 12.8607
f 27/49/5 26/45/5 17/36/5

v 57.5436 17.5631 -26.3065
vt 57.5436 17.5631
f 26/45/5 27/49/5 28/50/5

v 58.9589 17.6107 -26.3065
vt 58.9589 17.6107
f 28/50/5 27/49/5 29/51/5

usemtl FrontColor
v 58.9589 17.6107 -32.494
vt -32.494 17.6107
vt -26.3065 12.8607
vt -26.3065 17.6107
f 30/52/4 27/53/4 29/54/4

v 58.9589 12.8607 -32.494
vt -32.494 12.8607
f 27/53/4 30/52/4 31/55/4

vt -58.9589 17.6107
v 84.3339 12.8607 -32.494
vt -84.3339 12.8607
vt -58.9589 12.8607
f 30/56/2 32/57/2 31/58/2

v 84.3339 17.6107 -32.494
vt -84.3339 17.6107
f 32/57/2 30/56/2 33/59/2

v 58.9589 17.8607 -32.494
vt -58.9589 17.8607
f 34/60/2 33/59/2 30/56/2

v 84.3339 17.8607 -32.494
vt -84.3339 17.8607
f 33/59/2 34/60/2 35/61/2

v 58.9589 22.8607 -32.494
vt -58.9589 22.8607
f 35/61/2 34/60/2 36/62/2

usemtl Translucent_Resin_Crush_Gray
vt 4.91324 2.70784
vt 7.02782 2.19221
vt 7.02782 2.70784
f 34/63/3 19/64/3 35/65/3

v 58.9589 17.8607 -26.3065
vt 4.91324 2.19221
f 19/64/3 34/63/3 37/66/3

vt 4.91324 1.46756
vt 7.02782 1.4884
vt 4.91324 1.4884
f 29/67/5 19/68/5 37/69/5

vt 7.02782 1.46756
f 19/68/5 29/67/5 18/70/5

vt -4.91324 2.19221
vt -7.02782 2.70784
vt -7.02782 2.19221
f 29/71/1 33/72/1 18/73/1

vt -4.91324 2.70784
f 33/72/1 29/71/1 30/74/1

usemtl FrontColor
vt -32.494 22.8607
f 29/54/4 36/75/4 30/52/4

vt -26.3065 17.8607
f 37/76/4 36/75/4 29/54/4

vt -26.3065 22.8607
f 36/75/4 37/76/4 21/77/4

usemtl Color_008
v 57.5436 22.8131 -26.3065
vt 57.5436 22.8131
vt 58.9589 17.8607
f 38/78/5 37/79/5 21/40/5

v 57.5436 17.8131 -26.3065
vt 57.5436 17.8131
f 39/80/5 37/79/5 38/78/5

f 39/80/5 29/51/5 37/79/5

f 28/50/5 29/51/5 39/80/5

vt -26.3065 17.8131
v 57.5436 22.8131 -32.494
vt -32.494 22.8131
vt -26.3065 17.5631
f 39/81/4 40/82/4 28/83/4

vt -26.3065 22.8131
f 40/82/4 39/81/4 38/84/4

usemtl _Charcoal_
vt -32.1686 26.3065
vt -57.5436 32.494
vt -57.5436 26.3065
f 22/85/1 40/86/1 38/87/1

v 32.1686 22.8131 -32.494
vt -32.1686 32.494
f 40/86/1 22/85/1 41/88/1

usemtl Color_008
vt 26.3065 22.8131
v 32.1686 17.5631 -32.494
vt 32.494 17.5631
vt 32.494 22.8131
f 22/89/6 42/90/6 41/91/6

vt 26.3065 17.8131
f 23/92/6 42/90/6 22/89/6

vt 26.3065 17.5631
f 42/90/6 23/92/6 24/93/6

usemtl Translucent_Resin_Crush_Gray
vt 2.68072 1.4636
vt 4.7953 1.48443
vt 2.68072 1.48443
f 24/94/5 39/95/5 23/96/5

vt 4.7953 1.4636
f 39/95/5 24/94/5 28/97/5

v 34.6646 17.8131 -28.4315
vt 2.88871 2.36929
vt 2.68072 2.19221
vt 4.7953 2.19221
f 43/98/3 23/99/3 39/100/3

v 32.1686 17.8131 -32.494
vt 2.68072 2.70784
f 23/99/3 43/98/3 44/101/3

v 34.6646 17.8131 -32.494
vt 2.88871 2.70784
f 45/102/3 44/101/3 43/98/3

v 35.4771 17.8131 -28.4315
vt 2.95642 2.36929
f 43/98/3 39/100/3 46/103/3

v 35.4771 17.8131 -32.494
vt 2.95642 2.70784
f 46/103/3 39/100/3 47/104/3

v 57.5436 17.8131 -32.494
vt 4.7953 2.70784
f 47/104/3 39/100/3 48/105/3

usemtl Color_008
v 32.1686 12.8131 -32.494
vt 32.494 12.8131
f 24/93/6 49/106/6 42/90/6

vt 26.3065 12.8131
f 49/106/6 24/93/6 25/107/6

vt 57.5436 26.3065
vt 32.1686 32.494
vt 32.1686 26.3065
f 26/108/3 49/109/3 25/110/3

v 57.5436 12.8131 -32.494
vt 57.5436 32.494
f 49/109/3 26/108/3 50/111/3

vt -26.3065 12.8131
v 57.5436 17.5631 -32.494
vt -32.494 17.5631
vt -32.494 12.8131
f 26/112/4 51/113/4 50/114/4

f 51/113/4 26/112/4 28/83/4

f 28/83/4 40/82/4 51/113/4

vt -32.494 17.8131
f 51/113/4 40/82/4 48/115/4

f 44/42/5 48/80/5 40/78/5

f 42/43/5 48/80/5 44/42/5

f 48/80/5 42/43/5 51/50/5

f 49/44/5 51/50/5 42/43/5

f 51/50/5 49/44/5 50/45/5

vt 32.494 17.8131
f 41/91/6 42/90/6 44/116/6

f 44/42/5 40/78/5 41/41/5

f 38/78/5 21/40/5 22/41/5

usemtl _Charcoal_
v 84.3339 22.8607 -32.494
vt -84.3339 32.494
vt -58.9589 26.3065
vt -58.9589 32.494
f 52/117/1 21/118/1 36/119/1

vt -84.3339 26.3065
f 21/118/1 52/117/1 20/120/1

usemtl FrontColor
vt 26.3065 22.8607
vt 32.494 17.6107
vt 32.494 22.8607
f 20/121/6 33/122/6 52/123/6

vt 26.3065 17.8607
f 19/124/6 33/122/6 20/121/6

vt 26.3065 17.6107
f 33/122/6 19/124/6 18/125/6

vt 32.494 12.8607
f 18/125/6 32/126/6 33/122/6

vt 26.3065 12.8607
f 32/126/6 18/125/6 17/127/6

usemtl Color_008
vt 58.9589 32.494
vt 84.3339 26.3065
vt 84.3339 32.494
f 31/128/3 17/129/3 32/130/3

vt 58.9589 26.3065
f 17/129/3 31/128/3 27/131/3

usemtl FrontColor
vt 32.494 17.8607
f 52/123/6 33/122/6 35/132/6

vt -84.3339 22.8607
f 35/61/2 36/62/2 52/133/2

vt -32.494 17.8607
f 30/52/4 36/75/4 34/134/4

