# Alias OBJ Model File
# Exported from SketchUp, (c) 2000-2006 Google, Inc.
# File units = millimeters

mtllib b0f12854a8e0c723bd1f60c111786ed_obj0_object.mtl

g Mesh1 Model

usemtl Material5
v 0 275 -970
vt -25.2081 2.75
vn 0 0 -1
v 600 225 -970
vt -32.3192 2.25
v 0 225 -970
vt -25.2081 2.25
f 1/1/1 2/2/1 3/3/1

v 600 275 -970
vt -32.3192 2.75
f 2/2/1 1/1/1 4/4/1

vt 25.2081 24.2573
vn 0 1 -0
v 600 275 -0
vt 32.3192 14.5573
vt 32.3192 24.2573
f 1/5/2 5/6/2 4/7/2

v 0 275 -0
vt 25.2081 14.5573
f 5/6/2 1/5/2 6/8/2

vt -28.7494 2.75
vn -1 0 -0
v 0 225 -0
vt -17.2531 2.25
vt -17.2531 2.75
f 1/9/3 7/10/3 6/11/3

vt -28.7494 2.25
f 7/10/3 1/9/3 3/12/3

usemtl HMI_Brushed_Alum1
v 0 205 -20
vt -0.787402 8.07087
vt 0 8.85827
vt -38.189 8.85827
f 8/13/3 7/14/3 3/15/3

v 0 0 -0
vt 0 0
f 7/14/3 8/13/3 9/16/3

v 0 0 -20
vt -0.787402 0
f 10/17/3 9/16/3 8/13/3

usemtl FrontColor
v 20 0 -20
vt -0.787402 0.787402
vn 0 -1 -0
vt 0 0.787402
f 11/18/4 9/16/4 10/19/4

v 20 0 -0
vt -0.787402 0
f 9/16/4 11/18/4 12/20/4

usemtl HMI_Brushed_Alum1
vt 0.787402 0
vn 1 0 -0
v 20 205 -0
vt 0 8.07087
f 11/21/5 13/22/5 12/16/5

v 20 205 -20
vt 0.787402 8.07087
f 13/22/5 11/21/5 14/23/5

vt -0.787402 8.07087
f 11/20/1 8/22/1 14/24/1

f 8/22/1 11/20/1 10/16/1

v 20 205 -950
vt -0.787402 37.4016
f 8/19/4 15/25/4 14/18/4

v 0 205 -950
vt 0 37.4016
f 15/25/4 8/19/4 16/26/4

vt -37.4016 8.07087
f 8/13/3 3/15/3 16/27/3

v 0 0 -950
vt -37.4016 0
f 16/27/3 3/15/3 17/28/3

v 0 0 -970
vt -38.189 0
f 17/28/3 3/15/3 18/29/3

v 20 0 -970
f 3/14/1 19/20/1 18/16/1

v 20 205 -970
f 19/20/1 3/14/1 20/24/1

v 580 205 -970
vt -22.8346 8.07087
f 20/24/1 3/14/1 21/30/1

vt -23.622 8.85827
f 2/31/1 21/30/1 3/14/1

v 600 0 -970
vt -23.622 0
f 22/32/1 21/30/1 2/31/1

v 580 0 -970
vt -22.8346 0
f 21/30/1 22/32/1 23/33/1

usemtl FrontColor
vt -23.622 38.189
v 580 0 -950
vt -22.8346 37.4016
vt -22.8346 38.189
f 22/34/4 24/35/4 23/36/4

v 600 0 -950
vt -23.622 37.4016
f 24/35/4 22/34/4 25/37/4

usemtl HMI_Brushed_Alum1
vt 38.189 0
v 600 205 -950
vt 37.4016 8.07087
vt 37.4016 0
f 22/38/5 26/39/5 25/40/5

vt 38.189 8.85827
f 2/41/5 26/39/5 22/38/5

v 600 205 -20
f 2/41/5 27/23/5 26/39/5

v 600 225 -0
f 28/14/5 27/23/5 2/41/5

v 600 0 -20
f 28/14/5 29/21/5 27/23/5

v 600 0 -0
f 29/21/5 28/14/5 30/16/5

vt 23.622 8.85827
vn 0 0 1
v 580 0 -0
vt 22.8346 0
vt 23.622 0
f 28/42/6 31/43/6 30/44/6

v 580 205 -0
vt 22.8346 8.07087
f 31/43/6 28/42/6 32/45/6

vt 0.787402 8.07087
f 32/45/6 28/42/6 13/46/6

f 7/14/6 13/46/6 28/42/6

f 9/16/6 13/46/6 7/14/6

vt 0.787402 0
f 13/46/6 9/16/6 12/47/6

usemtl FrontColor
v 20 225 -20
vt 0.787402 0.787402
f 33/48/2 7/16/2 28/44/2

vt 0 38.189
f 7/16/2 33/48/2 3/49/2

v 20 225 -950
vt 0.787402 37.4016
f 34/50/2 3/49/2 33/48/2

vt 23.622 38.189
f 3/49/2 34/50/2 2/51/2

v 580 225 -950
vt 22.8346 37.4016
f 2/51/2 34/50/2 35/52/2

usemtl HMI_Brushed_Alum1
vt 22.8346 8.85827
vt 0.787402 8.85827
f 15/46/6 35/53/6 34/54/6

v 580 205 -950
f 35/53/6 15/46/6 36/45/6

f 15/25/4 21/36/4 36/35/4

vt -0.787402 38.189
f 21/36/4 15/25/4 20/55/4

usemtl FrontColor
vt 38.189 8.07087
f 15/39/5 19/38/5 20/56/5

v 20 0 -950
f 19/38/5 15/39/5 37/40/5

usemtl HMI_Brushed_Alum1
f 15/46/6 17/16/6 37/47/6

f 17/16/6 15/46/6 16/22/6

f 17/26/4 19/55/4 37/25/4

f 19/55/4 17/26/4 18/49/4

vt -38.189 8.07087
f 21/57/3 24/28/3 36/27/3

f 24/28/3 21/57/3 23/29/3

vt 23.622 8.07087
f 24/43/6 26/58/6 36/45/6

f 26/58/6 24/43/6 25/44/6

v 580 205 -20
vt -22.8346 0.787402
f 26/37/4 38/59/4 36/35/4

vt -23.622 0.787402
f 38/59/4 26/37/4 27/60/4

vt -23.622 8.07087
f 29/32/1 38/30/1 27/61/1

v 580 0 -20
f 38/30/1 29/32/1 39/33/1

usemtl FrontColor
f 29/60/4 31/33/4 39/59/4

f 31/33/4 29/60/4 30/32/4

f 31/16/3 38/13/3 39/17/3

f 38/13/3 31/16/3 32/22/3

usemtl HMI_Brushed_Alum1
f 13/20/4 38/59/4 32/33/4

f 38/59/4 13/20/4 14/18/4

vt -0.787402 8.85827
f 33/62/1 38/30/1 14/24/1

v 580 225 -20
vt -22.8346 8.85827
f 38/30/1 33/62/1 40/63/1

usemtl FrontColor
vt 22.8346 0.787402
f 33/48/2 28/44/2 40/64/2

f 40/64/2 28/44/2 35/52/2

f 2/51/2 35/52/2 28/44/2

usemtl Material5
vt 28.7494 2.25
vt 17.2531 2.75
vt 17.2531 2.25
f 2/65/5 5/66/5 28/67/5

vt 28.7494 2.75
f 5/66/5 2/65/5 4/68/5

vt 32.3192 2.75
vt 25.2081 2.25
vt 32.3192 2.25
f 5/69/6 7/70/6 28/71/6

vt 25.2081 2.75
f 7/70/6 5/69/6 6/72/6

usemtl HMI_Brushed_Alum1
vt -37.4016 8.85827
vt -0.787402 8.85827
f 35/73/3 38/13/3 40/74/3

f 38/13/3 35/73/3 36/27/3

vt 0.787402 8.85827
f 15/39/5 33/75/5 14/23/5

vt 37.4016 8.85827
f 33/75/5 15/39/5 34/76/5

