# Alias OBJ Model File
# Exported from SketchUp, (c) 2000-2006 Google, Inc.
# File units = millimeters

mtllib fd621b2c1bdd8fbbab40048b8ab8e8f_obj0_object.mtl

g Mesh1 leg1 tableleg1 KLUBBO1 Model

usemtl Metal_Seamed
v 20 0 -20
vt -0.0437445 0.0437445
vn 0 -1 -0
v 0 0 -0
vt 0 0
v 0 0 -20
vt 0 0.0437445
f 1/1/1 2/2/1 3/3/1

v 20 0 -0
vt -0.0437445 0
f 2/2/1 1/1/1 4/4/1

vt 0.0437445 0
vn 1 0 -0
v 20 320 -0
vt 0 0.699913
f 1/5/2 5/6/2 4/2/2

v 20 300 -20
vt 0.0437445 0.656168
f 5/6/2 1/5/2 6/7/2

vt -0.0437445 -2.87836e-018
vn 0 6.57992e-017 -1
v 0 300 -20
vt 0 0.656168
vt -0.0437445 0.656168
f 1/8/3 7/9/3 6/10/3

vt 0 -2.87836e-018
f 7/9/3 1/8/3 3/11/3

vn -1 0 -0
vt -0.0437445 0.656168
f 3/4/4 2/2/4 7/12/4

v 0 320 -0
f 8/6/4 7/12/4 2/2/4

v 0 320 -780
vt -1.70604 0.699913
f 7/12/4 8/6/4 9/13/4

vn 0 1 -0
vt 0 1.70604
f 5/5/5 9/14/5 8/2/5

v 20 320 -780
vt 0.0437445 1.70604
f 9/14/5 5/5/5 10/15/5

vt 1.70604 0.699913
f 6/7/2 10/16/2 5/6/2

v 20 300 -760
vt 1.66229 0.656168
f 10/16/2 6/7/2 11/17/2

vt 0 0.0437445
vt -0.0437445 1.66229
vt -0.0437445 0.0437445
f 7/18/1 11/19/1 6/20/1

v 0 300 -760
vt 0 1.66229
f 11/19/1 7/18/1 12/21/1

vt -1.66229 0.656168
f 7/12/4 9/13/4 12/22/4

v 0 0 -760
vt -1.66229 0
f 12/22/4 9/13/4 13/23/4

v 0 0 -780
vt -1.70604 0
f 13/23/4 9/13/4 14/24/4

vt -7.69755e-015 0.699913
vn -4.51195e-015 0 -1
v 20 0 -780
vt -0.0437445 0
vt -7.69755e-015 0
f 9/25/6 15/26/6 14/27/6

vt -0.0437445 0.699913
f 15/26/6 9/25/6 10/28/6

vt 1.70604 0
f 10/16/2 11/17/2 15/29/2

v 20 0 -760
vt 1.66229 0
f 15/29/2 11/17/2 16/30/2

vt 0.0437445 0.656168
vn 0 0 1
f 11/31/7 13/2/7 16/5/7

f 13/2/7 11/31/7 12/9/7

vt -0.0437445 1.70604
f 13/21/1 15/32/1 16/19/1

f 15/32/1 13/21/1 14/14/1

vt 0.0437445 0.699913
f 2/2/7 5/33/7 8/6/7

f 5/33/7 2/2/7 4/5/7

g Mesh2 leg2 tableleg1 KLUBBO1 Model

usemtl _Metal_Seamed_1
v 780 0 -20
v 760 0 -0
v 760 0 -20
f 17/1/1 18/2/1 19/3/1

v 780 0 -0
f 18/2/1 17/1/1 20/4/1

v 780 320 -0
f 17/5/2 21/6/2 20/2/2

v 780 300 -20
f 21/6/2 17/5/2 22/7/2

v 760 300 -20
f 17/8/3 23/9/3 22/10/3

f 23/9/3 17/8/3 19/11/3

f 19/4/4 18/2/4 23/12/4

v 760 320 -0
f 24/6/4 23/12/4 18/2/4

v 760 320 -780
f 23/12/4 24/6/4 25/13/4

f 21/5/5 25/14/5 24/2/5

v 780 320 -780
f 25/14/5 21/5/5 26/15/5

f 22/7/2 26/16/2 21/6/2

v 780 300 -760
f 26/16/2 22/7/2 27/17/2

f 23/18/1 27/19/1 22/20/1

v 760 300 -760
f 27/19/1 23/18/1 28/21/1

f 23/12/4 25/13/4 28/22/4

v 760 0 -760
f 28/22/4 25/13/4 29/23/4

v 760 0 -780
f 29/23/4 25/13/4 30/24/4

v 780 0 -780
f 25/25/6 31/26/6 30/27/6

f 31/26/6 25/25/6 26/28/6

f 26/16/2 27/17/2 31/29/2

v 780 0 -760
f 31/29/2 27/17/2 32/30/2

f 27/31/7 29/2/7 32/5/7

f 29/2/7 27/31/7 28/9/7

f 29/21/1 31/32/1 32/19/1

f 31/32/1 29/21/1 30/14/1

f 18/2/7 21/33/7 24/6/7

f 21/33/7 18/2/7 20/5/7

g Mesh3 tableleg1 KLUBBO1 Model

usemtl Metal_Seamed
v 20 320 -20
vt -0.0437445 0.699913
v 20 300 -0
f 33/34/4 34/9/4 5/6/4

f 34/9/4 33/34/4 6/12/4

vt -0.0437445 0.699913
vn -8.85257e-034 8.4599e-016 -1
f 33/35/8 23/22/8 6/10/8

v 760 320 -20
vt -1.66229 0.699913
f 23/22/8 33/35/8 35/36/8

vt 0.0437445 0.0437445
vt 1.66229 0.0437445
f 33/37/5 24/30/5 35/38/5

f 24/30/5 33/37/5 5/5/5

vt 1.66229 0.699913
f 34/31/7 24/39/7 5/33/7

v 760 300 -0
f 24/39/7 34/31/7 36/17/7

vt -1.66229 0.0437445
f 34/4/1 23/40/1 36/23/1

f 23/40/1 34/4/1 6/20/1

f 23/7/2 24/6/2 36/9/2

vt 0.0437445 0.699913
f 24/6/2 23/7/2 35/41/2

g Mesh4 tableleg1 KLUBBO1 Model

v 20 320 -780
v 20 320 -760
f 37/13/4 11/22/4 38/36/4

v 20 300 -780
vt -1.70604 0.656168
f 11/22/4 37/13/4 39/42/4

vt -0.0437445 0.699913
v 760 300 -780
vt -1.66229 0.656168
vt -0.0437445 0.656168
f 37/43/8 40/44/8 39/45/8

vt -1.66229 0.699913
f 40/44/8 37/43/8 25/46/8

v 760 320 -760
vt 1.66229 1.66229
vt 1.66229 1.70604
f 37/15/5 41/47/5 25/48/5

vt 0.0437445 1.66229
f 41/47/5 37/15/5 38/49/5

f 11/31/7 41/39/7 38/33/7

f 41/39/7 11/31/7 28/17/7

vt -1.66229 1.70604
vt -1.66229 1.66229
f 11/19/1 40/50/1 28/51/1

f 40/50/1 11/19/1 39/32/1

vt 1.70604 0.656168
f 40/52/2 41/39/2 28/17/2

f 41/39/2 40/52/2 25/16/2

g Mesh5 tabletop1 KLUBBO1 Model

usemtl tablewood
v 780 370 -780
vt -1 1
v 0 370 -0
v 0 370 -780
vt 0 1
f 42/53/1 43/2/1 44/54/1

v 780 370 -0
vt -1 0
f 43/2/1 42/53/1 45/55/1

vt -1 0.0641026
vt 0 0.0641026
f 42/56/4 21/2/4 45/57/4

v 780 320 -780
vt -1 0
f 21/2/4 42/56/4 46/58/4

vt 1 0.0641026
v 0 320 -780
vt 1 0
f 42/59/7 47/2/7 46/60/7

f 47/2/7 42/59/7 44/57/7

vt 1 0
vt 1 0.0641026
f 43/57/2 47/61/2 44/62/2

f 47/61/2 43/57/2 8/2/2

vn 0 0 -1
f 43/57/9 21/55/9 8/2/9

vt -1 0.0641026
f 21/55/9 43/57/9 45/63/9

f 21/60/5 47/54/5 8/2/5

vt 1 1
f 47/54/5 21/60/5 46/64/5

