# Alias OBJ Model File
# Exported from SketchUp, (c) 2000-2006 Google, Inc.
# File units = inches

mtllib a54de0e6573dabc0ac42b9d8db52fc14_obj0_object.mtl

g Mesh1 Model

usemtl dark_wood
v 45.9879 10.3918 -22.9498
vt 1.57225 0.131907
vn 1 -1.97486e-014 -0.0009934
v 46.0106 11.1114 -0.074821
vt 1.25454 0.141901
v 46.0106 10.3918 -0.074821
vt 1.25454 0.131907
f 1/1/1 2/2/1 3/3/1

v 45.9879 11.1114 -22.9498
vt 1.57225 0.141901
f 2/2/1 1/1/1 4/4/1

vt -1.549 0.13191
vn -0.000993524 -2.00887e-006 -1
v 0.881522 11.1114 -22.905
vt -0.922527 0.141905
vt -1.549 0.141905
f 1/5/2 5/6/2 4/7/2

v 0.881522 10.3918 -22.905
vt -0.922527 0.13191
f 5/6/2 1/5/2 6/8/2

v 0.881522 10.3918 -0.0299897
vt -0.920965 1.25546
vn 0 -1 -0
vt -0.920965 1.57317
vt -1.54744 1.57379
f 7/9/3 6/10/3 1/11/3

v 0.858798 10.3918 -22.905
vt -0.920649 1.57317
f 6/10/3 7/9/3 8/12/3

vt -1.25454 0.131907
vn -1 0 0.0009934
v 0.858798 11.1114 -22.905
vt -1.57225 0.141901
vt -1.57225 0.131907
f 7/13/4 9/14/4 8/15/4

v 0.881522 11.1114 -0.0299897
vt -1.25454 0.141901
f 9/14/4 7/13/4 10/16/4

vt 1.25546 0.131907
vn 1 4.01125e-011 -1.22541e-010
v 0.881522 0.114806 -22.905
vt 1.57317 -0.0108293
vt 1.25546 0.141901
f 7/17/5 11/18/5 10/19/5

v 0.881522 0.114806 -0.0299897
vt 1.25546 -0.0108293
f 11/18/5 7/17/5 12/20/5

vt 0.920965 0.131907
vn 0 0 1
v 0.131522 0.114806 -0.0299897
vt 0.910548 -0.0108293
vt 0.920965 -0.0108293
f 7/21/6 13/22/6 12/23/6

v 0.131522 17.1148 -0.0299897
vt 0.910548 0.225282
f 13/22/6 7/21/6 14/24/6

vt 0.920965 0.141901
f 14/24/6 7/21/6 10/25/6

vt 0.922211 0.131907
vn 0.0009934 -1.02238e-017 1
vt 1.549 0.141901
vt 0.922211 0.141901
f 7/26/7 2/27/7 10/28/7

vt 1.549 0.131907
f 2/27/7 7/26/7 3/29/7

vt -1.54776 1.25608
f 7/9/3 1/11/3 3/30/3

vt -1.25608 0.141901
vn -1 7.17284e-017 1.5178e-016
v 46.0106 17 -22.9498
vt -1.57379 0.223687
vt -1.25608 0.131907
f 2/31/8 15/32/8 3/33/8

v 46.0106 17 -0.074821
vt -1.25608 0.223687
f 15/32/8 2/31/8 16/34/8

vt 1.54776 0.141901
v 46.7606 17 -0.074821
vt 1.55817 0.223687
vt 1.54776 0.223687
f 2/35/6 17/36/6 16/37/6

vt 1.54776 0.131907
f 3/38/6 17/36/6 2/35/6

v 46.0106 0 -0.074821
vt 1.54776 -0.0124238
f 18/39/6 17/36/6 3/38/6

v 46.7606 0 -0.074821
vt 1.55817 -0.0124238
f 17/36/6 18/39/6 19/40/6

v 46.7606 0 -22.9498
vt -1.55817 1.57379
vt -1.55817 1.25608
f 18/30/3 20/41/3 19/42/3

v 46.0106 0 -22.9498
vt -1.54776 1.57379
f 20/41/3 18/30/3 21/43/3

vt -1.25608 -0.0124238
vt -1.57379 -0.0124238
f 18/44/8 15/32/8 21/45/8

f 3/33/8 15/32/8 18/44/8

vt -1.54776 0.223687
vn 1.8735e-016 0 -1
vt -1.55817 -0.0124238
vt -1.54776 -0.0124238
f 15/46/9 20/47/9 21/48/9

v 46.7606 17 -22.9498
vt -1.55817 0.223687
f 20/47/9 15/46/9 22/49/9

vt 1.54776 1.57379
vn 0 1 -0
vt 1.55817 1.25608
vt 1.55817 1.57379
f 15/50/10 17/51/10 22/52/10

vt 1.54776 1.25608
f 17/51/10 15/50/10 16/53/10

vt 1.25608 0.223687
vn 1 0 1.8735e-016
vt 1.57379 -0.0124238
vt 1.57379 0.223687
f 17/54/11 20/55/11 22/56/11

vt 1.25608 -0.0124238
f 20/55/11 17/54/11 19/57/11

v 23.2438 11.1109 -0.0625
vt 1.23155 1.25591
vn 1.84979e-006 1 8.30144e-007
vt 0.920964 1.25546
vt 1.54776 1.25608
f 23/58/12 10/59/12 2/60/12

v 22.4938 11.1109 -0.0625
vt 1.22114 1.25591
f 10/59/12 23/58/12 24/61/12

vt 1.23155 1.25591
vn 5.36523e-009 1 1.08017e-005
v 22.4938 11.1112 -22.864
vt 1.22114 1.5726
vt 1.22114 1.25591
f 23/62/13 25/63/13 24/64/13

v 23.2438 11.1112 -22.8647
vt 1.23155 1.57261
f 25/63/13 23/62/13 26/65/13

vt -1.25591 0.141897
vn -1 2.11831e-006 5.41374e-007
v 23.2438 16.9859 -22.875
vt -1.57275 0.223494
vt -1.57261 0.141901
f 23/66/14 27/67/14 26/68/14

v 23.2438 16.9859 -0.0625
vt -1.25591 0.223494
f 27/67/14 23/66/14 28/69/14

vt -1.23155 0.141895
vn 0 0 -1
v 22.4938 16.9859 -0.0625
vt -1.22114 0.223492
vt -1.23155 0.223492
f 23/70/15 29/71/15 28/72/15

vt -1.22114 0.141895
f 29/71/15 23/70/15 24/73/15

vt 1.57259 0.141901
vn 1 -2.11837e-006 -5.41352e-007
vt 1.25591 0.223494
vt 1.25591 0.141897
f 25/74/16 29/75/16 24/76/16

v 22.4938 16.9859 -22.875
vt 1.57275 0.223494
f 29/75/16 25/74/16 30/77/16

v 22.4938 11.1109 -22.875
vt 1.57275 0.141897
f 30/77/16 25/74/16 31/78/16

v 23.2438 11.1109 -22.875
f 30/71/15 32/70/15 31/73/15

f 32/70/15 30/71/15 27/72/15

vt -1.23155 1.57275
vt -1.22114 1.25591
vt -1.22114 1.57275
f 27/79/3 29/80/3 30/81/3

vt -1.23155 1.25591
f 29/80/3 27/79/3 28/82/3

v 47 16.9859 -23
vt -1.5615 1.57448
f 27/79/3 33/83/3 28/82/3

f 30/81/3 33/83/3 27/79/3

v 0 16.9859 -23
vt -0.908721 1.57448
f 30/81/3 34/84/3 33/83/3

v 0 16.9859 -0
vt -0.908721 1.25504
f 34/84/3 30/81/3 35/85/3

f 29/80/3 35/85/3 30/81/3

v 47 16.9859 -0
vt -1.5615 1.25504
f 35/85/3 29/80/3 36/86/3

f 36/86/3 29/80/3 28/82/3

f 36/86/3 28/82/3 33/83/3

vt 1.57448 0.223492
vn 1 0 -0
v 47 17.7359 -0
vt 1.25504 0.233908
vt 1.25504 0.223492
f 33/87/17 37/88/17 36/89/17

v 47 17.7359 -23
vt 1.57448 0.233908
f 37/88/17 33/87/17 38/90/17

vt -1.5615 0.223492
v 0 17.7359 -23
vt -0.908721 0.233908
vt -1.5615 0.233908
f 33/91/15 39/92/15 38/93/15

vt -0.908721 0.223492
f 39/92/15 33/91/15 34/94/15

vt -1.25504 0.223492
vn -1 0 -0
vt -1.57448 0.233908
vt -1.57448 0.223492
f 35/95/18 39/96/18 34/97/18

v 0 17.7359 -0
vt -1.25504 0.233908
f 39/96/18 35/95/18 40/98/18

vt 0.908721 0.223492
vt 1.5615 0.233908
vt 0.908721 0.233908
f 35/99/6 37/100/6 40/101/6

vt 1.5615 0.223492
f 37/100/6 35/99/6 36/102/6

vt 1.5615 1.25504
vt 0.908721 1.57448
vt 0.908721 1.25504
f 37/103/10 39/104/10 40/105/10

vt 1.5615 1.57448
f 39/104/10 37/103/10 38/106/10

vt -1.57275 0.141897
f 26/68/14 27/67/14 32/107/14

vt 1.22114 1.5726
f 25/108/12 10/59/12 24/61/12

vt 0.920964 1.57317
f 5/109/12 10/59/12 25/108/12

vt 0.920649 1.57317
f 10/59/12 5/109/12 9/110/12

vt -0.922137 0.131907
vn -0.00074505 1.08766e-022 -1
vt -0.921821 0.141901
vt -0.922137 0.141901
f 6/111/19 9/112/19 5/113/19

vt -0.921821 0.131907
f 9/112/19 6/111/19 8/114/19

vt -0.920971 0.131907
vn -3.70387e-006 -4.1042e-008 -1
v 0.131522 17.1148 -22.905
vt -0.910554 0.225282
vt -0.920971 0.141901
f 6/115/20 41/116/20 5/117/20

vt -0.920971 -0.0108292
f 11/118/20 41/116/20 6/115/20

v 0.131522 0.114806 -22.905
vt -0.910554 -0.0108292
f 41/116/20 11/118/20 42/119/20

vt -0.920965 1.57317
vt -0.910548 1.25546
vt -0.910548 1.57317
f 11/120/3 13/121/3 42/122/3

f 13/121/3 11/120/3 12/9/3

vt -1.25546 -0.0108293
vn -1 0 -1.8735e-016
vt -1.57317 0.225282
vt -1.57317 -0.0108293
f 13/123/21 41/124/21 42/125/21

vt -1.25546 0.225282
f 41/124/21 13/123/21 14/126/21

v 0.881522 17.1148 -0.0299897
vt 0.920965 1.25546
vt 0.910548 1.57317
vt 0.910548 1.25546
f 43/127/10 41/128/10 14/129/10

v 0.881522 17.1148 -22.905
vt 0.920965 1.57317
f 41/128/10 43/127/10 44/130/10

vt 1.25546 0.225282
vt 1.57317 0.225282
f 43/131/5 11/18/5 44/132/5

f 10/19/5 11/18/5 43/131/5

vt 0.920965 0.225282
f 14/24/6 10/25/6 43/133/6

vt 1.57317 0.131907
f 44/132/5 11/18/5 6/134/5

vt 1.57317 0.141901
f 44/132/5 6/134/5 5/135/5

vt -0.920971 0.225282
f 5/117/20 41/116/20 44/136/20

vt 1.54744 1.57379
f 5/109/12 25/108/12 4/137/12

vt 1.23155 1.57261
f 4/137/12 25/108/12 26/138/12

f 26/138/12 2/60/12 4/137/12

f 23/58/12 2/60/12 26/138/12

