# Alias OBJ Model File
# Exported from SketchUp, (c) 2000-2006 Google, Inc.
# File units = millimeters

mtllib aea8be27a9e5dcec1158f00955d38a_obj0_object.mtl

g Mesh1 Group1 Model

usemtl _Charcoal_
v 9.86667 730.267 9.86667
vt 29.5276 -1.53769e-007
vn 1.17843e-005 -0.000441912 1
v -730.133 750 9.88411
vt 2.35731e-006 0.787401
v -730.133 730.267 9.88411
vt 2.35731e-006 1.2276e-014
f 1/1/1 2/2/1 3/3/1

v 9.86667 750 9.88411
vt 29.5276 0.787402
f 2/2/1 1/1/1 4/4/1

vt 0.000695925 7.10543e-015
vn 1 0 -0
v 9.86667 750 -730.116
vt 29.5276 0.787402
vt 0 0.787402
f 1/5/2 5/6/2 4/7/2

v 9.86667 730.267 -730.116
vt 29.5276 7.10543e-015
f 5/6/2 1/5/2 6/8/2

vt -2.35731e-006 -3.60815e-021
vn -1.05585e-007 -1 1.44966e-008
vt -29.5276 29.5276
vt -29.5276 0.000695925
f 3/9/3 6/10/3 1/11/3

v -730.133 730.267 -730.116
vt 5.49517e-013 29.5276
f 6/10/3 3/9/3 7/12/3

vt 2.16727e-015 7.07047e-012
vn -1 2.99938e-006 9.19383e-010
v -730.133 750 -730.116
vt -29.5276 0.787402
vt -29.5276 5.20452e-006
f 3/13/4 8/14/4 7/15/4

vt 2.16727e-015 0.787402
f 8/14/4 3/13/4 2/16/4

vt 29.5276 0
vn 0 1 -0
vt 2.35731e-006 29.5276
vt 2.35731e-006 0
f 4/17/5 8/18/5 2/19/5

vt 29.5276 29.5276
f 8/18/5 4/17/5 5/20/5

vt -29.5276 0.787402
vn 0 0 -1
vt 0 5.20452e-006
vt -2.35731e-006 0.787402
f 5/21/6 7/22/6 8/23/6

vt -29.5276 7.10543e-015
f 7/22/6 5/21/6 6/24/6

g Mesh2 Leg1 Model

v 0 0 -44.4
vt -1.77165 1.77165
vn 0 -1 -0
v -44.4 0 -0
vt 0 0
v -44.4 0 -44.4
vt 0 1.77165
f 9/25/7 10/26/7 11/27/7

v 0 0 -0
vt -1.77165 0
f 10/26/7 9/25/7 12/28/7

vt 1.77165 -1.18643
v 0 730.267 -0
vt 0 27.9528
vt 0 -1.18643
f 9/29/2 13/30/2 12/31/2

v 0 730.267 -44.4
vt 1.77165 27.9528
f 13/30/2 9/29/2 14/32/2

vt -1.77165 -1.18643
v -44.4 730.267 -44.4
vt -1.77165 27.9528
f 9/33/6 15/30/6 14/34/6

f 15/30/6 9/33/6 11/31/6

vn -1 0 -0
vt -1.77165 27.9528
vt -1.77165 -1.18643
f 10/31/8 15/35/8 11/36/8

v -44.4 730.267 -0
f 15/35/8 10/31/8 16/30/8

vn 0 0 1
vt 1.77165 27.9528
f 10/31/9 13/37/9 16/30/9

vt 1.77165 -1.18643
f 13/37/9 10/31/9 12/38/9

vt 1.77165 0
f 13/39/5 15/27/5 16/26/5

vt 1.77165 1.77165
f 15/27/5 13/39/5 14/40/5

g Mesh3 Leg2 Model

v -675.867 0 -44.4
v -720.267 0 -0
v -720.267 0 -44.4
f 17/25/7 18/26/7 19/27/7

v -675.867 0 -0
f 18/26/7 17/25/7 20/28/7

v -675.867 730.267 -0
f 17/29/2 21/30/2 20/31/2

v -675.867 730.267 -44.4
f 21/30/2 17/29/2 22/32/2

v -720.267 730.267 -44.4
f 17/33/6 23/30/6 22/34/6

f 23/30/6 17/33/6 19/31/6

f 18/31/8 23/35/8 19/36/8

v -720.267 730.267 -0
f 23/35/8 18/31/8 24/30/8

f 18/31/9 21/37/9 24/30/9

f 21/37/9 18/31/9 20/38/9

f 21/39/5 23/27/5 24/26/5

f 23/27/5 21/39/5 22/40/5

g Mesh4 Leg3 Model

v 5.63993e-015 0 -720.249
v -44.4 0 -675.849
v -44.4 0 -720.249
f 25/25/7 26/26/7 27/27/7

v 5.63993e-015 0 -675.849
f 26/26/7 25/25/7 28/28/7

v 5.63993e-015 730.267 -675.849
f 25/29/2 29/30/2 28/31/2

v 5.63993e-015 730.267 -720.249
f 29/30/2 25/29/2 30/32/2

v -44.4 730.267 -720.249
f 25/33/6 31/30/6 30/34/6

f 31/30/6 25/33/6 27/31/6

f 26/31/8 31/35/8 27/36/8

v -44.4 730.267 -675.849
f 31/35/8 26/31/8 32/30/8

f 26/31/9 29/37/9 32/30/9

f 29/37/9 26/31/9 28/38/9

f 29/39/5 31/27/5 32/26/5

f 31/27/5 29/39/5 30/40/5

g Mesh5 Leg4 Model

v -675.867 0 -720.249
v -720.267 0 -675.849
v -720.267 0 -720.249
f 33/25/7 34/26/7 35/27/7

v -675.867 0 -675.849
f 34/26/7 33/25/7 36/28/7

v -675.867 730.267 -675.849
f 33/29/2 37/30/2 36/31/2

v -675.867 730.267 -720.249
f 37/30/2 33/29/2 38/32/2

v -720.267 730.267 -720.249
f 33/33/6 39/30/6 38/34/6

f 39/30/6 33/33/6 35/31/6

f 34/31/8 39/35/8 35/36/8

v -720.267 730.267 -675.849
f 39/35/8 34/31/8 40/30/8

f 34/31/9 37/37/9 40/30/9

f 37/37/9 34/31/9 36/38/9

f 37/39/5 39/27/5 40/26/5

f 39/27/5 37/39/5 38/40/5

g Mesh6 wooden_part1 Model

v -14.8 730.267 -44.4
vt 0.590551 0
v -29.6 730.267 -675.849
vt 0 25.1962
v -29.6 730.267 -44.4
f 41/41/5 42/42/5 43/26/5

v -14.8 730.267 -675.849
vt 0.590551 25.1962
f 42/42/5 41/41/5 44/43/5

vt 0 2.75591
v -14.8 661.2 -675.849
vt 25.1962 0
vt 25.1962 2.75591
f 41/44/2 45/45/2 44/46/2

v -14.8 661.2 -44.4
f 45/45/2 41/44/2 46/26/2

vt 0.590551 2.75591
v -29.6 661.2 -44.4
f 41/47/9 47/26/9 46/41/9

f 47/26/9 41/47/9 43/44/9

vt -25.1962 2.75591
f 42/48/8 47/26/8 43/44/8

v -29.6 661.2 -675.849
vt -25.1962 0
f 47/26/8 42/48/8 48/49/8

vt -0.590551 0
f 42/44/6 45/50/6 48/26/6

vt -0.590551 2.75591
f 45/50/6 42/44/6 44/51/6

vt -0.590551 25.1962
f 45/52/7 47/26/7 48/42/7

f 47/26/7 45/52/7 46/50/7

g Mesh7 wooden_part2 Model

v -675.849 730.267 -14.7826
vn 9.1088e-008 1 -1.20081e-007
v -44.4 730.267 -29.5826
v -675.849 730.267 -29.5826
f 49/41/10 50/42/10 51/26/10

v -44.4 730.267 -14.7826
f 50/42/10 49/41/10 52/43/10

vn 1.07653e-014 1.20081e-007 1
v -44.4 661.2 -14.7826
f 49/44/11 53/45/11 52/46/11

v -675.849 661.2 -14.7826
f 53/45/11 49/44/11 54/26/11

vn -1 9.1088e-008 -1.72705e-016
v -675.849 661.2 -29.5826
f 49/47/12 55/26/12 54/41/12

f 55/26/12 49/47/12 51/44/12

vn -1.07653e-014 -1.20081e-007 -1
f 50/48/13 55/26/13 51/44/13

v -44.4 661.2 -29.5826
f 55/26/13 50/48/13 56/49/13

vn 1 -9.1088e-008 1.72705e-016
f 50/44/14 53/50/14 56/26/14

f 53/50/14 50/44/14 52/51/14

vn -9.1088e-008 -1 1.20081e-007
f 53/52/15 55/26/15 56/42/15

f 55/26/15 53/52/15 54/50/15

g Mesh8 wooden_part3 Model

v -705.467 730.267 -675.832
vn 2.11169e-007 1 -2.89932e-008
v -690.667 730.267 -44.3826
v -690.667 730.267 -675.832
f 57/41/16 58/42/16 59/26/16

v -705.467 730.267 -44.3826
f 58/42/16 57/41/16 60/43/16

vn -1 2.11169e-007 -3.82695e-015
v -705.467 661.2 -44.3826
f 57/44/17 61/45/17 60/46/17

v -705.467 661.2 -675.832
f 61/45/17 57/44/17 62/26/17

vn -2.29553e-015 -2.89932e-008 -1
v -690.667 661.2 -675.832
f 57/47/18 63/26/18 62/41/18

f 63/26/18 57/47/18 59/44/18

vn 1 -2.11169e-007 3.82695e-015
f 58/48/19 63/26/19 59/44/19

v -690.667 661.2 -44.3826
f 63/26/19 58/48/19 64/49/19

vn 2.29553e-015 2.89932e-008 1
f 58/44/20 61/50/20 64/26/20

f 61/50/20 58/44/20 60/51/20

vn -2.11169e-007 -1 2.89932e-008
f 61/52/21 63/26/21 64/42/21

f 63/26/21 61/52/21 62/50/21

g Mesh9 wooden_part4 Model

v -44.4174 730.267 -705.449
vn 1.20081e-007 1 9.1088e-008
v -675.867 730.267 -690.649
v -44.4174 730.267 -690.649
f 65/41/22 66/42/22 67/26/22

v -675.867 730.267 -705.449
f 66/42/22 65/41/22 68/43/22

vn 1.27408e-014 9.1088e-008 -1
v -675.867 661.2 -705.449
f 65/44/23 69/45/23 68/46/23

v -44.4174 661.2 -705.449
f 69/45/23 65/44/23 70/26/23

vn 1 -1.20081e-007 1.80281e-015
v -44.4174 661.2 -690.649
f 65/47/24 71/26/24 70/41/24

f 71/26/24 65/47/24 67/44/24

vn -1.27408e-014 -9.1088e-008 1
f 66/48/25 71/26/25 67/44/25

v -675.867 661.2 -690.649
f 71/26/25 66/48/25 72/49/25

vn -1 1.20081e-007 -1.80281e-015
f 66/44/26 69/50/26 72/26/26

f 69/50/26 66/44/26 68/51/26

vn -1.20081e-007 -1 -9.1088e-008
f 69/52/27 71/26/27 72/42/27

f 71/26/27 69/52/27 70/50/27

