# Alias OBJ Model File
# Exported from SketchUp, (c) 2000-2006 Google, Inc.
# File units = millimeters

mtllib 5d819ba4e21208ac2b5fb024f65f6da_obj0_object.mtl

g Mesh1 Group1 MALM1 Model

usemtl Material3
v 638.824 0 -1154.4
vt 1.5748 -1.6089e-030
vn -6.56499e-015 5.84638e-017 1
v 598.824 722.225 -1154.4
vt 6.39488e-013 28.4341
v 598.824 0 -1154.4
vt 6.39488e-013 6.96169e-043
f 1/1/1 2/2/1 3/3/1

v 638.824 442.225 -1154.4
vt 1.5748 17.4104
f 2/2/1 1/1/1 4/4/1

vt 2.4014e-014 17.4104
vn -1 2.84069e-017 -8.791e-015
vt 2.4014e-014 4.47352e-017
v 638.824 442.225 -1114.4
vt 1.5748 17.4104
f 4/5/2 1/6/2 5/7/2

v 638.824 682.225 -374.401
vt 30.7087 26.8593
f 1/6/2 6/8/2 5/7/2

v 638.824 0 -374.401
vt 30.7087 4.47352e-017
f 6/8/2 1/6/2 7/9/2

vt 5.68434e-014 1.5748
vn 0 1 -0
v 598.824 0 -374.401
vt 30.7087 0
vt 30.7087 1.5748
f 1/10/3 8/11/3 7/12/3

vt 0 6.39488e-013
f 8/11/3 1/10/3 3/13/3

vt 1.33169e-026 28.4341
vn 1 1.72471e-030 8.76871e-015
vt -30.7087 -1.10294e-042
vt 1.33169e-026 -1.10294e-042
f 2/14/4 8/15/4 3/16/4

v 598.824 722.225 -374.401
vt -30.7087 28.4341
f 8/15/4 2/14/4 9/17/4

v 2110.97 722.225 -1154.4
vt -1.07674e-012 59.5335
vn 9.58671e-031 -1 -1.15691e-016
vt -30.7087 6.69168e-029
vt 3.28956e-015 6.39488e-013
f 10/18/5 9/19/5 2/20/5

v 2110.97 722.225 -374.401
vt -30.7087 59.5335
f 9/19/5 10/18/5 11/21/5

vt -1.59722e-013 28.4341
vn -1 9.90642e-031 -8.76871e-015
v 2110.97 2.25597e-013 -374.401
vt 30.7087 8.88178e-015
vt 30.7087 28.4341
f 10/22/6 12/23/6 11/24/6

v 2110.97 1.35358e-013 -1154.4
vt -1.59722e-013 5.32907e-015
f 12/23/6 10/22/6 13/25/6

vt 59.5335 28.4341
v 2070.97 2.25597e-013 -1154.4
vt 57.9587 8.88178e-015
vt 59.5335 5.32907e-015
f 10/26/1 14/27/1 13/28/1

v 2070.97 442.225 -1154.4
vt 57.9587 17.4104
f 10/26/1 15/29/1 14/27/1

f 10/26/1 4/4/1 15/29/1

f 2/2/1 4/4/1 10/26/1

vt 1.5748 1.5748
vt 1.13687e-012 57.9587
f 5/30/3 15/31/3 4/10/3

v 2070.97 442.225 -1114.4
vt 1.5748 57.9587
f 15/31/3 5/30/3 16/32/3

vt -1.5748 17.4104
vn -1.20557e-014 0 -1
v 2070.97 682.225 -1114.4
vt -57.9587 26.8593
vt -57.9587 17.4104
f 5/33/7 17/34/7 16/35/7

v 638.824 682.225 -1114.4
vt -1.5748 26.8593
f 17/34/7 5/33/7 18/36/7

vt 1.5748 26.8593
f 5/7/2 6/8/2 18/37/2

f 6/12/3 17/32/3 18/30/3

v 2070.97 682.225 -374.401
vt 30.7087 57.9587
f 17/32/3 6/12/3 19/38/3

vt -1.5748 26.8593
vn 8.42391e-015 1.13844e-016 -1
vt -59.5335 28.4341
vt -57.9587 26.8593
f 6/39/8 11/40/8 19/41/8

vt -6.289e-013 28.4341
f 6/39/8 9/42/8 11/40/8

vt -6.289e-013 3.49599e-015
f 9/42/8 6/39/8 8/43/8

vt -1.5748 3.49599e-015
f 7/44/8 8/43/8 6/39/8

v 2070.97 2.25597e-013 -374.401
vt -57.9587 1.23778e-014
f 19/41/8 11/40/8 20/45/8

vt -59.5335 1.23778e-014
f 20/45/8 11/40/8 12/46/8

vt 30.7087 59.5335
vn 5.63993e-016 1 -2.89227e-017
vt 1.13687e-012 57.9587
vt 30.7087 57.9587
f 12/47/9 14/48/9 20/49/9

vt 1.08002e-012 59.5335
f 14/48/9 12/47/9 13/50/9

vt 1.40776e-013 17.4104
vn 1 1.54315e-016 9.98841e-015
vt -30.7087 -6.20857e-017
vt 1.40776e-013 -6.20857e-017
f 15/51/10 20/52/10 14/53/10

vt -1.5748 17.4104
f 20/52/10 15/51/10 16/54/10

vt -30.7087 26.8593
f 20/52/10 16/54/10 19/55/10

vt -1.5748 26.8593
f 19/55/10 16/54/10 17/56/10

g Mesh2 Group2 MALM1 Model

v 660.574 0 -281.401
vt 1.5748 2.3622
vn 1 8.79159e-017 1.32091e-013
v 660.574 662.225 -241.401
vt 6.25278e-013 28.4341
v 660.574 0 -241.401
vt 6.25278e-013 2.3622
f 21/57/11 22/58/11 23/59/11

v 660.574 622.225 -281.401
vt 1.5748 26.8593
f 22/58/11 21/57/11 24/60/11

v 1010.57 1.12799e-014 -281.401
vt 13.7795 2.3622
vn -1.34203e-013 3.18954e-017 1
vt 2.09888e-014 26.8593
vt 2.09888e-014 2.3622
f 25/61/12 24/62/12 21/63/12

v 1010.57 622.225 -281.401
vt 13.7795 26.8593
f 24/62/12 25/61/12 26/64/12

vt -1.5748 2.3622
vn -1 3.64197e-017 -1.32381e-013
v 1010.57 1.12799e-014 -241.401
vt -3.71224e-013 2.3622
vt -1.5748 26.8593
f 25/65/13 27/66/13 26/67/13

vt 5.32907e-014 1.5748
vt 13.7795 1.13687e-013
vt 13.7795 1.5748
f 21/68/3 27/69/3 25/70/3

vt 0 6.25278e-013
f 27/69/3 21/68/3 23/71/3

vt 1.3021e-026 28.4341
vn 1.34515e-013 1.72471e-030 -1
vt -13.7795 2.3622
vt 1.3021e-026 2.3622
f 22/72/14 27/73/14 23/74/14

v 1010.57 662.225 -241.401
vt -13.7795 28.4341
f 27/73/14 22/72/14 28/75/14

v 660.574 662.225 -981.401
vt -4.49681e-013 29.1339
vn -1.15691e-016 -1 -1.55064e-029
vt -13.7795 1.13687e-013
vt 3.28956e-015 6.25278e-013
f 29/76/15 28/77/15 22/78/15

v 1010.57 662.225 -981.401
vt -13.7795 29.1339
f 28/77/15 29/76/15 30/79/15

v 660.574 622.225 -981.401
vt -1.53723e-013 26.8593
vn -1.34515e-013 9.90642e-031 1
vt 13.7795 28.4341
vt -1.53723e-013 28.4341
f 31/80/16 30/81/16 29/82/16

v 1010.57 622.225 -981.401
vt 13.7795 26.8593
f 30/81/16 31/80/16 32/83/16

vt 4.51268e-013 29.1339
vn 6.34e-017 1 8.20765e-017
vt 13.7795 1.5748
vt 13.7795 29.1339
f 31/84/17 26/85/17 32/86/17

vt 5.15878e-014 1.5748
f 26/85/17 31/84/17 24/87/17

vt 29.1339 28.4341
vt 29.1339 26.8593
f 29/88/11 24/60/11 31/89/11

f 22/58/11 24/60/11 29/88/11

vt -29.1339 28.4341
vt -29.1339 26.8593
f 26/67/13 30/90/13 32/91/13

vt -3.71224e-013 28.4341
f 26/67/13 28/92/13 30/90/13

f 28/92/13 26/67/13 27/66/13

