# Alias OBJ Model File
# Exported from SketchUp, (c) 2000-2006 Google, Inc.
# File units = millimeters

mtllib 8768002c872788b8e513931a191fd77c_obj0_object.mtl

g Mesh1 Tabletop1 Model

usemtl Wood_Floor_Light
v 740 715.281 -740
vt -0.242782 0.606955
vn 0 -1 -0
v 0 715.281 -0
vt 0 0
v 0 715.281 -740
vt 0 0.606955
f 1/1/1 2/2/1 3/3/1

v 740 715.281 -0
vt -0.242782 0
f 2/2/1 1/1/1 4/4/1

vt 0.242782 0
vn 1 0 -0
v 740 740.281 -0
vt 0 0.0205052
f 1/5/2 5/6/2 4/2/2

v 740 740.281 -740
vt 0.242782 0.0205052
f 5/6/2 1/5/2 6/7/2

vn 0 0 -1
v 0 740.281 -740
vt -0.242782 0.0205052
f 1/4/3 7/6/3 6/8/3

f 7/6/3 1/4/3 3/2/3

vn -1 0 -0
vt -0.242782 0.0205052
vt -0.242782 0
f 2/2/4 7/9/4 3/10/4

v 0 740.281 -0
f 7/9/4 2/2/4 8/6/4

vn 0 0 1
vt 0.242782 0.0205052
f 2/2/5 5/11/5 8/6/5

vt 0.242782 0
f 5/11/5 2/2/5 4/12/5

vn 0 1 -0
f 5/12/6 7/3/6 8/2/6

vt 0.242782 0.606955
f 7/3/6 5/12/6 6/13/6

g Mesh2 Leg1 Model

v 80 0.18123 -80
vt -0.0180446 0.0451115
v 25 0.18123 -25
v 25 0.18123 -80
vt 0 0.0451115
f 9/14/1 10/2/1 11/15/1

v 80 0.18123 -25
vt -0.0180446 0
f 10/2/1 9/14/1 12/16/1

vt 0.0180446 0
v 80 715.181 -25
vt 0 0.58645
f 9/17/2 13/18/2 12/2/2

v 80 715.181 -80
vt 0.0180446 0.58645
f 13/18/2 9/17/2 14/19/2

v 25 715.181 -80
vt -0.0180446 0.58645
f 9/16/3 15/18/3 14/20/3

f 15/18/3 9/16/3 11/2/3

vt -0.0180446 0.58645
vt -0.0180446 0
f 10/2/4 15/21/4 11/22/4

v 25 715.181 -25
f 15/21/4 10/2/4 16/18/4

vt 0.0180446 0.58645
f 10/2/5 13/23/5 16/18/5

vt 0.0180446 0
f 13/23/5 10/2/5 12/24/5

f 13/24/6 15/15/6 16/2/6

vt 0.0180446 0.0451115
f 15/15/6 13/24/6 14/25/6

g Mesh3 Leg2 Model

v 714.989 0.226696 -79.9816
v 659.989 0.226696 -24.9816
v 659.989 0.226696 -79.9816
f 17/14/1 18/2/1 19/15/1

v 714.989 0.226696 -24.9816
f 18/2/1 17/14/1 20/16/1

v 714.989 715.227 -24.9816
f 17/17/2 21/18/2 20/2/2

v 714.989 715.227 -79.9816
f 21/18/2 17/17/2 22/19/2

v 659.989 715.227 -79.9816
f 17/16/3 23/18/3 22/20/3

f 23/18/3 17/16/3 19/2/3

f 18/2/4 23/21/4 19/22/4

v 659.989 715.227 -24.9816
f 23/21/4 18/2/4 24/18/4

f 18/2/5 21/23/5 24/18/5

f 21/23/5 18/2/5 20/24/5

f 21/24/6 23/15/6 24/2/6

f 23/15/6 21/24/6 22/25/6

g Mesh4 Leg3 Model

v 80 0.18123 -715.094
v 25 0.18123 -660.094
v 25 0.18123 -715.094
f 25/14/1 26/2/1 27/15/1

v 80 0.18123 -660.094
f 26/2/1 25/14/1 28/16/1

v 80 715.181 -660.094
f 25/17/2 29/18/2 28/2/2

v 80 715.181 -715.094
f 29/18/2 25/17/2 30/19/2

v 25 715.181 -715.094
f 25/16/3 31/18/3 30/20/3

f 31/18/3 25/16/3 27/2/3

f 26/2/4 31/21/4 27/22/4

v 25 715.181 -660.094
f 31/21/4 26/2/4 32/18/4

f 26/2/5 29/23/5 32/18/5

f 29/23/5 26/2/5 28/24/5

f 29/24/6 31/15/6 32/2/6

f 31/15/6 29/24/6 30/25/6

g Mesh5 Leg4 Model

v 715.414 0 -714.839
v 660.414 0 -659.839
v 660.414 0 -714.839
f 33/14/1 34/2/1 35/15/1

v 715.414 0 -659.839
f 34/2/1 33/14/1 36/16/1

v 715.414 715 -659.839
f 33/17/2 37/18/2 36/2/2

v 715.414 715 -714.839
f 37/18/2 33/17/2 38/19/2

v 660.414 715 -714.839
f 33/16/3 39/18/3 38/20/3

f 39/18/3 33/16/3 35/2/3

f 34/2/4 39/21/4 35/22/4

v 660.414 715 -659.839
f 39/21/4 34/2/4 40/18/4

f 34/2/5 37/23/5 40/18/5

f 37/23/5 34/2/5 36/24/5

f 37/24/6 39/15/6 40/2/6

f 39/15/6 37/24/6 38/25/6

g Mesh6 Brace1 Model

v 140.848 715.227 -62.2432
vt 0.170106 3.50408e-015
vn 3.7068e-015 1 -6.1031e-014
v 597.262 715.227 -59.2432
vt 0.0203636 0.00246063
v 597.262 715.227 -62.2432
vt 0.0203636 3.50408e-015
f 41/26/7 42/27/7 43/28/7

v 140.848 715.227 -59.2432
vt 0.170106 0.00246063
f 44/29/7 42/27/7 41/26/7

v 78.8483 715.227 -40.2432
vt 0.190447 0.0180446
f 45/30/7 42/27/7 44/29/7

v 600.262 715.227 -59.2432
vt 0.0193794 0.00246063
f 45/30/7 46/31/7 42/27/7

v 659.33 715.227 -40.2432
vt 8.51299e-017 0.0180446
f 47/32/7 46/31/7 45/30/7

v 600.262 715.227 -62.2432
vt 0.0193794 3.50408e-015
f 47/32/7 48/33/7 46/31/7

v 659.33 715.227 -62.2432
vt 8.51299e-017 3.50408e-015
f 48/33/7 47/32/7 49/34/7

vt -0.00721785 0.0574147
vn 1 0 -1.08247e-015
v 659.33 645.227 -62.2432
vt 0 0.0574147
f 47/35/8 50/2/8 49/36/8

v 659.33 645.227 -40.2432
vt -0.00721785 0
f 50/2/8 47/35/8 51/37/8

vn 1.08247e-015 0 1
v 78.8483 645.227 -40.2432
vt -0.190447 0
f 47/36/9 52/38/9 51/2/9

vt -0.190447 0.0574147
f 52/38/9 47/36/9 45/39/9

v 78.8483 715.227 -62.2432
vn -1 0 1.08247e-015
vt 0.00721785 0
vt 0.00721785 0.0574147
f 53/36/10 52/40/10 45/41/10

v 78.8483 645.227 -62.2432
f 52/40/10 53/36/10 54/2/10

vt 0.190447 0.0574147
vn -1.08247e-015 0 -1
v 137.848 645.227 -62.2432
vt 0.17109 0
vt 0.190447 0
f 53/42/11 55/43/11 54/44/11

v 137.848 715.227 -62.2432
vt 0.17109 0.0574147
f 55/43/11 53/42/11 56/45/11

vt 0.190447 3.50408e-015
v 137.848 715.227 -59.2432
vt 0.17109 0.00246063
vt 0.17109 3.50408e-015
f 53/46/7 57/47/7 56/48/7

f 45/30/7 57/47/7 53/46/7

f 45/30/7 44/29/7 57/47/7

v 140.848 645.227 -59.2432
vt 0.170106 0
vt 0.170106 0.0574147
f 58/49/11 57/45/11 44/50/11

v 137.848 645.227 -59.2432
f 57/45/11 58/49/11 59/43/11

vt -0.170106 0.00246063
vn 0 -1 0
vt -0.190447 0.0180446
vt -0.17109 0.00246063
f 58/51/12 52/52/12 59/53/12

v 597.262 645.227 -62.2432
vt -0.0203636 0
f 60/54/12 52/52/12 58/51/12

v 597.262 645.227 -59.2432
vt -0.0203636 0.00246063
f 61/55/12 52/52/12 60/54/12

v 600.262 645.227 -59.2432
vt -0.0193794 0.00246063
f 62/56/12 52/52/12 61/55/12

vt 0 0.0180446
f 62/56/12 51/57/12 52/52/12

f 51/57/12 62/56/12 50/2/12

v 600.262 645.227 -62.2432
vt -0.0193794 0
f 63/58/12 50/2/12 62/56/12

vt 0.0193794 0.0574147
vt 0.0193794 0
f 48/59/11 50/2/11 63/60/11

f 50/2/11 48/59/11 49/36/11

vt 0.000984252 0
vt 0 0.0574147
f 62/61/10 48/62/10 63/2/10

vt 0.000984252 0.0574147
f 48/62/10 62/61/10 46/63/10

vt 0.0203636 0.0574147
f 62/60/11 42/64/11 46/59/11

vt 0.0203636 0
f 42/64/11 62/60/11 61/65/11

vt -0.000984252 0.0574147
vt -0.000984252 0
f 60/2/8 42/66/8 61/67/8

f 42/66/8 60/2/8 43/62/8

f 60/65/11 41/50/11 43/64/11

v 140.848 645.227 -62.2432
f 41/50/11 60/65/11 64/49/11

vt -0.170106 0
f 64/68/12 60/54/12 58/51/12

f 58/61/10 41/36/10 64/2/10

vt 0.000984252 0.0574147
f 41/36/10 58/61/10 44/69/10

vt -0.17109 0
f 59/53/12 52/52/12 55/70/12

f 55/70/12 52/52/12 54/38/12

vt -0.000984252 0.0574147
f 55/2/8 57/71/8 59/67/8

f 57/71/8 55/2/8 56/36/8

g Mesh7 Brace2 Model

v 62 713.981 -598.241
vn 6.1031e-014 1 3.7068e-015
v 59 713.981 -141.827
v 62 713.981 -141.827
f 65/26/13 66/27/13 67/28/13

v 59 713.981 -598.241
f 68/29/13 66/27/13 65/26/13

v 40 713.981 -660.241
f 69/30/13 66/27/13 68/29/13

v 59 713.981 -138.827
f 69/30/13 70/31/13 66/27/13

v 40 713.981 -79.7591
f 71/32/13 70/31/13 69/30/13

v 62 713.981 -138.827
f 71/32/13 72/33/13 70/31/13

v 62 713.981 -79.7591
f 72/33/13 71/32/13 73/34/13

vn -1.21431e-015 0 1
v 62 643.981 -79.7591
f 71/35/14 74/2/14 73/36/14

v 40 643.981 -79.7591
f 74/2/14 71/35/14 75/37/14

vn -1 0 -1.21431e-015
v 40 643.981 -660.241
f 71/36/15 76/38/15 75/2/15

f 76/38/15 71/36/15 69/39/15

v 62 713.981 -660.241
vn 1.21431e-015 0 -1
f 77/36/16 76/40/16 69/41/16

v 62 643.981 -660.241
f 76/40/16 77/36/16 78/2/16

vn 1 0 1.21431e-015
v 62 643.981 -601.241
f 77/42/17 79/43/17 78/44/17

v 62 713.981 -601.241
f 79/43/17 77/42/17 80/45/17

v 59 713.981 -601.241
f 77/46/13 81/47/13 80/48/13

f 69/30/13 81/47/13 77/46/13

f 69/30/13 68/29/13 81/47/13

v 59 643.981 -598.241
f 82/49/17 81/45/17 68/50/17

v 59 643.981 -601.241
f 81/45/17 82/49/17 83/43/17

f 82/51/1 76/52/1 83/53/1

v 62 643.981 -141.827
f 84/54/1 76/52/1 82/51/1

v 59 643.981 -141.827
f 85/55/1 76/52/1 84/54/1

v 59 643.981 -138.827
f 86/56/1 76/52/1 85/55/1

f 86/56/1 75/57/1 76/52/1

f 75/57/1 86/56/1 74/2/1

v 62 643.981 -138.827
f 87/58/1 74/2/1 86/56/1

f 72/59/17 74/2/17 87/60/17

f 74/2/17 72/59/17 73/36/17

f 86/61/16 72/62/16 87/2/16

f 72/62/16 86/61/16 70/63/16

f 86/60/17 66/64/17 70/59/17

f 66/64/17 86/60/17 85/65/17

f 84/2/14 66/66/14 85/67/14

f 66/66/14 84/2/14 67/62/14

f 84/65/17 65/50/17 67/64/17

v 62 643.981 -598.241
f 65/50/17 84/65/17 88/49/17

f 88/68/1 84/54/1 82/51/1

f 82/61/16 65/36/16 88/2/16

f 65/36/16 82/61/16 68/69/16

f 83/53/1 76/52/1 79/70/1

f 79/70/1 76/52/1 78/38/1

f 79/2/14 81/71/14 83/67/14

f 81/71/14 79/2/14 80/36/14

g Mesh8 Brace3 Model

v 677.714 714.5 -141.343
vn -6.1031e-014 1 -3.7068e-015
v 680.714 714.5 -597.756
v 677.714 714.5 -597.756
f 89/26/18 90/27/18 91/28/18

v 680.714 714.5 -141.343
f 92/29/18 90/27/18 89/26/18

v 699.714 714.5 -79.3429
f 93/30/18 90/27/18 92/29/18

v 680.714 714.5 -600.756
f 93/30/18 94/31/18 90/27/18

v 699.714 714.5 -659.825
f 95/32/18 94/31/18 93/30/18

v 677.714 714.5 -600.756
f 95/32/18 96/33/18 94/31/18

v 677.714 714.5 -659.825
f 96/33/18 95/32/18 97/34/18

vn -1.77913e-014 0 -1
v 677.714 644.5 -659.825
f 95/35/19 98/2/19 97/36/19

v 699.714 644.5 -659.825
f 98/2/19 95/35/19 99/37/19

vn 1 0 -1.77913e-014
v 699.714 644.5 -79.3429
f 95/36/20 100/38/20 99/2/20

f 100/38/20 95/36/20 93/39/20

v 677.714 714.5 -79.3429
vn 1.77913e-014 0 1
f 101/36/21 100/40/21 93/41/21

v 677.714 644.5 -79.3429
f 100/40/21 101/36/21 102/2/21

vn -1 0 1.77913e-014
v 677.714 644.5 -138.343
f 101/42/22 103/43/22 102/44/22

v 677.714 714.5 -138.343
f 103/43/22 101/42/22 104/45/22

v 680.714 714.5 -138.343
f 101/46/18 105/47/18 104/48/18

f 93/30/18 105/47/18 101/46/18

f 93/30/18 92/29/18 105/47/18

v 680.714 644.5 -141.343
f 106/49/22 105/45/22 92/50/22

v 680.714 644.5 -138.343
f 105/45/22 106/49/22 107/43/22

f 106/51/1 100/52/1 107/53/1

v 677.714 644.5 -597.756
f 108/54/1 100/52/1 106/51/1

v 680.714 644.5 -597.756
f 109/55/1 100/52/1 108/54/1

v 680.714 644.5 -600.756
f 110/56/1 100/52/1 109/55/1

f 110/56/1 99/57/1 100/52/1

f 99/57/1 110/56/1 98/2/1

v 677.714 644.5 -600.756
f 111/58/1 98/2/1 110/56/1

f 96/59/22 98/2/22 111/60/22

f 98/2/22 96/59/22 97/36/22

f 110/61/21 96/62/21 111/2/21

f 96/62/21 110/61/21 94/63/21

f 110/60/22 90/64/22 94/59/22

f 90/64/22 110/60/22 109/65/22

f 108/2/19 90/66/19 109/67/19

f 90/66/19 108/2/19 91/62/19

f 108/65/22 89/50/22 91/64/22

v 677.714 644.5 -141.343
f 89/50/22 108/65/22 112/49/22

f 112/68/1 108/54/1 106/51/1

f 106/61/21 89/36/21 112/2/21

f 89/36/21 106/61/21 92/69/21

f 107/53/1 100/52/1 103/70/1

f 103/70/1 100/52/1 102/38/1

f 103/2/19 105/71/19 107/67/19

f 105/71/19 103/2/19 104/36/19

g Mesh9 Brace4 Model

v 598.414 714.5 -677.839
vn -3.7068e-015 1 6.1031e-014
v 142 714.5 -680.839
v 142 714.5 -677.839
f 113/26/23 114/27/23 115/28/23

v 598.414 714.5 -680.839
f 116/29/23 114/27/23 113/26/23

v 660.414 714.5 -699.839
f 117/30/23 114/27/23 116/29/23

v 139 714.5 -680.839
f 117/30/23 118/31/23 114/27/23

v 79.9317 714.5 -699.839
f 119/32/23 118/31/23 117/30/23

v 139 714.5 -677.839
f 119/32/23 120/33/23 118/31/23

v 79.9317 714.5 -677.839
f 120/33/23 119/32/23 121/34/23

v 79.9317 644.5 -677.839
f 119/35/4 122/2/4 121/36/4

v 79.9317 644.5 -699.839
f 122/2/4 119/35/4 123/37/4

v 660.414 644.5 -699.839
f 119/36/3 124/38/3 123/2/3

f 124/38/3 119/36/3 117/39/3

v 660.414 714.5 -677.839
f 125/36/2 124/40/2 117/41/2

v 660.414 644.5 -677.839
f 124/40/2 125/36/2 126/2/2

v 601.414 644.5 -677.839
f 125/42/5 127/43/5 126/44/5

v 601.414 714.5 -677.839
f 127/43/5 125/42/5 128/45/5

v 601.414 714.5 -680.839
f 125/46/23 129/47/23 128/48/23

f 117/30/23 129/47/23 125/46/23

f 117/30/23 116/29/23 129/47/23

v 598.414 644.5 -680.839
f 130/49/5 129/45/5 116/50/5

v 601.414 644.5 -680.839
f 129/45/5 130/49/5 131/43/5

f 130/51/1 124/52/1 131/53/1

v 142 644.5 -677.839
f 132/54/1 124/52/1 130/51/1

v 142 644.5 -680.839
f 133/55/1 124/52/1 132/54/1

v 139 644.5 -680.839
f 134/56/1 124/52/1 133/55/1

f 134/56/1 123/57/1 124/52/1

f 123/57/1 134/56/1 122/2/1

v 139 644.5 -677.839
f 135/58/1 122/2/1 134/56/1

f 120/59/5 122/2/5 135/60/5

f 122/2/5 120/59/5 121/36/5

f 134/61/2 120/62/2 135/2/2

f 120/62/2 134/61/2 118/63/2

f 134/60/5 114/64/5 118/59/5

f 114/64/5 134/60/5 133/65/5

f 132/2/4 114/66/4 133/67/4

f 114/66/4 132/2/4 115/62/4

f 132/65/5 113/50/5 115/64/5

v 598.414 644.5 -677.839
f 113/50/5 132/65/5 136/49/5

f 136/68/1 132/54/1 130/51/1

f 130/61/2 113/36/2 136/2/2

f 113/36/2 130/61/2 116/69/2

f 131/53/1 124/52/1 127/70/1

f 127/70/1 124/52/1 126/38/1

f 127/2/4 129/71/4 131/67/4

f 129/71/4 127/2/4 128/36/4

g Mesh10 Braket1 Model

usemtl left
v 630.938 653.103 -676.965
vt 1 0.000317065
vn -0.000640951 5.7715e-021 1
v 600.897 706.086 -676.985
vt 0 0.999683
v 600.897 653.086 -676.985
f 137/72/24 138/73/24 139/2/24

v 630.938 706.103 -676.965
vt 1 1
f 138/73/24 137/72/24 140/74/24

usemtl FrontColor
vt -0.0787402 0.000661801
vn 0.707107 0 0.707107
v 632.353 706.103 -678.38
vt -1.0892e-012 2.08728
vt -0.0787402 2.08728
f 137/75/25 141/76/25 140/77/25

v 632.353 653.103 -678.38
vt -1.0892e-012 0.000661801
f 141/76/25 137/75/25 142/78/25

usemtl Metal_Panel
vt -0.00307802 1.84784
vn 0.000533947 -1 2.67951e-005
v 599.549 653.086 -678.326
vt -0.0379098 1.80985
vt 0.000202816 1.84784
f 137/79/26 143/80/26 142/81/26

vt -0.0379024 1.81297
f 143/80/26 137/79/26 139/82/26

vt 1.81265 0.565532
vn -0.705419 0 0.708791
v 599.549 706.086 -678.326
vt 1.80953 0.652474
vt 1.80953 0.565532
f 139/83/27 144/84/27 143/85/27

vt 1.81265 0.652474
f 144/84/27 139/83/27 138/86/27

vt 0.00304685 1.84787
vn -0.000533947 1 -2.67951e-005
vt 0.0378786 1.80989
vt 0.0378712 1.813
f 140/87/28 144/88/28 138/89/28

vt -0.000233994 1.84787
f 144/88/28 140/87/28 141/90/28

v 676.052 706.103 -631.852
vt 0.00328084 1.95818
vt -1.80555e-016 1.85352
vt 0.00328084 1.85352
f 145/91/6 141/92/6 140/93/6

v 677.466 706.103 -633.266
vt -2.69507e-014 1.95818
f 141/92/6 145/91/6 146/94/6

vt 0.00328084 1.96244
v 677.445 706.103 -600.466
vt 0.0380708 2.00047
vt -2.69498e-014 1.96244
f 145/95/6 147/96/6 146/97/6

v 676.031 706.103 -601.88
vt 0.0380708 1.99719
f 147/96/6 145/95/6 148/98/6

usemtl left1_
vt -0.0479076 -1.02279
vn -1 -8.50982e-016 -0.000701438
v 676.031 653.103 -601.88
vt -1.13007 0.00460219
vt -1.13007 -1.02279
f 145/99/29 149/100/29 148/101/29

v 676.052 653.103 -631.852
vt -0.0479076 0.00460219
f 149/100/29 145/99/29 150/102/29

usemtl CenterBraket
vt 0.0475472 1
vn -0.707107 -9.01532e-016 0.707107
vt 0.890189 -1.3587e-014
vt 0.890189 1
f 140/103/30 150/104/30 145/105/30

vt 0.0475472 -1.3587e-014
f 150/104/30 140/103/30 137/106/30

usemtl Metal_Panel
vt 1.80555e-016 1.85352
vt -0.00328084 1.95818
vt -0.00328084 1.85352
f 142/107/12 150/108/12 137/109/12

v 677.466 653.103 -633.266
vt 4.36781e-014 1.95818
f 150/108/12 142/107/12 151/110/12

vt -1.85352 0.56556
vn 0.707107 9.57246e-014 -0.707107
vt -1.95818 0.652502
vt -1.95818 0.56556
f 142/111/31 146/112/31 151/113/31

vt -1.85352 0.652502
f 146/112/31 142/111/31 141/114/31

vt -1.30432 0.56556
vn -0.00164036 -7.82073e-020 -0.999999
vt -1.2505 0.652474
vt -1.30432 0.652502
f 142/115/32 144/116/32 141/117/32

vt -1.2505 0.565532
f 144/116/32 142/115/32 143/118/32

vt -1.38677 0.652502
vn 1 1.31951e-013 0.000640951
v 677.445 653.103 -600.466
vt -1.44057 0.56556
vt -1.38677 0.56556
f 146/119/33 152/120/33 151/121/33

vt -1.44057 0.652502
f 152/120/33 146/119/33 147/122/33

vt 1.99719 0.652502
vn -0.707107 0 0.707107
vt 2.00047 0.56556
vt 2.00047 0.652502
f 148/123/34 152/124/34 147/125/34

vt 1.99719 0.56556
f 152/124/34 148/123/34 149/126/34

vt -0.00328084 1.96244
vn -1.15318e-017 -1 1.7216e-014
vt -0.0380708 2.00047
vt -0.0380708 1.99719
f 150/127/35 152/128/35 149/129/35

vt 3.39068e-014 1.96244
f 152/128/35 150/127/35 151/130/35

usemtl FrontColor
vt 2.50683e-012 2.08728
vn -0.707107 -1.81793e-013 -0.707107
vt 2.10537e-012 0.000661801
vt 0.0787402 0.000661801
f 146/131/36 151/132/36 150/133/36

vt 1.96254e-011 2.08728
vn -0.707107 -6.0492e-016 -0.707107
vt 0.0787402 0.000661801
vt 0.0787402 2.08728
f 146/134/37 150/135/37 145/136/37

g Mesh11 Braket2 Model

usemtl left
v 676.104 653.481 -108.383
vn -1 5.7715e-021 -0.000640951
v 676.123 706.464 -138.424
v 676.123 653.464 -138.424
f 153/72/38 154/73/38 155/2/38

v 676.104 706.481 -108.383
f 154/73/38 153/72/38 156/74/38

usemtl FrontColor
vn -0.707107 0 0.707107
v 677.518 706.481 -106.969
f 153/75/39 157/76/39 156/77/39

v 677.518 653.481 -106.969
f 157/76/39 153/75/39 158/78/39

usemtl Metal_Panel
vn -2.67951e-005 -1 0.000533947
v 677.464 653.464 -139.772
f 153/79/40 159/80/40 158/81/40

f 159/80/40 153/79/40 155/82/40

vn -0.708791 0 -0.705419
v 677.464 706.464 -139.772
f 155/83/41 160/84/41 159/85/41

f 160/84/41 155/83/41 154/86/41

vn 2.67951e-005 1 -0.000533947
f 156/87/42 160/88/42 154/89/42

f 160/88/42 156/87/42 157/90/42

v 630.99 706.481 -63.2696
f 161/91/6 157/92/6 156/93/6

v 632.404 706.481 -61.8554
f 157/92/6 161/91/6 162/94/6

v 599.604 706.481 -61.8764
f 161/95/6 163/96/6 162/97/6

v 601.019 706.481 -63.2906
f 163/96/6 161/95/6 164/98/6

usemtl left1_
vn 0.000701438 -8.50982e-016 -1
v 601.019 653.481 -63.2906
f 161/99/43 165/100/43 164/101/43

v 630.99 653.481 -63.2696
f 165/100/43 161/99/43 166/102/43

usemtl CenterBraket
vn -0.707107 -9.01532e-016 -0.707107
f 156/103/44 166/104/44 161/105/44

f 166/104/44 156/103/44 153/106/44

usemtl Metal_Panel
vn -0 -1 -0
f 158/107/45 166/108/45 153/109/45

v 632.404 653.481 -61.8554
f 166/108/45 158/107/45 167/110/45

vn 0.707107 9.57246e-014 0.707107
f 158/111/46 162/112/46 167/113/46

f 162/112/46 158/111/46 157/114/46

vn 0.999999 -7.82073e-020 -0.00164036
f 158/115/47 160/116/47 157/117/47

f 160/116/47 158/115/47 159/118/47

vn -0.000640951 1.31951e-013 1
v 599.604 653.481 -61.8764
f 162/119/48 168/120/48 167/121/48

f 168/120/48 162/119/48 163/122/48

vn -0.707107 0 -0.707107
f 164/123/49 168/124/49 163/125/49

f 168/124/49 164/123/49 165/126/49

vn -1.7216e-014 -1 -1.15318e-017
f 166/127/50 168/128/50 165/129/50

f 168/128/50 166/127/50 167/130/50

usemtl FrontColor
vn 0.707107 -1.81793e-013 -0.707107
f 162/131/51 167/132/51 166/133/51

vn 0.707107 -6.0492e-016 -0.707107
f 162/134/52 166/135/52 161/136/52

g Mesh12 Braket3 Model

usemtl left
v 63.3734 652.974 -631.699
vn 1 5.7715e-021 0.000640951
v 63.3541 705.957 -601.657
v 63.3541 652.957 -601.657
f 169/72/53 170/73/53 171/2/53

v 63.3734 705.974 -631.699
f 170/73/53 169/72/53 172/74/53

usemtl FrontColor
vn 0.707107 0 -0.707107
v 61.9591 705.974 -633.113
f 169/75/54 173/76/54 172/77/54

v 61.9591 652.974 -633.113
f 173/76/54 169/75/54 174/78/54

usemtl Metal_Panel
vn 2.67951e-005 -1 -0.000533947
v 62.0129 652.957 -600.31
f 169/79/55 175/80/55 174/81/55

f 175/80/55 169/79/55 171/82/55

vn 0.708791 0 0.705419
v 62.0129 705.957 -600.31
f 171/83/56 176/84/56 175/85/56

f 176/84/56 171/83/56 170/86/56

vn -2.67951e-005 1 0.000533947
f 172/87/57 176/88/57 170/89/57

f 176/88/57 172/87/57 173/90/57

v 108.487 705.974 -676.812
f 177/91/6 173/92/6 172/93/6

v 107.073 705.974 -678.226
f 173/92/6 177/91/6 178/94/6

v 139.873 705.974 -678.205
f 177/95/6 179/96/6 178/97/6

v 138.458 705.974 -676.791
f 179/96/6 177/95/6 180/98/6

usemtl left1_
vn -0.000701438 -8.50982e-016 1
v 138.458 652.974 -676.791
f 177/99/58 181/100/58 180/101/58

v 108.487 652.974 -676.812
f 181/100/58 177/99/58 182/102/58

usemtl CenterBraket
vn 0.707107 -9.01532e-016 0.707107
f 172/103/59 182/104/59 177/105/59

f 182/104/59 172/103/59 169/106/59

usemtl Metal_Panel
f 174/107/1 182/108/1 169/109/1

v 107.073 652.974 -678.226
f 182/108/1 174/107/1 183/110/1

vn -0.707107 9.57246e-014 -0.707107
f 174/111/60 178/112/60 183/113/60

f 178/112/60 174/111/60 173/114/60

vn -0.999999 -7.82073e-020 0.00164036
f 174/115/61 176/116/61 173/117/61

f 176/116/61 174/115/61 175/118/61

vn 0.000640951 1.31951e-013 -1
v 139.873 652.974 -678.205
f 178/119/62 184/120/62 183/121/62

f 184/120/62 178/119/62 179/122/62

vn 0.707107 0 0.707107
f 180/123/63 184/124/63 179/125/63

f 184/124/63 180/123/63 181/126/63

vn 1.7216e-014 -1 1.15318e-017
f 182/127/64 184/128/64 181/129/64

f 184/128/64 182/127/64 183/130/64

usemtl FrontColor
vn -0.707107 -1.81793e-013 0.707107
f 178/131/65 183/132/65 182/133/65

vn -0.707107 -6.0492e-016 0.707107
f 178/134/66 182/135/66 177/136/66

g Mesh13 Braket4 Model

usemtl left
v 108.702 653.214 -63.2549
vn 0.000640951 5.7715e-021 -1
v 138.743 706.197 -63.2357
v 138.743 653.197 -63.2357
f 185/72/67 186/73/67 187/2/67

v 108.702 706.214 -63.2549
f 186/73/67 185/72/67 188/74/67

usemtl FrontColor
vn -0.707107 0 -0.707107
v 107.287 706.214 -61.8407
f 185/75/68 189/76/68 188/77/68

v 107.287 653.214 -61.8407
f 189/76/68 185/75/68 190/78/68

usemtl Metal_Panel
vn -0.000533947 -1 -2.67951e-005
v 140.091 653.197 -61.8945
f 185/79/69 191/80/69 190/81/69

f 191/80/69 185/79/69 187/82/69

vn 0.705419 0 -0.708791
v 140.091 706.197 -61.8945
f 187/83/70 192/84/70 191/85/70

f 192/84/70 187/83/70 186/86/70

vn 0.000533947 1 2.67951e-005
f 188/87/71 192/88/71 186/89/71

f 192/88/71 188/87/71 189/90/71

v 63.5881 706.214 -108.368
f 193/91/6 189/92/6 188/93/6

v 62.1739 706.214 -106.954
f 189/92/6 193/91/6 194/94/6

v 62.1949 706.214 -139.754
f 193/95/6 195/96/6 194/97/6

v 63.6091 706.214 -138.34
f 195/96/6 193/95/6 196/98/6

usemtl left1_
vn 1 -8.50982e-016 0.000701438
v 63.6091 653.214 -138.34
f 193/99/72 197/100/72 196/101/72

v 63.5881 653.214 -108.368
f 197/100/72 193/99/72 198/102/72

usemtl CenterBraket
vn 0.707107 -9.01532e-016 -0.707107
f 188/103/73 198/104/73 193/105/73

f 198/104/73 188/103/73 185/106/73

usemtl Metal_Panel
f 190/107/1 198/108/1 185/109/1

v 62.1739 653.214 -106.954
f 198/108/1 190/107/1 199/110/1

vn -0.707107 9.57246e-014 0.707107
f 190/111/74 194/112/74 199/113/74

f 194/112/74 190/111/74 189/114/74

vn 0.00164036 -7.82073e-020 0.999999
f 190/115/75 192/116/75 189/117/75

f 192/116/75 190/115/75 191/118/75

vn -1 1.31951e-013 -0.000640951
v 62.1949 653.214 -139.754
f 194/119/76 200/120/76 199/121/76

f 200/120/76 194/119/76 195/122/76

vn 0.707107 0 -0.707107
f 196/123/77 200/124/77 195/125/77

f 200/124/77 196/123/77 197/126/77

vn 1.15318e-017 -1 -1.7216e-014
f 198/127/78 200/128/78 197/129/78

f 200/128/78 198/127/78 199/130/78

usemtl FrontColor
vn 0.707107 -1.81793e-013 0.707107
f 194/131/79 199/132/79 198/133/79

vn 0.707107 -6.0492e-016 0.707107
f 194/134/80 198/135/80 193/136/80

