# Alias OBJ Model File
# Exported from SketchUp, (c) 2000-2006 Google, Inc.
# File units = inches

mtllib lack_bookcase_3_obj0_object.mtl

g Mesh1 Lack_Wall_Shelf_Open_Stack___W1 Model

usemtl White
v 19.3204 2 -13.8546
vt 11.75 -11
vn 0 1 -0
v 7.57036 2 -22.8546
vt 0 -2
v 7.57036 2 -13.8546
vt 0 -11
f 1/1/1 2/2/1 3/3/1

v 19.3204 2 -22.8546
vt 11.75 -2
f 2/2/1 1/1/1 4/4/1

vt -11 2
vn 1 0 -0
v 19.3204 0 -22.8546
vt -2 0
vt -2 2
f 1/5/2 5/6/2 4/7/2

v 19.3204 0 -13.8546
vt -11 0
f 5/6/2 1/5/2 6/8/2

vt 11.75 2
vn 0 0 1
v 7.57036 0 -13.8546
vt 0 0
vt 11.75 0
f 1/9/3 7/10/3 6/11/3

vt 0 2
f 7/10/3 1/9/3 3/12/3

vt 2 2
vn -1 0 -0
vt 11 0
vt 11 2
f 2/13/4 7/14/4 3/15/4

v 7.57036 0 -22.8546
vt 2 0
f 7/14/4 2/13/4 8/16/4

v 7.57036 74.75 -24.8546
vt 0 74.75
f 2/13/4 9/17/4 8/16/4

v 7.57036 12.125 -22.8546
vt 2 12.125
f 10/18/4 9/17/4 2/13/4

v 7.57036 14.125 -22.8546
vt 2 14.125
f 11/19/4 9/17/4 10/18/4

v 7.57036 24.25 -22.8546
vt 2 24.25
f 12/20/4 9/17/4 11/19/4

v 7.57036 26.25 -22.8546
vt 2 26.25
f 13/21/4 9/17/4 12/20/4

v 7.57036 36.375 -22.8546
vt 2 36.375
f 14/22/4 9/17/4 13/21/4

v 7.57036 38.375 -22.8546
vt 2 38.375
f 15/23/4 9/17/4 14/22/4

v 7.57036 48.5 -22.8546
vt 2 48.5
f 16/24/4 9/17/4 15/23/4

v 7.57036 50.5 -22.8546
vt 2 50.5
f 17/25/4 9/17/4 16/24/4

v 7.57036 60.625 -22.8546
vt 2 60.625
f 18/26/4 9/17/4 17/25/4

v 7.57036 62.625 -22.8546
vt 2 62.625
f 19/27/4 9/17/4 18/26/4

v 7.57036 72.75 -22.8546
vt 2 72.75
f 20/28/4 9/17/4 19/27/4

v 7.57036 74.75 -22.8546
vt 2 74.75
f 9/17/4 20/28/4 21/29/4

v 7.57036 72.75 -13.8546
vt 11 72.75
f 22/30/4 21/29/4 20/28/4

v 7.57036 74.75 -13.8546
vt 11 74.75
f 21/29/4 22/30/4 23/31/4

vt 0 72.75
v 19.3204 74.75 -13.8546
vt 11.75 74.75
f 22/32/3 24/33/3 23/17/3

v 19.3204 72.75 -13.8546
vt 11.75 72.75
f 24/33/3 22/32/3 25/34/3

vn 0 -1 -0
v 19.3204 72.75 -22.8546
vt -11.75 -2
vt -11.75 -11
f 22/3/5 26/35/5 25/36/5

vt 0 -2
f 26/35/5 22/3/5 20/37/5

usemtl Wood_Board_Particle
vt 0 0.333333
vn 0 0 -1
vt -1.95833 0
f 21/38/6 26/39/6 20/10/6

v 19.3204 74.75 -22.8546
vt -1.95833 0.333333
f 26/39/6 21/38/6 27/40/6

usemtl White
vt 11.75 -2
f 21/37/1 24/1/1 27/41/1

f 24/1/1 21/37/1 23/3/1

vt -11 74.75
vt -2 72.75
vt -2 74.75
f 24/42/2 26/43/2 27/44/2

vt -11 72.75
f 26/43/2 24/42/2 25/45/2

v 19.3204 14.125 -22.8546
vt -2 14.125
f 26/43/2 28/46/2 27/44/2

v 19.3204 62.625 -22.8546
vt -2 62.625
f 29/47/2 28/46/2 26/43/2

v 19.3204 60.625 -22.8546
vt -2 60.625
f 30/48/2 28/46/2 29/47/2

v 19.3204 50.5 -22.8546
vt -2 50.5
f 31/49/2 28/46/2 30/48/2

v 19.3204 48.5 -22.8546
vt -2 48.5
f 32/50/2 28/46/2 31/49/2

v 19.3204 38.375 -22.8546
vt -2 38.375
f 33/51/2 28/46/2 32/50/2

v 19.3204 36.375 -22.8546
vt -2 36.375
f 34/52/2 28/46/2 33/51/2

v 19.3204 26.25 -22.8546
vt -2 26.25
f 35/53/2 28/46/2 34/52/2

v 19.3204 24.25 -22.8546
vt -2 24.25
f 28/46/2 35/53/2 36/54/2

v 19.3204 26.25 -13.8546
vt -11 26.25
f 37/55/2 36/54/2 35/53/2

v 19.3204 24.25 -13.8546
vt -11 24.25
f 36/54/2 37/55/2 38/56/2

vt 11.75 26.25
v 7.57036 24.25 -13.8546
vt 0 24.25
vt 11.75 24.25
f 37/57/3 39/58/3 38/59/3

v 7.57036 26.25 -13.8546
vt 0 26.25
f 39/58/3 37/57/3 40/60/3

f 37/1/1 13/37/1 40/3/1

f 13/37/1 37/1/1 35/41/1

f 12/58/3 35/57/3 13/60/3

f 35/57/3 12/58/3 36/59/3

f 36/35/5 39/3/5 12/37/5

f 39/3/5 36/35/5 38/36/5

vt 11 24.25
f 39/61/4 13/21/4 12/20/4

vt 11 26.25
f 13/21/4 39/61/4 40/62/4

vt -3.02359e-016 14.125
vn 1.51179e-016 -1.75443e-016 1
vt -3.02359e-016 24.25
f 11/63/7 36/59/7 12/64/7

vt 11.75 14.125
f 36/59/7 11/63/7 28/65/7

v 19.3204 14.125 -13.8546
f 11/37/1 41/1/1 28/4/1

v 7.57036 14.125 -13.8546
f 41/1/1 11/37/1 42/3/1

v 7.57036 12.125 -13.8546
vt 11 12.125
vt 11 14.125
f 11/19/4 43/66/4 42/67/4

f 43/66/4 11/19/4 10/18/4

vt -3.02359e-016 12.125
vn 1.51179e-016 -8.88178e-016 1
f 10/68/8 28/65/8 11/63/8

v 19.3204 12.125 -22.8546
vt 11.75 12.125
f 28/65/8 10/68/8 44/69/8

vt -11.75 -2
f 44/70/5 43/3/5 10/2/5

v 19.3204 12.125 -13.8546
f 43/3/5 44/70/5 45/36/5

vt -2 12.125
vt -11 14.125
vt -11 12.125
f 44/71/2 41/72/2 45/73/2

f 41/72/2 44/71/2 28/46/2

v 19.3204 0 -24.8546
f 44/71/2 46/10/2 28/46/2

f 4/7/2 46/10/2 44/71/2

f 46/10/2 4/7/2 5/6/2

f 4/9/3 8/10/3 5/11/3

f 8/10/3 4/9/3 2/12/3

f 44/69/3 2/12/3 4/9/3

vt 0 12.125
f 2/12/3 44/69/3 10/74/3

f 5/70/5 7/3/5 8/2/5

f 7/3/5 5/70/5 6/36/5

vt -11.75 0
f 8/2/5 46/75/5 5/70/5

v 7.57036 0 -24.8546
f 46/75/5 8/2/5 47/10/5

f 8/16/4 9/17/4 47/10/4

f 9/17/6 46/75/6 47/10/6

v 19.3204 74.75 -24.8546
vt -11.75 74.75
f 46/75/6 9/17/6 48/76/6

f 9/10/1 27/41/1 48/11/1

f 27/41/1 9/10/1 21/37/1

f 27/44/2 28/46/2 48/17/2

f 48/17/2 28/46/2 46/10/2

f 41/65/3 43/74/3 45/69/3

vt 0 14.125
f 43/74/3 41/65/3 42/77/3

vt 11.75 36.375
f 34/78/3 13/60/3 35/57/3

vt 0 36.375
f 13/60/3 34/78/3 14/79/3

v 7.57036 36.375 -13.8546
f 34/35/5 49/3/5 14/37/5

v 19.3204 36.375 -13.8546
f 49/3/5 34/35/5 50/36/5

v 19.3204 38.375 -13.8546
vt -11 38.375
vt -11 36.375
f 34/52/2 51/80/2 50/81/2

f 51/80/2 34/52/2 33/51/2

vt 11.75 38.375
f 33/82/3 14/79/3 34/78/3

vt 0 38.375
f 14/79/3 33/82/3 15/83/3

f 15/37/1 51/1/1 33/41/1

v 7.57036 38.375 -13.8546
f 51/1/1 15/37/1 52/3/1

vt 11 36.375
vt 11 38.375
f 15/23/4 49/84/4 52/85/4

f 49/84/4 15/23/4 14/22/4

f 49/79/3 51/82/3 52/83/3

f 51/82/3 49/79/3 50/78/3

vt 11.75 48.5
f 32/86/3 15/83/3 33/82/3

vt 0 48.5
f 15/83/3 32/86/3 16/87/3

v 7.57036 48.5 -13.8546
f 32/35/5 53/3/5 16/37/5

v 19.3204 48.5 -13.8546
f 53/3/5 32/35/5 54/36/5

v 19.3204 50.5 -13.8546
vt -11 50.5
vt -11 48.5
f 32/50/2 55/88/2 54/89/2

f 55/88/2 32/50/2 31/49/2

usemtl Wood_Board_Particle
vt 0 0.333333
vt -1.95833 0.333333
f 32/39/6 17/90/6 31/91/6

f 17/90/6 32/39/6 16/10/6

usemtl White
vt 11 48.5
f 53/92/4 17/25/4 16/24/4

v 7.57036 50.5 -13.8546
vt 11 50.5
f 17/25/4 53/92/4 56/93/4

vt 11.75 50.5
vt 0 50.5
f 53/87/3 55/94/3 56/95/3

f 55/94/3 53/87/3 54/86/3

f 55/1/1 17/37/1 56/3/1

f 17/37/1 55/1/1 31/41/1

vt 11.75 60.625
f 30/96/3 17/95/3 31/94/3

vt 0 60.625
f 17/95/3 30/96/3 18/97/3

v 7.57036 60.625 -13.8546
f 30/35/5 57/3/5 18/37/5

v 19.3204 60.625 -13.8546
f 57/3/5 30/35/5 58/36/5

v 19.3204 62.625 -13.8546
vt -11 62.625
vt -11 60.625
f 30/48/2 59/98/2 58/99/2

f 59/98/2 30/48/2 29/47/2

vt 11.75 62.625
f 29/100/3 18/97/3 30/96/3

vt 0 62.625
f 18/97/3 29/100/3 19/101/3

f 19/37/1 59/1/1 29/41/1

v 7.57036 62.625 -13.8546
f 59/1/1 19/37/1 60/3/1

vt 11 60.625
vt 11 62.625
f 19/27/4 57/102/4 60/103/4

f 57/102/4 19/27/4 18/26/4

f 57/97/3 59/100/3 60/101/3

f 59/100/3 57/97/3 58/96/3

f 26/34/3 19/101/3 29/100/3

f 19/101/3 26/34/3 20/32/3

