# Alias OBJ Model File
# Exported from SketchUp, (c) 2000-2006 Google, Inc.
# File units = inches

mtllib expedit_bookcase_4x4_obj0_object.mtl

g Mesh1 expedit_bookcase_outside_vert1 expedit_bookcase1 Model

usemtl Color_007
v 78.2024 56.625 -26.8748
vt -15.375 2
vn 7.4063e-013 1 -0
v 76.2024 56.625 -11.4998
vt 0 -2.84217e-014
v 78.2024 56.625 -11.4998
vt 0 2
f 1/1/1 2/2/1 3/3/1

v 76.2024 56.625 -26.8748
vt -15.375 -2.84217e-014
f 2/2/1 1/1/1 4/4/1

v 78.2024 2 -26.8748
vt -56.6314 2
vn 0 0 -1
vt -2.00637 -2.84217e-014
vt -2.00637 2
f 5/5/2 4/6/2 1/7/2

v 76.2024 2 -26.8748
vt -56.6314 -1.46372e-012
f 4/6/2 5/5/2 6/8/2

v 78.2024 2 -11.4998
vt 0 2
vn -7.38964e-013 -1 -0
vt 15.375 -1.55803e-012
vt 15.375 2
f 7/9/3 6/10/3 5/11/3

v 76.2024 2 -11.4998
vt 0 -1.55803e-012
f 6/10/3 7/9/3 8/12/3

vt 56.6314 2
vn 0 -0 1
vt 2.00637 -2.84217e-014
vt 56.6314 -1.46372e-012
f 7/13/4 2/14/4 8/15/4

vt 2.00637 2
f 2/14/4 7/13/4 3/16/4

vt 56.6314 0
vn 1 -7.66931e-013 -0
vt 2.00637 15.375
vt 2.00637 0
f 7/17/5 1/18/5 3/19/5

vt 56.6314 15.375
f 1/18/5 7/17/5 5/20/5

vt -2.00637 0
vn -1 7.66931e-013 -0
vt -56.6314 15.375
vt -56.6314 0
f 2/21/6 6/22/6 8/23/6

vt -2.00637 15.375
f 6/22/6 2/21/6 4/24/6

g Mesh2 expedit_bookcase_outside_horiz1 expedit_bookcase1 Model

v 78.2024 2 -11.4998
vt 58.625 2
vn 0 0 1
v 19.5774 0 -11.4998
vt 0 0
v 78.2024 0 -11.4998
vt 58.625 0
f 9/25/7 10/26/7 11/27/7

v 19.5774 2 -11.4998
vt 0 2
f 10/26/7 9/25/7 12/28/7

vn 0 1 -0
v 19.5774 2 -26.8748
vt 0 15.375
f 9/27/8 13/29/8 12/26/8

v 78.2024 2 -26.8748
vt 58.625 15.375
f 13/29/8 9/27/8 14/30/8

vn 1 0 -0
v 78.2024 0 -26.8748
vt 15.375 0
vt 15.375 2
f 9/28/9 15/31/9 14/32/9

f 15/31/9 9/28/9 11/26/9

vn 0 -1 -0
vt -58.625 15.375
vt -58.625 0
f 10/26/10 15/33/10 11/34/10

v 19.5774 0 -26.8748
f 15/33/10 10/26/10 16/29/10

vn -1 0 -0
vt -15.375 2
vt -15.375 0
f 10/26/11 13/35/11 16/36/11

f 13/35/11 10/26/11 12/28/11

f 13/28/2 15/34/2 16/26/2

vt -58.625 2
f 15/34/2 13/28/2 14/37/2

g Mesh3 expedit_bookcase_outside_horiz2 expedit_bookcase1 Model

v 78.2024 58.625 -11.4998
v 19.5774 56.625 -11.4998
v 78.2024 56.625 -11.4998
f 17/25/7 18/26/7 19/27/7

v 19.5774 58.625 -11.4998
f 18/26/7 17/25/7 20/28/7

v 19.5774 58.625 -26.8748
f 17/27/8 21/29/8 20/26/8

v 78.2024 58.625 -26.8748
f 21/29/8 17/27/8 22/30/8

v 78.2024 56.625 -26.8748
f 17/28/9 23/31/9 22/32/9

f 23/31/9 17/28/9 19/26/9

f 18/26/10 23/33/10 19/34/10

v 19.5774 56.625 -26.8748
f 23/33/10 18/26/10 24/29/10

f 18/26/11 21/35/11 24/36/11

f 21/35/11 18/26/11 20/28/11

f 21/28/2 23/34/2 24/26/2

f 23/34/2 21/28/2 22/37/2

g Mesh4 expedit_bookcase_shelf_vert1 expedit_bookcase1 Model

v 34.9836 56.625 -11.4998
vt 0 2
vn 7.4063e-013 1 -0
v 35.4836 56.625 -11.4998
vt 0 1.5
v 34.9836 56.625 -26.8748
vt -15.375 2
f 25/38/12 26/39/12 27/40/12

vt 2.00637 2
vn -0 0 1
v 34.9836 43.2188 -11.4998
vt 15.4126 2
vt 2.00637 1.5
f 25/41/13 28/42/13 26/43/13

vt 2.00637 3.5558e-029
vn -1 7.12332e-013 1.7779e-029
vt 2.00637 15.375
vt 15.4126 3.5558e-029
f 25/44/14 27/45/14 28/46/14

v 34.9836 43.2188 -26.8748
vt 15.4126 15.375
f 29/47/14 28/46/14 27/45/14

vt 15.4126 0
vn -1 7.10543e-013 -0
v 34.9836 42.7188 -11.4998
vt 15.9126 0
f 28/48/15 29/47/15 30/49/15

f 28/48/15 29/47/15 30/49/15

v 34.9836 42.7188 -26.8748
vt 15.9126 15.375
f 31/50/15 30/49/15 29/47/15

vn -1 7.12906e-013 -0
v 34.9836 29.5625 -11.4998
vt 29.0689 0
f 30/49/16 31/50/16 32/51/16

f 31/50/15 30/49/15 29/47/15

vt -15.4126 2
vn -3.78653e-029 -2.45706e-029 -1
v 35.4836 56.625 -26.8748
vt -2.00637 1.5
vt -15.9126 2
f 29/52/17 33/53/17 31/54/17

vt -2.00637 2
f 27/55/17 33/53/17 29/52/17

vt -15.375 1.5
f 33/56/12 27/40/12 26/39/12

vt -2.00637 15.375
vn 1 -7.11271e-013 3.61161e-030
vt -2.00637 -5.41741e-030
v 35.4836 43.2188 -26.8748
vt -15.4126 15.375
f 33/57/18 26/58/18 34/59/18

v 35.4836 43.2188 -11.4998
vt -15.4126 -5.41741e-030
f 35/60/18 34/59/18 26/58/18

vn 1 -7.10543e-013 -0
vt -15.4126 0
v 35.4836 42.7188 -26.8748
vt -15.9126 15.375
f 34/59/19 35/61/19 36/62/19

f 34/59/19 35/61/19 36/62/19

v 35.4836 42.7188 -11.4998
vt -15.9126 0
f 37/63/19 36/62/19 35/61/19

f 37/63/19 36/62/19 35/61/19

vt -15.9126 15.375
vn 1 -7.12906e-013 -0
vt -15.9126 0
v 35.4836 29.5625 -26.8748
vt -29.0689 15.375
f 36/64/20 37/65/20 38/66/20

v 35.4836 29.5625 -11.4998
vt -29.0689 0
f 39/67/20 38/66/20 37/65/20

vn 1 -7.10543e-013 -0
v 35.4836 29.0625 -26.8748
vt -29.5689 15.375
f 38/66/21 39/67/21 40/68/21

f 38/66/21 39/67/21 40/68/21

v 35.4836 29.0625 -11.4998
vt -29.5689 0
f 41/69/21 40/68/21 39/67/21

f 41/69/21 40/68/21 39/67/21

vn 1 -7.12906e-013 -0
v 35.4836 15.9063 -26.8748
vt -42.7251 15.375
f 40/68/22 41/69/22 42/70/22

v 35.4836 15.9063 -11.4998
vt -42.7251 0
f 43/71/22 42/70/22 41/69/22

v 35.4836 15.4063 -26.8748
vt -43.2251 15.375
f 42/70/21 43/71/21 44/72/21

f 42/70/21 43/71/21 44/72/21

v 35.4836 15.4063 -11.4998
vt -43.2251 0
f 45/73/21 44/72/21 43/71/21

f 45/73/21 44/72/21 43/71/21

vn 1 -7.12332e-013 1.7779e-029
vt -43.2251 -2.66685e-029
v 35.4836 2 -26.8748
f 44/72/23 45/74/23 46/22/23

v 35.4836 2 -11.4998
vt -56.6314 -2.66685e-029
f 47/75/23 46/22/23 45/74/23

vt 0 1.5
vn -7.42295e-013 -1 -0
v 34.9836 2 -11.4998
vt 0 2
vt 15.375 1.5
f 47/76/24 48/77/24 46/78/24

vt 56.6314 1.5
vt 43.2251 1.5
vt 56.6314 2
f 47/79/13 45/80/13 48/81/13

vt 42.7251 1.5
f 43/82/13 48/81/13 45/80/13

vt 29.5689 1.5
f 41/83/13 48/81/13 43/82/13

vt 29.0689 1.5
f 39/84/13 48/81/13 41/83/13

vt 15.9126 1.5
f 37/85/13 48/81/13 39/84/13

vt 15.4126 1.5
f 35/86/13 48/81/13 37/85/13

f 26/43/13 48/81/13 35/86/13

vt 15.9126 2
f 30/87/13 48/81/13 26/43/13

v 34.9836 15.4063 -11.4998
vt 43.2251 2
f 49/88/13 48/81/13 30/87/13

vt 43.2251 7.26453e-030
vn -1 7.12332e-013 3.63227e-030
v 34.9836 15.4063 -26.8748
vt 43.2251 15.375
vt 56.6314 7.26453e-030
f 49/89/25 50/90/25 48/91/25

vn -1 7.10543e-013 -0
vt 43.2251 0
v 34.9836 15.9063 -26.8748
vt 42.7251 15.375
f 50/90/26 49/92/26 51/93/26

f 50/90/26 49/92/26 51/93/26

v 34.9836 15.9063 -11.4998
vt 42.7251 0
f 52/94/26 51/93/26 49/92/26

vn -1 7.12906e-013 -0
v 34.9836 29.0625 -26.8748
vt 29.5689 15.375
f 51/93/27 52/94/27 53/95/27

f 52/94/26 51/93/26 49/92/26

vt 42.7251 2
f 52/96/13 49/88/13 30/87/13

v 34.9836 29.0625 -11.4998
vt 29.5689 2
f 54/97/13 52/96/13 30/87/13

vt 29.5689 0
f 54/98/27 53/95/27 52/94/27

v 34.9836 29.5625 -26.8748
vt 29.0689 15.375
f 53/95/26 54/98/26 55/99/26

f 32/51/26 55/99/26 54/98/26

f 55/99/16 32/51/16 31/50/16

vt -29.0689 2
vt -29.5689 2
f 55/100/17 31/54/17 53/101/17

vt -42.7251 2
f 53/101/17 31/54/17 51/102/17

vt -43.2251 2
f 51/102/17 31/54/17 50/103/17

v 34.9836 2 -26.8748
vt -56.6314 2
f 50/103/17 31/54/17 56/104/17

f 31/54/17 33/53/17 56/104/17

vt -15.4126 1.5
f 33/53/17 34/105/17 56/104/17

vt -15.9126 1.5
f 34/105/17 36/106/17 56/104/17

vt -29.0689 1.5
f 36/106/17 38/107/17 56/104/17

vt -29.5689 1.5
f 38/107/17 40/108/17 56/104/17

vt -42.7251 1.5
f 40/108/17 42/109/17 56/104/17

vt -43.2251 1.5
f 42/109/17 44/110/17 56/104/17

vt -56.6314 1.5
f 46/111/17 56/104/17 44/110/17

vt 15.375 2
f 56/112/24 46/78/24 48/77/24

vt 56.6314 15.375
f 56/113/25 48/91/25 50/90/25

vt 29.0689 2
f 32/114/13 54/97/13 30/87/13

f 28/42/13 30/87/13 26/43/13

g Mesh5 expedit_bookcase_shelf_vert2 expedit_bookcase1 Model

v 62.2961 56.625 -11.4998
v 62.7961 56.625 -11.4998
v 62.2961 56.625 -26.8748
f 57/38/12 58/39/12 59/40/12

v 62.2961 43.2188 -11.4998
f 57/41/13 60/42/13 58/43/13

f 57/44/14 59/45/14 60/46/14

v 62.2961 43.2188 -26.8748
f 61/47/14 60/46/14 59/45/14

v 62.2961 42.7188 -11.4998
f 60/48/15 61/47/15 62/49/15

f 60/48/15 61/47/15 62/49/15

v 62.2961 42.7188 -26.8748
f 63/50/15 62/49/15 61/47/15

v 62.2961 29.5625 -11.4998
f 62/49/16 63/50/16 64/51/16

f 63/50/15 62/49/15 61/47/15

v 62.7961 56.625 -26.8748
f 61/52/17 65/53/17 63/54/17

f 59/55/17 65/53/17 61/52/17

f 65/56/12 59/40/12 58/39/12

v 62.7961 43.2188 -26.8748
f 65/57/18 58/58/18 66/59/18

v 62.7961 43.2188 -11.4998
f 67/60/18 66/59/18 58/58/18

v 62.7961 42.7188 -26.8748
f 66/59/19 67/61/19 68/62/19

f 66/59/19 67/61/19 68/62/19

v 62.7961 42.7188 -11.4998
f 69/63/19 68/62/19 67/61/19

f 69/63/19 68/62/19 67/61/19

v 62.7961 29.5625 -26.8748
f 68/64/20 69/65/20 70/66/20

v 62.7961 29.5625 -11.4998
f 71/67/20 70/66/20 69/65/20

v 62.7961 29.0625 -26.8748
f 70/66/21 71/67/21 72/68/21

f 70/66/21 71/67/21 72/68/21

v 62.7961 29.0625 -11.4998
f 73/69/21 72/68/21 71/67/21

f 73/69/21 72/68/21 71/67/21

v 62.7961 15.9063 -26.8748
f 72/68/22 73/69/22 74/70/22

v 62.7961 15.9063 -11.4998
f 75/71/22 74/70/22 73/69/22

v 62.7961 15.4063 -26.8748
f 74/70/21 75/71/21 76/72/21

f 74/70/21 75/71/21 76/72/21

v 62.7961 15.4063 -11.4998
f 77/73/21 76/72/21 75/71/21

f 77/73/21 76/72/21 75/71/21

v 62.7961 2 -26.8748
f 76/72/23 77/74/23 78/22/23

v 62.7961 2 -11.4998
f 79/75/23 78/22/23 77/74/23

v 62.2961 2 -11.4998
f 79/76/24 80/77/24 78/78/24

f 79/79/13 77/80/13 80/81/13

f 75/82/13 80/81/13 77/80/13

f 73/83/13 80/81/13 75/82/13

f 71/84/13 80/81/13 73/83/13

f 69/85/13 80/81/13 71/84/13

f 67/86/13 80/81/13 69/85/13

f 58/43/13 80/81/13 67/86/13

f 62/87/13 80/81/13 58/43/13

v 62.2961 15.4063 -11.4998
f 81/88/13 80/81/13 62/87/13

v 62.2961 15.4063 -26.8748
f 81/89/25 82/90/25 80/91/25

v 62.2961 15.9063 -26.8748
f 82/90/26 81/92/26 83/93/26

f 82/90/26 81/92/26 83/93/26

v 62.2961 15.9063 -11.4998
f 84/94/26 83/93/26 81/92/26

v 62.2961 29.0625 -26.8748
f 83/93/27 84/94/27 85/95/27

f 84/94/26 83/93/26 81/92/26

f 84/96/13 81/88/13 62/87/13

v 62.2961 29.0625 -11.4998
f 86/97/13 84/96/13 62/87/13

f 86/98/27 85/95/27 84/94/27

v 62.2961 29.5625 -26.8748
f 85/95/26 86/98/26 87/99/26

f 64/51/26 87/99/26 86/98/26

f 87/99/16 64/51/16 63/50/16

f 87/100/17 63/54/17 85/101/17

f 85/101/17 63/54/17 83/102/17

f 83/102/17 63/54/17 82/103/17

v 62.2961 2 -26.8748
f 82/103/17 63/54/17 88/104/17

f 63/54/17 65/53/17 88/104/17

f 65/53/17 66/105/17 88/104/17

f 66/105/17 68/106/17 88/104/17

f 68/106/17 70/107/17 88/104/17

f 70/107/17 72/108/17 88/104/17

f 72/108/17 74/109/17 88/104/17

f 74/109/17 76/110/17 88/104/17

f 78/111/17 88/104/17 76/110/17

f 88/112/24 78/78/24 80/77/24

f 88/113/25 80/91/25 82/90/25

f 64/114/13 86/97/13 62/87/13

f 60/42/13 62/87/13 58/43/13

g Mesh6 expedit_bookcase_shelf_horiz1 expedit_bookcase1 Model

v 21.5774 15.4063 -11.4998
vn -1 7.40691e-013 -0
v 21.5774 15.9063 -11.4998
v 21.5774 15.4063 -26.8748
f 89/38/28 90/39/28 91/40/28

vt 2.00637 2
v 76.2024 15.4063 -11.4998
vt 56.6314 2
f 89/115/4 92/116/4 90/43/4

vt 2.00637 0
vn -7.15051e-013 -1 -0
vt 2.00637 15.375
vt 56.6314 0
f 89/117/29 91/118/29 92/119/29

v 76.2024 15.4063 -26.8748
f 93/113/29 92/119/29 91/118/29

vt 15.375 2
vn 1 -7.42356e-013 -0
v 76.2024 15.9063 -26.8748
vt 15.375 1.5
vt 0 2
f 93/120/30 94/121/30 92/122/30

vt -56.6314 1.5
vt -56.6314 2
v 21.5774 15.9063 -26.8748
f 94/123/2 93/124/2 95/53/2

vt -2.00637 2
f 91/125/2 95/53/2 93/124/2

f 95/56/28 91/40/28 90/39/28

vt -2.00637 15.375
vn 7.128e-013 1 -0
vt -2.00637 0
f 95/126/31 90/127/31 94/22/31

v 76.2024 15.9063 -11.4998
f 96/23/31 94/22/31 90/127/31

vt 0 1.5
f 96/128/30 92/122/30 94/121/30

vt 56.6314 1.5
f 96/129/4 90/43/4 92/116/4

g Mesh7 expedit_bookcase_shelf_horiz2 expedit_bookcase1 Model

v 21.5774 42.7188 -11.4998
v 21.5774 43.2188 -11.4998
v 21.5774 42.7188 -26.8748
f 97/38/28 98/39/28 99/40/28

v 76.2024 42.7187 -11.4998
f 97/115/4 100/116/4 98/43/4

f 97/117/29 99/118/29 100/119/29

v 76.2024 42.7187 -26.8748
f 101/113/29 100/119/29 99/118/29

v 76.2024 43.2187 -26.8748
f 101/120/30 102/121/30 100/122/30

v 21.5774 43.2188 -26.8748
f 102/123/2 101/124/2 103/53/2

f 99/125/2 103/53/2 101/124/2

f 103/56/28 99/40/28 98/39/28

f 103/126/31 98/127/31 102/22/31

v 76.2024 43.2187 -11.4998
f 104/23/31 102/22/31 98/127/31

f 104/128/30 100/122/30 102/121/30

f 104/129/4 98/43/4 100/116/4

g Mesh8 expedit_bookcase_shelf_horiz3 expedit_bookcase1 Model

v 21.5774 29.0625 -11.4998
v 21.5774 29.5625 -11.4998
v 21.5774 29.0625 -26.8748
f 105/38/28 106/39/28 107/40/28

v 76.2024 29.0625 -11.4998
f 105/115/4 108/116/4 106/43/4

f 105/117/29 107/118/29 108/119/29

v 76.2024 29.0625 -26.8748
f 109/113/29 108/119/29 107/118/29

v 76.2024 29.5625 -26.8748
f 109/120/30 110/121/30 108/122/30

v 21.5774 29.5625 -26.8748
f 110/123/2 109/124/2 111/53/2

f 107/125/2 111/53/2 109/124/2

f 111/56/28 107/40/28 106/39/28

f 111/126/31 106/127/31 110/22/31

v 76.2024 29.5625 -11.4998
f 112/23/31 110/22/31 106/127/31

f 112/128/30 108/122/30 110/121/30

f 112/129/4 106/43/4 108/116/4

g Mesh9 expedit_bookcase_outside_vert2 expedit_bookcase1 Model

v 19.5774 56.625 -11.4998
v 21.5774 56.625 -11.4998
v 19.5774 56.625 -26.8748
f 113/3/12 114/2/12 115/1/12

v 19.5774 2 -11.4998
f 113/16/13 116/13/13 114/14/13

vn -1 7.14329e-013 -0
f 113/19/32 115/18/32 116/17/32

v 19.5774 2 -26.8748
f 117/20/32 116/17/32 115/18/32

v 21.5774 2 -26.8748
f 117/11/24 118/10/24 116/9/24

v 21.5774 56.625 -26.8748
f 118/8/2 117/5/2 119/6/2

f 115/7/2 119/6/2 117/5/2

f 119/4/12 115/1/12 114/2/12

vn 1 -7.14329e-013 -0
f 119/24/33 114/21/33 118/22/33

v 21.5774 2 -11.4998
f 120/23/33 118/22/33 114/21/33

f 120/12/24 116/9/24 118/10/24

f 120/15/13 114/14/13 116/13/13

g Mesh10 expedit_bookcase_shelf_vert3 expedit_bookcase1 Model

v 48.6399 56.625 -11.4998
v 49.1399 56.625 -11.4998
v 48.6399 56.625 -26.8748
f 121/38/12 122/39/12 123/40/12

v 48.6399 43.2188 -11.4998
f 121/41/13 124/42/13 122/43/13

f 121/44/14 123/45/14 124/46/14

v 48.6399 43.2188 -26.8748
f 125/47/14 124/46/14 123/45/14

v 48.6399 42.7188 -11.4998
f 124/48/15 125/47/15 126/49/15

f 124/48/15 125/47/15 126/49/15

v 48.6399 42.7188 -26.8748
f 127/50/15 126/49/15 125/47/15

v 48.6399 29.5625 -11.4998
f 126/49/16 127/50/16 128/51/16

f 127/50/15 126/49/15 125/47/15

v 49.1399 56.625 -26.8748
f 125/52/17 129/53/17 127/54/17

f 123/55/17 129/53/17 125/52/17

f 129/56/12 123/40/12 122/39/12

v 49.1399 43.2188 -26.8748
f 129/57/18 122/58/18 130/59/18

v 49.1399 43.2188 -11.4998
f 131/60/18 130/59/18 122/58/18

v 49.1399 42.7188 -26.8748
f 130/59/19 131/61/19 132/62/19

f 130/59/19 131/61/19 132/62/19

v 49.1399 42.7188 -11.4998
f 133/63/19 132/62/19 131/61/19

f 133/63/19 132/62/19 131/61/19

v 49.1399 29.5625 -26.8748
f 132/64/20 133/65/20 134/66/20

v 49.1399 29.5625 -11.4998
f 135/67/20 134/66/20 133/65/20

v 49.1399 29.0625 -26.8748
f 134/66/21 135/67/21 136/68/21

f 134/66/21 135/67/21 136/68/21

v 49.1399 29.0625 -11.4998
f 137/69/21 136/68/21 135/67/21

f 137/69/21 136/68/21 135/67/21

v 49.1399 15.9063 -26.8748
f 136/68/22 137/69/22 138/70/22

v 49.1399 15.9063 -11.4998
f 139/71/22 138/70/22 137/69/22

v 49.1399 15.4063 -26.8748
f 138/70/21 139/71/21 140/72/21

f 138/70/21 139/71/21 140/72/21

v 49.1399 15.4063 -11.4998
f 141/73/21 140/72/21 139/71/21

f 141/73/21 140/72/21 139/71/21

v 49.1399 2 -26.8748
f 140/72/23 141/74/23 142/22/23

v 49.1399 2 -11.4998
f 143/75/23 142/22/23 141/74/23

v 48.6399 2 -11.4998
f 143/76/24 144/77/24 142/78/24

f 143/79/13 141/80/13 144/81/13

f 139/82/13 144/81/13 141/80/13

f 137/83/13 144/81/13 139/82/13

f 135/84/13 144/81/13 137/83/13

f 133/85/13 144/81/13 135/84/13

f 131/86/13 144/81/13 133/85/13

f 122/43/13 144/81/13 131/86/13

f 126/87/13 144/81/13 122/43/13

v 48.6399 15.4063 -11.4998
f 145/88/13 144/81/13 126/87/13

v 48.6399 15.4063 -26.8748
f 145/89/25 146/90/25 144/91/25

v 48.6399 15.9063 -26.8748
f 146/90/26 145/92/26 147/93/26

f 146/90/26 145/92/26 147/93/26

v 48.6399 15.9063 -11.4998
f 148/94/26 147/93/26 145/92/26

v 48.6399 29.0625 -26.8748
f 147/93/27 148/94/27 149/95/27

f 148/94/26 147/93/26 145/92/26

f 148/96/13 145/88/13 126/87/13

v 48.6399 29.0625 -11.4998
f 150/97/13 148/96/13 126/87/13

f 150/98/27 149/95/27 148/94/27

v 48.6399 29.5625 -26.8748
f 149/95/26 150/98/26 151/99/26

f 128/51/26 151/99/26 150/98/26

f 151/99/16 128/51/16 127/50/16

f 151/100/17 127/54/17 149/101/17

f 149/101/17 127/54/17 147/102/17

f 147/102/17 127/54/17 146/103/17

v 48.6399 2 -26.8748
f 146/103/17 127/54/17 152/104/17

f 127/54/17 129/53/17 152/104/17

f 129/53/17 130/105/17 152/104/17

f 130/105/17 132/106/17 152/104/17

f 132/106/17 134/107/17 152/104/17

f 134/107/17 136/108/17 152/104/17

f 136/108/17 138/109/17 152/104/17

f 138/109/17 140/110/17 152/104/17

f 142/111/17 152/104/17 140/110/17

f 152/112/24 142/78/24 144/77/24

f 152/113/25 144/91/25 146/90/25

f 128/114/13 150/97/13 126/87/13

f 124/42/13 126/87/13 122/43/13

