# Alias OBJ Model File
# Exported from SketchUp, (c) 2000-2006 Google, Inc.
# File units = inches

mtllib billy_bookcase_1_obj0_object.mtl

g Mesh1 sjs_ikea_solid1 sjs_ikea_billy_bookcase_1_1 Model

usemtl FrontColor
v 17.5072 53.7972 -35.9339
vt 0.75 79.5276
vn 8.5776e-014 3.30446e-014 -1
v 7.50723 53.0472 -35.9339
vt 1.98952e-012 4.26326e-014
v 7.50723 53.7972 -35.9339
vt 0.75 -2.10319e-045
f 1/1/1 2/2/1 3/3/1

v 17.5072 53.0472 -35.9339
vt 1.99663e-012 79.5276
f 2/2/1 1/1/1 4/4/1

v 17.5072 53.7972 -5.93785
vt 0.75 11
vn 1 -7.971e-014 3.79833e-013
vt 1.00542e-012 0
vt 0.75 6.39488e-014
f 5/5/2 4/6/2 1/7/2

v 17.5072 53.0472 -5.93785
vt 9.98313e-013 11
f 4/6/2 5/5/2 6/8/2

vt -0.75 79.5276
vn -8.5776e-014 -3.30446e-014 1
v 7.50723 53.0472 -5.93785
vt -9.84102e-013 -2.4302e-026
vt -2.98073e-012 79.5276
f 5/9/3 7/10/3 6/11/3

v 7.50723 53.7972 -5.93785
vt -0.75 -2.84217e-014
f 7/10/3 5/9/3 8/12/3

vt 11 79.5276
vn 1.77338e-013 1 2.45722e-013
vt -8.07435e-017 9.34777e-015
vt 11 -1.90739e-014
f 5/13/4 3/14/4 8/15/4

vt -3.63346e-015 79.5276
f 3/14/4 5/13/4 1/16/4

vt -1.98952e-012 -2.70543e-029
vn -1 7.971e-014 -3.93595e-013
vt -0.75 11
vt -0.75 6.75016e-014
f 2/17/5 8/18/5 3/19/5

vt 7.10543e-015 11
f 8/18/5 2/17/5 7/20/5

vt 1.79275e-025 4.26326e-014
vn -1.77338e-013 -1 -2.45722e-013
vt -11 79.5276
vt -11 1.22655e-026
f 2/21/6 6/22/6 7/23/6

vt 1.79915e-025 79.5276
f 6/22/6 2/21/6 4/24/6

g Mesh2 sjs_ikea_solid2 sjs_ikea_billy_bookcase_1_1 Model

v 17.5072 66.6624 -35.9339
v 7.50723 65.9124 -35.9339
v 7.50723 66.6624 -35.9339
f 9/1/1 10/2/1 11/3/1

v 17.5072 65.9124 -35.9339
f 10/2/1 9/1/1 12/4/1

v 17.5072 66.6624 -5.93785
f 13/5/2 12/6/2 9/7/2

v 17.5072 65.9124 -5.93785
f 12/6/2 13/5/2 14/8/2

v 7.50723 65.9124 -5.93785
f 13/9/3 15/10/3 14/11/3

v 7.50723 66.6624 -5.93785
f 15/10/3 13/9/3 16/12/3

f 13/13/4 11/14/4 16/15/4

f 11/14/4 13/13/4 9/16/4

f 10/17/5 16/18/5 11/19/5

f 16/18/5 10/17/5 15/20/5

f 10/21/6 14/22/6 15/23/6

f 14/22/6 10/21/6 12/24/6

g Mesh3 sjs_ikea_solid3 sjs_ikea_billy_bookcase_1_1 Model

v 17.5072 3.18198 -35.9339
v 7.50723 2.43198 -35.9339
v 7.50723 3.18198 -35.9339
f 17/1/1 18/2/1 19/3/1

v 17.5072 2.43198 -35.9339
f 18/2/1 17/1/1 20/4/1

v 17.5072 3.18198 -5.93785
f 21/5/2 20/6/2 17/7/2

v 17.5072 2.43198 -5.93785
f 20/6/2 21/5/2 22/8/2

v 7.50723 2.43198 -5.93785
f 21/9/3 23/10/3 22/11/3

v 7.50723 3.18198 -5.93785
f 23/10/3 21/9/3 24/12/3

f 21/13/4 19/14/4 24/15/4

f 19/14/4 21/13/4 17/16/4

f 18/17/5 24/18/5 19/19/5

f 24/18/5 18/17/5 23/20/5

f 18/21/6 22/22/6 23/23/6

f 22/22/6 18/21/6 20/24/6

g Mesh4 sjs_ikea_solid4 sjs_ikea_billy_bookcase_1_1 Model

v 17.5072 15.7653 -35.9339
v 7.50723 15.0153 -35.9339
v 7.50723 15.7653 -35.9339
f 25/1/1 26/2/1 27/3/1

v 17.5072 15.0153 -35.9339
f 26/2/1 25/1/1 28/4/1

v 17.5072 15.7653 -5.93785
f 29/5/2 28/6/2 25/7/2

v 17.5072 15.0153 -5.93785
f 28/6/2 29/5/2 30/8/2

v 7.50723 15.0153 -5.93785
f 29/9/3 31/10/3 30/11/3

v 7.50723 15.7653 -5.93785
f 31/10/3 29/9/3 32/12/3

f 29/13/4 27/14/4 32/15/4

f 27/14/4 29/13/4 25/16/4

f 26/17/5 32/18/5 27/19/5

f 32/18/5 26/17/5 31/20/5

f 26/21/6 30/22/6 31/23/6

f 30/22/6 26/21/6 28/24/6

g Mesh5 sjs_ikea_solid5 sjs_ikea_billy_bookcase_1_1 Model

v 8.00723 2.43198 -35.9339
vn 5.27314e-014 4.9207e-030 -1
v 8.75723 6.06046e-012 -35.9339
v 8.00723 6.05915e-012 -35.9339
f 33/1/7 34/2/7 35/3/7

v 8.75723 2.43198 -35.9339
f 34/2/7 33/1/7 36/4/7

v 8.00723 2.43198 -5.93785
vn -4.07571e-013 1 -1.55869e-025
f 37/5/8 36/6/8 33/7/8

v 8.75723 2.43198 -5.93785
f 36/6/8 37/5/8 38/8/8

vn -5.27314e-014 2.01468e-029 1
v 8.75723 6.05915e-012 -5.93785
f 37/9/9 39/10/9 38/11/9

v 8.00723 6.05828e-012 -5.93785
f 39/10/9 37/9/9 40/12/9

vn -1 -3.81145e-016 -1.34111e-013
f 37/13/10 35/14/10 40/15/10

f 35/14/10 37/13/10 33/16/10

vn 4.07571e-013 -1 -5.6588e-014
f 34/17/11 40/18/11 35/19/11

f 40/18/11 34/17/11 39/20/11

vn 1 3.81145e-016 1.34111e-013
f 34/21/12 38/22/12 39/23/12

f 38/22/12 34/21/12 36/24/12

g Mesh6 sjs_ikea_solid6 sjs_ikea_billy_bookcase_1_1 Model

v 7.25723 79.5276 -5.18785
vn -1 2.60478e-029 9.00403e-014
v 7.25723 1.27898e-013 -5.93785
v 7.25723 8.52651e-014 -5.18785
f 41/1/13 42/2/13 43/3/13

v 7.25723 79.5276 -5.93785
f 42/2/13 41/1/13 44/4/13

v 18.2572 79.5276 -5.18785
vn -8.64842e-031 1 1.24637e-014
f 45/5/14 44/6/14 41/7/14

v 18.2572 79.5276 -5.93785
f 44/6/14 45/5/14 46/8/14

vn 1 2.20927e-027 -9.00403e-014
v 18.2572 8.52651e-014 -5.93785
f 45/9/15 47/10/15 46/11/15

v 18.2572 5.68434e-014 -5.18785
f 47/10/15 45/9/15 48/12/15

vn 9.00403e-014 -1.24637e-014 1
f 45/13/16 43/14/16 48/15/16

f 43/14/16 45/13/16 41/16/16

vn -6.34593e-016 -1 -1.24637e-014
f 42/17/17 48/18/17 43/19/17

f 48/18/17 42/17/17 47/20/17

vn -9.00403e-014 1.24637e-014 -1
f 42/21/18 46/22/18 47/23/18

f 46/22/18 42/21/18 44/24/18

g Mesh7 sjs_ikea_solid7 sjs_ikea_billy_bookcase_1_1 Model

v 7.25723 79.5276 -35.9339
v 7.25723 7.10543e-014 -36.6839
v 7.25723 2.84217e-014 -35.9339
f 49/1/13 50/2/13 51/3/13

v 7.25723 79.5276 -36.6839
f 50/2/13 49/1/13 52/4/13

v 18.2572 79.5276 -35.9339
f 53/5/14 52/6/14 49/7/14

v 18.2572 79.5276 -36.6839
f 52/6/14 53/5/14 54/8/14

v 18.2572 2.84217e-014 -36.6839
f 53/9/15 55/10/15 54/11/15

v 18.2572 0 -35.9339
f 55/10/15 53/9/15 56/12/15

f 53/13/16 51/14/16 56/15/16

f 51/14/16 53/13/16 49/16/16

f 50/17/17 56/18/17 51/19/17

f 56/18/17 50/17/17 55/20/17

f 50/21/18 54/22/18 55/23/18

f 54/22/18 50/21/18 52/24/18

g Mesh8 sjs_ikea_solid8 sjs_ikea_billy_bookcase_1_1 Model

v 17.5072 28.3487 -35.9339
v 7.50723 27.5987 -35.9339
v 7.50723 28.3487 -35.9339
f 57/1/1 58/2/1 59/3/1

v 17.5072 27.5987 -35.9339
f 58/2/1 57/1/1 60/4/1

v 17.5072 28.3487 -5.93785
f 61/5/2 60/6/2 57/7/2

v 17.5072 27.5987 -5.93785
f 60/6/2 61/5/2 62/8/2

v 7.50723 27.5987 -5.93785
f 61/9/3 63/10/3 62/11/3

v 7.50723 28.3487 -5.93785
f 63/10/3 61/9/3 64/12/3

f 61/13/4 59/14/4 64/15/4

f 59/14/4 61/13/4 57/16/4

f 58/17/5 64/18/5 59/19/5

f 64/18/5 58/17/5 63/20/5

f 58/21/6 62/22/6 63/23/6

f 62/22/6 58/21/6 60/24/6

g Mesh9 sjs_ikea_solid9 sjs_ikea_billy_bookcase_1_1 Model

v 17.5072 40.932 -35.9339
v 7.50723 40.182 -35.9339
v 7.50723 40.932 -35.9339
f 65/1/1 66/2/1 67/3/1

v 17.5072 40.182 -35.9339
f 66/2/1 65/1/1 68/4/1

v 17.5072 40.932 -5.93785
f 69/5/2 68/6/2 65/7/2

v 17.5072 40.182 -5.93785
f 68/6/2 69/5/2 70/8/2

v 7.50723 40.182 -5.93785
f 69/9/3 71/10/3 70/11/3

v 7.50723 40.932 -5.93785
f 71/10/3 69/9/3 72/12/3

f 69/13/4 67/14/4 72/15/4

f 67/14/4 69/13/4 65/16/4

f 66/17/5 72/18/5 67/19/5

f 72/18/5 66/17/5 71/20/5

f 66/21/6 70/22/6 71/23/6

f 70/22/6 66/21/6 68/24/6

g Mesh10 sjs_ikea_solid10 sjs_ikea_billy_bookcase_1_1 Model

v 16.7572 2.43198 -35.9339
v 17.5072 2.33721e-012 -35.9339
v 16.7572 2.33591e-012 -35.9339
f 73/1/7 74/2/7 75/3/7

v 17.5072 2.43198 -35.9339
f 74/2/7 73/1/7 76/4/7

v 16.7572 2.43198 -5.93785
f 77/5/8 76/6/8 73/7/8

v 17.5072 2.43198 -5.93785
f 76/6/8 77/5/8 78/8/8

v 17.5072 2.33591e-012 -5.93785
f 77/9/9 79/10/9 78/11/9

v 16.7572 2.33504e-012 -5.93785
f 79/10/9 77/9/9 80/12/9

f 77/13/10 75/14/10 80/15/10

f 75/14/10 77/13/10 73/16/10

f 74/17/11 80/18/11 75/19/11

f 80/18/11 74/17/11 79/20/11

f 74/21/12 78/22/12 79/23/12

f 78/22/12 74/21/12 76/24/12

g Mesh11 sjs_ikea_solid11 sjs_ikea_billy_bookcase_1_1 Model

v 17.5072 79.5276 -35.9339
v 7.50723 78.7776 -35.9339
v 7.50723 79.5276 -35.9339
f 81/1/1 82/2/1 83/3/1

v 17.5072 78.7776 -35.9339
f 82/2/1 81/1/1 84/4/1

v 17.5072 79.5276 -5.93785
f 85/5/2 84/6/2 81/7/2

v 17.5072 78.7776 -5.93785
f 84/6/2 85/5/2 86/8/2

v 7.50723 78.7776 -5.93785
f 85/9/3 87/10/3 86/11/3

v 7.50723 79.5276 -5.93785
f 87/10/3 85/9/3 88/12/3

f 85/13/4 83/14/4 88/15/4

f 83/14/4 85/13/4 81/16/4

f 82/17/5 88/18/5 83/19/5

f 88/18/5 82/17/5 87/20/5

f 82/21/6 86/22/6 87/23/6

f 86/22/6 82/21/6 84/24/6

g Mesh12 sjs_ikea_solid12 sjs_ikea_billy_bookcase_1_1 Model

v 17.7572 79.5276 -5.93785
vn 1.11498e-014 9.26e-030 1
v 17.5072 2.43198 -5.93785
v 17.7572 2.43198 -5.93785
f 89/1/19 90/2/19 91/3/19

v 17.5072 79.5276 -5.93785
f 90/2/19 89/1/19 92/4/19

v 17.7572 79.5276 -35.9339
vn 4.28562e-015 1 1.44887e-028
f 93/5/20 92/6/20 89/7/20

v 17.5072 79.5276 -35.9339
f 92/6/20 93/5/20 94/8/20

vn -1.11498e-014 7.85396e-028 -1
v 17.5072 2.43198 -35.9339
f 93/9/21 95/10/21 94/11/21

v 17.7572 2.43198 -35.9339
f 95/10/21 93/9/21 96/12/21

vn 1 -3.62476e-014 -7.38001e-013
f 93/13/22 91/14/22 96/15/22

f 91/14/22 93/13/22 89/16/22

vn -4.28562e-015 -1 1.78507e-015
f 90/17/23 96/18/23 91/19/23

f 96/18/23 90/17/23 95/20/23

vn -1 3.62476e-014 7.38001e-013
f 90/21/24 94/22/24 95/23/24

f 94/22/24 90/21/24 92/24/24

