# Alias OBJ Model File
# Exported from SketchUp, (c) 2000-2006 Google, Inc.
# File units = meters

mtllib d85f996976c9696a6fa187446de786da_obj0_object.mtl

g Mesh1 Group1 Model

usemtl Marrone_Nero_IKEA
v 0.02 0.299177 -0.68
vt -0.2 14.2375
vn -4.24743e-017 -1 3.62958e-034
v 3.66596e-017 0.299177 -0.02
vt -9.8524e-017 0.41875
v 3.66596e-017 0.299177 -0.68
vt -9.8524e-017 14.2375
f 1/1/1 2/2/1 3/3/1

v 0.02 0.299177 -0.02
vt -0.2 0.41875
f 2/2/1 1/1/1 4/4/1

vt 6.8 6.26402
vn 1 2.79694e-017 -1.2818e-017
v 0.02 0.4 -0.02
vt 0.2 8.375
vt 0.2 6.26402
f 1/5/2 5/6/2 4/7/2

v 0.02 0.4 -0.68
vt 6.8 8.375
f 5/6/2 1/5/2 6/8/2

vt 0.2 6.26402
vn 3.41814e-017 0 1
v 0.08 0.62 -0.68
vt 0.8 12.9812
vt 0.2 8.375
f 1/9/3 7/10/3 6/11/3

v 0.08 0.1 -0.68
vt 0.8 2.09375
f 7/10/3 1/9/3 8/12/3

vt 4.58031e-016 6.26402
f 3/13/3 8/12/3 1/9/3

v 3.66596e-017 0.1 -0.68
vt 4.58031e-016 2.09375
f 8/12/3 3/13/3 9/14/3

vt -6.8 6.26402
vn -1 0 -0
v 1.40998e-017 0.7 -0.7
vt -7 14.6563
vt -6.8 2.09375
f 3/15/4 10/16/4 9/17/4

v 1.12799e-017 0.4 -0.68
vt -6.8 8.375
f 11/18/4 10/16/4 3/15/4

v 0 0.62 -0.68
vt -6.8 12.9812
f 12/19/4 10/16/4 11/18/4

v 2.25597e-017 0.62 -0.02
vt -0.2 12.9812
f 13/20/4 10/16/4 12/19/4

v 1.40998e-017 0.7 -0
vt 0 14.6563
f 13/20/4 14/21/4 10/16/4

v 1.40998e-017 0 -0
vt 0 0
f 14/21/4 13/20/4 15/22/4

v 2.25597e-017 0.4 -0.02
vt -0.2 8.375
f 15/22/4 13/20/4 16/23/4

vt -9.14353e-017 12.9812
vn -3.41814e-017 -1.0846e-017 -1
vt -0.2 8.375
vt -9.14353e-017 8.375
f 13/24/5 5/25/5 16/26/5

v 0.08 0.62 -0.02
vt -0.8 12.9812
f 17/27/5 5/25/5 13/24/5

vt -0.2 6.26402
f 17/27/5 4/28/5 5/25/5

v 0.08 0.1 -0.02
vt -0.8 2.09375
f 18/29/5 4/28/5 17/27/5

vt -2.32434e-016 6.26402
f 18/29/5 2/30/5 4/28/5

v 3.66596e-017 0.1 -0.02
vt -2.32434e-016 2.09375
f 2/30/5 18/29/5 19/31/5

vt 0.8 0.41875
vn 0 1 -0
vt 2.25597e-016 14.2375
vt 2.25597e-016 0.41875
f 18/32/6 9/33/6 19/34/6

vt 0.8 14.2375
f 9/33/6 18/32/6 8/35/6

v 0.08 0.1 -0.7
vt 0.8 14.6562
f 8/35/6 18/32/6 20/36/6

v 0.15 0.1 -0.64
vt 1.5 13.4
f 20/36/6 18/32/6 21/37/6

v 0.15 0.1 -0.06
vt 1.5 1.25625
f 21/37/6 18/32/6 22/38/6

v 0.45 0.1 -0
vt 4.5 0
f 18/32/6 23/39/6 22/38/6

v 0.08 0.1 -0
vt 0.8 0
f 23/39/6 18/32/6 24/40/6

vt 0.2 2.09375
vn 1 4.78074e-033 1.12799e-015
v 0.08 0.62 -0
vt 9.02389e-016 12.9812
vt 9.02389e-016 2.09375
f 18/41/7 25/42/7 24/43/7

vt 0.2 12.9812
f 25/42/7 18/41/7 17/44/7

vt -0.8 0.41875
vn 0 -1 -0
v 0.45 0.62 -0
vt -4.5 0
vt -0.8 0
f 17/45/8 26/46/8 25/47/8

v 0.45 0.62 -0.7
vt -4.5 14.6562
f 26/46/8 17/45/8 27/48/8

vt -0.8 14.2375
f 7/49/8 27/48/8 17/45/8

v 0.08 0.62 -0.7
vt -0.8 14.6562
f 27/48/8 7/49/8 28/50/8

vt 6.8 12.9812
vn 1 0 -0
vt 7 2.09375
vt 7 12.9812
f 7/51/9 20/52/9 28/53/9

vt 6.8 2.09375
f 20/52/9 7/51/9 8/54/9

vt -0.8 2.09375
vn 0 0 -1
vt -0.8 12.9812
f 20/55/10 10/21/10 28/56/10

v 0.08 0.05 -0.7
vt -0.8 1.04687
f 29/57/10 10/21/10 20/55/10

v 0.08 0 -0.7
f 30/47/10 10/21/10 29/57/10

v 1.40998e-017 0 -0.7
f 10/21/10 30/47/10 31/22/10

v 1.40998e-017 0 -0.68
vt 0 14.2375
f 30/50/8 32/58/8 31/21/8

v 0.08 0 -0.68
f 32/58/8 30/50/8 33/49/8

vt 7 0
v 0.08 0.05 -0.68
vt 6.8 1.04687
vt 6.8 0
f 30/59/9 34/60/9 33/61/9

vt 7 1.04687
f 34/60/9 30/59/9 29/62/9

v 0.45 0.05 -0.7
f 35/48/8 34/49/8 29/50/8

v 0.45 0.05 -0.68
vt -4.5 14.2375
f 34/49/8 35/48/8 36/63/8

v 0.45 0 -0.7
vt -7 -1.85503e-015
vn -1 -1.96885e-016 1.55867e-015
vt -6.8 1.04687
vt -7 1.04687
f 37/64/11 36/65/11 35/66/11

v 0.45 0 -0.64
vt -6.4 -1.85503e-015
f 38/67/11 36/65/11 37/64/11

v 0.45 0.08 -0.68
vt -6.8 1.675
f 38/67/11 39/68/11 36/65/11

v 0.45 0.08 -0.64
vt -6.4 1.675
f 39/68/11 38/67/11 40/69/11

vt 4.5 0
vn 0 0 1
v 0.47 0.62 -0.64
vt 4.7 12.9812
vt 4.5 1.675
f 38/70/12 41/71/12 40/72/12

v 0.47 0 -0.64
vt 4.7 0
f 41/71/12 38/70/12 42/73/12

vt -4.7 13.4
vt -4.5 13.4
v 0.47 0 -0.68
vt -4.7 14.2375
f 42/74/8 38/75/8 43/76/8

f 37/48/8 43/76/8 38/75/8

v 0.5 0 -0.7
vt -5 14.6562
f 43/76/8 37/48/8 44/77/8

vt -4.5 1.04687
vt -5 0
f 35/78/10 44/79/10 37/46/10

v 0.5 0.72 -0.7
vt -5 15.075
f 44/79/10 35/78/10 45/80/10

v 0.45 0.1 -0.7
vt -4.5 2.09375
f 45/80/10 35/78/10 46/81/10

f 46/81/10 35/78/10 20/55/10

f 29/57/10 20/55/10 35/78/10

vt 4.5 14.6562
f 20/36/6 21/37/6 46/82/6

v 0.45 0.1 -0.64
vt 4.5 13.4
f 46/82/6 21/37/6 47/83/6

v 0.15 0.08 -0.64
vt 1.5 1.675
vt 4.5 2.09375
vt 1.5 2.09375
f 48/84/12 47/85/12 21/86/12

f 47/85/12 48/84/12 40/72/12

vt -1.5 13.4
vn -5.1641e-018 -1 1.22658e-034
f 48/87/13 39/63/13 40/75/13

v 0.02 0.08 -0.68
vt -0.2 14.2375
f 48/87/13 49/88/13 39/63/13

v 0.02 0.08 -0.02
vt -0.2 0.41875
f 49/88/13 48/87/13 50/89/13

v 0.15 0.08 -0.06
vt -1.5 1.25625
f 51/90/13 50/89/13 48/87/13

v 0.45 0.08 -0.02
vt -4.5 0.41875
f 50/89/13 51/90/13 52/91/13

v 0.45 0.08 -0.06
vt -4.5 1.25625
f 52/91/13 51/90/13 53/92/13

vt -1.5 2.09375
vn -7.51991e-017 0 -1
vt -4.5 1.675
vt -1.5 1.675
f 22/93/14 53/94/14 51/95/14

v 0.45 0.1 -0.06
vt -4.5 2.09375
f 53/94/14 22/93/14 54/96/14

vt 4.5 1.25625
f 22/38/6 23/39/6 54/97/6

vt -6.76792e-015 2.09375
vn -1 0 -1.50398e-015
v 0.45 0.62 -0.06
vt -0.6 12.9812
vt -0.6 2.09375
f 23/98/15 55/99/15 54/100/15

vt -6.76792e-015 12.9812
f 55/99/15 23/98/15 26/101/15

vt 4.5 2.09375
v 0.5 0.72 -0
vt 5 15.075
vt 4.5 12.9812
f 23/102/12 56/103/12 26/104/12

v 0.45 0.05 -0
vt 4.5 1.04687
f 57/105/12 56/103/12 23/102/12

v 0.45 0 -0
f 58/39/12 56/103/12 57/105/12

v 0.5 0 -0
vt 5 0
f 56/103/12 58/39/12 59/106/12

v 0.47 0 -0.02
vt -4.7 0.41875
f 58/46/8 60/107/8 59/79/8

v 0.45 0 -0.06
f 60/107/8 58/46/8 61/92/8

vt -7.01403e-015 -1.85503e-015
vn -1 -1.96885e-016 -1.55867e-015
v 0.45 0.05 -0.02
vt -0.2 1.04687
vt -0.6 -1.85503e-015
f 58/108/16 62/109/16 61/110/16

vt -7.01403e-015 1.04687
f 62/109/16 58/108/16 57/111/16

v 0.08 0.05 -0
f 63/47/8 62/91/8 57/46/8

v 0.08 0.05 -0.02
vt -0.8 0.41875
f 62/91/8 63/47/8 64/112/8

vt 0 1.04687
v 0.08 0 -0.02
vt 0.2 0
vt 0.2 1.04687
f 63/113/9 65/114/9 64/115/9

v 0.08 0 -0
f 65/114/9 63/113/9 66/22/9

vt 0.8 1.04687
f 63/116/12 15/22/12 66/40/12

f 15/22/12 63/116/12 14/21/12

vt 0.8 2.09375
f 14/21/12 63/116/12 24/117/12

f 24/117/12 63/116/12 23/102/12

f 57/105/12 23/102/12 63/116/12

vt 0.8 12.9812
f 14/21/12 24/117/12 25/118/12

v 0.08 0.7 -0
f 14/21/12 25/118/12 67/36/12

f 25/118/12 56/103/12 67/36/12

f 26/104/12 56/103/12 25/118/12

v 0.08 0.72 -0
vt 0.8 15.075
f 67/36/12 56/103/12 68/119/12

v 0.08 0.72 -0.7
f 56/106/6 69/36/6 68/40/6

vt 5 14.6562
f 69/36/6 56/106/6 45/120/6

vt 0 15.075
v 0.5 0.7 -0.02
vt 0.2 14.6563
vt 7 15.075
f 56/121/9 70/122/9 45/123/9

v 0.5 0 -0.02
f 56/121/9 71/114/9 70/122/9

f 71/114/9 56/121/9 59/22/9

vt -5 0.41875
f 59/79/8 60/107/8 71/124/8

v 0.47 0.62 -0.02
vt -4.7 12.9812
vn 0 -8.05705e-018 -1
vt -5 3.37389e-018
vt -4.7 3.37389e-018
f 72/125/17 71/126/17 60/127/17

f 71/126/17 72/125/17 70/77/17

v 0.47 0.7 -0.02
vt -4.7 14.6563
f 70/77/17 72/125/17 73/128/17

v 0.47 0.62 -0.06
vt 0.6 12.9812
vt 0.2 12.9812
f 74/129/9 73/122/9 72/130/9

v 0.47 0.7 -0.68
vt 6.8 14.6563
f 73/122/9 74/129/9 75/131/9

vt 6.4 12.9812
f 75/131/9 74/129/9 41/132/9

vt -4.7 1.25625
f 55/92/8 41/74/8 74/133/8

v 0.45 0.62 -0.64
f 41/74/8 55/92/8 76/75/8

f 26/46/8 76/75/8 55/92/8

f 26/46/8 27/48/8 76/75/8

vt -7 12.9812
vn -1 -6.37432e-033 1.50398e-015
vt -6.4 2.09375
vt -6.4 12.9812
f 27/134/18 47/135/18 76/136/18

vt -7 2.09375
f 47/135/18 27/134/18 46/137/18

vt -4.5 12.9812
f 45/80/10 46/81/10 27/138/10

v 0.08 0.7 -0.7
f 45/80/10 27/138/10 77/50/10

f 77/50/10 27/138/10 10/21/10

f 28/56/10 10/21/10 27/138/10

v 0.02 0.7 -0.68
vt 0.2 14.2375
f 10/21/6 78/139/6 77/36/6

v 0.02 0.7 -0.02
vt 0.2 0.41875
f 78/139/6 10/21/6 79/140/6

f 14/22/6 79/140/6 10/21/6

f 79/140/6 14/22/6 67/40/6

v 0.08 0.7 -0.02
vt 0.8 0.41875
f 79/140/6 67/40/6 80/141/6

vt -7 15.075
vt -0.2 14.6563
f 67/21/4 69/142/4 80/143/4

f 69/142/4 67/21/4 68/121/4

v 0.08 0.65 -0.02
vt -0.2 13.6094
f 80/143/4 69/142/4 81/144/4

v 0.08 0.7 -0.68
vt -6.8 14.6563
f 81/144/4 69/142/4 82/145/4

f 82/145/4 69/142/4 77/16/4

vt -0.8 15.075
f 45/80/10 77/50/10 69/146/10

f 77/36/6 78/139/6 82/35/6

v 0.02 0.65 -0.68
vt 0.2 13.6094
f 83/147/12 82/36/12 78/122/12

v 0.08 0.65 -0.68
vt 0.8 13.6094
f 82/36/12 83/147/12 84/148/12

f 83/139/6 81/141/6 84/35/6

v 0.02 0.65 -0.02
f 81/141/6 83/139/6 85/140/6

vt 6.8 13.6094
vt 0.2 14.6563
vt 0.2 13.6094
f 83/149/9 79/150/9 85/151/9

f 79/150/9 83/149/9 78/131/9

vn -3.28996e-016 0 -1
vt -0.8 13.6094
f 79/143/19 81/152/19 85/144/19

vt -0.8 14.6563
f 81/152/19 79/143/19 80/153/19

vt -6.8 13.6094
f 84/154/4 81/144/4 82/145/4

vt 4.5 12.9812
f 47/85/12 41/71/12 76/155/12

f 40/72/12 41/71/12 47/85/12

vt -4.5 12.9812
f 74/125/10 54/96/10 55/156/10

f 74/125/10 53/94/10 54/96/10

v 0.47 0 -0.06
vt -4.7 0
f 86/157/10 53/94/10 74/125/10

vt -4.5 0
f 53/94/10 86/157/10 61/158/10

f 60/107/8 61/92/8 86/133/8

vt 0.6 0
f 86/159/9 72/130/9 60/114/9

f 72/130/9 86/159/9 74/129/9

vt -0.6 1.675
f 61/110/16 62/109/16 53/160/16

vt -0.2 1.675
f 53/160/16 62/109/16 52/161/16

vn 0 -1.22658e-034 -1
vt -0.2 1.675
vt -4.5 1.675
f 62/78/20 50/162/20 52/163/20

f 64/57/20 50/162/20 62/78/20

v 0.02 0.05 -0.02
vt -0.2 1.04687
f 50/162/20 64/57/20 87/164/20

vn 9.62915e-018 -5.83252e-017 -1
v 0.02 0.025 -0.02
vt -0.2 0.523437
f 64/57/21 88/165/21 87/164/21

vt -0.8 2.44237e-017
f 65/166/21 88/165/21 64/57/21

v 1.40998e-017 0.025 -0.02
vt 1.92583e-018 0.523437
f 65/166/21 89/167/21 88/165/21

v 1.40998e-017 0 -0.02
vt 1.92583e-018 2.44237e-017
f 89/167/21 65/166/21 90/168/21

vt -0.8 0.41875
vt 0 0.41875
f 65/169/8 15/22/8 90/170/8

f 15/22/8 65/169/8 66/47/8

vt -0.2 0
f 16/23/4 90/171/4 15/22/4

vt -0.2 2.09375
f 90/171/4 16/23/4 19/172/4

vt -0.2 6.26402
f 16/23/4 2/173/4 19/172/4

f 2/173/4 16/23/4 11/18/4

vt 1.87143e-016 0.41875
vn -2.56361e-017 1 4.38138e-034
vt 0.2 14.2375
vt 7.43446e-017 14.2375
f 16/174/22 6/175/22 11/176/22

vt 0.2 0.41875
f 6/175/22 16/174/22 5/177/22

vt 2.04234e-016 8.375
f 6/11/3 7/10/3 11/178/3

vt 9.14353e-017 12.9812
f 11/178/3 7/10/3 12/179/3

vt -8.4599e-017 0.41875
vt 1.40998e-016 14.2375
f 7/49/8 13/180/8 12/181/8

f 13/180/8 7/49/8 17/45/8

f 2/173/4 11/18/4 3/15/4

vt -0.2 0.523437
f 90/171/4 19/172/4 89/182/4

f 89/182/4 19/172/4 9/17/4

v 1.40998e-017 0.025 -0.68
vt -6.8 0.523437
f 89/182/4 9/17/4 91/183/4

f 9/17/4 10/16/4 91/183/4

vt -7 0
f 31/184/4 91/183/4 10/16/4

vt -6.8 0
f 91/183/4 31/184/4 32/185/4

vt -2.0953e-015 0.523438
vn -3.08133e-016 1.86641e-015 1
vt -2.0953e-015 2.65729e-014
v 0.02 0.025 -0.68
vt 0.2 0.523438
f 91/186/23 32/187/23 92/188/23

vt 0.8 1.04688
f 32/187/23 34/189/23 92/188/23

vt 0.8 2.65729e-014
f 34/189/23 32/187/23 33/190/23

v 0.02 0.05 -0.68
vt 0.2 1.04688
f 92/188/23 34/189/23 93/191/23

vt 0.8 1.04687
vn -2.43889e-016 1.38212e-033 1
vt 4.5 1.675
vt 0.2 1.04687
f 34/192/24 39/193/24 93/194/24

vt 4.5 1.04687
f 39/193/24 34/192/24 36/195/24

vt 0.2 1.675
f 93/194/24 39/193/24 49/196/24

vt 6.8 1.675
vt 6.8 0.523437
f 49/197/9 92/198/9 93/60/9

vt 0.2 1.675
f 50/199/9 92/198/9 49/197/9

f 87/115/9 92/198/9 50/199/9

vt 0.2 0.523437
f 92/198/9 87/115/9 88/200/9

vt 0 0.41875
f 89/201/8 92/88/8 88/89/8

f 92/88/8 89/201/8 91/58/8

v 0.47 0.62 -0.68
f 75/131/9 41/132/9 94/51/9

f 41/132/9 43/61/9 94/51/9

vt 6.4 0
f 43/61/9 41/132/9 42/202/9

vt 4.7 1.8354e-015
vn 0 1.28913e-016 1
v 0.5 0.7 -0.68
f 43/203/25 95/120/25 94/71/25

v 0.5 0 -0.68
vt 5 1.8354e-015
f 95/120/25 43/203/25 96/204/25

vt -5 14.2375
f 43/76/8 44/77/8 96/205/8

f 44/59/9 95/131/9 96/61/9

f 45/123/9 95/131/9 44/59/9

f 45/123/9 70/122/9 95/131/9

vt -4.7 0.41875
vt -5 0.41875
f 73/206/8 95/205/8 70/207/8

f 95/205/8 73/206/8 75/76/8

vt 4.7 14.6563
f 94/71/25 95/120/25 75/208/25

vt 6.4 1.675
vt 0.6 2.09375
vt 0.6 1.675
f 48/209/9 22/210/9 51/211/9

vt 6.4 2.09375
f 22/210/9 48/209/9 21/212/9

