# Alias OBJ Model File
# Exported from SketchUp, (c) 2000-2006 Google, Inc.
# File units = meters

mtllib 30b72ba771dc35cbc60fe2650bbe2bf8_obj0_object.mtl

g Mesh1 Model

usemtl FrontColor
v 0.405717 0 0.0404032
vt -1.59068 0
vn 1 0 -0
v 0.405717 0.45 0.0904032
vt -3.55918 17.7165
v 0.405717 0 0.0904032
vt -3.55918 0
f 1/1/1 2/2/1 3/3/1

v 0.405717 0.45 0.0404032
vt -1.59068 17.7165
f 2/2/1 1/1/1 4/4/1

vt 15.9731 0
vn 0 0 1
v 0.455717 0.45 0.0404032
vt 17.9416 17.7165
vt 15.9731 17.7165
f 1/5/2 5/6/2 4/7/2

v 0.455717 0 0.0404032
vt 17.9416 0
f 5/6/2 1/5/2 6/8/2

vt 15.9731 -1.59068
vn 0 1 -0
v 0.455717 0 0.0904032
vt 17.9416 -3.55918
vt 17.9416 -1.59068
f 1/9/3 7/10/3 6/11/3

vt 15.9731 -3.55918
f 7/10/3 1/9/3 3/12/3

vt -15.9731 -2.75938e-017
vn -2.03625e-016 -7.75285e-018 -1
v 0.430717 0.15 0.0904032
vt -16.9573 5.90551
vt -17.9416 -2.75938e-017
f 3/13/4 8/14/4 7/15/4

vt -15.9731 17.7165
f 8/14/4 3/13/4 2/16/4

v 0.430717 0.183464 0.0904032
vt -16.9573 7.22301
f 8/14/4 2/16/4 9/17/4

v 0.455717 0.183464 0.0904032
vt -17.9416 7.22301
f 9/17/4 2/16/4 10/18/4

v 0.455717 0.193464 0.0904032
vt -17.9416 7.61671
f 10/18/4 2/16/4 11/19/4

v 0.455717 0.45 0.0904032
vt -17.9416 17.7165
f 11/19/4 2/16/4 12/20/4

usemtl Color_008
vt -17.9416 -3.55918
vn -3.08712e-016 -1 -1.02904e-016
v 0.405717 0.45 0.490403
vt -15.9731 -19.3072
vt -15.9731 -3.55918
f 12/21/5 13/22/5 2/23/5

v 0.455717 0.45 0.490403
vt -17.9416 -19.3072
f 13/22/5 12/21/5 14/24/5

v 0.855717 0.45 0.0404032
vt -33.6896 -1.59068
f 12/21/5 15/25/5 14/24/5

vt -17.9416 -1.59068
f 15/25/5 12/21/5 5/26/5

usemtl FrontColor
v 0.455717 0.183464 0.0654032
vt 2.57493 7.22301
vn -1 -8.97142e-017 1.56844e-015
vt 3.55918 17.7165
vt 1.59068 17.7165
f 16/27/6 12/28/6 5/29/6

vt 3.55918 7.22301
f 10/30/6 12/28/6 16/27/6

vt 3.55918 7.61671
f 12/28/6 10/30/6 11/31/6

usemtl Color_008
vn 0 0 -1
v 0.855717 0.183464 0.0904032
vt -33.6896 7.22301
f 11/19/7 17/32/7 10/18/7

v 0.855717 0.193464 0.0904032
vt -33.6896 7.61671
f 17/32/7 11/19/7 18/33/7

usemtl FrontColor
vt -33.6896 -3.55918
vn 0 -1 -5.63993e-017
v 0.455717 0.193464 0.490403
vt -17.9416 -19.3072
vt -17.9416 -3.55918
f 18/34/8 19/35/8 11/36/8

v 0.855717 0.193464 0.490403
vt -33.6896 -19.3072
f 19/35/8 18/34/8 20/37/8

vt 3.55918 7.61671
vn -1 0 -0
v 0.855717 0.183464 0.490403
vt 19.3072 7.22301
vt 19.3072 7.61671
f 18/38/9 21/39/9 20/40/9

vt 3.55918 7.22301
f 21/39/9 18/38/9 17/41/9

vn 4.07251e-016 -1.55057e-017 -1
v 0.880717 0.183464 0.0904032
vt -34.6739 7.22301
f 18/33/10 22/42/10 17/32/10

v 0.905717 0.45 0.0904032
vt -35.6581 17.7165
f 23/43/10 22/42/10 18/33/10

v 0.880717 0.15 0.0904032
vt -34.6739 5.90551
f 23/43/10 24/44/10 22/42/10

v 0.905717 0 0.0904032
vt -35.6581 -5.51876e-017
f 25/45/10 24/44/10 23/43/10

v 0.855717 0.15 0.0904032
vt -33.6896 5.90551
f 25/45/10 26/46/10 24/44/10

v 0.855717 0 0.0904032
vt -33.6896 -5.51876e-017
f 26/46/10 25/45/10 27/47/10

vt 35.6581 -3.55918
v 0.855717 0 0.0404032
vt 33.6896 -1.59068
vt 33.6896 -3.55918
f 25/48/3 28/49/3 27/50/3

v 0.905717 0 0.0404032
vt 35.6581 -1.59068
f 28/49/3 25/48/3 29/51/3

vt 3.55918 0
v 0.905717 0.45 0.0404032
vt 1.59068 17.7165
vt 1.59068 0
f 25/52/9 30/53/9 29/54/9

vt 3.55918 17.7165
f 30/53/9 25/52/9 23/55/9

v 0.855717 0.45 0.0904032
vt -33.6896 -3.55918
vn 0 -1 -0
vt -35.6581 -1.59068
vt -35.6581 -3.55918
f 31/56/11 30/57/11 23/58/11

vt -33.6896 -1.59068
f 30/57/11 31/56/11 15/59/11

vt -3.55918 17.7165
v 0.855717 0.183464 0.0654032
vt -2.57493 7.22301
vt -1.59068 17.7165
f 31/60/1 32/61/1 15/62/1

vt -3.55918 7.61671
f 18/63/1 32/61/1 31/60/1

vt -3.55918 7.22301
f 32/61/1 18/63/1 17/64/1

vt -33.6896 -2.57493
f 10/36/11 32/65/11 17/34/11

vt -17.9416 -2.57493
f 32/65/11 10/36/11 16/66/11

vt 2.57493 7.22301
v 0.455717 0.15 0.0904032
vt 3.55918 5.90551
f 16/67/9 33/68/9 10/41/9

v 0.455717 0.15 0.0654032
vt 2.57493 5.90551
f 33/68/9 16/67/9 34/69/9

vt 2.57493 5.90551
f 16/27/6 5/29/6 34/70/6

vt 1.59068 -1.60962e-015
f 6/71/6 34/70/6 5/29/6

vt 3.55918 -1.60962e-015
f 7/72/6 34/70/6 6/71/6

vt 3.55918 5.90551
f 34/70/6 7/72/6 33/73/6

vt -17.9416 5.90551
f 33/74/4 7/15/4 8/14/4

v 0.430717 0.15 0.490403
vt 16.9573 -19.3072
vt 17.9416 -3.55918
vt 16.9573 -3.55918
f 35/75/3 33/76/3 8/77/3

v 0.455717 0.15 0.490403
vt 17.9416 -19.3072
f 33/76/3 35/75/3 36/78/3

v 0.405717 0 0.490403
vt 17.9416 5.90551
vt 16.9573 5.90551
f 37/5/2 36/79/2 35/80/2

v 0.455717 0 0.490403
f 36/79/2 37/5/2 38/8/2

vt 15.9731 -19.3072
v 0.455717 0 0.540403
vt 17.9416 -21.2757
f 37/81/3 39/82/3 38/78/3

v 0.405717 0 0.540403
vt 15.9731 -21.2757
f 39/82/3 37/81/3 40/83/3

vt -19.3072 0
v 0.405717 0.45 0.540403
vt -21.2757 17.7165
vt -21.2757 0
f 37/84/1 41/85/1 40/86/1

vt -19.3072 17.7165
f 41/85/1 37/84/1 13/87/1

vt 15.9731 17.7165
f 37/5/2 35/80/2 13/88/2

v 0.430717 0.183464 0.490403
vt 16.9573 7.22301
f 13/88/2 35/80/2 42/89/2

vt -3.55918 5.90551
vn 1 0 -2.25597e-016
vt -19.3072 7.22301
vt -19.3072 5.90551
f 8/90/12 42/91/12 35/92/12

vt -3.55918 7.22301
f 42/91/12 8/90/12 9/93/12

vt 16.9573 5.90551
vt 17.9416 7.22301
vt 16.9573 7.22301
f 8/94/2 10/95/2 9/96/2

f 10/95/2 8/94/2 33/79/2

f 10/18/7 26/46/7 33/74/7

f 26/46/7 10/18/7 24/44/7

f 24/44/7 10/18/7 17/32/7

f 24/44/7 17/32/7 22/42/7

vt -34.6739 -3.55918
vn 4.51195e-016 -1 2.81997e-017
f 22/97/13 21/37/13 17/34/13

v 0.880717 0.183464 0.490403
vt -34.6739 -19.3072
f 21/37/13 22/97/13 43/98/13

vt 3.55918 7.22301
v 0.880717 0.15 0.490403
vt 19.3072 5.90551
f 22/99/9 44/100/9 43/39/9

f 44/100/9 22/99/9 24/68/9

vt 33.6896 -3.55918
vt 34.6739 -19.3072
vt 34.6739 -3.55918
f 26/101/3 44/102/3 24/103/3

v 0.855717 0.15 0.490403
vt 33.6896 -19.3072
f 26/101/3 45/104/3 44/102/3

f 33/76/3 45/104/3 26/101/3

f 33/76/3 36/78/3 45/104/3

v 0.855717 0.15 0.515403
vt 33.6896 -20.2915
f 36/78/3 46/105/3 45/104/3

v 0.455717 0.15 0.515403
vt 17.9416 -20.2915
f 46/105/3 36/78/3 47/106/3

v 0.455717 0.183464 0.515403
vt -20.2915 7.22301
vt -20.2915 5.90551
f 36/92/1 48/107/1 47/108/1

v 0.455717 0.183464 0.490403
f 48/107/1 36/92/1 49/91/1

vt 17.9416 7.22301
f 49/109/2 35/80/2 36/79/2

f 35/80/2 49/109/2 42/89/2

vt 17.9416 7.61671
f 19/110/2 42/89/2 49/109/2

f 13/88/2 42/89/2 19/110/2

vt 17.9416 17.7165
f 13/88/2 19/110/2 14/111/2

vt 19.3072 7.22301
vn -1 -8.97142e-017 -1.56844e-015
vt 19.3072 17.7165
vt 19.3072 7.61671
f 49/112/14 14/113/14 19/114/14

vt 20.2915 7.22301
f 48/115/14 14/113/14 49/112/14

vt 21.2757 -1.60962e-015
f 39/116/14 14/113/14 48/115/14

v 0.455717 0.45 0.540403
vt 21.2757 17.7165
f 14/113/14 39/116/14 50/117/14

vt -17.9416 0
vt -15.9731 17.7165
vt -17.9416 17.7165
f 39/118/7 41/119/7 50/120/7

vt -15.9731 0
f 41/119/7 39/118/7 40/121/7

vt -15.9731 -21.2757
vt -17.9416 -21.2757
f 41/122/11 14/35/11 50/123/11

f 14/35/11 41/122/11 13/22/11

v 0.405717 0.475 0.540403
vt -21.2757 18.7008
f 13/87/1 51/124/1 41/85/1

v 0.405717 0.475 0.0404032
vt -1.59068 18.7008
f 51/124/1 13/87/1 52/125/1

f 52/125/1 13/87/1 2/2/1

f 52/125/1 2/2/1 4/4/1

f 12/10/3 4/9/3 2/12/3

f 4/9/3 12/10/3 5/11/3

v 0.905717 0.475 0.0404032
vt 35.6581 18.7008
f 5/6/2 53/126/2 4/7/2

vt 33.6896 17.7165
f 15/127/2 53/126/2 5/6/2

vt 35.6581 17.7165
f 53/126/2 15/127/2 30/128/2

vt 33.6896 0
f 28/129/2 30/128/2 15/127/2

vt 35.6581 0
f 30/128/2 28/129/2 29/130/2

f 15/62/1 32/61/1 28/1/1

v 0.855717 0.15 0.0654032
vt -2.57493 5.90551
f 54/131/1 28/1/1 32/61/1

vt -3.55918 0
f 54/131/1 27/132/1 28/1/1

vt -3.55918 5.90551
f 27/132/1 54/131/1 26/133/1

vt 17.9416 -2.57493
vt 33.6896 -2.57493
f 34/134/3 26/101/3 54/135/3

f 26/101/3 34/134/3 33/76/3

vt 33.6896 7.22301
vt 33.6896 5.90551
f 32/136/2 34/79/2 54/137/2

f 34/79/2 32/136/2 16/95/2

vt 1.59068 18.7008
f 23/55/9 53/138/9 30/53/9

v 0.905717 0.45 0.490403
vt 19.3072 17.7165
f 55/139/9 53/138/9 23/55/9

v 0.905717 0.45 0.540403
vt 21.2757 17.7165
f 56/140/9 53/138/9 55/139/9

v 0.905717 0.475 0.540403
vt 21.2757 18.7008
f 53/138/9 56/140/9 57/141/9

vt -35.6581 18.7008
f 56/43/7 50/120/7 57/142/7

v 0.855717 0.45 0.540403
vt -33.6896 17.7165
f 50/120/7 56/43/7 58/143/7

v 0.905717 0 0.540403
vt -35.6581 0
f 59/144/7 58/143/7 56/43/7

v 0.855717 0 0.540403
vt -33.6896 0
f 58/143/7 59/144/7 60/145/7

vt 35.6581 -21.2757
v 0.855717 0 0.490403
vt 33.6896 -21.2757
f 59/146/3 61/104/3 60/147/3

v 0.905717 0 0.490403
vt 35.6581 -19.3072
f 61/104/3 59/146/3 62/148/3

vt 21.2757 0
vt 19.3072 0
f 59/149/9 55/139/9 62/150/9

f 55/139/9 59/149/9 56/140/9

v 0.855717 0.45 0.490403
f 63/104/3 56/146/3 55/148/3

f 56/146/3 63/104/3 58/147/3

v 0.855717 0.183464 0.515403
f 58/85/1 64/107/1 63/87/1

f 64/107/1 58/85/1 46/108/1

f 60/86/1 46/108/1 58/85/1

f 46/108/1 60/86/1 61/84/1

f 46/108/1 61/84/1 45/92/1

vt 34.6739 5.90551
f 45/137/2 61/129/2 44/151/2

f 62/130/2 44/151/2 61/129/2

f 44/151/2 62/130/2 55/128/2

vt 34.6739 7.22301
f 44/151/2 55/128/2 43/152/2

vt 33.6896 7.22301
f 43/152/2 55/128/2 21/153/2

vt 33.6896 7.61671
f 21/153/2 55/128/2 20/154/2

f 20/154/2 55/128/2 63/127/2

usemtl Color_008
vt -33.6896 -19.3072
vt -35.6581 -3.55918
vt -35.6581 -19.3072
f 63/155/5 23/156/5 55/157/5

vt -33.6896 -3.55918
f 23/156/5 63/155/5 31/158/5

vt -33.6896 -21.2757
f 58/159/5 31/158/5 63/155/5

f 58/159/5 15/25/5 31/158/5

vt -17.9416 -21.2757
f 50/160/5 15/25/5 58/159/5

f 14/24/5 15/25/5 50/160/5

usemtl FrontColor
f 23/43/10 18/33/10 31/143/10

vt -19.3072 7.22301
vt -19.3072 7.61671
f 63/87/1 21/161/1 20/162/1

f 63/87/1 64/107/1 21/161/1

vt -17.9416 -20.2915
vn 8.4599e-017 -1 1.35358e-015
vt -33.6896 -19.3072
vt -33.6896 -20.2915
f 48/163/15 21/164/15 64/165/15

vt -17.9416 -19.3072
f 21/164/15 48/163/15 49/166/15

f 49/109/2 43/152/2 21/153/2

f 36/79/2 43/152/2 49/109/2

f 45/137/2 43/152/2 36/79/2

f 43/152/2 45/137/2 44/151/2

usemtl Color_008
f 21/153/2 19/110/2 49/109/2

f 19/110/2 21/153/2 20/154/2

usemtl FrontColor
f 10/64/1 19/162/1 49/91/1

f 19/162/1 10/64/1 11/63/1

vt -16.9573 -19.3072
vn 9.02389e-016 -1 -5.63993e-017
vt -17.9416 -3.55918
vt -17.9416 -19.3072
f 42/167/16 10/168/16 49/169/16

vt -16.9573 -3.55918
f 10/168/16 42/167/16 9/170/16

vt -17.9416 7.22301
vt -33.6896 7.22301
f 46/46/7 48/171/7 64/172/7

f 48/171/7 46/46/7 47/74/7

vt 20.2915 5.90551
f 47/173/14 39/116/14 48/115/14

vt 19.3072 -1.60962e-015
f 39/116/14 47/173/14 38/174/14

vt 19.3072 5.90551
f 38/174/14 47/173/14 36/175/14

vt -15.9731 18.7008
f 50/120/7 51/176/7 57/142/7

f 51/176/7 50/120/7 41/119/7

vn 1.80478e-016 1 -0
f 57/146/17 52/9/17 51/83/17

f 52/9/17 57/146/17 53/51/17

v 0.945717 0.475 0.580403
vt 37.2329 -22.8505
f 57/146/3 65/177/3 53/51/3

v 0.905717 0.475 0.580403
vt 35.6581 -22.8505
f 65/177/3 57/146/3 66/178/3

f 51/83/17 66/178/17 57/146/17

v 0.405717 0.475 0.580403
vt 15.9731 -22.8505
f 66/178/17 51/83/17 67/179/17

f 52/9/3 67/179/3 51/83/3

v 0.365717 0.475 0.0404032
vt 14.3983 -1.59068
f 68/180/3 67/179/3 52/9/3

v 0.365717 0.475 0.580403
vt 14.3983 -22.8505
f 67/179/3 68/180/3 69/181/3

v 0.365717 0.5 0.580403
vt -22.8505 19.685
vt -22.8505 18.7008
f 68/125/1 70/182/1 69/183/1

v 0.365717 0.5 0.000403203
vt -0.0158741 19.685
f 70/182/1 68/125/1 71/184/1

v 0.365717 0.475 0.000403203
vt -0.0158741 18.7008
f 71/184/1 68/125/1 72/185/1

vt 14.3983 -0.0158741
f 52/9/17 72/186/17 68/180/17

v 0.905717 0.475 0.000403203
vt 35.6581 -0.0158741
f 72/186/17 52/9/17 73/187/17

f 73/187/17 52/9/17 53/51/17

vt 15.9731 18.7008
f 4/7/2 53/126/2 52/188/2

f 53/51/3 65/177/3 73/187/3

v 0.945717 0.475 0.000403203
vt 37.2329 -0.0158741
f 73/187/3 65/177/3 74/189/3

vt 22.8505 18.7008
v 0.945717 0.5 0.000403203
vt 0.0158741 19.685
vt 0.0158741 18.7008
f 65/190/9 75/191/9 74/192/9

v 0.945717 0.5 0.580403
vt 22.8505 19.685
f 75/191/9 65/190/9 76/193/9

vt -37.2329 18.7008
vt -37.2329 19.685
f 65/194/7 67/176/7 76/195/7

f 67/176/7 65/194/7 66/142/7

vt -14.3983 19.685
f 67/176/7 70/196/7 76/195/7

vt -14.3983 18.7008
f 70/196/7 67/176/7 69/197/7

vt -14.3983 -22.8505
vn -2.25597e-016 -1 -0
vt -37.2329 -0.0158741
vt -37.2329 -22.8505
f 70/198/18 75/199/18 76/200/18

vt -14.3983 -0.0158741
f 75/199/18 70/198/18 71/201/18

vt 14.3983 18.7008
vt 37.2329 19.685
vt 14.3983 19.685
f 72/202/2 75/203/2 71/204/2

f 73/126/2 75/203/2 72/202/2

vt 37.2329 18.7008
f 75/203/2 73/126/2 74/205/2

