# Alias OBJ Model File
# Exported from SketchUp, (c) 2000-2006 Google, Inc.
# File units = centimeters

mtllib cdf0a34dc3504e40643beaf431c0975a_obj0_object.mtl

g Mesh1 Component_1_1 Model

usemtl Color_A01
v 8.2 -0.4 -65.3
vt 0.0328 -0.0016
vn 0 0 1
v 3.2 -72.4 -65.3
vt 0.0128 -0.2896
v 8.2 -72.4 -65.3
vt 0.0328 -0.2896
f 1/1/1 2/2/1 3/3/1

v 6.2 -8.9 -65.3
vt 0.0248 -0.0356
f 2/2/1 1/1/1 4/4/1

v 6.2 -0.4 -65.3
vt 0.0248 -0.0016
f 4/4/1 1/1/1 5/5/1

v 8.7 -0.4 -8.7
vt -0.0348 0.0348
vn -2.3293e-019 -1 5.83141e-022
vt -0.0248 0.2612
vt -0.0328 0.2612
f 6/6/2 5/7/2 1/8/2

v 6.2 -0.4 -8.7
vt -0.0248 0.0348
f 5/7/2 6/6/2 7/9/2

vt -0.0348 -0.0016
vn -5.77207e-017 4.16667e-018 -1
v 6.2 -8.9 -8.7
vt -0.0248 -0.0356
vt -0.0248 -0.0016
f 6/10/3 8/11/3 7/12/3

v 8.7 -72.4 -8.7
vt -0.0348 -0.2896
f 9/13/3 8/11/3 6/10/3

v 4.2 -8.9 -8.7
vt -0.0168 -0.0356
f 8/11/3 9/13/3 10/14/3

v 3.2 -0.4 -8.7
vt -0.0128 -0.0016
f 9/13/3 11/15/3 10/14/3

v 3.2 -72.4 -8.7
vt -0.0128 -0.2896
f 11/15/3 9/13/3 12/16/3

vn 0 -1 -0
v 3.2 -72.4 -3.2
vt -0.0128 0.0128
vt -0.0128 0.0348
f 9/6/4 13/17/4 12/18/4

v 8.7 -72.4 -3.2
vt -0.0348 0.0128
f 13/17/4 9/6/4 14/19/4

vt 0.0348 -0.2896
vn 1 -1.25e-017 -1.73162e-016
v 8.7 -0.4 -3.2
vt 0.0128 -0.0016
vt 0.0128 -0.2896
f 9/20/5 15/21/5 14/22/5

v 8.7 -8.9 -4.2
vt 0.0168 -0.0356
f 15/21/5 9/20/5 16/23/5

v 8.7 -8.9 -6.2
vt 0.0248 -0.0356
f 16/23/5 9/20/5 17/24/5

v 8.7 -0.4 -6.2
vt 0.0248 -0.0016
f 17/24/5 9/20/5 18/25/5

vt 0.0348 -0.0016
f 18/25/5 9/20/5 6/26/5

v 109.3 -0.4 -67.8
vt -0.4372 0.2712
vt -0.0348 0.0248
f 6/6/2 19/27/2 18/28/2

f 1/8/2 19/27/2 6/6/2

v 8.2 -0.4 -67.8
vt -0.0328 0.2712
f 19/27/2 1/8/2 20/29/2

vt 0.2712 -0.0016
vn 1 8.33333e-018 -1.15441e-016
vt 0.2612 -0.0016
v 8.2 -8.9 -67.8
vt 0.2712 -0.0356
f 20/30/6 1/31/6 21/32/6

v 8.2 -72.4 -70.8
vt 0.2832 -0.2896
f 1/31/6 22/33/6 21/32/6

vt 0.2612 -0.2896
f 22/33/6 1/31/6 3/34/6

vt -0.0128 0.2612
vt -0.0328 0.2832
f 2/35/4 22/36/4 3/8/4

v 3.2 -72.4 -70.8
vt -0.0128 0.2832
f 22/36/4 2/35/4 23/37/4

vt -0.2612 -0.2896
vn -1 0 -0
v 3.2 -0.4 -70.8
vt -0.2832 -0.0016
vt -0.2832 -0.2896
f 2/38/7 24/39/7 23/40/7

v 3.2 -0.4 -65.3
vt -0.2612 -0.0016
f 24/39/7 2/38/7 25/41/7

v 4.2 -8.9 -65.3
vt 0.0168 -0.0356
vt 0.0128 -0.0016
f 2/2/1 26/42/1 25/43/1

f 26/42/1 2/2/1 4/4/1

vn 3.31761e-017 -1 1.99291e-017
vt -0.0168 0.0348
vt -0.0168 0.2612
f 4/7/8 10/44/8 26/45/8

vt -0.0248 0.0348
f 10/44/8 4/7/8 8/46/8

vt 0.2612 -0.0356
vn 1 6.63522e-017 9.96455e-018
vt 0.0348 -0.0356
f 4/47/9 7/26/9 8/48/9

f 7/26/9 4/47/9 5/31/9

usemtl FrontColor
vt 2.44094 28.3465
vt 1.65354 25
vt 2.44094 25
f 5/49/1 26/50/1 4/51/1

v 4.2 -0.4 -65.3
vt 1.65354 28.3465
f 26/50/1 5/49/1 27/52/1

vt -2.44094 3.4252
vn 3.52496e-017 -1 4.41354e-034
vt -1.65354 25.7087
vt -2.44094 25.7087
f 7/53/10 27/54/10 5/55/10

v 4.2 -0.4 -8.7
vt -1.65354 3.4252
f 27/54/10 7/53/10 28/56/10

usemtl Color_A01
vn 3.91959e-019 -1 -3.49765e-018
f 15/19/11 28/44/11 7/9/11

v 3.2 -0.4 -3.2
f 29/17/11 28/44/11 15/19/11

f 28/44/11 29/17/11 11/18/11

v 0.2 -0.4 -0.2
vt -0.0008 0.0008
f 29/17/4 30/57/4 11/18/4

v 117.8 -0.4 -0.2
vt -0.4712 0.0008
f 30/57/4 29/17/4 31/58/4

f 31/58/4 29/17/4 15/19/4

vt 0.0348 -0.0016
f 13/2/1 15/59/1 29/43/1

vt 0.0348 -0.2896
f 15/59/1 13/2/1 14/60/1

vt -0.0348 -0.0016
f 11/61/7 13/16/7 29/15/7

vt -0.0348 -0.2896
f 13/16/7 11/61/7 12/62/7

v 109.3 -0.4 -3.2
vt -0.4372 0.0128
f 31/58/4 15/19/4 32/63/4

v 109.3 -0.4 -4.2
vt -0.4372 0.0168
f 32/63/4 15/19/4 33/64/4

v 8.7 -0.4 -4.2
vt -0.0348 0.0168
f 33/64/4 15/19/4 34/65/4

vt 0.0168 -0.0016
f 34/66/5 15/21/5 16/23/5

f 15/19/11 18/28/11 34/65/11

f 15/19/11 6/6/11 18/28/11

f 15/19/11 7/9/11 6/6/11

usemtl FrontColor
vn 1 3.98113e-016 -7.12892e-032
f 34/52/12 17/51/12 18/49/12

f 17/51/12 34/52/12 16/50/12

usemtl Color_A01
vt 0.0348 -0.0356
vt 0.4372 -0.0016
f 16/67/1 33/68/1 34/59/1

v 109.3 -8.9 -4.2
vt 0.4372 -0.0356
f 33/68/1 16/67/1 35/69/1

vt -0.0348 0.0168
vn -1.12126e-017 -1 -0
v 109.3 -8.9 -6.2
vt -0.4372 0.0248
f 16/70/13 36/71/13 35/64/13

vt -0.0348 0.0248
f 36/71/13 16/70/13 17/72/13

vn 0 0 -1
vt -0.4372 -0.0356
vt -0.0348 -0.0356
f 18/10/14 36/73/14 17/74/14

v 109.3 -0.4 -6.2
vt -0.4372 -0.0016
f 36/73/14 18/10/14 37/75/14

f 18/28/2 19/27/2 37/71/2

v 109.3 -0.4 -65.3
vt -0.4372 0.2612
f 37/71/2 19/27/2 38/76/2

vt -0.2712 -0.0016
v 109.3 -72.4 -65.3
f 19/77/7 39/38/7 38/41/7

v 109.3 -8.9 -67.8
vt -0.2712 -0.0356
f 39/38/7 19/77/7 40/78/7

vt 0.0328 -0.0356
f 19/68/1 21/79/1 40/69/1

f 21/79/1 19/68/1 20/1/1

usemtl FrontColor
vt -3.22835 26.6929
v 109.3 -0.4 -69.8
vt -43.0315 27.4803
vt -43.0315 26.6929
f 20/80/4 41/81/4 19/82/4

v 8.2 -0.4 -69.8
vt -3.22835 27.4803
f 41/81/4 20/80/4 42/83/4

vt 26.6929 28.3465
vn 1 -2.65409e-016 -0
v 8.2 -8.9 -69.8
vt 27.4803 25
vt 27.4803 28.3465
f 20/84/15 43/85/15 42/86/15

vt 26.6929 25
f 43/85/15 20/84/15 21/87/15

usemtl Color_A01
v 109.3 -8.9 -69.8
vt -0.4372 0.2792
vn -1.11571e-017 -1 -0
vt -0.0328 0.2712
vt -0.0328 0.2792
f 44/88/16 21/89/16 43/90/16

f 21/89/16 44/88/16 40/27/16

v 109.3 -72.4 -70.8
vt -0.2792 -0.0356
f 45/40/7 40/78/7 44/91/7

f 39/38/7 40/78/7 45/40/7

v 114.8 -72.4 -70.8
vt -0.4592 0.2832
vt -0.4372 0.2832
f 46/92/4 39/76/4 45/93/4

v 114.8 -72.4 -65.3
vt -0.4592 0.2612
f 39/76/4 46/92/4 47/94/4

vn 1 0 -0
v 114.8 -0.4 -65.3
f 46/33/17 48/31/17 47/34/17

v 114.8 -0.4 -70.8
vt 0.2832 -0.0016
f 48/31/17 46/33/17 49/95/17

vt -0.4592 -0.2896
v 109.3 -0.4 -70.8
vt -0.4592 -0.0016
f 46/96/14 50/75/14 49/97/14

vt -0.4372 -0.2896
f 50/75/14 46/96/14 45/98/14

f 45/40/7 44/91/7 50/39/7

vt -0.2792 -0.0016
f 50/39/7 44/91/7 41/99/7

usemtl FrontColor
vt -26.6929 25
vt -27.4803 28.3465
vt -27.4803 25
f 40/100/7 41/101/7 44/102/7

vt -26.6929 28.3465
f 41/101/7 40/100/7 19/103/7

usemtl Color_A01
f 41/88/4 49/92/4 19/27/4

f 49/92/4 41/88/4 50/93/4

vt -0.0328 0.2792
f 41/88/4 42/104/4 50/93/4

vt -0.0328 -0.0016
f 44/73/14 42/105/14 41/75/14

vt -0.0328 -0.0356
f 42/105/14 44/73/14 43/106/14

vt 0.2792 -0.0356
vt 0.2792 -0.0016
f 43/107/6 22/33/6 42/108/6

f 21/32/6 22/33/6 43/107/6

v 8.2 -0.4 -70.8
f 42/108/6 22/33/6 51/95/6

vt -0.0328 -0.2896
f 22/109/14 24/15/14 51/105/14

f 24/15/14 22/109/14 23/16/14

v 117.8 -0.4 -73.8
vt -0.4712 0.2952
f 24/37/4 52/110/4 51/36/4

v 0.2 -0.4 -73.8
vt -0.0008 0.2952
f 24/37/4 53/111/4 52/110/4

f 53/111/4 24/37/4 30/57/4

f 30/57/4 24/37/4 11/18/4

f 25/35/4 11/18/4 24/37/4

f 11/18/4 25/35/4 28/44/4

f 28/44/4 25/35/4 27/45/4

vt 0.0168 -0.0016
f 25/43/1 26/42/1 27/112/1

vt -0.2612 -0.0356
vn -1 -3.31761e-017 -4.98227e-018
f 26/113/18 28/61/18 27/41/18

vt -0.0348 -0.0356
f 28/61/18 26/113/18 10/114/18

vt -0.0168 -0.0016
f 10/14/3 11/15/3 28/115/3

usemtl FrontColor
vt -1.65354 28.3465
vn 9.35554e-034 -1.32704e-016 -1
vt -2.44094 25
vt -1.65354 25
f 28/116/19 8/117/19 10/118/19

vt -2.44094 28.3465
f 8/117/19 28/116/19 7/119/19

usemtl Color_A01
vt -0.0008 -0.00178885
vn -0.894427 -0.447214 4.70508e-019
v 0 0 -74
vt -0.296 5.55112e-017
vt -0.2952 -0.00178885
f 30/120/20 54/121/20 53/122/20

v 0 0 -0
vt 3.1823e-036 5.55112e-017
f 54/121/20 30/120/20 55/123/20

vt 0.0008 -0.00178885
vn 0 -0.447214 0.894427
v 118 0 -0
vt 0.472 5.55112e-017
vt 0 5.55112e-017
f 30/124/21 56/125/21 55/126/21

vt 0.4712 -0.00178885
f 56/125/21 30/124/21 31/127/21

vt 0.0008 0.209296
vn 0.894427 -0.447214 -0
v 118 0 -74
vt 0.296 0.211085
vt 0 0.211085
f 31/128/22 57/129/22 56/130/22

vt 0.2952 0.209296
f 57/129/22 31/128/22 52/131/22

v 114.8 -0.4 -3.2
vt -0.4592 0.0128
f 31/58/4 58/132/4 52/110/4

f 31/58/4 32/63/4 58/132/4

v 109.3 -72.4 -3.2
vt 0.4372 -0.2896
vt 0.4592 -0.0016
f 59/133/1 58/134/1 32/68/1

v 114.8 -72.4 -3.2
vt 0.4592 -0.2896
f 58/134/1 59/133/1 60/135/1

v 114.8 -72.4 -8.7
vt -0.4592 0.0348
f 59/63/4 61/136/4 60/132/4

v 109.3 -72.4 -8.7
vt -0.4372 0.0348
f 61/136/4 59/63/4 62/137/4

f 59/16/7 35/14/7 62/62/7

f 59/16/7 33/115/7 35/14/7

f 33/115/7 59/16/7 32/15/7

v 111.8 -0.4 -8.7
vt -0.4472 0.0348
f 33/64/4 63/138/4 32/63/4

f 37/71/4 63/138/4 33/64/4

v 109.3 -0.4 -8.7
f 63/138/4 37/71/4 64/137/4

vt -0.0248 -0.0016
f 64/61/7 36/11/7 37/139/7

f 62/62/7 36/11/7 64/61/7

f 62/62/7 35/14/7 36/11/7

usemtl FrontColor
vt -2.44094 28.3465
f 35/118/7 37/140/7 36/117/7

f 37/140/7 35/118/7 33/116/7

vt -3.4252 1.65354
vt -43.0315 2.44094
vt -43.0315 1.65354
f 34/141/4 37/142/4 33/143/4

vt -3.4252 2.44094
f 37/142/4 34/141/4 18/144/4

usemtl Color_A01
f 64/75/14 61/96/14 62/98/14

v 111.8 -8.9 -8.7
vt -0.4472 -0.0356
f 61/96/14 64/75/14 65/145/14

vt -0.4472 -0.0016
f 65/145/14 64/75/14 63/146/14

v 111.8 -0.4 -65.3
vt -0.4472 0.2612
f 64/137/2 66/147/2 63/138/2

f 66/147/2 64/137/2 38/76/2

f 37/71/2 38/76/2 64/137/2

v 111.8 -8.9 -65.3
vt 0.4472 -0.0356
vt 0.4472 -0.0016
f 38/68/1 67/148/1 66/149/1

f 39/133/1 67/148/1 38/68/1

v 113.8 -8.9 -65.3
vt 0.4552 -0.0356
f 67/148/1 39/133/1 68/150/1

f 39/133/1 48/134/1 68/150/1

f 48/134/1 39/133/1 47/135/1

v 113.8 -0.4 -65.3
vt 0.4552 -0.0016
f 68/150/1 48/134/1 69/151/1

v 113.8 -0.4 -8.7
vt -0.4552 0.0348
vt -0.4552 0.2612
f 48/94/4 70/152/4 69/153/4

v 114.8 -0.4 -8.7
f 70/152/4 48/94/4 71/136/4

f 48/94/4 52/110/4 71/136/4

f 49/92/4 52/110/4 48/94/4

f 50/93/4 52/110/4 49/92/4

f 42/104/4 52/110/4 50/93/4

f 51/36/4 52/110/4 42/104/4

f 69/153/4 49/92/4 48/94/4

f 66/147/4 49/92/4 69/153/4

f 38/76/4 49/92/4 66/147/4

f 19/27/4 49/92/4 38/76/4

usemtl FrontColor
vt -44.8031 25.7087
vt -44.0157 3.4252
vt -44.0157 25.7087
f 69/154/4 63/155/4 66/156/4

vt -44.8031 3.4252
f 63/155/4 69/154/4 70/157/4

usemtl Color_A01
f 70/26/17 68/47/17 69/31/17

v 113.8 -8.9 -8.7
f 68/47/17 70/26/17 72/48/17

vt -0.4552 -0.0356
vt -0.4552 -0.0016
f 71/97/14 72/158/14 70/159/14

f 61/96/14 72/158/14 71/97/14

f 72/158/14 61/96/14 65/145/14

usemtl FrontColor
vt -44.0157 28.3465
vt -44.8031 25
vt -44.0157 25
f 63/160/14 72/161/14 65/162/14

vt -44.8031 28.3465
f 72/161/14 63/160/14 70/163/14

usemtl Color_A01
f 58/132/4 63/138/4 70/152/4

f 32/63/4 63/138/4 58/132/4

f 58/132/4 70/152/4 71/136/4

f 71/136/4 52/110/4 58/132/4

f 58/43/17 61/20/17 71/26/17

f 61/20/17 58/43/17 60/2/17

vn 0 -1 -1.99291e-017
f 65/138/23 68/153/23 72/152/23

f 68/153/23 65/138/23 67/147/23

f 65/114/7 66/41/7 67/113/7

f 66/41/7 65/114/7 63/61/7

usemtl FrontColor
vt 44.0157 25
vt 44.8031 28.3465
vt 44.0157 28.3465
f 67/164/1 69/165/1 66/166/1

vt 44.8031 25
f 69/165/1 67/164/1 68/167/1

usemtl Color_A01
vt -0.4712 0.130586
vn -4.61669e-020 -0.447214 -0.894427
vt -1.52784e-020 0.132375
vt -0.472 0.132375
f 52/168/24 54/169/24 57/170/24

vt -0.0008 0.130586
f 54/169/24 52/168/24 53/171/24

v 0 2 -74
vt 0 0.008
vt -0.472 0
vt 0 0
f 73/172/14 57/173/14 54/174/14

v 118 2 -74
vt -0.472 0.008
f 57/173/14 73/172/14 74/175/14

v 0.2 2.3 -73.8
vt -0.0008 -0.156093
vn -2.86315e-020 0.5547 -0.83205
vt -0.472 -0.157535
vt -1.01856e-020 -0.157535
f 75/176/25 74/177/25 73/178/25

v 117.8 2.3 -73.8
vt -0.4712 -0.156093
f 74/177/25 75/176/25 76/179/25

vt 0.0008 0.2952
vn 0 1 -0
v 117.8 2.3 -0.2
vt 0.4712 0.0008
vt 0.4712 0.2952
f 75/180/26 77/181/26 76/182/26

v 0.2 2.3 -0.2
vt 0.0008 0.0008
f 77/181/26 75/180/26 78/183/26

vt -0.296 0.0066564
vn -0.83205 0.5547 -4.37695e-019
vt -0.0008 0.00809862
vt -0.2952 0.00809862
f 73/184/27 78/185/27 75/186/27

v 0 2 -0
vt -3.25863e-052 0.0066564
f 78/185/27 73/184/27 79/187/27

vt -0.296 0.008
f 73/188/7 55/174/7 79/172/7

vt -0.296 0
f 55/174/7 73/188/7 54/189/7

v 118 2 -0
vt 0.472 0.008
f 55/174/1 80/190/1 79/172/1

vt 0.472 0
f 80/190/1 55/174/1 56/191/1

vt 0.296 0
f 57/192/17 80/172/17 56/174/17

vt 0.296 0.008
f 80/172/17 57/192/17 74/193/17

vt 0.296 -0.255162
vn 0.83205 0.5547 2.43617e-032
vt 0.0008 -0.25372
vt 1.38198e-032 -0.255162
f 74/194/28 77/195/28 80/196/28

vt 0.2952 -0.25372
f 77/195/28 74/194/28 76/197/28

vt 0.4712 0.00809862
vn 1.43158e-020 0.5547 0.83205
vt 0 0.0066564
vt 0.472 0.0066564
f 77/198/29 79/199/29 80/200/29

vt 0.0008 0.00809862
f 79/199/29 77/198/29 78/201/29

