# Alias OBJ Model File
# Exported from SketchUp, (c) 2000-2006 Google, Inc.
# File units = millimeters

mtllib fbdbb2db39f753c2b0957d845ac33749_obj0_object.mtl

g Mesh1 Group1 Table_Norden_IKEA1 Model

usemtl vuren_vertikaal_copy
v 1100 720 -1000
vt -1.1 0.881834
vn 0 -1 -0
v 0 720 -0
vt 0 0
v 0 720 -1000
vt 0 0.881834
f 1/1/1 2/2/1 3/3/1

v 1100 720 -0
vt -1.1 0
f 2/2/1 1/1/1 4/4/1

vt 1 0
vn 1 0 -0
v 1100 750 -0
vt 0 0.026455
f 1/5/2 5/6/2 4/2/2

v 1100 750 -1000
vt 1 0.026455
f 5/6/2 1/5/2 6/7/2

vn 0 0 -1
v 0 750 -1000
vt -1.1 0.026455
f 1/4/3 7/6/3 6/8/3

f 7/6/3 1/4/3 3/2/3

vn -1 0 -0
vt -1 0.026455
vt -1 0
f 2/2/4 7/9/4 3/10/4

v 0 750 -0
f 7/9/4 2/2/4 8/6/4

vn 0 0 1
vt 1.1 0.026455
f 2/2/5 5/11/5 8/6/5

vt 1.1 0
f 5/11/5 2/2/5 4/12/5

vn 0 1 -0
f 5/12/6 7/3/6 8/2/6

vt 1.1 0.881834
f 7/3/6 5/12/6 6/13/6

g Mesh2 Group2 Table_Norden_IKEA1 Model

v 2660 720 -1000
v 1560 720 -0
v 1560 720 -1000
f 9/1/1 10/2/1 11/3/1

v 2660 720 -0
f 10/2/1 9/1/1 12/4/1

v 2660 750 -0
f 9/5/2 13/6/2 12/2/2

v 2660 750 -1000
f 13/6/2 9/5/2 14/7/2

v 1560 750 -1000
f 9/4/3 15/6/3 14/8/3

f 15/6/3 9/4/3 11/2/3

f 10/2/4 15/9/4 11/10/4

v 1560 750 -0
f 15/9/4 10/2/4 16/6/4

f 10/2/5 13/11/5 16/6/5

f 13/11/5 10/2/5 12/12/5

f 13/12/6 15/3/6 16/2/6

f 15/3/6 13/12/6 14/13/6

g Mesh3 Group3 Table_Norden_IKEA1 Model

v 1560 720 -1000
vt -0.46 0.881834
f 17/14/1 4/2/1 1/3/1

v 1560 720 -0
vt -0.46 0
f 4/2/1 17/14/1 18/15/1

v 1560 750 -0
f 17/5/2 19/6/2 18/2/2

v 1560 750 -1000
f 19/6/2 17/5/2 20/7/2

vt -0.46 0.026455
f 17/15/3 6/6/3 20/16/3

f 6/6/3 17/15/3 1/2/3

f 4/2/4 6/9/4 1/10/4

f 6/9/4 4/2/4 5/6/4

vt 0.46 0.026455
f 4/2/5 19/17/5 5/6/5

vt 0.46 0
f 19/17/5 4/2/5 18/18/5

f 19/18/6 6/3/6 5/2/6

vt 0.46 0.881834
f 6/3/6 19/18/6 20/19/6

g Mesh4 Table_Norden Table_Norden_IKEA1 Model

usemtl vuren_horizontaal
v 570 8.9407e-007 -125
vt 0.068 0.99225
vn 3.5254e-046 -1 -1.49012e-008
v 510 0 -65
vt 0.056 1.06029
v 510 8.9407e-007 -125
vt 0.056 0.99225
f 21/20/7 22/21/7 23/22/7

v 570 0 -65
vt 0.068 1.06029
f 22/21/7 21/20/7 24/23/7

v 570 720 -125
vt 0.175 0.03402
vn 1 3.1333e-017 4.66898e-025
vt 0.187 0.8505
vt 0.175 0.8505
f 25/24/8 24/25/8 21/26/8

v 570 635 -107.5
vt 0.1785 0.13041
f 24/25/8 25/24/8 26/27/8

v 570 720 -107.5
vt 0.1785 0.03402
f 27/28/8 26/27/8 25/24/8

vt 0.068 0.03402
vn 0 1.49012e-008 -1
v 2090 635 -107.5
vt 0.372 0.13041
vt 0.068 0.13041
f 27/29/9 28/30/9 26/31/9

v 2090 720 -107.5
vt 0.372 0.03402
f 28/30/9 27/29/9 29/32/9

vt -0.068 1.0121
vn 0 1 1.49012e-008
v 2090 720 -82.5
vt -0.372 1.04045
vt -0.372 1.0121
f 27/33/10 30/34/10 29/35/10

v 570 720 -82.5
vt -0.068 1.04045
f 30/34/10 27/33/10 31/36/10

vt -0.068 0.99225
vn -1.69251e-017 1 1.49012e-008
f 25/37/11 31/36/11 27/33/11

v 570 720 -65
vt -0.068 1.06029
f 25/37/11 32/38/11 31/36/11

v 552.5 720 -125
vt -0.0645 0.99225
f 33/39/11 32/38/11 25/37/11

v 527.5 720 -125
vt -0.0595 0.99225
f 34/40/11 32/38/11 33/39/11

v 510 720 -125
vt -0.056 0.99225
f 35/41/11 32/38/11 34/40/11

v 510 720 -65
vt -0.056 1.06029
f 32/38/11 35/41/11 36/42/11

vt -0.175 0.03402
vn -1 -0 -0
vt -0.187 0.8505
vt -0.187 0.03402
f 35/43/12 22/44/12 36/45/12

vt -0.175 0.8505
f 22/44/12 35/43/12 23/46/12

vt 0.056 0.03402
vn 8.08316e-024 1.49012e-008 -1
v 527.5 635 -125
vt 0.0595 0.13041
vt 0.056 0.8505
f 35/47/13 37/48/13 23/49/13

vt 0.0595 0.03402
f 37/48/13 35/47/13 34/50/13

v 527.5 635 -875
vt -0.025 0.13041
vt -0.175 0.13041
f 34/43/12 38/51/12 37/52/12

v 527.5 720 -875
vt -0.025 0.03402
f 38/51/12 34/43/12 39/53/12

vn 0 1 1.49012e-008
vt -0.0595 0.14175
f 33/39/14 39/54/14 34/40/14

v 552.5 720 -875
vt -0.0645 0.14175
f 39/54/14 33/39/14 40/55/14

v 552.5 635 -875
vt 0.025 0.13041
vt 0.025 0.03402
f 33/24/2 41/56/2 40/57/2

v 552.5 635 -125
vt 0.175 0.13041
f 41/56/2 33/24/2 42/58/2

vt 0.0645 0.03402
vt 0.068 0.8505
vt 0.0645 0.13041
f 33/59/13 21/60/13 42/61/13

vt 0.068 0.03402
f 21/60/13 33/59/13 25/62/13

f 42/61/13 21/60/13 37/48/13

v 552.5 235 -125
vt 0.0645 0.58401
f 37/48/13 21/60/13 43/63/13

v 552.5 150 -125
vt 0.0645 0.6804
f 43/63/13 21/60/13 44/64/13

v 527.5 150 -125
vt 0.0595 0.6804
f 44/64/13 21/60/13 45/65/13

f 23/49/13 45/65/13 21/60/13

v 527.5 235 -125
vt 0.0595 0.58401
f 23/49/13 46/66/13 45/65/13

f 23/49/13 37/48/13 46/66/13

f 46/66/13 37/48/13 43/63/13

vt -0.0645 0.99225
vn -5.53303e-022 1 1.49012e-008
v 527.5 235 -875
vt -0.0595 0.99225
f 43/67/15 47/54/15 46/68/15

v 552.5 235 -875
f 47/54/15 43/67/15 48/55/15

v 552.5 235 -487.5
vt -0.0645 0.581175
f 48/55/15 43/67/15 49/69/15

vt 0.175 0.6804
vt 0.1025 0.58401
vt 0.175 0.58401
f 44/70/2 49/71/2 43/72/2

v 552.5 150 -487.5
vt 0.1025 0.6804
f 49/71/2 44/70/2 50/73/2

vt 0.0645 0.99225
vn 2.45912e-022 -1 -1.49012e-008
v 552.5 150 -512.5
vt 0.0645 0.552825
vt 0.0645 0.581175
f 44/74/16 51/75/16 50/76/16

v 552.5 150 -875
vt 0.0645 0.14175
f 44/74/16 52/77/16 51/75/16

vt 0.0595 0.99225
f 45/78/16 52/77/16 44/74/16

v 527.5 150 -875
vt 0.0595 0.14175
f 52/77/16 45/78/16 53/79/16

vt -0.175 0.58401
vt -0.025 0.6804
vt -0.175 0.6804
f 46/80/12 53/81/12 45/82/12

vt -0.025 0.58401
f 53/81/12 46/80/12 47/83/12

vt -0.0595 0.58401
vn 8.08353e-024 -1.49012e-008 1
v 510 1.20699e-005 -875
vt -0.056 0.8505
vt -0.0595 0.6804
f 47/84/17 54/85/17 53/86/17

vt -0.0645 0.13041
f 41/87/17 54/85/17 47/84/17

vt -0.0595 0.13041
f 38/88/17 54/85/17 41/87/17

vt -0.0595 0.03402
f 39/89/17 54/85/17 38/88/17

v 510 720 -875
vt -0.056 0.03402
f 54/85/17 39/89/17 55/90/17

vn 3.76045e-016 1 1.49012e-008
v 510 720 -935
vt -0.056 0.07371
vt -0.056 0.14175
f 39/54/18 56/91/18 55/92/18

v 570 720 -935
vt -0.068 0.07371
f 56/91/18 39/54/18 57/93/18

f 57/93/18 39/54/18 40/55/18

vt -0.0595 0.13041
vn 0 -1.49012e-008 1
vt -0.0645 0.03402
vt -0.0595 0.03402
f 38/94/19 40/95/19 39/96/19

vt -0.0645 0.13041
f 40/95/19 38/94/19 41/97/19

vt 0.0645 0.14175
vn 0 -1 -1.49012e-008
vt 0.0595 0.14175
f 41/98/20 37/78/20 38/99/20

f 37/78/20 41/98/20 42/74/20

vt 0.0595 0.03402
vn 0 1.49012e-008 -1
vt 0.0645 0.13041
vt 0.0595 0.13041
f 34/100/21 42/101/21 37/102/21

vt 0.0645 0.03402
f 42/101/21 34/100/21 33/103/21

v 570 720 -875
vt -0.068 0.03402
vt -0.0645 0.03402
f 41/87/17 58/104/17 40/105/17

v 570 1.20699e-005 -875
vt -0.068 0.8505
f 58/104/17 41/87/17 59/106/17

vt -0.0645 0.58401
f 59/106/17 41/87/17 48/107/17

f 48/107/17 41/87/17 47/84/17

vt -0.0645 0.6804
f 59/106/17 48/107/17 52/108/17

v 552.5 235 -512.5
vt 0.0975 0.58401
vt 0.025 0.6804
vt 0.025 0.58401
f 60/109/2 52/110/2 48/111/2

vt 0.0975 0.6804
f 52/110/2 60/109/2 51/112/2

vt 0.0645 0.58401
vn 0 1.49012e-008 -1
v 2107.5 150 -512.5
vt 0.3755 0.6804
vt 0.0645 0.6804
f 60/113/22 61/114/22 51/115/22

v 2107.5 235 -512.5
vt 0.3755 0.58401
f 61/114/22 60/113/22 62/116/22

vt -0.0645 0.552825
vn 0 1 1.49012e-008
v 2107.5 235 -487.5
vt -0.3755 0.581175
vt -0.3755 0.552825
f 60/117/23 63/118/23 62/119/23

vt -0.0645 0.581175
f 63/118/23 60/117/23 49/120/23

vt -0.0645 0.552825
f 48/55/15 49/69/15 60/121/15

usemtl bouleau
vt 0.668885 1.04655
vt 0.636257 0.898292
vt 0.668885 0.898292
f 50/122/2 60/123/2 49/124/2

vt 0.636257 1.04655
f 60/123/2 50/122/2 51/125/2

usemtl vuren_horizontaal
vt 0.3755 0.552825
vn 0 -1 -1.49012e-008
vt 0.0645 0.581175
vt 0.0645 0.552825
f 61/126/24 50/127/24 51/128/24

v 2107.5 150 -487.5
vt 0.3755 0.581175
f 50/127/24 61/126/24 64/129/24

vt 0.3755 0.552825
v 2132.5 150 -875
vt 0.3805 0.14175
vt 0.3755 0.581175
f 61/130/20 65/131/20 64/132/20

v 2107.5 150 -875
vt 0.3755 0.14175
f 65/131/20 61/130/20 66/133/20

vt -0.0975 0.58401
vn -1 -3.44765e-039 2.31368e-031
vt -0.025 0.6804
vt -0.0975 0.6804
f 62/134/25 66/135/25 61/136/25

v 2107.5 235 -875
f 66/135/25 62/134/25 67/83/25

vt -0.3755 0.552825
vn 0 1 1.49012e-008
v 2132.5 235 -875
vt -0.3805 0.14175
vt -0.3755 0.14175
f 62/137/26 68/138/26 67/139/26

v 2132.5 235 -125
vt -0.3805 0.99225
f 68/138/26 62/137/26 69/140/26

vt -0.3755 0.581175
f 63/141/26 69/140/26 62/137/26

v 2107.5 235 -125
vt -0.3755 0.99225
f 69/140/26 63/141/26 70/142/26

vt -0.1025 0.58401
v 2107.5 150 -125
f 63/143/25 71/82/25 70/80/25

vt -0.1025 0.6804
f 63/143/25 64/144/25 71/82/25

f 62/134/25 64/144/25 63/143/25

f 62/134/25 61/136/25 64/144/25

f 62/109/2 64/73/2 61/112/2

f 64/73/2 62/109/2 63/71/2

vt -0.3755 0.58401
vn 0 -1.49012e-008 1
vt -0.0645 0.6804
vt -0.3755 0.6804
f 63/145/27 50/146/27 64/147/27

f 50/146/27 63/145/27 49/107/27

v 2132.5 150 -125
vt 0.3805 0.99225
vt 0.3755 0.99225
f 64/132/20 72/148/20 71/149/20

f 72/148/20 64/132/20 65/131/20

vt 0.025 0.6804
f 65/150/2 69/72/2 72/70/2

f 69/72/2 65/150/2 68/111/2

v 2150 1.20699e-005 -875
vt -0.384 0.8505
vn 5.21705e-045 -1.49012e-008 1
vt -0.3805 0.58401
vt -0.3805 0.6804
f 73/151/28 68/152/28 65/153/28

v 2132.5 635 -875
vt -0.3805 0.13041
f 73/151/28 74/154/28 68/152/28

v 2150 720 -875
vt -0.384 0.03402
f 75/155/28 74/154/28 73/151/28

v 2132.5 720 -875
vt -0.3805 0.03402
f 74/154/28 75/155/28 76/156/28

v 2150 720 -935
vt -0.384 0.07371
vn -3.76045e-016 1 1.49012e-008
vt -0.384 0.14175
f 77/157/29 76/138/29 75/158/29

v 2107.5 720 -875
f 77/157/29 78/139/29 76/138/29

v 2090 720 -917.5
vt -0.372 0.093555
f 77/157/29 79/159/29 78/139/29

v 2090 720 -935
vt -0.372 0.07371
f 79/159/29 77/157/29 80/160/29

v 2150 1.2964e-005 -935
vt 0.384 0.8505
vt 0.372 0.03402
vt 0.384 0.03402
f 81/161/22 80/162/22 77/163/22

v 2090 1.2964e-005 -935
vt 0.372 0.8505
f 80/162/22 81/161/22 82/164/22

vt 0.384 0.07371
v 2090 1.20699e-005 -875
vt 0.372 0.14175
vt 0.372 0.07371
f 81/165/20 83/166/20 82/167/20

vt 0.384 0.14175
f 83/166/20 81/165/20 73/168/20

vt 0.013 0.8505
vt 0.025 0.8505
f 81/169/2 75/57/2 73/170/2

vt 0.013 0.03402
f 75/57/2 81/169/2 77/171/2

vt -0.372 0.8505
f 73/151/28 65/153/28 83/172/28

vt -0.3755 0.6804
f 66/173/28 83/172/28 65/153/28

vt -0.3755 0.58401
f 67/174/28 83/172/28 66/173/28

f 74/154/28 83/172/28 67/174/28

v 2107.5 635 -875
vt -0.3755 0.13041
f 84/175/28 83/172/28 74/154/28

vt -0.3755 0.03402
f 78/176/28 83/172/28 84/175/28

v 2090 720 -875
vt -0.372 0.03402
f 83/172/28 78/176/28 85/177/28

v 2090 720 -892.5
vt -0.372 0.121905
vt -0.372 0.14175
f 78/139/29 86/178/29 85/179/29

f 86/178/29 78/139/29 79/159/29

v 570 720 -917.5
vt -0.068 0.093555
vt -0.372 0.093555
f 87/180/23 86/178/23 79/181/23

v 570 720 -892.5
vt -0.068 0.121905
f 86/178/23 87/180/23 88/182/23

vt 0.0215 0.03402
v 570 635 -917.5
vt 0.0165 0.13041
vt 0.0165 0.03402
f 88/183/2 89/184/2 87/185/2

v 570 635 -892.5
vt 0.0215 0.13041
f 89/184/2 88/183/2 90/186/2

f 58/57/2 90/186/2 88/183/2

f 59/170/2 90/186/2 58/57/2

f 59/170/2 89/184/2 90/186/2

v 570 1.2964e-005 -935
f 91/169/2 89/184/2 59/170/2

f 91/169/2 87/185/2 89/184/2

f 87/185/2 91/169/2 57/171/2

vt 0.068 0.8505
vt 0.056 0.03402
vt 0.068 0.03402
f 91/187/22 56/188/22 57/189/22

v 510 1.2964e-005 -935
vt 0.056 0.8505
f 56/188/22 91/187/22 92/190/22

vt 0.068 0.07371
vt 0.056 0.14175
vt 0.056 0.07371
f 91/191/20 54/192/20 92/193/20

vt 0.068 0.14175
f 54/192/20 91/191/20 59/194/20

f 59/106/17 52/108/17 54/85/17

f 53/86/17 54/85/17 52/108/17

vt -0.013 0.8505
vt -0.025 0.8505
f 55/53/12 92/195/12 54/196/12

vt -0.013 0.03402
f 92/195/12 55/53/12 56/197/12

vt -0.068 0.093555
f 57/93/18 88/182/18 87/198/18

vt -0.068 0.14175
f 57/93/18 58/199/18 88/182/18

f 57/93/18 40/55/18 58/199/18

vt 0.068 0.03402
vn -2.69357e-032 1.49012e-008 -1
v 2090 635 -917.5
vt 0.372 0.13041
vt 0.068 0.13041
f 87/200/30 93/201/30 89/202/30

vt 0.372 0.03402
f 93/201/30 87/200/30 79/203/30

vt -0.0165 0.03402
vn -1 7.51991e-016 1.12055e-023
vt -0.013 0.8505
vt -0.0165 0.13041
f 79/204/31 82/205/31 93/206/31

vt -0.013 0.03402
f 82/205/31 79/204/31 80/207/31

vt -0.025 0.8505
f 93/206/31 82/205/31 83/208/31

v 2090 635 -892.5
vt -0.0215 0.13041
f 93/206/31 83/208/31 94/209/31

vt -0.025 0.03402
f 94/209/31 83/208/31 85/210/31

vt -0.0215 0.03402
f 85/210/31 86/211/31 94/209/31

vt -0.372 0.03402
vn 4.65735e-032 -1.49012e-008 1
vt -0.068 0.13041
vt -0.372 0.13041
f 86/212/32 90/213/32 94/214/32

vt -0.068 0.03402
f 90/213/32 86/212/32 88/215/32

vt 0.068 0.121905
vt 0.372 0.093555
vt 0.372 0.121905
f 90/216/20 93/217/20 94/218/20

vt 0.068 0.093555
f 93/217/20 90/216/20 89/219/20

vt -0.025 0.13041
v 2107.5 720 -125
f 84/220/12 95/43/12 78/53/12

v 2107.5 635 -125
f 95/43/12 84/220/12 96/52/12

vt 0.3805 0.14175
vt 0.3755 0.14175
f 74/221/20 96/149/20 84/222/20

v 2132.5 635 -125
f 96/149/20 74/221/20 97/148/20

vt 0.025 0.13041
v 2132.5 720 -125
f 74/223/2 98/24/2 97/58/2

f 98/24/2 74/223/2 76/57/2

vn 8.92945e-017 1 1.49012e-008
vt -0.3805 0.99225
f 76/138/33 78/139/33 98/224/33

vt -0.3755 0.99225
f 95/225/33 98/224/33 78/139/33

v 2150 720 -65
vt -0.384 1.06029
f 95/225/33 99/226/33 98/224/33

v 2090 720 -125
vt -0.372 0.99225
f 100/227/33 99/226/33 95/225/33

f 29/35/33 99/226/33 100/227/33

f 30/34/33 99/226/33 29/35/33

v 2090 720 -65
vt -0.372 1.06029
f 99/226/33 30/34/33 101/228/33

vt -0.1835 0.03402
v 2090 0 -65
f 30/229/12 102/44/12 101/45/12

v 2090 635 -82.5
vt -0.1835 0.13041
f 103/230/12 102/44/12 30/229/12

vt -0.1785 0.13041
f 28/231/12 102/44/12 103/230/12

f 100/43/12 102/44/12 28/231/12

v 2090 8.9407e-007 -125
f 102/44/12 100/43/12 104/46/12

vn -5.87946e-045 1.49012e-008 -1
vt 0.3755 0.13041
vt 0.372 0.8505
f 100/162/34 96/232/34 104/233/34

vt 0.3755 0.03402
f 96/232/34 100/162/34 95/234/34

vt 0.3755 0.58401
f 104/233/34 96/232/34 70/235/34

vt 0.3805 0.58401
f 70/235/34 96/232/34 69/236/34

v 2150 8.9407e-007 -125
vt 0.384 0.8505
f 96/232/34 105/237/34 69/236/34

vt 0.3805 0.13041
f 97/238/34 105/237/34 96/232/34

vt 0.3805 0.03402
f 98/239/34 105/237/34 97/238/34

v 2150 720 -125
f 105/237/34 98/239/34 106/163/34

vt -0.384 0.99225
f 98/224/33 99/226/33 106/240/33

v 2150 0 -65
vt 0.187 0.03402
f 107/25/2 106/24/2 99/241/2

f 106/24/2 107/25/2 105/26/2

vt 0.372 1.06029
vn -3.76947e-045 -1 -1.49012e-008
vt 0.384 0.99225
vt 0.384 1.06029
f 102/242/35 105/243/35 107/244/35

vt 0.372 0.99225
f 105/243/35 102/242/35 104/245/35

vt 0.3755 0.6804
f 104/233/34 71/246/34 105/237/34

f 104/233/34 70/235/34 71/246/34

vt 0.3805 0.6804
f 72/247/34 105/237/34 71/246/34

f 69/236/34 105/237/34 72/247/34

vt -0.384 0.03402
vt -0.372 0.8505
vt -0.384 0.8505
f 99/248/27 102/249/27 107/250/27

vt -0.372 0.03402
f 102/249/27 99/248/27 101/251/27

vt -0.1785 0.03402
f 29/252/12 100/43/12 28/231/12

f 103/230/12 29/252/12 28/231/12

f 29/252/12 103/230/12 30/229/12

vt -0.372 0.03402
v 570 635 -82.5
vt -0.068 0.13041
vt -0.372 0.13041
f 30/253/19 108/254/19 103/255/19

vt -0.068 0.03402
f 108/254/19 30/253/19 31/256/19

vt 0.1835 0.13041
vt 0.1835 0.03402
f 24/25/8 108/257/8 31/258/8

f 24/25/8 26/27/8 108/257/8

vt 0.372 1.0121
vt 0.068 1.04045
vt 0.068 1.0121
f 28/259/20 108/260/20 26/261/20

vt 0.372 1.04045
f 108/260/20 28/259/20 103/262/20

vt 0.187 0.03402
f 24/25/8 31/258/8 32/263/8

vt -0.068 0.03402
vt -0.056 0.8505
vt -0.068 0.8505
f 32/264/27 22/265/27 24/266/27

vt -0.056 0.03402
f 22/265/27 32/264/27 36/267/27

f 68/152/28 74/154/28 67/174/28

