# Alias OBJ Model File
# Exported from SketchUp, (c) 2000-2006 Google, Inc.
# File units = inches

mtllib lack_table_1_obj0_object.mtl

g Mesh1 Group1 Model

usemtl Material7
v 17.6284 0 -62.3136
vt -1.55604 46.4567
vn 0 -1 -0
v 16.0723 0 -60.7575
vt 0 44.9006
v 16.0723 0 -62.3136
vt 0 46.4567
f 1/1/1 2/2/1 3/3/1

v 17.6284 0 -60.7575
vt -1.55604 44.9006
f 2/2/1 1/1/1 4/4/1

vt 46.4567 0
vn 1 0 -0
v 17.6284 7.72592 -60.7575
vt 44.9006 7.72592
vt 44.9006 0
f 1/5/2 5/6/2 4/7/2

v 17.6284 7.72592 -62.3136
vt 46.4567 7.72592
f 5/6/2 1/5/2 6/8/2

vt -1.55604 0
vn 0 0 -1
v 16.0723 17.7165 -62.3136
vt 0 17.7165
vt -1.55604 7.72592
f 1/9/3 7/10/3 6/11/3

vt 0 0
f 7/10/3 1/9/3 3/12/3

vt -44.9006 0
vn -1 0 -0
vt -46.4567 17.7165
vt -46.4567 0
f 2/13/4 7/14/4 3/15/4

v 16.0723 16.1605 -60.7575
vt -44.9006 16.1605
f 8/16/4 7/14/4 2/13/4

v 16.0723 16.1605 -17.4129
vt -1.55604 16.1605
f 9/17/4 7/14/4 8/16/4

v 16.0723 17.7165 -15.8569
f 9/17/4 10/10/4 7/14/4

v 16.0723 0 -15.8569
f 10/10/4 9/17/4 11/12/4

v 16.0723 0 -17.4129
vt -1.55604 0
f 12/18/4 11/12/4 9/17/4

v 17.6284 0 -17.4129
vt -1.55604 1.55604
vt 0 1.55604
f 13/19/1 11/12/1 12/20/1

v 17.6284 0 -15.8569
f 11/12/1 13/19/1 14/9/1

vt 1.55604 0
v 17.6284 7.68655 -15.8569
vt 0 7.68655
f 13/21/2 15/22/2 14/12/2

v 17.6284 7.72592 -15.8569
vt 0 7.72592
f 15/22/2 13/21/2 16/23/2

v 17.6284 7.72592 -17.4129
vt 1.55604 7.72592
f 16/23/2 13/21/2 17/24/2

vt 0 16.1605
f 13/9/3 9/25/3 17/11/3

f 9/25/3 13/9/3 12/12/3

v 17.6284 8.08025 -17.4129
vt -1.55604 8.08025
f 17/11/3 9/25/3 18/26/3

v 17.6284 8.43458 -17.4129
vt -1.55604 8.43458
f 18/26/3 9/25/3 19/27/3

v 17.6284 16.1605 -17.4129
vt -1.55604 16.1605
f 19/27/3 9/25/3 20/28/3

v 17.6284 16.1605 -60.7575
f 9/20/1 21/4/1 20/19/1

f 21/4/1 9/20/1 8/2/1

vn 0 0 1
v 17.6284 8.43458 -60.7575
vt 1.55604 8.43458
vt 1.55604 16.1605
f 8/25/5 22/29/5 21/30/5

v 17.6284 8.08025 -60.7575
vt 1.55604 8.08025
f 8/25/5 23/31/5 22/29/5

vt 1.55604 7.72592
f 8/25/5 5/32/5 23/31/5

f 2/12/5 5/32/5 8/25/5

vt 1.55604 0
f 5/32/5 2/12/5 4/33/5

vt -1.55604 7.72592
vt -44.9006 8.08025
vt -44.9006 7.72592
f 17/34/4 23/35/4 5/36/4

vt -1.55604 8.08025
f 23/35/4 17/34/4 18/37/4

v 17.6284 8.08025 -15.8569
vt 0 8.08025
vt 1.55604 8.08025
f 24/38/2 17/24/2 18/39/2

f 17/24/2 24/38/2 16/23/2

f 10/10/5 16/32/5 24/31/5

vt 1.55604 7.68655
f 10/10/5 15/40/5 16/32/5

f 11/12/5 15/40/5 10/10/5

f 15/40/5 11/12/5 14/33/5

v 45.2249 8.43458 -15.8569
vt 29.1526 8.43458
f 16/32/5 25/41/5 24/31/5

v 45.2249 7.72592 -15.8569
vt 29.1526 7.72592
f 25/41/5 16/32/5 26/42/5

v 45.2249 7.72592 -62.3136
vt -29.1526 46.4567
vt -29.1526 0
f 16/9/1 27/43/1 26/44/1

f 17/19/1 27/43/1 16/9/1

f 5/4/1 27/43/1 17/19/1

f 27/43/1 5/4/1 6/1/1

vt 44.9006 8.08025
f 6/8/2 23/45/2 5/6/2

v 17.6284 8.08025 -62.3136
vt 46.4567 8.08025
f 23/45/2 6/8/2 28/46/2

f 6/11/3 7/10/3 28/26/3

v 17.6284 8.43458 -62.3136
f 28/26/3 7/10/3 29/27/3

v 17.6284 16.1605 -62.3136
f 29/27/3 7/10/3 30/28/3

v 45.2249 16.1605 -62.3136
vt -29.1526 16.1605
f 30/28/3 7/10/3 31/47/3

v 46.781 17.7165 -62.3136
vt -30.7087 17.7165
f 32/48/3 31/47/3 7/10/3

v 45.2249 8.43458 -62.3136
vt -29.1526 8.43458
f 32/48/3 33/49/3 31/47/3

vt -29.1526 7.72592
f 32/48/3 27/50/3 33/49/3

v 46.781 0 -62.3136
vt -30.7087 0
f 34/51/3 27/50/3 32/48/3

v 45.2249 0 -62.3136
f 27/50/3 34/51/3 35/44/3

vt -30.7087 46.4567
v 45.2249 0 -60.7575
vt -29.1526 44.9006
f 34/52/1 36/53/1 35/43/1

v 46.781 0 -60.7575
vt -30.7087 44.9006
f 36/53/1 34/52/1 37/54/1

v 46.781 16.1605 -60.7575
vt 44.9006 16.1605
f 34/5/2 38/55/2 37/7/2

vt 46.4567 17.7165
f 32/56/2 38/55/2 34/5/2

v 46.781 16.1605 -17.4129
vt 1.55604 16.1605
f 32/56/2 39/57/2 38/55/2

v 46.781 17.7165 -15.8569
f 40/10/2 39/57/2 32/56/2

v 46.781 0 -17.4129
vt 1.55604 0
f 40/10/2 41/58/2 39/57/2

v 46.781 0 -15.8569
f 41/58/2 40/10/2 42/12/2

vt 30.7087 17.7165
v 45.2249 0 -15.8569
vt 29.1526 0
vt 30.7087 0
f 40/59/5 43/60/5 42/61/5

v 45.2249 7.68655 -15.8569
vt 29.1526 7.68655
f 43/60/5 40/59/5 44/62/5

f 44/62/5 40/59/5 26/42/5

f 26/42/5 40/59/5 25/41/5

v 45.2249 8.47395 -15.8569
vt 29.1526 8.47395
f 25/41/5 40/59/5 45/63/5

v 45.2249 16.1605 -15.8569
vt 29.1526 16.1605
f 45/63/5 40/59/5 46/64/5

v 17.6284 16.1605 -15.8569
f 46/64/5 40/59/5 47/30/5

f 10/10/5 47/30/5 40/59/5

v 17.6284 8.47395 -15.8569
vt 1.55604 8.47395
f 10/10/5 48/65/5 47/30/5

v 17.6284 8.43458 -15.8569
f 10/10/5 49/29/5 48/65/5

f 10/10/5 24/31/5 49/29/5

f 24/31/5 25/41/5 49/29/5

vn 0 1 -0
vt 1.55604 1.55604
f 25/60/6 19/66/6 49/33/6

vt 1.55604 44.9006
f 19/66/6 25/60/6 22/67/6

vt 1.55604 46.4567
f 22/67/6 25/60/6 29/68/6

vt 29.1526 46.4567
f 29/68/6 25/60/6 33/69/6

v 45.2249 8.43458 -17.4129
vt 29.1526 1.55604
f 33/69/6 25/60/6 50/70/6

vt -1.55604 8.43458
vt 0 8.43458
f 50/71/4 26/23/4 25/72/4

v 45.2249 7.72592 -17.4129
vt -1.55604 7.72592
f 26/23/4 50/71/4 51/73/4

vt -30.7087 16.1605
vn 3.02118e-032 -1.09814e-016 -1
f 39/74/7 51/50/7 50/49/7

vt -30.7087 1.70876e-016
f 41/75/7 51/50/7 39/74/7

v 45.2249 0 -17.4129
vt -29.1526 1.70876e-016
f 51/50/7 41/75/7 52/76/7

vt -30.7087 1.55604
vt -29.1526 1.55604
f 41/77/1 43/44/1 52/78/1

f 43/44/1 41/77/1 42/51/1

vt -1.55604 0
f 43/12/4 51/73/4 52/79/4

f 44/22/4 51/73/4 43/12/4

f 51/73/4 44/22/4 26/23/4

v 45.2249 7.72592 -60.7575
vt -29.1526 1.55604
f 26/44/1 53/53/1 51/80/1

f 26/44/1 27/43/1 53/53/1

vt -46.4567 7.72592
f 27/81/4 36/13/4 53/36/4

f 36/13/4 27/81/4 35/15/4

vt 30.7087 16.1605
f 36/60/5 38/82/5 53/42/5

f 38/82/5 36/60/5 37/61/5

v 45.2249 8.43458 -60.7575
f 53/42/5 38/82/5 54/41/5

v 45.2249 16.1605 -60.7575
f 54/41/5 38/82/5 55/64/5

v 45.2249 16.1605 -17.4129
vt -29.1526 1.55604
f 38/54/1 56/83/1 55/53/1

vt -30.7087 1.55604
f 56/83/1 38/54/1 39/84/1

f 39/74/7 50/49/7 56/47/7

f 25/72/4 56/17/4 50/71/4

vt 0 8.47395
f 45/85/4 56/17/4 25/72/4

f 56/17/4 45/85/4 46/25/4

f 46/44/1 55/53/1 56/83/1

f 46/44/1 31/43/1 55/53/1

f 47/9/1 31/43/1 46/44/1

f 20/19/1 31/43/1 47/9/1

f 21/4/1 31/43/1 20/19/1

f 31/43/1 21/4/1 30/1/1

vt 46.4567 8.43458
vt 46.4567 16.1605
f 21/55/2 29/86/2 30/87/2

vt 44.9006 8.43458
f 29/86/2 21/55/2 22/88/2

f 22/88/2 28/46/2 29/86/2

f 28/46/2 22/88/2 23/45/2

vt -44.9006 8.43458
f 18/37/4 22/89/4 23/35/4

vt -1.55604 8.43458
f 22/89/4 18/37/4 19/90/4

vt 1.55604 8.43458
f 49/72/2 18/39/2 19/91/2

f 18/39/2 49/72/2 24/38/2

f 19/91/2 48/85/2 49/72/2

f 48/85/2 19/91/2 47/25/2

f 47/25/2 19/91/2 20/57/2

f 33/49/3 28/26/3 29/27/3

f 27/50/3 28/26/3 33/49/3

f 28/26/3 27/50/3 6/11/3

vt -46.4567 8.43458
f 53/36/4 33/92/4 27/81/4

f 33/92/4 53/36/4 54/89/4

vt 1.55604 8.43458
f 50/93/2 53/6/2 54/88/2

vt 1.55604 7.72592
f 53/6/2 50/93/2 51/94/2

vt 29.1526 44.9006
f 33/69/6 50/70/6 54/95/6

vt -46.4567 16.1605
f 54/89/4 31/96/4 33/92/4

f 31/96/4 54/89/4 55/16/4

f 40/61/6 7/3/6 10/12/6

vt 30.7087 46.4567
f 7/3/6 40/61/6 32/97/6

