ply
format ascii 1.0
comment VCG
element vertex 36
property float x
property float y
property float z
element face 68
property list uchar int vertex_indices
end_header
-1.110223e-16 0 0.93000001
-1.110223e-16 0.039999999 0.40000001
-1.110223e-16 0.40000001 0
-1.110223e-16 0.40000001 0.43000001
0 0 0
0 0.029999999 0.43000001
0 0.029999999 0.93000001
0 0.039999999 0
5.5511151e-17 0.36000001 0
5.5511151e-17 0.36000001 0.40000001
0.039999999 0 0
0.039999999 0 0.40000001
0.039999999 0.039999999 0
0.039999999 0.039999999 0.40000001
0.039999999 0.36000001 0
0.039999999 0.36000001 0.40000001
0.039999999 0.40000001 0
0.039999999 0.40000001 0.40000001
0.36000001 0 0
0.36000001 0 0.40000001
0.36000001 0.039999999 0
0.36000001 0.039999999 0.40000001
0.36000001 0.36000001 0
0.36000001 0.36000001 0.40000001
0.36000001 0.40000001 0
0.36000001 0.40000001 0.40000001
0.40000001 0 0
0.40000001 0 0.93000001
0.40000001 0.029999999 0.43000001
0.40000001 0.029999999 0.93000001
0.40000001 0.039999999 0
0.40000001 0.039999999 0.40000001
0.40000001 0.36000001 0
0.40000001 0.36000001 0.40000001
0.40000001 0.40000001 0
0.40000001 0.40000001 0.43000001
3 19 11 21
3 21 11 13
3 17 25 15
3 15 25 23
3 33 31 23
3 23 31 21
3 23 21 15
3 15 21 13
3 15 13 9
3 9 13 1
3 0 6 4
3 4 6 5
3 7 4 1
3 1 4 5
3 1 5 9
3 9 5 3
3 9 3 8
3 8 3 2
3 18 26 19
3 19 26 27
3 19 27 11
3 11 27 0
3 11 0 10
3 10 0 4
3 13 11 12
3 12 11 10
3 1 13 7
3 7 13 12
3 12 10 7
3 7 10 4
3 28 29 27
3 26 30 31
3 32 34 33
3 33 34 35
3 33 35 31
3 31 35 28
3 31 28 26
3 26 28 27
3 16 2 17
3 17 2 3
3 17 3 25
3 25 3 35
3 25 35 24
3 24 35 34
3 35 3 28
3 28 3 5
3 21 31 20
3 20 31 30
3 19 21 18
3 18 21 20
3 20 30 18
3 18 30 26
3 23 25 22
3 22 25 24
3 33 23 32
3 32 23 22
3 22 24 32
3 32 24 34
3 15 9 14
3 14 9 8
3 17 15 16
3 16 15 14
3 14 8 16
3 16 8 2
3 6 29 5
3 5 29 28
3 27 29 0
3 0 29 6
