# Alias OBJ Model File
# Exported from SketchUp, (c) 2000-2006 Google, Inc.
# File units = inches

mtllib 33c8b21a29bef56645de94e1bc93a4f6_obj0_object.mtl

g Mesh1 Group1 Group_6_1 Model

usemtl Color_C23
v 160.608 29 65.6903
vt -3 10.9218
vn 0 -1 0
v 161.608 29 62.6903
vt -2 7.9218
v 161.608 29 65.6903
vt -2 10.9218
f 1/1/1 2/2/1 3/3/1

v 160.608 29 62.6903
vt -3 7.9218
f 2/2/1 1/1/1 4/4/1

v 108.858 29 83.1435
vt -54.75 28.375
f 1/1/1 5/5/1 4/4/1

f 3/3/1 5/5/1 1/1/1

v 163.608 29 83.1435
vt 0 28.375
f 3/3/1 6/6/1 5/5/1

v 163.608 29 54.7685
vt 0 0
f 6/6/1 3/3/1 7/7/1

f 2/2/1 7/7/1 3/3/1

v 108.858 29 54.7685
vt -54.75 7.10543e-015
f 7/7/1 2/2/1 8/8/1

f 8/8/1 2/2/1 4/4/1

v 111.858 29 62.6903
vt -51.75 7.9218
f 8/8/1 4/4/1 9/9/1

v 111.858 29 65.6903
vt -51.75 10.9218
f 9/9/1 4/4/1 10/10/1

f 4/4/1 5/5/1 10/10/1

v 110.858 29 65.6903
vt -52.75 10.9218
f 10/10/1 5/5/1 11/11/1

v 110.858 29 62.6903
vt -52.75 7.9218
f 11/11/1 5/5/1 12/12/1

f 12/12/1 5/5/1 8/8/1

vt 28.375 0
vn -1 0 1.05303e-016
v 108.858 29.5 54.7685
vt 7.10543e-015 0.5
vt 7.10543e-015 0
f 5/13/2 13/14/2 8/15/2

v 108.858 29.5 83.1435
vt 28.375 0.5
f 13/14/2 5/13/2 14/16/2

vt -54.75 0
vn 1.05303e-016 0 1
v 163.608 29.5 83.1435
vt 0 0.5
vt -54.75 0.5
f 5/17/3 15/18/3 14/19/3

f 15/18/3 5/17/3 6/7/3

vn 1 0 -1.05303e-016
vt -28.375 0.5
vt -28.375 0
f 7/7/4 15/20/4 6/21/4

v 163.608 29.5 54.7685
f 15/20/4 7/7/4 16/18/4

vn -1.05303e-016 0 -1
vt 54.75 0.5
f 7/7/5 13/22/5 16/18/5

vt 54.75 0
f 13/22/5 7/7/5 8/23/5

vt 54.75 7.10543e-015
vn 0 1 -0
f 13/24/6 15/6/6 16/7/6

vt 54.75 28.375
f 15/6/6 13/24/6 14/25/6

f 8/8/1 9/9/1 12/12/1

f 9/9/1 11/11/1 12/12/1

f 11/11/1 9/9/1 10/10/1

g Mesh2 Group3 Group2 Group_6_1 Model

usemtl Color_006
v 110.858 28.25 62.6903
vt 1 27.5
vn 2.84331e-014 -1.03352e-015 -1
v 111.858 0.75 62.6903
vt -1.62222e-027 -5.87486e-029
v 110.858 0.75 62.6903
vt 1 -2.9495e-029
f 17/26/7 18/27/7 19/28/7

v 111.858 28.25 62.6903
vt 0 27.5
f 18/27/7 17/26/7 20/29/7

vt -1 0
v 111.858 28.25 56.9403
vt 0 -5.75
f 17/30/1 21/31/1 20/7/1

v 110.858 28.25 56.9403
vt -1 -5.75
f 21/31/1 17/30/1 22/32/1

v 110.858 29 56.9403
vt -5.75 28.25
vt -5.75 27.5
f 17/29/2 23/33/2 22/34/2

v 110.858 29 62.6903
vt 0 28.25
f 23/33/2 17/29/2 24/35/2

v 110.858 0.75 65.6903
vt 3 0
f 17/29/2 25/36/2 24/35/2

f 25/36/2 17/29/2 19/7/2

v 110.858 29 65.6903
vt 3 28.25
f 24/35/2 25/36/2 26/37/2

v 110.858 28.25 65.6903
vt 3 27.5
f 26/37/2 25/36/2 27/38/2

v 111.858 28.25 65.6903
vt 7.10543e-015 27.5
vt -1 27.5
f 25/30/3 28/39/3 27/40/3

v 111.858 0.75 65.6903
f 28/39/3 25/30/3 29/7/3

vt -3 0
v 111.858 29 65.6903
vt -3 28.25
vt -3 27.5
f 29/41/4 30/42/4 28/43/4

vt -5.68434e-014 0
f 18/44/4 30/42/4 29/41/4

f 20/29/4 30/42/4 18/44/4

v 111.858 29 62.6903
f 20/29/4 31/35/4 30/42/4

vt 5.75 27.5
f 21/45/4 31/35/4 20/29/4

v 111.858 29 56.9403
vt 5.75 28.25
f 31/35/4 21/45/4 32/46/4

vt 6.71263e-016 27.5
vn 1.14383e-017 0 -1
vt 1 28.25
vt 6.71263e-016 28.25
f 21/47/8 23/48/8 32/49/8

vt 1 27.5
f 23/48/8 21/47/8 22/50/8

vt 1 -5.75
f 23/51/6 31/7/6 32/31/6

vt 1 0
f 31/7/6 23/51/6 24/52/6

v 111.858 29 81.6903
vt -19 28.25
f 33/53/4 28/43/4 30/42/4

v 111.858 28.25 81.6903
vt -19 27.5
f 28/43/4 33/53/4 34/54/4

v 110.858 28.25 81.6903
f 33/35/3 35/40/3 34/39/3

v 110.858 29 81.6903
vt -1 28.25
f 35/40/3 33/35/3 36/55/3

vt 0 19
vt 1 3
vt 1 19
f 33/56/6 26/57/6 36/58/6

vt 0 3
f 26/57/6 33/56/6 30/59/6

vt 19 27.5
vt 19 28.25
f 26/37/2 35/60/2 36/61/2

f 26/37/2 27/38/2 35/60/2

vt 7.10543e-015 3
vt -1 19
vt -1 3
f 28/62/1 35/63/1 27/64/1

vt 7.10543e-015 19
f 35/63/1 28/62/1 34/65/1

g Mesh3 Group4 Group2 Group_6_1 Model

v 160.608 28.25 62.6903
vn 2.84331e-014 -1.03352e-015 -1
v 161.608 0.75 62.6903
vt -1.62222e-027 -5.87486e-029
v 160.608 0.75 62.6903
vt 1 -2.9495e-029
f 37/26/9 38/66/9 39/67/9

v 161.608 28.25 62.6903
f 38/66/9 37/26/9 40/29/9

v 161.608 28.25 56.9403
f 37/30/1 41/31/1 40/7/1

v 160.608 28.25 56.9403
f 41/31/1 37/30/1 42/32/1

v 160.608 29 56.9403
f 37/29/2 43/33/2 42/34/2

f 43/33/2 37/29/2 4/35/2

v 160.608 0.75 65.6903
f 37/29/2 44/36/2 4/35/2

f 44/36/2 37/29/2 39/7/2

f 4/35/2 44/36/2 1/37/2

v 160.608 28.25 65.6903
f 1/37/2 44/36/2 45/38/2

vt -1 0
vn -1.14383e-017 0 1
v 161.608 28.25 65.6903
vt 3.50224e-016 27.5
vt -1 27.5
f 44/68/10 46/69/10 45/70/10

v 161.608 0.75 65.6903
vt 3.50224e-016 0
f 46/69/10 44/68/10 47/71/10

f 47/41/4 3/42/4 46/43/4

f 38/44/4 3/42/4 47/41/4

f 40/29/4 3/42/4 38/44/4

f 40/29/4 2/35/4 3/42/4

f 41/45/4 2/35/4 40/29/4

v 161.608 29 56.9403
f 2/35/4 41/45/4 48/46/4

f 41/47/8 43/48/8 48/49/8

f 43/48/8 41/47/8 42/50/8

f 43/51/6 2/7/6 48/31/6

f 2/7/6 43/51/6 4/52/6

v 161.608 29 81.6903
f 49/53/4 46/43/4 3/42/4

v 161.608 28.25 81.6903
f 46/43/4 49/53/4 50/54/4

vt 2.21809e-015 28.25
v 160.608 28.25 81.6903
vt -1 27.5
vt -2.62036e-014 27.5
f 49/72/10 51/73/10 50/74/10

v 160.608 29 81.6903
vt -1 28.25
f 51/73/10 49/72/10 52/75/10

f 49/56/6 1/57/6 52/58/6

f 1/57/6 49/56/6 3/59/6

f 1/37/2 51/60/2 52/61/2

f 1/37/2 45/38/2 51/60/2

vt -2.84217e-014 19
vt -1 19
f 45/64/1 50/76/1 51/77/1

f 50/76/1 45/64/1 46/59/1

g Mesh4 Group2 Group_6_1 Model

v 112.108 7.10543e-015 83.1435
vt -49.75 28.375
v 110.608 7.10543e-015 54.7685
vt -51.25 2.13163e-014
v 112.108 7.10543e-015 54.7685
vt -49.75 2.13163e-014
f 53/78/1 54/79/1 55/80/1

v 110.608 7.10543e-015 83.1435
vt -51.25 28.375
f 54/79/1 53/78/1 56/81/1

v 112.108 0.75 83.1435
vt -49.75 0.75
vt -51.25 7.10543e-015
vt -49.75 7.10543e-015
f 57/82/3 56/83/3 53/84/3

v 110.608 0.75 83.1435
vt -51.25 0.75
f 56/83/3 57/82/3 58/85/3

v 112.033 0.890078 83.1435
vt -49.8252 0.890078
f 58/85/3 57/82/3 59/86/3

v 112.108 0.75 54.7685
vt -2.13163e-014 24.1968
vn 0.881016 0.473087 -9.27737e-017
vt -28.375 24.3558
vn 0.8305 0.557019 -8.74542e-017
vt -28.375 24.1968
f 60/87/11 59/88/12 57/89/11

v 112.033 0.890078 54.7685
vt -2.13163e-014 24.3558
f 59/88/12 60/87/11 61/90/12

vt 49.75 0.75
v 110.684 0.890078 54.7685
vt 51.1748 0.890078
vt 49.8252 0.890078
f 60/91/5 62/92/5 61/93/5

v 110.608 0.75 54.7685
vt 51.25 0.75
f 60/91/5 63/94/5 62/92/5

vt 49.75 7.10543e-015
f 55/95/5 63/94/5 60/91/5

vt 51.25 7.10543e-015
f 63/94/5 55/95/5 54/96/5

vt 28.375 7.10543e-015
vt 2.13163e-014 0.75
vt 2.13163e-014 7.10543e-015
f 56/97/2 63/98/2 54/99/2

vt 28.375 0.75
f 63/98/2 56/97/2 58/100/2

vt 28.375 -23.585
vn -0.881016 0.473087 9.27737e-017
vt 2.13163e-014 -23.426
vn -0.8305 0.557019 8.74542e-017
vt 2.13163e-014 -23.585
f 58/101/13 62/102/14 63/103/13

v 110.684 0.890078 83.1435
vt 28.375 -23.426
f 62/102/14 58/101/13 64/104/14

vt -51.1748 0.890078
f 58/85/3 59/86/3 64/105/3

v 111.932 1.01282 83.1435
vt -49.9263 1.01282
f 64/105/3 59/86/3 65/106/3

vt -2.13163e-014 32.3563
vt -28.375 32.5153
vn 0.70612 0.708092 -7.43566e-017
vt -28.375 32.3563
f 61/107/12 65/108/15 59/109/12

v 111.932 1.01282 54.7685
vt -2.13163e-014 32.5153
f 65/108/15 61/107/12 66/110/15

v 110.785 1.01282 54.7685
vt 51.0737 1.01282
vt 49.9263 1.01282
f 61/93/5 67/111/5 66/112/5

f 61/93/5 62/92/5 67/111/5

vt 28.375 -31.8398
vt 2.13163e-014 -31.6808
vn -0.70612 0.708092 7.43566e-017
vt 2.13163e-014 -31.8398
f 64/113/14 67/114/16 62/115/14

v 110.785 1.01282 83.1435
vt 28.375 -31.6808
f 67/114/16 64/113/14 68/116/16

vt -51.0737 1.01282
f 64/105/3 65/106/3 68/117/3

v 111.809 1.11354 83.1435
vt -50.0493 1.11354
f 68/117/3 65/106/3 69/118/3

vt -28.375 39.2737
v 111.809 1.11354 54.7685
vt -2.13163e-014 39.4327
vn 0.5547 0.83205 -5.84117e-017
vt -28.375 39.4327
f 65/119/15 70/120/17 69/121/17

vt -2.13163e-014 39.2737
f 70/120/17 65/119/15 66/122/15

v 110.908 1.11354 54.7685
vt 50.9507 1.11354
vt 50.0493 1.11354
f 66/112/5 71/123/5 70/124/5

f 66/112/5 67/111/5 71/123/5

vt 2.13163e-014 -38.8785
v 110.908 1.11354 83.1435
vt 28.375 -38.7195
vn -0.5547 0.83205 5.84117e-017
vt 2.13163e-014 -38.7195
f 67/125/16 72/126/18 71/127/18

vt 28.375 -38.8785
f 72/126/18 67/125/16 68/128/16

vt -50.9507 1.11354
f 68/117/3 69/118/3 72/129/3

v 111.669 1.18837 83.1435
vt -50.1896 1.18837
f 72/129/3 69/118/3 73/130/3

vt -28.375 44.6842
v 111.669 1.18837 54.7685
vt -2.13163e-014 44.8432
vn 0.382039 0.924146 -4.02299e-017
vt -28.375 44.8432
f 69/131/17 74/132/19 73/133/19

vt -2.13163e-014 44.6842
f 74/132/19 69/131/17 70/134/17

v 111.048 1.18837 54.7685
vt 50.8104 1.18837
vt 50.1896 1.18837
f 70/124/5 75/135/5 74/136/5

f 70/124/5 71/123/5 75/135/5

vt 2.13163e-014 -44.4314
v 111.048 1.18837 83.1435
vt 28.375 -44.2724
vn -0.382039 0.924146 4.02299e-017
vt 2.13163e-014 -44.2724
f 71/137/18 76/138/20 75/139/20

vt 28.375 -44.4314
f 76/138/20 71/137/18 72/140/18

vt -50.8104 1.18837
f 72/129/3 73/130/3 76/141/3

v 111.517 1.23444 83.1435
vt -50.3418 1.23444
f 76/141/3 73/130/3 77/142/3

vt -28.375 48.3804
v 111.517 1.23444 54.7685
vt -2.13163e-014 48.5394
vn 0.194748 0.980853 -2.05076e-017
vt -28.375 48.5394
f 73/143/19 78/144/21 77/145/21

vt -2.13163e-014 48.3804
f 78/144/21 73/143/19 74/146/19

v 111.2 1.23444 54.7685
vt 50.6582 1.23444
vt 50.3418 1.23444
f 74/136/5 79/147/5 78/148/5

f 74/136/5 75/135/5 79/147/5

vt 2.13163e-014 -48.2859
v 111.2 1.23444 83.1435
vt 28.375 -48.1269
vn -0.194748 0.980853 2.05076e-017
vt 2.13163e-014 -48.1269
f 75/149/20 80/150/22 79/151/22

vt 28.375 -48.2859
f 80/150/22 75/149/20 76/152/20

vt -50.6582 1.23444
f 76/141/3 77/142/3 80/153/3

v 111.358 1.25 83.1435
vt -50.5 1.25
f 80/153/3 77/142/3 81/154/3

vt -28.375 50.221
v 111.358 1.25 54.7685
vt -2.13163e-014 50.38
vt -28.375 50.38
f 77/155/21 82/156/6 81/157/6

vt -2.13163e-014 50.221
f 82/156/6 77/155/21 78/158/21

vt 50.5 1.25
f 78/148/5 79/147/5 82/159/5

vt 2.13163e-014 -50.2944
vt 28.375 -50.1354
vt 2.13163e-014 -50.1354
f 79/160/22 81/161/6 82/162/6

vt 28.375 -50.2944
f 81/161/6 79/160/22 80/163/22

vt -28.375 0.75
vt -2.13163e-014 7.10543e-015
vt -2.13163e-014 0.75
f 57/164/4 55/165/4 60/166/4

vt -28.375 7.10543e-015
f 55/165/4 57/164/4 53/167/4

g Mesh5 Group2 Group_6_1 Model

v 161.858 0.75 83.1435
vn 1 8.06674e-014 -2.01282e-015
v 161.858 7.10543e-015 54.7685
vt 0 7.10543e-015
v 161.858 0.75 54.7685
vt 2.1686e-028 0.75
f 83/164/23 84/168/23 85/169/23

v 161.858 7.10543e-015 83.1435
vt -28.375 7.10543e-015
f 84/168/23 83/164/23 86/170/23

vt -2.84217e-014 0.75
v 160.358 7.10543e-015 83.1435
vt -1.5 7.10543e-015
vt -2.84217e-014 7.10543e-015
f 83/171/3 87/172/3 86/173/3

v 160.358 0.75 83.1435
vt -1.5 0.75
f 87/172/3 83/171/3 88/174/3

v 161.783 0.890078 83.1435
vt -0.0752189 0.890078
f 88/174/3 83/171/3 89/175/3

vt 1.10842e-027 0.660762
vn 0.881016 0.473087 -8.68555e-015
vt -28.375 0.819758
vn 0.8305 0.557019 -4.40456e-015
vt -28.375 0.660762
f 85/176/24 89/177/25 83/178/24

v 161.783 0.890078 54.7685
vt 7.3363e-016 0.819758
f 89/177/25 85/176/24 90/179/25

vt 1.13687e-013 0.75
vn -7.43994e-015 -1.03352e-014 -1
v 160.434 0.890078 54.7685
vt 1.42478 0.890078
vt 0.0752189 0.890078
f 85/180/26 91/181/26 90/182/26

v 160.358 0.75 54.7685
vt 1.5 0.75
f 85/180/26 92/183/26 91/181/26

f 84/168/26 92/183/26 85/180/26

v 160.358 7.10543e-015 54.7685
vt 1.5 7.10543e-015
f 92/183/26 84/168/26 93/184/26

vt -2.84217e-014 28.375
vt -1.5 0
f 86/185/1 93/186/1 84/7/1

vt -1.5 28.375
f 93/186/1 86/185/1 87/187/1

vt 28.375 1.28107e-013
vn -1 -8.06674e-014 2.01282e-015
vt -2.86128e-015 0.75
vt -2.86128e-015 1.28107e-013
f 87/188/27 92/189/27 93/190/27

vt 28.375 0.75
f 92/189/27 87/188/27 88/191/27

vt 28.375 -0.048869
vn -0.881016 0.473087 -1.55058e-015
vt 2.65764e-015 0.110127
vn -0.8305 0.557019 -7.38185e-016
vt 2.79794e-015 -0.048869
f 88/192/28 91/193/29 92/194/28

v 160.434 0.890078 83.1435
vt 28.375 0.110127
f 91/193/29 88/192/28 94/195/29

vt -1.42478 0.890078
f 88/174/3 89/175/3 94/196/3

v 161.682 1.01282 83.1435
vt -0.176278 1.01282
f 94/196/3 89/175/3 95/197/3

vt 0 0.734962
vt -28.375 0.893958
vn 0.70612 0.708092 -7.43566e-017
vt -28.375 0.734962
f 90/198/25 95/199/30 89/200/25

v 161.682 1.01282 54.7685
vt 0 0.893958
f 95/199/30 90/198/25 96/201/30

v 160.535 1.01282 54.7685
vt 1.32372 1.01282
vt 0.176278 1.01282
f 90/182/26 97/202/26 96/203/26

f 90/182/26 91/181/26 97/202/26

vt 28.375 -0.218446
vt 0 -0.0594499
vn -0.70612 0.708092 7.43566e-017
vt 0 -0.218446
f 94/204/29 97/205/31 91/206/29

v 160.535 1.01282 83.1435
vt 28.375 -0.0594499
f 97/205/31 94/204/29 98/207/31

vt -1.32372 1.01282
f 94/196/3 95/197/3 98/208/3

v 161.559 1.11354 83.1435
vt -0.299306 1.11354
f 98/208/3 95/197/3 99/209/3

vt 0 0.777974
vt -28.375 0.93697
vn 0.5547 0.83205 -5.84117e-017
vt -28.375 0.777974
f 96/210/30 99/211/32 95/212/30

v 161.559 1.11354 54.7685
vt 0 0.93697
f 99/211/32 96/210/30 100/213/32

v 160.658 1.11354 54.7685
vt 1.20069 1.11354
vt 0.299306 1.11354
f 96/203/26 101/214/26 100/215/26

f 96/203/26 97/202/26 101/214/26

vt 28.375 -0.382702
vt 0 -0.223706
vn -0.5547 0.83205 5.84117e-017
vt 0 -0.382702
f 98/216/31 101/217/33 97/218/31

v 160.658 1.11354 83.1435
vt 28.375 -0.223706
f 101/217/33 98/216/31 102/219/33

vt -1.20069 1.11354
f 98/208/3 99/209/3 102/220/3

v 161.419 1.18837 83.1435
vt -0.439593 1.18837
f 102/220/3 99/209/3 103/221/3

vt 0 0.788151
vt -28.375 0.947147
vn 0.382039 0.924146 -4.02299e-017
vt -28.375 0.788151
f 100/222/32 103/223/34 99/224/32

v 161.419 1.18837 54.7685
vt 0 0.947147
f 103/223/34 100/222/32 104/225/34

v 160.798 1.18837 54.7685
vt 1.06041 1.18837
vt 0.439593 1.18837
f 100/215/26 105/226/26 104/227/26

f 100/215/26 101/214/26 105/226/26

vt 28.375 -0.535347
vt 0 -0.376351
vn -0.382039 0.924146 4.02299e-017
vt 0 -0.535347
f 102/228/33 105/229/35 101/230/33

v 160.798 1.18837 83.1435
vt 28.375 -0.376351
f 105/229/35 102/228/33 106/231/35

vt -1.06041 1.18837
f 102/220/3 103/221/3 106/232/3

v 161.267 1.23444 83.1435
vt -0.591767 1.23444
f 106/232/3 103/221/3 107/233/3

vt 0 0.765102
vt -28.375 0.924098
vn 0.194748 0.980853 -2.05076e-017
vt -28.375 0.765102
f 104/234/34 107/235/36 103/236/34

v 161.267 1.23444 54.7685
vt 0 0.924098
f 107/235/36 104/234/34 108/237/36

v 160.95 1.23444 54.7685
vt 0.908233 1.23444
vt 0.591767 1.23444
f 104/227/26 109/238/26 108/239/26

f 104/227/26 105/226/26 109/238/26

vt 28.375 -0.670536
vt 0 -0.51154
vn -0.194748 0.980853 2.05076e-017
vt 0 -0.670536
f 106/240/35 109/241/37 105/242/35

v 160.95 1.23444 83.1435
vt 28.375 -0.51154
f 109/241/37 106/240/35 110/243/37

vt -0.908233 1.23444
f 106/232/3 107/233/3 110/244/3

v 161.108 1.25 83.1435
vt -0.75 1.25
f 110/244/3 107/233/3 111/245/3

vt 0 0.70971
vt -28.375 0.868706
vn 0 1 -0
vt -28.375 0.70971
f 108/246/36 111/247/38 107/248/36

v 161.108 1.25 54.7685
vt 0 0.868706
f 111/247/38 108/246/36 112/249/38

vt 0.75 1.25
f 108/239/26 109/238/26 112/250/26

vt 28.375 -0.783093
vt 0 -0.624097
vt 0 -0.783093
f 110/251/37 112/252/38 109/253/37

vt 28.375 -0.624097
f 112/252/38 110/251/37 111/254/38

g Mesh6 Group2 Group_6_1 Model

v 110.858 0.75 65.6903
vt -51 10.9218
vt -50 7.9218
v 111.858 0.75 65.6903
vt -50 10.9218
f 113/255/1 18/256/1 114/257/1

vt -51 7.9218
f 18/256/1 113/255/1 19/258/1

g Mesh7 Group_6_1 Model

v 111.858 21 65.6903
vt -51.75 21
vn 1.66533e-016 0 1
v 160.608 13 65.6903
vt -3 13
v 160.608 21 65.6903
vt -3 21
f 115/259/39 116/260/39 117/261/39

v 111.858 13 65.6903
vt -51.75 13
f 116/260/39 115/259/39 118/262/39

vt -17.4532 21
vn -1 0 1.66533e-016
v 111.858 13 64.6903
vt -18.4532 13
vt -17.4532 13
f 115/263/40 119/264/40 118/265/40

v 111.858 21 64.6903
vt -18.4532 21
f 119/264/40 115/263/40 120/266/40

vt 17.4532 51.75
v 160.608 21 64.6903
vt 18.4532 3
vt 18.4532 51.75
f 115/267/6 121/268/6 120/269/6

vt 17.4532 3
f 121/268/6 115/267/6 117/270/6

vt 17.4532 21
vn 1 0 -1.66533e-016
v 160.608 13 64.6903
vt 18.4532 13
vt 18.4532 21
f 117/271/41 122/272/41 121/273/41

vt 17.4532 13
f 122/272/41 117/271/41 116/274/41

vt -17.4532 51.75
vn -0 -1 -0
vt -18.4532 3
vt -17.4532 3
f 118/275/42 122/276/42 116/277/42

vt -18.4532 51.75
f 122/276/42 118/275/42 119/278/42

vt 51.75 13
vn -1.66533e-016 -1.9984e-015 -1
vt 3 21
vt 3 13
f 119/279/43 121/280/43 122/281/43

vt 51.75 21
f 121/280/43 119/279/43 120/282/43

