# Alias OBJ Model File
# Exported from SketchUp, (c) 2000-2006 Google, Inc.
# File units = meters

mtllib ade04c0f6673ef05222a8d56386ae206_obj0_object.mtl

g Mesh1 Model

usemtl FrontColor
v 0.57 0.47 -0
vt 22.4409 0
vn 0 1 -0
v 0.06 0.47 -0.53
vt 2.3622 20.8661
v 0.06 0.47 -0
vt 2.3622 0
f 1/1/1 2/2/1 3/3/1

v 0.57 0.47 -0.53
vt 22.4409 20.8661
f 2/2/1 1/1/1 4/4/1

vt 0 18.5039
vn -1 0 -0
v 0.57 0.65 -0.53
vt -20.8661 25.5906
vt -20.8661 18.5039
f 1/5/2 5/6/2 4/7/2

v 0.57 0.65 -0
vt 0 25.5906
f 5/6/2 1/5/2 6/8/2

vt 22.4409 18.5039
vn 0 0 1
v 0.63 0.65 -0
vt 24.8031 25.5906
vt 22.4409 25.5906
f 1/9/3 7/10/3 6/11/3

v 0.59 0.35 -0
vt 23.2283 13.7795
f 8/12/3 7/10/3 1/9/3

v 0.59 0 -0
vt 23.2283 0
f 9/13/3 7/10/3 8/12/3

v 0.63 0 -0
vt 24.8031 0
f 7/10/3 9/13/3 10/14/3

vt -23.2283 0
vn 0 -1 -0
v 0.63 0 -0.04
vt -24.8031 1.5748
vt -24.8031 0
f 9/15/4 11/16/4 10/17/4

v 0.59 0 -0.04
vt -23.2283 1.5748
f 11/16/4 9/15/4 12/18/4

vt 0 0
v 0.59 0.35 -0.04
vt -1.5748 13.7795
vt -1.5748 0
f 9/19/2 13/20/2 12/21/2

vt 0 13.7795
f 13/20/2 9/19/2 8/22/2

v 0.59 0.35 -0.55
vt -23.2283 21.6535
f 8/15/4 14/23/4 13/18/4

v 0.59 0.35 -0.59
vt -23.2283 23.2283
f 8/15/4 15/24/4 14/23/4

v 0.04 0.35 -0
f 16/21/4 15/24/4 8/15/4

v 0.04 0.35 -0.04
vt -1.5748 1.5748
f 17/25/4 15/24/4 16/21/4

v 0.04 0.35 -0.55
vt -1.5748 21.6535
f 18/26/4 15/24/4 17/25/4

v 0.04 0.35 -0.59
vt -1.5748 23.2283
f 15/24/4 18/26/4 19/27/4

vt 21.6535 13.7795
vn 1 0 -0
v 0.04 0 -0.59
vt 23.2283 0
vt 23.2283 13.7795
f 18/28/5 20/29/5 19/30/5

v 0.04 0 -0.55
vt 21.6535 0
f 20/29/5 18/28/5 21/31/5

vt 1.5748 13.7795
v 0 0 -0.55
vt 1.5748 0
f 18/32/3 22/19/3 21/33/3

v 0 0.35 -0.55
f 22/19/3 18/32/3 23/22/3

v 0 0.35 -0.04
vt 0 1.5748
vt 0 21.6535
f 18/26/4 24/34/4 23/35/4

f 24/34/4 18/26/4 17/25/4

v 0.04 0 -0.04
vn 0 0 -1
f 25/21/6 24/22/6 17/20/6

v 0 0 -0.04
f 24/22/6 25/21/6 26/19/6

v 0 0 -0
f 25/25/4 27/19/4 26/34/4

v 0.04 0 -0
f 27/19/4 25/25/4 28/21/4

vt 1.5748 0
f 25/36/5 16/22/5 28/19/5

vt 1.5748 13.7795
f 16/22/5 25/36/5 17/37/5

f 16/32/3 27/19/3 28/33/3

v 0 0.65 -0
f 27/19/3 16/32/3 29/8/3

vt 2.3622 18.5039
f 29/8/3 16/32/3 3/38/3

f 3/38/3 16/32/3 1/9/3

f 8/12/3 1/9/3 16/32/3

v 0.06 0.65 -0
vt 2.3622 25.5906
f 29/8/3 3/38/3 30/39/3

vt 20.8661 18.5039
f 2/40/5 30/8/5 3/5/5

v 0.06 0.65 -0.53
vt 20.8661 25.5906
f 30/8/5 2/40/5 31/41/5

f 2/38/3 5/11/3 31/39/3

f 5/11/3 2/38/3 4/9/3

vt 22.4409 28.505
vn -2.68597e-018 0.154377 0.988012
v 0.63 0.97 -0.58
vt 24.8031 41.2563
vt 2.3622 28.505
f 5/42/7 32/43/7 31/44/7

v 0.63 0.65 -0.53
vt 24.8031 28.505
f 32/43/7 5/42/7 33/45/7

vt 24.8031 20.8661
f 5/4/1 7/14/1 33/46/1

f 7/14/1 5/4/1 6/1/1

v 0.63 0.35 -0.04
f 7/8/5 34/32/5 33/41/5

f 7/8/5 11/33/5 34/32/5

f 11/33/5 7/8/5 10/19/5

vt -23.2283 13.7795
vt -24.8031 13.7795
f 11/17/6 13/47/6 34/48/6

f 13/47/6 11/17/6 12/15/6

v 0.63 0.35 -0.55
vt -24.8031 21.6535
f 13/18/4 35/49/4 34/16/4

f 35/49/4 13/18/4 14/23/4

v 0.59 0 -0.55
vt 24.8031 13.7795
f 36/13/3 35/50/3 14/12/3

v 0.63 0 -0.55
f 35/50/3 36/13/3 37/14/3

v 0.63 0 -0.59
vt -24.8031 23.2283
f 36/23/4 38/51/4 37/49/4

v 0.59 0 -0.59
f 38/51/4 36/23/4 39/24/4

vt -21.6535 0
vt -23.2283 13.7795
vt -23.2283 0
f 36/52/2 15/53/2 39/54/2

vt -21.6535 13.7795
f 15/53/2 36/52/2 14/55/2

f 38/29/5 35/28/5 37/31/5

vt 22.8346 38.189
f 35/28/5 38/29/5 32/56/5

v 0.63 0.97 -0.67
vt 26.378 38.189
f 32/56/5 38/29/5 40/57/5

v 0 0.97 -0.67
vt 0 26.378
vt 24.8031 22.8346
vt 24.8031 26.378
f 41/58/1 32/59/1 40/60/1

v 0 0.97 -0.58
vt 0 22.8346
f 32/59/1 41/58/1 42/61/1

v 0 0 -0.59
vt -22.8346 38.189
vt -26.378 38.189
f 43/54/2 42/62/2 41/63/2

f 22/52/2 42/62/2 43/54/2

f 23/55/2 42/62/2 22/52/2

v 0 0.65 -0.53
f 23/55/2 44/6/2 42/62/2

vt -1.5748 13.7795
f 24/64/2 44/6/2 23/55/2

f 24/64/2 29/8/2 44/6/2

f 29/8/2 24/64/2 27/19/2

vt -1.5748 0
f 26/65/2 27/19/2 24/64/2

vt 0 20.8661
f 30/3/1 44/66/1 29/19/1

f 44/66/1 30/3/1 31/2/1

vt -5.67258e-017 28.505
f 31/44/7 32/43/7 44/67/7

vt -6.20773e-017 41.2563
f 44/67/7 32/43/7 42/68/7

vt 0 23.2283
f 20/27/4 22/35/4 43/69/4

f 22/35/4 20/27/4 21/26/4

f 33/41/5 35/28/5 32/56/5

f 33/41/5 34/32/5 35/28/5

