# Alias OBJ Model File
# Exported from SketchUp, (c) 2000-2006 Google, Inc.
# File units = inches

mtllib f7359203d546c6728e90384c22377ec9_obj0_object.mtl

g Mesh1 Model

usemtl Metal_Aluminum_Anodized
v 7.57554 0.0799568 -58.3048
vt -0.140288 0.00148068
vn 0 0 -1
v 9.55861 27.205 -58.3048
vt -0.177011 0.503795
v 9.55861 0.0799568 -58.3048
vt -0.177011 0.00148068
f 1/1/1 2/2/1 3/3/1

v 7.57554 29.205 -58.3048
vt -0.140288 0.540833
f 2/2/1 1/1/1 4/4/1

v 7.57554 0.0799568 -56.3217
vt -1.04299 0.00148068
vn -1 -1.20624e-015 3.90785e-032
vt -1.07972 0.540833
vt -1.07972 0.00148068
f 5/5/2 4/6/2 1/7/2

v 7.57554 27.205 -56.3217
vt -1.04299 0.503795
f 6/8/2 4/6/2 5/5/2

v 7.57554 27.205 -7.5116
vt -0.139104 0.503795
f 7/9/2 4/6/2 6/8/2

v 7.57554 29.205 -5.52853
vt -0.10238 0.540833
f 7/9/2 8/10/2 4/6/2

v 7.57554 0.0799568 -5.52853
vt -0.10238 0.00148068
f 8/10/2 7/9/2 9/11/2

v 7.57554 0.0799568 -7.5116
vt -0.139104 0.00148068
f 10/12/2 9/11/2 7/9/2

v 9.55861 0.0799568 -7.5116
vt -0.177011 0.139104
vn -1.07492e-014 -1 -0
vt -0.140288 0.10238
vt -0.140288 0.139104
f 11/13/3 9/14/3 10/15/3

v 9.55861 0.0799568 -5.52853
vt -0.177011 0.10238
f 9/14/3 11/13/3 12/16/3

vt 0.139104 0.00148068
vn 1 -5.23902e-016 -0
v 9.55861 27.205 -5.52853
vt 0.10238 0.503795
vt 0.10238 0.00148068
f 11/17/4 13/18/4 12/19/4

v 9.55861 27.205 -7.5116
vt 0.139104 0.503795
f 13/18/4 11/17/4 14/20/4

f 10/1/1 14/2/1 11/3/1

vt -0.140288 0.503795
f 14/2/1 10/1/1 7/21/1

vt -0.140288 0.139104
vn -7.16611e-015 -1 -0
v 9.55861 27.205 -56.3217
vt -0.177011 1.04299
vt -0.177011 0.139104
f 7/22/5 15/23/5 14/24/5

vt -0.140288 1.04299
f 15/23/5 7/22/5 6/25/5

vt 0.140288 0.00148068
vn 0 0 1
vt 0.177011 0.503795
vt 0.140288 0.503795
f 5/26/6 15/27/6 6/28/6

v 9.55861 0.0799568 -56.3217
vt 0.177011 0.00148068
f 15/27/6 5/26/6 16/29/6

vt -0.140288 1.04299
vt -0.177011 1.07972
vt -0.177011 1.04299
f 5/30/3 3/31/3 16/32/3

vt -0.140288 1.07972
f 3/31/3 5/30/3 1/33/3

vt 1.07972 0.00148068
vt 1.04299 0.503795
vt 1.04299 0.00148068
f 3/34/4 15/35/4 16/36/4

vt 1.07972 0.503795
f 15/35/4 3/34/4 2/37/4

v 39.0925 27.205 -58.3048
vt -0.723935 1.07972
vn 1.20293e-015 -1 -0
vt -0.177011 1.04299
vt -0.177011 1.07972
f 17/38/7 15/39/7 2/40/7

v 39.0925 27.205 -56.3217
vt -0.723935 1.04299
f 15/39/7 17/38/7 18/41/7

vt -1.07972 0.503795
vn -1 5.23902e-016 -0
v 39.0925 0.0799568 -56.3217
vt -1.04299 0.00148068
vt -1.04299 0.503795
f 17/42/8 19/43/8 18/44/8

v 39.0925 0.0799568 -58.3048
vt -1.07972 0.00148068
f 19/43/8 17/42/8 20/45/8

vt -0.723935 0.503795
v 41.0755 0.0799568 -58.3048
vt -0.760658 0.00148068
vt -0.723935 0.00148068
f 17/46/1 21/47/1 20/48/1

v 41.0755 29.205 -58.3048
vt -0.760658 0.540833
f 21/47/1 17/46/1 22/49/1

f 22/49/1 17/46/1 4/4/1

f 2/2/1 4/4/1 17/46/1

vt 0.140288 1.07972
vn 0 1 -0
v 9.55861 29.205 -56.3217
vt 0.177011 1.04299
vt 0.760658 1.07972
f 4/50/9 23/51/9 22/52/9

v 9.55861 29.205 -7.5116
vt 0.177011 0.139104
f 23/51/9 4/50/9 24/53/9

vt 0.140288 0.10238
f 8/54/9 24/53/9 4/50/9

v 41.0755 29.205 -5.52853
vt 0.760658 0.10238
f 24/53/9 8/54/9 25/55/9

vt 0.140288 0.540833
v 39.0925 27.205 -5.52853
vt 0.723935 0.503795
vt 0.760658 0.540833
f 8/56/6 26/57/6 25/58/6

f 8/56/6 13/27/6 26/57/6

f 9/26/6 13/27/6 8/56/6

f 13/27/6 9/26/6 12/29/6

vt -0.177011 0.10238
v 39.0925 27.205 -7.5116
vt -0.723935 0.139104
vt -0.723935 0.10238
f 13/59/7 27/60/7 26/61/7

vt -0.177011 0.139104
f 27/60/7 13/59/7 14/62/7

vt -0.177011 0.540833
f 24/63/1 27/46/1 14/2/1

v 39.0925 29.205 -7.5116
vt -0.723935 0.540833
f 27/46/1 24/63/1 28/64/1

vt 0.723935 0.139104
f 24/53/9 25/55/9 28/65/9

v 39.0925 29.205 -56.3217
vt 0.723935 1.04299
f 28/65/9 25/55/9 29/66/9

f 22/52/9 29/66/9 25/55/9

f 22/52/9 23/51/9 29/66/9

vt 0.177011 0.540833
vt 0.723935 0.540833
f 23/67/6 18/57/6 29/68/6

f 18/57/6 23/67/6 15/27/6

vt 0.139104 0.540833
vn 1 -3.19744e-014 -0
vt 1.04299 0.503795
vt 1.04299 0.540833
f 24/69/10 15/70/10 23/71/10

vt 0.139104 0.503795
f 15/70/10 24/69/10 14/72/10

vt -0.139104 0.503795
vn -1 7.10543e-015 -0
vt -1.04299 0.540833
vt -1.04299 0.503795
f 27/73/11 29/74/11 18/75/11

vt -0.139104 0.540833
f 29/74/11 27/73/11 28/76/11

v 41.0755 27.205 -56.3217
vt -0.760658 1.04299
vn 0 -1 -0
vt -0.723935 0.139104
vt -0.723935 1.04299
f 30/77/12 27/78/12 18/79/12

v 41.0755 27.205 -7.5116
vt -0.760658 0.139104
f 27/78/12 30/77/12 31/80/12

vt 1.07972 0.540833
vn 1 -1.60272e-015 9.28115e-032
vt 0.139104 0.503795
vt 1.04299 0.503795
f 22/81/13 31/82/13 30/83/13

vt 0.10238 0.540833
f 25/84/13 31/82/13 22/81/13

v 41.0755 0.0799568 -7.5116
vt 0.139104 0.00148068
f 25/84/13 32/85/13 31/82/13

v 41.0755 0.0799568 -5.52853
vt 0.10238 0.00148068
f 32/85/13 25/84/13 33/86/13

vt 0.760658 0.00148068
f 26/57/6 33/87/6 25/58/6

v 39.0925 0.0799568 -5.52853
vt 0.723935 0.00148068
f 33/87/6 26/57/6 34/88/6

vt -0.139104 0.503795
vt -0.10238 0.00148068
vt -0.10238 0.503795
f 27/89/8 34/90/8 26/91/8

v 39.0925 0.0799568 -7.5116
vt -0.139104 0.00148068
f 34/90/8 27/89/8 35/92/8

f 27/46/1 32/47/1 35/48/1

vt -0.760658 0.503795
f 32/47/1 27/46/1 31/93/1

vt -0.760658 0.139104
vn 3.58305e-015 -1 -0
vt -0.723935 0.10238
vt -0.723935 0.139104
f 32/94/14 34/95/14 35/96/14

vt -0.760658 0.10238
f 34/95/14 32/94/14 33/97/14

vt 1.07972 0.00148068
f 22/81/13 30/83/13 21/98/13

v 41.0755 0.0799568 -56.3217
vt 1.04299 0.00148068
f 21/98/13 30/83/13 36/99/13

vt 0.760658 0.503795
f 18/57/6 36/87/6 30/100/6

f 36/87/6 18/57/6 19/88/6

vt -0.723935 1.04299
vt -0.760658 1.07972
vt -0.760658 1.04299
f 19/101/14 21/102/14 36/103/14

vt -0.723935 1.07972
f 21/102/14 19/101/14 20/104/14

g Mesh2 Model

usemtl Material12
v 7.66966 29.3685 -58.3385
vt -7.66966 58.3385
v 41.1697 29.3685 -5.33855
vt -41.1697 5.33855
v 7.66966 29.3685 -5.33855
vt -7.66966 5.33855
f 37/105/12 38/106/12 39/107/12

v 41.1697 29.3685 -58.3385
vt -41.1697 58.3385
f 38/106/12 37/105/12 40/108/12

v 7.66966 29.8685 -58.3385
vt -7.66966 29.8685
vn -5.09046e-015 0 -1
vt -41.1697 29.3685
vt -7.66966 29.3685
f 41/109/15 40/110/15 37/111/15

v 41.1697 29.8685 -58.3385
vt -41.1697 29.8685
f 40/110/15 41/109/15 42/112/15

vt 7.66966 58.3385
v 41.1697 29.8685 -5.33855
vt 41.1697 5.33855
vt 41.1697 58.3385
f 41/113/9 43/114/9 42/115/9

v 7.66966 29.8685 -5.33855
vt 7.66966 5.33855
f 43/114/9 41/113/9 44/116/9

vt -58.3385 29.8685
vn -1 0 7.01771e-016
vt -5.33855 29.3685
vt -5.33855 29.8685
f 41/117/16 39/118/16 44/119/16

vt -58.3385 29.3685
f 39/118/16 41/117/16 37/120/16

vt 7.66966 29.3685
vn -4.24205e-016 0 1
vt 41.1697 29.8685
vt 7.66966 29.8685
f 39/121/17 43/122/17 44/123/17

vt 41.1697 29.3685
f 43/122/17 39/121/17 38/124/17

vt 58.3385 29.3685
vn 1 0 1.20304e-015
vt 5.33855 29.8685
vt 5.33855 29.3685
f 40/125/18 43/126/18 38/127/18

vt 58.3385 29.8685
f 43/126/18 40/125/18 42/128/18

