# Alias OBJ Model File
# Exported from SketchUp, (c) 2000-2006 Google, Inc.
# File units = meters

mtllib 7151b3c288bd931cc39bbaf89406e4ae_obj0_object.mtl

g Mesh1 Model

usemtl FrontColor
v -5.52194 0.49 -2.45406
vt 217.399 19.2913
vn 0 0 -1
v -3.86194 0 -2.45406
vt 152.045 0
v -5.52194 0 -2.45406
vt 217.399 0
f 1/1/1 2/2/1 3/3/1

v -3.86194 0.49 -2.45406
vt 152.045 19.2913
f 2/2/1 1/1/1 4/4/1

vt -217.399 96.6167
vn 0 1 -0
v -3.86194 0.49 -2.41406
vt -152.045 95.0419
vt -152.045 96.6167
f 1/5/2 5/6/2 4/7/2

v -5.52194 0.49 -2.41406
vt -217.399 95.0419
f 5/6/2 1/5/2 6/8/2

vt -96.6167 19.2913
vn -1 0 -0
v -5.52194 0.43 -2.41406
vt -95.0419 16.9291
vt -95.0419 19.2913
f 1/9/3 7/10/3 6/11/3

v -5.52194 0.215 -2.41406
vt -95.0419 8.46457
f 7/10/3 1/9/3 8/12/3

v -5.52194 0 -2.41406
vt -95.0419 0
f 8/12/3 1/9/3 9/13/3

vt -96.6167 0
f 9/13/3 1/9/3 3/14/3

v -5.52194 0.215 -0.436771
vt -17.1957 8.46457
f 10/15/3 7/10/3 8/12/3

v -5.52194 0.43 -0.436771
vt -17.1957 16.9291
f 7/10/3 10/15/3 11/16/3

v -5.52194 0 -0.436771
vt -17.1957 0
f 12/17/3 11/16/3 10/15/3

v -5.52194 0.49 -0.436771
vt -17.1957 19.2913
f 12/17/3 13/18/3 11/16/3

v -5.52194 0 -0.396771
vt -15.6209 0
f 14/19/3 13/18/3 12/17/3

v -5.52194 0.49 -0.396771
vt -15.6209 19.2913
f 13/18/3 14/19/3 15/20/3

vt -217.399 0
vn 0 0 1
v -5.3996 0.132275 -0.396771
vt -212.583 5.20769
vt -217.399 19.2913
f 14/21/4 16/22/4 15/23/4

v -4.72293 0.12715 -0.396771
vt -185.942 5.0059
f 16/22/4 14/21/4 17/24/4

v -4.00194 0.12715 -0.396771
vt -157.557 5.0059
f 17/24/4 14/21/4 18/25/4

v -3.86194 0 -0.396771
vt -152.045 0
f 19/26/4 18/25/4 14/21/4

v -3.86194 0.49 -0.396771
vt -152.045 19.2913
f 18/25/4 19/26/4 20/27/4

v -3.86194 0 -0.436771
vt 17.1957 0
vn 1 0 -0
vt 15.6209 19.2913
vt 15.6209 0
f 21/28/5 20/29/5 19/30/5

v -3.86194 0.215 -0.436771
vt 17.1957 8.46457
f 20/29/5 21/28/5 22/31/5

v -3.86194 0.49 -0.436771
vt 17.1957 19.2913
f 20/29/5 22/31/5 23/32/5

v -3.86194 0.43 -0.436771
vt 17.1957 16.9291
f 23/32/5 22/31/5 24/33/5

v -3.86194 0.215 -2.41406
vt 95.0419 8.46457
f 25/34/5 24/33/5 22/31/5

v -3.86194 0.43 -2.41406
vt 95.0419 16.9291
f 24/33/5 25/34/5 26/35/5

vt 96.6167 0
f 25/34/5 2/36/5 26/35/5

v -3.86194 0 -2.41406
vt 95.0419 0
f 2/36/5 25/34/5 27/37/5

vt 95.0419 19.2913
f 26/35/5 2/36/5 5/38/5

vt 96.6167 19.2913
f 5/38/5 2/36/5 4/39/5

vt -217.399 16.9291
vt -152.045 16.9291
f 5/27/4 7/40/4 26/41/4

f 7/40/4 5/27/4 6/23/4

vt -152.045 17.1957
f 7/8/2 24/42/2 26/6/2

vt -217.399 17.1957
f 24/42/2 7/8/2 11/43/2

vt 152.045 16.9291
vt 217.399 16.9291
f 13/1/1 24/44/1 11/45/1

f 24/44/1 13/1/1 23/4/1

vt -152.045 15.6209
f 13/43/2 20/46/2 23/42/2

vt -217.399 15.6209
f 20/46/2 13/43/2 15/47/2

v -5.3996 0.32715 -0.396771
vt -212.583 12.8799
f 15/23/4 28/48/4 20/27/4

f 15/23/4 16/22/4 28/48/4

v -5.3996 0.132275 -0.406771
vt 16.0146 5.20769
vt 15.6209 12.8799
vt 15.6209 5.20769
f 29/49/5 28/50/5 16/51/5

v -5.3996 0.32715 -0.406771
vt 16.0146 12.8799
f 28/50/5 29/49/5 30/52/5

v -4.72293 0.32715 -0.406771
vt -185.942 12.8799
f 29/22/4 31/53/4 30/48/4

v -4.72293 0.12715 -0.406771
f 31/53/4 29/22/4 32/24/4

vt 16.0146 212.616
vn 0.00757409 0.999971 -0
vt 15.6209 185.975
vt 16.0146 185.975
f 29/54/6 17/55/6 32/56/6

vt 15.6209 212.616
f 17/55/6 29/54/6 16/57/6

vt -15.6209 5.0059
vt -16.0146 12.8799
vt -16.0146 5.0059
f 17/58/3 31/59/3 32/60/3

v -4.72293 0.32715 -0.396771
vt -15.6209 12.8799
f 31/59/3 17/58/3 33/61/3

v -4.65858 0.32715 -0.396771
vt -183.409 12.8799
f 17/24/4 34/62/4 33/53/4

v -4.65858 0.12715 -0.396771
vt -183.409 5.0059
f 34/62/4 17/24/4 35/63/4

f 17/24/4 18/25/4 35/63/4

vt -157.557 15.6209
v -4.65858 0.12715 -0.416771
vt -183.409 16.4083
vt -183.409 15.6209
f 18/64/2 36/65/2 35/66/2

v -4.00194 0.12715 -0.416771
vt -157.557 16.4083
f 36/65/2 18/64/2 37/67/2

v -4.00194 0.32715 -0.416771
vt -16.4083 12.8799
vt -16.4083 5.0059
f 18/58/3 38/68/3 37/69/3

v -4.00194 0.32715 -0.396771
f 38/68/3 18/58/3 39/61/3

vt -157.557 12.8799
f 18/25/4 20/27/4 39/70/4

f 39/70/4 20/27/4 34/62/4

f 34/62/4 20/27/4 33/53/4

f 33/53/4 20/27/4 28/48/4

vt 212.583 15.6209
vn 0 -1 -0
vt 185.942 16.0146
vt 185.942 15.6209
f 28/71/7 31/72/7 33/73/7

vt 212.583 16.0146
f 31/72/7 28/71/7 30/74/7

vt 183.409 15.6209
vt 157.557 16.4083
vt 157.557 15.6209
f 34/75/7 38/76/7 39/77/7

v -4.65858 0.32715 -0.416771
vt 183.409 16.4083
f 38/76/7 34/75/7 40/78/7

vt 16.4083 5.0059
vt 16.4083 12.8799
f 34/50/5 36/79/5 40/80/5

vt 15.6209 5.0059
f 36/79/5 34/50/5 35/81/5

f 36/63/4 38/70/4 40/62/4

f 38/70/4 36/63/4 37/25/4

