# Alias OBJ Model File
# Exported from SketchUp, (c) 2000-2006 Google, Inc.
# File units = millimeters

mtllib 456601c88eae2449f51fa0238791f5dc_obj0_object.mtl

g Mesh1 Group2 Group1 Model

usemtl Color_A23
v 1180 440 -750
vt -46.4567 29.5276
vn 0 -1 -0
v 0 440 -0
vt 0 0
v 0 440 -750
vt 0 29.5276
f 1/1/1 2/2/1 3/3/1

v 1180 440 -0
vt -46.4567 0
f 2/2/1 1/1/1 4/4/1

vt 29.5276 0
vn 1 0 -0
v 1180 460 -0
vt 0 0.787402
f 1/5/2 5/6/2 4/2/2

v 1180 460 -750
vt 29.5276 0.787402
f 5/6/2 1/5/2 6/7/2

vn 0 0 -1
v 0 460 -750
vt -46.4567 0.787402
f 1/4/3 7/6/3 6/8/3

f 7/6/3 1/4/3 3/2/3

vn -1 0 -0
vt -29.5276 0.787402
vt -29.5276 0
f 2/2/4 7/9/4 3/10/4

v 0 460 -0
f 7/9/4 2/2/4 8/6/4

vn 0 0 1
vt 46.4567 0.787402
f 2/2/5 5/11/5 8/6/5

vt 46.4567 0
f 5/11/5 2/2/5 4/12/5

vn 0 1 -0
f 5/12/6 7/3/6 8/2/6

vt 46.4567 29.5276
f 7/3/6 5/12/6 6/13/6

g Mesh2 Group4 Group3 Group1 Model

v 60 100 -690
vt 24.8031 0
v 60 140 -60
vt 0 1.5748
v 60 100 -60
f 9/14/2 10/15/2 11/2/2

v 60 140 -690
vt 24.8031 1.5748
f 10/15/2 9/14/2 12/16/2

vt -0.590551 0
v 45 140 -690
vt -0.590551 1.5748
f 9/17/3 13/15/3 12/18/3

v 45 100 -690
f 13/15/3 9/17/3 14/2/3

vt -0.590551 24.8031
v 45 100 -60
vt 0 24.8031
f 9/19/1 15/2/1 14/20/1

f 15/2/1 9/19/1 11/17/1

vt 0.590551 1.5748
vt 0.590551 0
f 10/21/5 15/2/5 11/22/5

v 45 140 -60
f 15/2/5 10/21/5 16/15/5

f 10/22/6 13/20/6 16/2/6

vt 0.590551 24.8031
f 13/20/6 10/22/6 12/23/6

vt -24.8031 1.5748
f 13/24/4 15/2/4 16/15/4

vt -24.8031 0
f 15/2/4 13/24/4 14/25/4

g Mesh3 Group5 Group3 Group1 Model

v 1135 100 -690
v 1135 140 -60
v 1135 100 -60
f 17/14/2 18/15/2 19/2/2

v 1135 140 -690
f 18/15/2 17/14/2 20/16/2

v 1120 140 -690
f 17/17/3 21/15/3 20/18/3

v 1120 100 -690
f 21/15/3 17/17/3 22/2/3

v 1120 100 -60
f 17/19/1 23/2/1 22/20/1

f 23/2/1 17/19/1 19/17/1

f 18/21/5 23/2/5 19/22/5

v 1120 140 -60
f 23/2/5 18/21/5 24/15/5

f 18/22/6 21/20/6 24/2/6

f 21/20/6 18/22/6 20/23/6

f 21/24/4 23/2/4 24/15/4

f 23/2/4 21/24/4 22/25/4

g Mesh4 Group6 Group3 Group1 Model

v 1120 140 -45
vt 41.7323 1.5748
v 60 100 -45
v 1120 100 -45
vt 41.7323 0
f 25/26/5 26/2/5 27/27/5

v 60 140 -45
f 26/2/5 25/26/5 28/15/5

vt 41.7323 0.19685
vt 0 0.787402
vt 0 0.19685
f 25/28/6 10/29/6 28/30/6

vt 41.7323 0.787402
f 10/29/6 25/28/6 24/31/6

vt 0.19685 1.5748
vt 0.787402 0
vt 0.787402 1.5748
f 25/32/2 23/33/2 24/34/2

vt 0.19685 0
f 23/33/2 25/32/2 27/35/2

vt -41.7323 0.787402
vt -41.7323 0.19685
f 26/30/1 23/36/1 27/37/1

f 23/36/1 26/30/1 11/29/1

vt -0.19685 0
vt -0.787402 1.5748
vt -0.787402 0
f 26/38/4 10/39/4 11/40/4

vt -0.19685 1.5748
f 10/39/4 26/38/4 28/41/4

vt -41.7323 0
f 10/15/3 23/42/3 11/2/3

vt -41.7323 1.5748
f 23/42/3 10/15/3 24/43/3

g Mesh5 Group7 Group3 Group1 Model

f 21/26/5 9/2/5 22/27/5

f 9/2/5 21/26/5 12/15/5

v 60 140 -705
f 21/28/6 29/29/6 12/30/6

v 1120 140 -705
f 29/29/6 21/28/6 30/31/6

v 1120 100 -705
f 21/32/2 31/33/2 30/34/2

f 31/33/2 21/32/2 22/35/2

f 9/30/1 31/36/1 22/37/1

v 60 100 -705
f 31/36/1 9/30/1 32/29/1

f 9/38/4 29/39/4 32/40/4

f 29/39/4 9/38/4 12/41/4

f 29/15/3 31/42/3 32/2/3

f 31/42/3 29/15/3 30/43/3

g Mesh6 Group8 Group1 Model

v 60 0 -60
vt -1.5748 1.5748
v 20 0 -20
v 20 0 -60
vt 0 1.5748
f 33/44/1 34/2/1 35/45/1

v 60 0 -20
vt -1.5748 0
f 34/2/1 33/44/1 36/46/1

vt 1.5748 0
v 60 440 -20
vt 0 17.3228
f 33/47/2 37/48/2 36/2/2

v 60 440 -60
vt 1.5748 17.3228
f 37/48/2 33/47/2 38/49/2

v 20 440 -60
vt -1.5748 17.3228
f 33/46/3 39/48/3 38/50/3

f 39/48/3 33/46/3 35/2/3

vt -1.5748 17.3228
vt -1.5748 0
f 34/2/4 39/51/4 35/52/4

v 20 440 -20
f 39/51/4 34/2/4 40/48/4

vt 1.5748 17.3228
f 34/2/5 37/53/5 40/48/5

vt 1.5748 0
f 37/53/5 34/2/5 36/54/5

f 37/54/6 39/45/6 40/2/6

vt 1.5748 1.5748
f 39/45/6 37/54/6 38/55/6

g Mesh7 Group9 Group1 Model

v 1160 0 -60
v 1120 0 -20
v 1120 0 -60
f 41/44/1 42/2/1 43/45/1

v 1160 0 -20
f 42/2/1 41/44/1 44/46/1

v 1160 440 -20
f 41/47/2 45/48/2 44/2/2

v 1160 440 -60
f 45/48/2 41/47/2 46/49/2

v 1120 440 -60
f 41/46/3 47/48/3 46/50/3

f 47/48/3 41/46/3 43/2/3

f 42/2/4 47/51/4 43/52/4

v 1120 440 -20
f 47/51/4 42/2/4 48/48/4

f 42/2/5 45/53/5 48/48/5

f 45/53/5 42/2/5 44/54/5

f 45/54/6 47/45/6 48/2/6

f 47/45/6 45/54/6 46/55/6

g Mesh8 Group10 Group1 Model

v 1160 0 -730
v 1120 0 -690
v 1120 0 -730
f 49/44/1 50/2/1 51/45/1

v 1160 0 -690
f 50/2/1 49/44/1 52/46/1

v 1160 440 -690
f 49/47/2 53/48/2 52/2/2

v 1160 440 -730
f 53/48/2 49/47/2 54/49/2

v 1120 440 -730
f 49/46/3 55/48/3 54/50/3

f 55/48/3 49/46/3 51/2/3

f 50/2/4 55/51/4 51/52/4

v 1120 440 -690
f 55/51/4 50/2/4 56/48/4

f 50/2/5 53/53/5 56/48/5

f 53/53/5 50/2/5 52/54/5

f 53/54/6 55/45/6 56/2/6

f 55/45/6 53/54/6 54/55/6

g Mesh9 Group11 Group1 Model

v 60 0 -730
v 20 0 -690
v 20 0 -730
f 57/44/1 58/2/1 59/45/1

v 60 0 -690
f 58/2/1 57/44/1 60/46/1

v 60 440 -690
f 57/47/2 61/48/2 60/2/2

v 60 440 -730
f 61/48/2 57/47/2 62/49/2

v 20 440 -730
f 57/46/3 63/48/3 62/50/3

f 63/48/3 57/46/3 59/2/3

f 58/2/4 63/51/4 59/52/4

v 20 440 -690
f 63/51/4 58/2/4 64/48/4

f 58/2/5 61/53/5 64/48/5

f 61/53/5 58/2/5 60/54/5

f 61/54/6 63/45/6 64/2/6

f 63/45/6 61/54/6 62/55/6

g Mesh10 Group13 Group12 Group1 Model

v 60 400 -690
v 60 440 -60
v 60 400 -60
f 65/14/2 66/15/2 67/2/2

v 60 440 -690
f 66/15/2 65/14/2 68/16/2

v 45 440 -690
f 65/17/3 69/15/3 68/18/3

v 45 400 -690
f 69/15/3 65/17/3 70/2/3

v 45 400 -60
f 65/19/1 71/2/1 70/20/1

f 71/2/1 65/19/1 67/17/1

f 66/21/5 71/2/5 67/22/5

v 45 440 -60
f 71/2/5 66/21/5 72/15/5

f 66/22/6 69/20/6 72/2/6

f 69/20/6 66/22/6 68/23/6

f 69/24/4 71/2/4 72/15/4

f 71/2/4 69/24/4 70/25/4

g Mesh11 Group14 Group12 Group1 Model

v 1135 400 -690
v 1135 440 -60
v 1135 400 -60
f 73/14/2 74/15/2 75/2/2

v 1135 440 -690
f 74/15/2 73/14/2 76/16/2

v 1120 440 -690
f 73/17/3 77/15/3 76/18/3

v 1120 400 -690
f 77/15/3 73/17/3 78/2/3

v 1120 400 -60
f 73/19/1 79/2/1 78/20/1

f 79/2/1 73/19/1 75/17/1

f 74/21/5 79/2/5 75/22/5

v 1120 440 -60
f 79/2/5 74/21/5 80/15/5

f 74/22/6 77/20/6 80/2/6

f 77/20/6 74/22/6 76/23/6

f 77/24/4 79/2/4 80/15/4

f 79/2/4 77/24/4 78/25/4

g Mesh12 Group15 Group12 Group1 Model

v 1120 440 -45
v 60 400 -45
v 1120 400 -45
f 81/26/5 82/2/5 83/27/5

v 60 440 -45
f 82/2/5 81/26/5 84/15/5

f 81/28/6 66/29/6 84/30/6

f 66/29/6 81/28/6 80/31/6

f 81/32/2 79/33/2 80/34/2

f 79/33/2 81/32/2 83/35/2

f 82/30/1 79/36/1 83/37/1

f 79/36/1 82/30/1 67/29/1

f 82/38/4 66/39/4 67/40/4

f 66/39/4 82/38/4 84/41/4

f 66/15/3 79/42/3 67/2/3

f 79/42/3 66/15/3 80/43/3

g Mesh13 Group16 Group12 Group1 Model

f 77/26/5 65/2/5 78/27/5

f 65/2/5 77/26/5 68/15/5

v 60 440 -705
f 77/28/6 85/29/6 68/30/6

v 1120 440 -705
f 85/29/6 77/28/6 86/31/6

v 1120 400 -705
f 77/32/2 87/33/2 86/34/2

f 87/33/2 77/32/2 78/35/2

f 65/30/1 87/36/1 78/37/1

v 60 400 -705
f 87/36/1 65/30/1 88/29/1

f 65/38/4 85/39/4 88/40/4

f 85/39/4 65/38/4 68/41/4

f 85/15/3 87/42/3 88/2/3

f 87/42/3 85/15/3 86/43/3

g Mesh14 Group1 Model

v 1118 140 -62
vt 44.0157 2.44094
v 62 140 -688
vt 2.44094 27.0866
v 62 140 -62
vt 2.44094 2.44094
f 89/56/6 90/57/6 91/58/6

v 1118 140 -688
vt 44.0157 27.0866
f 90/57/6 89/56/6 92/59/6

vt 2.44094 5.51181
v 1118 100 -688
vt 27.0866 3.93701
vt 27.0866 5.51181
f 89/60/2 93/61/2 92/62/2

v 1118 100 -62
vt 2.44094 3.93701
f 93/61/2 89/60/2 94/63/2

vt 44.0157 5.51181
v 62 100 -62
vt 2.44094 3.93701
vt 44.0157 3.93701
f 89/64/5 95/65/5 94/66/5

vt 2.44094 5.51181
f 95/65/5 89/64/5 91/67/5

vt -27.0866 5.51181
vt -2.44094 3.93701
vt -2.44094 5.51181
f 90/68/4 95/69/4 91/70/4

v 62 100 -688
vt -27.0866 3.93701
f 95/69/4 90/68/4 96/71/4

vt -2.44094 5.51181
vt -44.0157 3.93701
vt -2.44094 3.93701
f 90/72/3 93/73/3 96/74/3

vt -44.0157 5.51181
f 93/73/3 90/72/3 92/75/3

vt -44.0157 27.0866
vt -2.44094 2.44094
vt -2.44094 27.0866
f 93/76/1 95/77/1 96/78/1

vt -44.0157 2.44094
f 95/77/1 93/76/1 94/79/1

