# Alias OBJ Model File
# Exported from SketchUp, (c) 2000-2006 Google, Inc.
# File units = inches

mtllib lack_table_3_obj0_object.mtl

g Mesh1 Group1 Model

usemtl Material7
v 9.05924 0 -40.4509
vt -1.55604 21.6535
vn 0 -1 -0
v 7.50319 0 -38.8761
vt 0 20.0787
v 7.50319 0 -40.4509
vt 0 21.6535
f 1/1/1 2/2/1 3/3/1

v 9.05924 0 -38.8761
vt -1.55604 20.0787
f 2/2/1 1/1/1 4/4/1

vt 21.6535 0
vn 1 0 -0
v 9.05924 16.1605 -38.8761
vt 20.0787 16.1605
vt 20.0787 0
f 1/5/2 5/6/2 4/7/2

v 9.05924 16.1605 -40.4509
vt 21.6535 16.1605
f 5/6/2 1/5/2 6/8/2

vt -1.55604 0
vn 0 0 -1
v 7.50319 17.7165 -40.4509
vt 0 17.7165
vt -1.55604 16.1605
f 1/9/3 7/10/3 6/11/3

vt 0 0
f 7/10/3 1/9/3 3/12/3

vt -20.0787 0
vn -1 0 -0
vt -21.6535 17.7165
vt -21.6535 0
f 2/13/4 7/14/4 3/15/4

v 7.50319 16.1605 -38.8761
vt -20.0787 16.1605
f 8/16/4 7/14/4 2/13/4

v 7.50319 16.1605 -20.3534
f 9/11/4 7/14/4 8/16/4

v 7.50319 17.7165 -18.7973
f 9/11/4 10/10/4 7/14/4

v 7.50319 0 -18.7973
f 10/10/4 9/11/4 11/12/4

v 7.50319 0 -20.3534
f 12/9/4 11/12/4 9/11/4

v 9.05924 0 -20.3534
vt -1.55604 1.55604
vt 0 1.55604
f 13/17/1 11/12/1 12/18/1

v 9.05924 0 -18.7973
f 11/12/1 13/17/1 14/9/1

vt 1.55604 0
v 9.05924 16.1605 -18.7973
vt 0 16.1605
f 13/19/2 15/20/2 14/12/2

v 9.05924 16.1605 -20.3534
vt 1.55604 16.1605
f 15/20/2 13/19/2 16/21/2

f 13/9/3 9/20/3 16/11/3

f 9/20/3 13/9/3 12/12/3

f 9/18/1 5/4/1 16/17/1

f 5/4/1 9/18/1 8/2/1

vn 0 0 1
f 2/12/5 5/21/5 8/20/5

f 5/21/5 2/12/5 4/19/5

v 27.6007 16.1605 -40.4509
vt -20.0975 21.6535
f 5/4/1 17/22/1 16/17/1

f 17/22/1 5/4/1 6/1/1

vt -20.0975 16.1605
f 6/11/3 7/10/3 17/23/3

v 29.1567 17.7165 -40.4509
vt -21.6535 17.7165
f 18/24/3 17/23/3 7/10/3

v 29.1567 0 -40.4509
vt -21.6535 0
f 19/25/3 17/23/3 18/24/3

v 27.6007 0 -40.4509
vt -20.0975 0
f 17/23/3 19/25/3 20/26/3

vt -21.6535 21.6535
v 27.6007 0 -38.8761
vt -20.0975 20.0787
f 19/27/1 21/28/1 20/22/1

v 29.1567 0 -38.8761
vt -21.6535 20.0787
f 21/28/1 19/27/1 22/29/1

v 29.1567 16.1605 -38.8761
vt 20.0787 16.1605
vt 20.0787 0
f 19/5/2 23/30/2 22/31/2

vt 21.6535 17.7165
f 18/32/2 23/30/2 19/5/2

v 29.1567 16.1605 -20.3534
f 18/32/2 24/21/2 23/30/2

v 29.1567 17.7165 -18.7973
f 25/10/2 24/21/2 18/32/2

v 29.1567 0 -20.3534
f 25/10/2 26/19/2 24/21/2

v 29.1567 0 -18.7973
f 26/19/2 25/10/2 27/12/2

vt 21.6535 17.7165
v 27.6007 0 -18.7973
vt 20.0975 0
vt 21.6535 0
f 25/33/5 28/34/5 27/35/5

v 27.6007 16.1605 -18.7973
vt 20.0975 16.1605
f 28/34/5 25/33/5 29/36/5

f 29/36/5 25/33/5 15/21/5

f 10/10/5 15/21/5 25/33/5

f 11/12/5 15/21/5 10/10/5

f 15/21/5 11/12/5 14/19/5

vn 0 1 -0
f 25/35/6 7/3/6 10/12/6

vt 21.6535 21.6535
f 7/3/6 25/35/6 18/37/6

f 15/9/1 17/22/1 29/26/1

f 16/17/1 17/22/1 15/9/1

v 27.6007 16.1605 -38.8761
f 29/26/1 17/22/1 30/28/1

vt -21.6535 16.1605
vt -20.0787 0
vt -20.0787 16.1605
f 17/38/4 21/39/4 30/40/4

f 21/39/4 17/38/4 20/15/4

vt 21.6535 16.1605
f 21/34/5 23/41/5 30/36/5

f 23/41/5 21/34/5 22/35/5

v 27.6007 16.1605 -20.3534
vt -20.0975 1.55604
f 23/29/1 31/42/1 30/28/1

vt -21.6535 1.55604
f 31/42/1 23/29/1 24/43/1

vt -21.6535 16.1605
f 26/25/3 31/23/3 24/44/3

v 27.6007 0 -20.3534
f 31/23/3 26/25/3 32/26/3

f 26/43/1 28/26/1 32/42/1

f 28/26/1 26/43/1 27/25/1

f 28/12/4 31/11/4 32/9/4

f 31/11/4 28/12/4 29/20/4

f 29/26/1 30/28/1 31/42/1

