# Alias OBJ Model File
# Exported from SketchUp, (c) 2000-2006 Google, Inc.
# File units = inches

mtllib klubbo_table_3_obj0_object.mtl

g Mesh1 Component_2_1 Model

usemtl Material2
v 17.4747 16.3485 -27.9112
vt -6.42633e-016 0.354331
vn -3.83823e-018 8.7356e-016 -1
v 18.3973 14.2545 -27.9112
vt -0.0131234 0.308946
v 17.4747 14.2545 -27.9112
vt -6.42633e-016 0.308946
f 1/1/1 2/2/1 3/3/1

v 43.7226 14.2545 -27.9112
vt -0.373328 0.308946
f 2/2/1 1/1/1 4/4/1

v 43.7325 14.2545 -27.9112
vt -0.373469 0.308946
f 4/4/1 1/1/1 5/5/1

v 43.7325 16.3485 -27.9112
vt -0.373469 0.354331
f 5/5/1 1/1/1 6/6/1

vt 6.41462e-016 0.373469
vn 0 1 -0
v 43.7325 16.3485 -6.46957
vt 0.373469 0
vt 0.373469 0.373469
f 1/7/2 7/8/2 6/9/2

v 17.4747 16.3485 -6.46957
vt 6.41462e-016 0
f 7/8/2 1/7/2 8/10/2

vt -0.373469 0.354331
vn -1 0 -0
v 17.4747 14.2545 -6.46957
vt 0 0.308946
vt 0 0.354331
f 1/11/3 9/12/3 8/13/3

v 17.4747 14.2545 -7.223
vt -0.0131234 0.308946
f 9/12/3 1/11/3 10/14/3

vt -0.373469 0.308946
f 10/14/3 1/11/3 3/15/3

usemtl Metal_Aluminum_Anodized
v 17.4747 13.492 -27.1545
vt -0.480386 0.389892
vn -1 -2.3658e-016 -2.61478e-016
vt -0.0174978 0.411928
vt -0.497959 0.411928
f 11/16/4 10/17/4 3/18/4

v 17.4747 13.492 -7.223
vt -0.0174978 0.389892
f 12/19/4 10/17/4 11/16/4

v 17.4747 1.42109e-014 -6.46957
vt -2.73871e-031 -3.08335e-031
f 13/20/4 10/17/4 12/19/4

vt -2.73871e-031 0.411928
f 10/17/4 13/20/4 9/21/4

v 18.3973 1.42109e-014 -6.46957
vt 0.0174978 9.13033e-033
vn -7.71204e-032 -5.84782e-032 1
vt 8.55283e-016 0.411928
vt 8.55283e-016 -3.91926e-078
f 14/22/5 9/23/5 13/24/5

v 18.3973 13.492 -6.46957
vt 0.0174978 0.389892
f 9/23/5 14/22/5 15/25/5

v 18.3973 1.42109e-014 -7.223
vt 0.0174978 9.13033e-033
vn 1 0 -0
vt 0 0.389892
vt 0 9.13033e-033
f 16/26/6 15/27/6 14/28/6

v 18.3973 13.492 -7.223
vt 0.0174978 0.389892
f 15/27/6 16/26/6 17/29/6

vt -0.0174978 -5.99749e-019
vn -1.22308e-015 2.75456e-017 -1
vt -1.74757e-017 0.389892
vt -0.0174978 0.389892
f 16/30/7 12/31/7 17/32/7

v 17.4747 1.42109e-014 -7.223
vt -8.72759e-016 -5.99749e-019
f 12/31/7 16/30/7 18/33/7

vt -0.0174978 3.79262e-092
vn 7.9513e-031 -1 1.0254e-046
vt -8.55283e-016 0.0174978
vt -0.0174978 0.0174978
f 14/34/8 18/35/8 16/36/8

usemtl FrontColor
vt 0.668132 21.0542
vn 0.774565 5.846e-016 -0.632494
vt -0.668132 -5.43355e-016
vt 0.668132 -5.43355e-016
f 12/37/9 14/38/9 18/39/9

vt -0.668132 21.0542
f 14/38/9 12/37/9 15/40/9

vt -0.944882 -2.5004e-028
vn 1.66156e-013 -1 1.47776e-029
vt -2.29572e-012 0.944882
vt -0.944882 0.944882
f 15/41/10 12/42/10 17/43/10

usemtl Metal_Aluminum_Anodized
vt -1.90699e-014 0.480386
vn 7.11885e-014 -1 3.81532e-015
vt -0.0174978 0.0174978
vt -1.82146e-014 0.0174978
f 11/44/11 17/45/11 12/46/11

v 18.3973 13.492 -27.1545
vt -0.0174978 0.480386
f 17/45/11 11/44/11 19/47/11

v 17.4747 1.42109e-014 -27.1545
vt 8.55283e-016 9.13033e-033
vn 0 0 1
vt 0.0174978 0.389892
vt 8.55283e-016 0.389892
f 20/48/12 19/49/12 11/50/12

v 18.3973 1.42109e-014 -27.1545
f 19/49/12 20/48/12 21/22/12

vt -8.55283e-016 0.480386
vn 0 -1 -0
v 18.3973 1.42109e-014 -27.9112
vt -0.0174978 0.497959
vt -0.0174978 0.480386
f 20/51/13 22/52/13 21/53/13

v 17.4747 1.42109e-014 -27.9112
vt -8.55283e-016 0.497959
f 22/52/13 20/51/13 23/54/13

vt -0.480386 -2.4375e-031
vt -0.497959 -2.41722e-031
f 20/55/4 3/18/4 23/56/4

f 11/16/4 3/18/4 20/55/4

vt -8.81343e-016 0.411928
vn -6.40883e-017 4.98994e-017 -1
vt -0.0174978 -3.09187e-017
vt -8.81343e-016 -3.09187e-017
f 3/57/14 22/58/14 23/59/14

v 18.3973 13.492 -27.9112
vt -0.0174978 0.389892
f 22/58/14 3/57/14 24/60/14

v 42.8 13.492 -27.9112
vt -0.480274 0.389892
f 24/60/14 3/57/14 25/61/14

vt -0.497771 0.411928
f 4/62/14 25/61/14 3/57/14

v 43.7226 1.42109e-014 -27.9112
vt -0.497771 -3.09187e-017
f 26/63/14 25/61/14 4/62/14

v 42.8 1.42109e-014 -27.9112
vt -0.480274 -3.09187e-017
f 25/61/14 26/63/14 27/64/14

vt -0.497771 0.497959
v 42.8 1.42109e-014 -27.1436
vt -0.480274 0.480133
vt -0.480274 0.497959
f 26/65/13 28/66/13 27/67/13

v 43.7226 1.42109e-014 -27.1436
vt -0.497771 0.480133
f 28/66/13 26/65/13 29/68/13

vt 0.497959 -1.32773e-017
vn 1 1.75044e-017 9.23061e-017
v 43.7226 13.492 -27.1436
vt 0.480133 0.389892
vt 0.480133 -1.32773e-017
f 26/69/15 30/70/15 29/71/15

v 43.7226 14.2545 -27.1436
vt 0.480133 0.411928
f 30/70/15 26/69/15 31/72/15

vt 0.497959 0.411928
f 31/72/15 26/69/15 4/73/15

usemtl FrontColor
vt -26.8898 26.8898
vt -26.8797 25.9272
vt -26.8797 26.8898
f 5/74/13 31/75/13 4/76/13

v 43.7325 14.2545 -27.1436
vt -26.8898 25.9272
f 31/75/13 5/74/13 32/77/13

usemtl Material2
vt 0.373469 0.354331
vn 1 -4.12361e-016 6.17635e-017
vt 0.3601 0.308946
vt 0.373469 0.308946
f 6/78/16 32/79/16 5/80/16

vt 2.8248e-017 0.354331
f 7/81/16 32/79/16 6/78/16

v 43.7325 14.2545 -6.46957
vt 2.8248e-017 0.308946
f 32/79/16 7/81/16 33/82/16

vt 0.373469 0.354331
v 43.7226 14.2545 -6.46957
vt 0.373328 0.308946
vt 0.373469 0.308946
f 7/83/12 34/84/12 33/85/12

vt 6.41462e-016 0.308946
f 34/84/12 7/83/12 9/86/12

vt 6.41462e-016 0.354331
f 9/86/12 7/83/12 8/87/12

usemtl Metal_Aluminum_Anodized
vt 0.497771 0.411928
f 9/23/5 15/25/5 34/88/5

v 42.7812 13.492 -6.46957
vt 0.479917 0.389892
f 35/89/5 34/88/5 15/25/5

v 42.7812 1.42109e-014 -6.46957
vt 0.479917 9.13033e-033
f 36/90/5 34/88/5 35/89/5

v 43.7226 1.42109e-014 -6.46957
vt 0.497771 9.13033e-033
f 34/88/5 36/90/5 37/91/5

vt -0.479917 0
v 43.7226 1.42109e-014 -7.223
vt -0.497771 0.0174978
vt -0.497771 0
f 36/92/13 38/93/13 37/94/13

v 42.7812 1.42109e-014 -7.223
vt -0.479917 0.0174978
f 38/93/13 36/92/13 39/95/13

usemtl FrontColor
vt 0 4.93038e-031
v 42.7812 13.492 -7.223
vt -0.944882 21.0542
vt -0.944882 4.93038e-031
f 36/96/3 40/97/3 39/98/3

vt 0 21.0542
f 40/97/3 36/96/3 35/99/3

usemtl Metal_Aluminum_Anodized
vt -0.0174978 0
f 15/100/13 40/95/13 35/92/13

f 40/95/13 15/100/13 17/36/13

v 18.3973 14.2545 -7.223
vt -0.0174978 0.411928
vn -4.0836e-017 5.62364e-016 -1
vt -0.479917 0.389892
vt -0.0174978 0.389892
f 41/101/17 40/102/17 17/103/17

v 42.7812 14.2545 -7.223
vt -0.479917 0.411928
f 40/102/17 41/101/17 42/104/17

usemtl Material2
v 18.3973 14.2545 -27.1436
vt -0.0131234 0.3601
vn -5.42008e-016 -1 4.42386e-016
vt -0.359938 0.0131234
vt -0.0131234 0.0131234
f 43/105/18 42/106/18 41/107/18

v 42.7812 14.2545 -27.1436
vt -0.359938 0.3601
f 42/106/18 43/105/18 44/108/18

usemtl FrontColor
vt -0.944882 25.9272
vn -1.11119e-047 -1 3.77165e-047
vt -25.9155 25.9272
f 43/109/19 4/76/19 44/110/19

vt -0.944882 26.8898
f 4/76/19 43/109/19 2/111/19

usemtl Metal_Aluminum_Anodized
vt -0.0174978 0.411928
f 4/62/14 3/57/14 2/112/14

usemtl FrontColor
f 44/110/19 4/76/19 31/75/19

vn -3.30959e-016 -1 -1.33585e-020
vt -25.9155 0.944882
f 31/75/20 42/113/20 44/110/20

vt -26.8797 2.38803e-019
f 34/114/20 42/113/20 31/75/20

vt -0.944882 0.944882
f 34/114/20 41/115/20 42/113/20

vt -4.13541e-014 2.38803e-019
f 9/116/20 41/115/20 34/114/20

vt -4.13541e-014 0.944882
f 41/115/20 9/116/20 10/117/20

usemtl Metal_Aluminum_Anodized
vt 5.62681e-017 0.411928
v 43.7226 13.492 -7.223
vt 0.0174978 0.389892
f 34/118/15 45/119/15 31/72/15

vt 0.0174978 -1.32773e-017
f 34/118/15 38/120/15 45/119/15

vt 5.62681e-017 -1.32773e-017
f 38/120/15 34/118/15 37/121/15

vt -0.497771 9.13033e-033
vn 0 0 -1
vt -0.497771 0.389892
f 38/122/21 40/102/21 45/123/21

vt -0.479917 9.13033e-033
f 40/102/21 38/122/21 39/124/21

v 42.8 13.492 -27.1436
vt -0.480274 0.480133
f 40/95/13 46/125/13 45/93/13

v 42.7812 13.492 -27.1436
vt -0.479917 0.480133
f 46/125/13 40/95/13 47/126/13

usemtl FrontColor
vt -0.944882 21.0542
vn -1 -1.95932e-015 1.16125e-016
vt -25.9272 22.2441
vt -25.9272 21.0542
f 40/127/22 44/128/22 47/129/22

vt -0.944882 22.2441
f 44/128/22 40/127/22 42/130/22

usemtl Metal_Aluminum_Anodized
vt 0.0174978 0.411928
vn -8.71168e-017 1.19971e-015 1
vt 0.479917 0.389892
vt 0.479917 0.411928
f 43/131/23 47/132/23 44/133/23

v 18.3973 13.492 -27.1436
vt 0.0174978 0.389892
f 47/132/23 43/131/23 48/134/23

usemtl FrontColor
vt 25.9272 22.2441
vn 1 1.69297e-014 1.00339e-015
vt 0.944882 21.0542
vt 25.9272 21.0542
f 43/135/24 17/136/24 48/137/24

vt 0.944882 22.2441
f 17/136/24 43/135/24 41/138/24

usemtl Metal_Aluminum_Anodized
vt -0.0174978 0.480133
f 17/45/11 19/47/11 48/139/11

vt -0.0174978 0.480386
vn 7.36751e-015 -1 3.026e-017
vt -0.480274 0.497959
vt -0.0174978 0.480133
f 19/140/25 25/141/25 48/142/25

vt -0.0174978 0.497959
f 25/141/25 19/140/25 24/143/25

vt 0.480386 0.389892
vn 1 -4.49863e-016 -9.55412e-017
vt 0.497959 1.1995e-017
vt 0.497959 0.389892
f 19/144/26 22/145/26 24/146/26

vt 0.480386 1.1995e-017
f 22/145/26 19/144/26 21/147/26

usemtl FrontColor
vt 25.9272 21.0542
vn 1 -2.23201e-016 -4.27433e-013
vt 25.9409 3.21373e-016
vt 25.9409 21.0542
f 48/148/27 21/149/27 19/150/27

v 18.3973 1.42109e-014 -27.1436
vt 25.9272 3.21373e-016
f 21/149/27 48/148/27 49/151/27

usemtl Metal_Aluminum_Anodized
vt -0.479917 0.480133
f 48/142/25 25/141/25 47/152/25

vt -0.480274 0.480133
f 47/152/25 25/141/25 46/153/25

usemtl FrontColor
vt -26.8898 21.0542
vn -1 2.21471e-016 -0
vt -25.9272 8.75255e-015
vt -25.9272 21.0542
f 25/154/28 28/155/28 46/156/28

vt -26.8898 8.75255e-015
f 28/155/28 25/154/28 27/157/28

usemtl Metal_Aluminum_Anodized
vt 0.480274 9.13033e-033
vt 0.497771 0.389892
vt 0.480274 0.389892
f 28/158/12 30/159/12 46/160/12

f 30/159/12 28/158/12 29/91/12

f 45/93/13 46/125/13 30/68/13

f 31/72/15 45/119/15 30/70/15

usemtl FrontColor
vt -26.8797 0
f 32/77/13 34/161/13 31/75/13

vt -26.8898 0
f 34/161/13 32/77/13 33/162/13

usemtl Metal_Aluminum_Anodized
vt -0.0174978 1.90341e-092
vn 7.9513e-031 -1 5.12702e-047
vt -8.55283e-016 1.83884e-092
f 14/163/29 13/164/29 18/35/29

vt -0.0174978 -3.06316e-031
f 18/165/4 13/20/4 12/19/4

