# Alias OBJ Model File
# Exported from SketchUp, (c) 2000-2006 Google, Inc.
# File units = millimeters

mtllib 1fc6f2b654ae6b1141d86c17c15247b0_obj0_object.mtl

g Mesh1 Component_16_1 Component_36_1 Component_1_1 Model

usemtl mediumbrown
v 497 38 -0
vt 0.472727 2.40637e-016
vn 0 0 1
v 3 500 -0
vt 0 0.616
v 3 38 -0
vt 0 0
f 1/1/1 2/2/1 3/3/1

v 497 500 -0
vt 0.472727 0.616
f 2/2/1 1/1/1 4/4/1

v 497 38 -2
vt 0.00191388 2.40637e-016
vn 1 0 -0
vt 0 2.40637e-016
f 5/5/2 4/2/2 1/6/2

v 497 500 -2
vt 0.00191388 0.616
f 4/2/2 5/5/2 6/7/2

v 489 38 -10
vt -0.322089 0
vn 0.707107 0 -0.707107
vt -0.332915 0.616
vt -0.332915 2.40637e-016
f 7/8/3 6/9/3 5/10/3

v 489 500 -10
vt -0.322089 0.616
f 6/9/3 7/8/3 8/11/3

vt -0.465072 0
vn 0 0 -1
v 11 500 -10
vt -0.0076555 0.616
vt -0.465072 0.616
f 7/12/4 9/13/4 8/14/4

v 11 38 -10
vt -0.0076555 0
f 9/13/4 7/12/4 10/15/4

vt -0.472727 -7.41866e-031
vn 2.48846e-016 -1 9.66846e-015
vt -0.0076555 0.0133333
vt -0.465072 0.0133333
f 1/16/5 10/17/5 7/18/5

f 3/3/5 10/17/5 1/16/5

v 3 38 -2
vt 0 0.00266667
f 10/17/5 3/3/5 11/19/5

vn -1 0 -0
v 3 500 -2
vt -0.00191388 0.616
vt -0.00191388 0
f 3/3/6 12/20/6 11/21/6

f 12/20/6 3/3/6 2/2/6

vt 0.472727 0
vn 0 1 -0
f 4/22/7 12/19/7 2/3/7

vt 0.0076555 0.0133333
f 12/19/7 4/22/7 9/23/7

vt 0.465072 0.0133333
f 9/23/7 4/22/7 8/24/7

vt 0.472727 0.00266667
f 8/24/7 4/22/7 6/25/7

vt -0.0121798 0
vn -0.707107 0 -0.707107
vt -0.00135331 0.616
vt -0.0121798 0.616
f 10/26/8 12/27/8 9/28/8

vt -0.00135331 0
f 12/27/8 10/26/8 11/29/8

vt -0.472727 0.00266667
f 1/16/5 7/18/5 5/30/5

g Mesh2 Component_43_1 Component_46_1 Component_36_1 Component_1_1 Model

usemtl Color_000
v 460 242 -370
vt -14.1732 7.08661
v 460 62 -10
v 460 242 -10
vt 0 7.08661
f 13/31/6 14/3/6 15/32/6

v 460 62 -370
vt -14.1732 0
f 14/3/6 13/31/6 16/33/6

v 470 62 -370
vt -0.393701 0
f 13/32/4 17/34/4 16/3/4

v 470 242 -370
vt -0.393701 7.08661
f 17/34/4 13/32/4 18/35/4

vt 0 14.1732
v 470 242 -10
vt 0.393701 0
vt 0.393701 14.1732
f 13/36/7 19/37/7 18/38/7

f 19/37/7 13/36/7 15/3/7

vt 0.393701 7.08661
f 14/3/1 19/39/1 15/32/1

v 470 62 -10
f 19/39/1 14/3/1 20/37/1

vn 0 -1 -0
vt -0.393701 14.1732
f 14/3/9 17/40/9 20/34/9

f 17/40/9 14/3/9 16/36/9

vt 14.1732 0
f 17/41/2 19/32/2 20/3/2

vt 14.1732 7.08661
f 19/32/2 17/41/2 18/42/2

g Mesh3 Component_43_2 Component_46_1 Component_36_1 Component_1_1 Model

v 30 242 -370
v 30 62 -10
v 30 242 -10
f 21/31/6 22/3/6 23/32/6

v 30 62 -370
f 22/3/6 21/31/6 24/33/6

v 40 62 -370
f 21/32/4 25/34/4 24/3/4

v 40 242 -370
f 25/34/4 21/32/4 26/35/4

v 40 242 -10
f 21/36/7 27/37/7 26/38/7

f 27/37/7 21/36/7 23/3/7

f 22/3/1 27/39/1 23/32/1

v 40 62 -10
f 27/39/1 22/3/1 28/37/1

f 22/3/9 25/40/9 28/34/9

f 25/40/9 22/3/9 24/36/9

f 25/41/2 27/32/2 28/3/2

f 27/32/2 25/41/2 26/42/2

g Mesh4 Component_44_1 Component_46_1 Component_36_1 Component_1_1 Model

vt -16.5354 0.393701
vn 1.18336e-034 -1 1.17499e-017
v 40 62 -360
v 40 62 -370
vt 0 0.393701
f 16/43/10 29/3/10 30/44/10

v 460 62 -360
vt -16.5354 1.66533e-016
f 29/3/10 16/43/10 31/45/10

vt 0.393701 0
vn 1 0 -5.03565e-018
v 460 242 -360
vt 8.32667e-017 7.08661
vt 8.32667e-017 0
f 16/46/11 32/47/11 31/48/11

vt 0.393701 7.08661
f 32/47/11 16/46/11 13/49/11

vt -16.5354 4.62593e-018
vn -5.03565e-018 -1.17499e-017 -1
v 40 242 -370
vt -6.68116e-016 7.08661
vt -16.5354 7.08661
f 16/50/12 33/51/12 13/52/12

vt -1.98254e-018 4.62593e-018
f 33/51/12 16/50/12 30/53/12

vt -0.393701 1.86357e-034
vn -1 9.39989e-017 5.03565e-018
v 40 242 -360
vt -1.66533e-016 7.08661
vt -0.393701 7.08661
f 30/54/13 34/55/13 33/56/13

f 34/55/13 30/54/13 29/3/13

vn 5.03565e-018 1.17499e-017 1
vt 16.5354 7.08661
vt 6.66134e-016 7.08661
f 29/3/14 32/57/14 34/58/14

vt 16.5354 9.78372e-034
f 32/57/14 29/3/14 31/59/14

vt 16.5354 8.32667e-017
vn 0 1 -1.17499e-017
vt 6.66134e-016 0.393701
vt 6.66134e-016 8.32667e-017
f 32/60/15 33/61/15 34/62/15

vt 16.5354 0.393701
f 33/61/15 32/60/15 13/63/15

g Mesh5 Component_45_1 Component_46_1 Component_36_1 Component_1_1 Model

v 40 72 -360
vt -13.3858 0.393701
v 40 62 -20
v 40 72 -20
vt 0 0.393701
f 35/64/6 36/3/6 37/65/6

vt -13.3858 0
f 36/3/6 35/64/6 29/66/6

vt -16.5354 0
f 35/65/4 31/67/4 29/3/4

v 460 72 -360
f 31/67/4 35/65/4 38/43/4

vt 0 13.3858
v 460 72 -20
vt 16.5354 0
vt 16.5354 13.3858
f 35/68/7 39/69/7 38/70/7

f 39/69/7 35/68/7 37/3/7

vt 16.5354 0.393701
f 36/3/1 39/71/1 37/65/1

v 460 62 -20
f 39/71/1 36/3/1 40/69/1

vt -16.5354 13.3858
f 36/3/9 31/72/9 40/67/9

f 31/72/9 36/3/9 29/68/9

vt 13.3858 0
f 31/73/2 39/65/2 40/3/2

vt 13.3858 0.393701
f 39/65/2 31/73/2 38/74/2

g Mesh6 Component_44_2 Component_46_1 Component_36_1 Component_1_1 Model

v 40 62 -20
f 40/43/10 28/3/10 41/44/10

f 28/3/10 40/43/10 14/45/10

f 40/46/11 15/47/11 14/48/11

v 460 242 -20
f 15/47/11 40/46/11 42/49/11

v 40 242 -20
f 40/50/12 43/51/12 42/52/12

f 43/51/12 40/50/12 41/53/12

v 40 242 -10
f 41/54/13 44/55/13 43/56/13

f 44/55/13 41/54/13 28/3/13

f 28/3/14 15/57/14 44/58/14

f 15/57/14 28/3/14 14/59/14

f 15/60/15 43/61/15 44/62/15

f 43/61/15 15/60/15 42/63/15

g Mesh7 Component_38_1 Component_39_1 Component_1_1 Model

usemtl FrontColor
v 490 484 -10
vt 18.8976 0.393701
v 10 474 -10
v 490 474 -10
vt 18.8976 0
f 45/75/1 46/3/1 47/76/1

v 10 484 -10
vt 0 0.393701
f 46/3/1 45/75/1 48/77/1

v 10 484 -440
vt 0 16.9291
f 45/76/7 49/78/7 48/3/7

v 490 484 -440
vt 18.8976 16.9291
f 49/78/7 45/76/7 50/79/7

v 490 474 -440
vt 16.9291 0
vt 16.9291 0.393701
f 45/77/2 51/80/2 50/81/2

f 51/80/2 45/77/2 47/3/2

vt -18.8976 16.9291
vt -18.8976 0
f 46/3/9 51/82/9 47/83/9

v 10 474 -440
f 51/82/9 46/3/9 52/78/9

vt -16.9291 0.393701
vt -16.9291 0
f 46/3/6 49/84/6 52/85/6

f 49/84/6 46/3/6 48/77/6

f 49/77/4 51/83/4 52/3/4

vt -18.8976 0.393701
f 51/83/4 49/77/4 50/86/4

g Mesh8 Component_37_1 Component_39_1 Component_1_1 Model

usemtl Translucent_Glass_Gray
v 486 490 -14
vt 18.7402 0.15748
v 14 490 -436
vt 0.15748 16.7717
v 14 490 -14
vt 0.15748 0.15748
f 53/87/7 54/88/7 55/89/7

v 486 490 -436
vt 18.7402 16.7717
f 54/88/7 53/87/7 56/90/7

vt 0.15748 -13.0843
vn 0.707107 0.707107 -0
v 490 486 -440
vt 16.9291 -13.307
vt 16.7717 -13.0843
f 53/91/16 57/92/16 56/93/16

v 490 486 -10
vt 0 -13.307
f 57/92/16 53/91/16 58/94/16

vt 18.7402 0.278388
vn 0 0.707107 0.707107
v 10 486 -10
vt 0 0.0556777
vt 18.8976 0.0556777
f 53/95/17 59/96/17 58/97/17

vt 0.15748 0.278388
f 59/96/17 53/95/17 55/98/17

vt -0.15748 0.278388
vn -0.707107 0.707107 -0
v 10 486 -440
vt -16.9291 0.0556777
vt 0 0.0556777
f 55/99/18 60/100/18 59/101/18

vt -16.7717 0.278388
f 60/100/18 55/99/18 54/102/18

vt -0.15748 -11.6923
vn 0 0.707107 -0.707107
vt -18.8976 -11.915
vt 0 -11.915
f 54/103/19 57/104/19 60/105/19

vt -18.7402 -11.6923
f 57/104/19 54/103/19 56/106/19

g Mesh9 Component_34_1 Component_7_1 Component_1_1 Model

usemtl mediumbrown
v 500 38 -448
vt 0.428708 -6.01593e-017
v 500 500 -2
v 500 38 -2
f 61/107/2 62/7/2 63/5/2

v 500 500 -448
vt 0.428708 0.616
f 62/7/2 61/107/2 64/108/2

vt -0.00956938 -6.01593e-017
v 498 500 -448
vt -0.0076555 0.616
vt -0.00956938 0.616
f 61/109/4 65/110/4 64/111/4

v 498 38 -448
vt -0.0076555 -6.01593e-017
f 65/110/4 61/109/4 66/112/4

v 498 38 -2
vt -0.0076555 0.00266667
vn -1.88366e-017 -1 4.581e-016
vt -0.0076555 0.597333
vt -0.00956938 0.597333
f 67/113/20 66/114/20 61/115/20

v 490 38 -10
vt 3.25319e-033 0.0133333
f 68/116/20 66/114/20 67/113/20

v 490 38 -440
vt -8.13298e-034 0.586667
f 66/114/20 68/116/20 69/117/20

vt -0.00956938 2.40637e-016
v 490 500 -440
vt -0.421053 0.616
vt -0.421053 -6.01593e-017
f 68/118/6 70/119/6 69/120/6

v 490 500 -10
f 70/119/6 68/118/6 71/111/6

vt 0.00405994 2.40637e-016
vn -0.707107 0 0.707107
vt -0.00676657 0.616
vt -0.00676657 2.40637e-016
f 67/121/21 71/122/21 68/123/21

v 498 500 -2
vt 0.00405994 0.616
f 71/122/21 67/121/21 72/124/21

vt 0.0076555 2.40637e-016
vt 0.00956938 0.616
vt 0.0076555 0.616
f 67/125/1 62/126/1 72/127/1

vt 0.00956938 2.40637e-016
f 62/126/1 67/125/1 63/128/1

vt -0.00956938 0.00266667
f 67/113/20 61/115/20 63/129/20

vt 0.0076555 0.597333
vt 0.0076555 0.00266667
vt 0.00956938 0.00266667
f 65/130/7 72/131/7 62/132/7

vt 0 0.586667
f 70/133/7 72/131/7 65/130/7

vt 0 0.0133333
f 72/131/7 70/133/7 71/134/7

vt -0.308556 0.616
vn -0.707107 0 -0.707107
vt -0.297729 -6.01593e-017
vt -0.297729 0.616
f 65/135/22 69/136/22 70/137/22

vt -0.308556 -6.01593e-017
f 69/136/22 65/135/22 66/138/22

vt 0.00956938 0.597333
f 65/130/7 62/132/7 64/139/7

g Mesh10 Component_34_2 Component_7_1 Component_1_1 Model

v 0 38 -2
v 0 500 -2
v 0 38 -448
f 73/5/6 74/7/6 75/107/6

v 2 38 -2
f 73/128/1 76/125/1 74/126/1

vn 1.88366e-017 -1 4.581e-016
f 73/129/23 75/115/23 76/113/23

v 2 38 -448
f 75/115/23 77/114/23 76/113/23

v 2 500 -448
f 77/112/4 75/109/4 78/110/4

v 0 500 -448
f 79/111/4 78/110/4 75/109/4

f 79/139/7 74/132/7 78/130/7

f 79/108/6 75/107/6 74/7/6

v 2 500 -2
f 74/132/7 80/131/7 78/130/7

f 80/127/1 74/126/1 76/125/1

vn 0.707107 0 0.707107
v 10 500 -10
f 80/124/24 76/121/24 81/122/24

v 10 38 -10
f 82/123/24 81/122/24 76/121/24

v 10 500 -440
f 81/111/2 82/118/2 83/119/2

v 10 38 -440
f 84/120/2 83/119/2 82/118/2

f 83/137/3 84/136/3 78/135/3

f 77/138/3 78/135/3 84/136/3

f 84/117/23 82/116/23 77/114/23

f 76/113/23 77/114/23 82/116/23

f 78/130/7 80/131/7 83/133/7

f 81/134/7 83/133/7 80/131/7

g Mesh11 Component_35_1 Component_7_1 Component_1_1 Model

v 2 38 -450
vt 0.476555 2.40637e-016
v 498 500 -450
vt 0.00191388 0.616
v 498 38 -450
vt 0.00191388 0
f 85/140/4 86/141/4 87/142/4

v 2 500 -450
vt 0.476555 0.616
f 86/141/4 85/140/4 88/143/4

v 2 38 -448
f 89/5/6 88/2/6 85/6/6

f 88/2/6 89/5/6 78/7/6

v 10 38 -440
vt -0.324795 0
vt -0.335622 0.616
vt -0.335622 2.40637e-016
f 90/144/21 78/145/21 89/146/21

vt -0.324795 0.616
f 78/145/21 90/144/21 83/147/21

vt -0.4689 0
vt -0.00956938 0.616
vt -0.4689 0.616
f 90/148/1 70/149/1 83/150/1

v 490 38 -440
vt -0.00956938 0
f 70/149/1 90/148/1 91/151/1

vt -0.476555 -5.96943e-031
vn -2.32454e-016 -1 -6.91806e-015
vt -0.00956938 0.0133333
vt -0.4689 0.0133333
f 85/152/25 91/153/25 90/154/25

vt -0.00191388 4.28835e-033
f 87/155/25 91/153/25 85/152/25

v 498 38 -448
vt -0.00191388 0.00266667
f 91/153/25 87/155/25 92/156/25

vt 2.36122e-018 0
vn 1 0 -1.23374e-015
vt -0.00191388 0.616
vt -0.00191388 0
f 87/157/26 65/158/26 92/159/26

vt 2.36122e-018 0.616
f 65/158/26 87/157/26 86/160/26

vt 0.00956938 0.0133333
vt 0.00191388 0.00266667
f 86/142/7 70/161/7 65/162/7

vt 0.476555 0
f 70/161/7 86/142/7 88/163/7

vt 0.4689 0.0133333
f 70/161/7 88/163/7 83/164/7

vt 0.476555 0.00266667
f 83/164/7 88/163/7 78/165/7

vt -0.0135331 0
vn 0.707107 0 0.707107
vt -0.00270663 0.616
vt -0.0135331 0.616
f 91/166/27 65/167/27 70/168/27

vt -0.00270663 0
f 65/167/27 91/166/27 92/169/27

vt -0.476555 0.00266667
f 85/152/25 90/154/25 89/170/25

g Mesh12 Component_40_1 Component_42_1 Component_7_1 Component_1_1 Model

v 485 38 -425
vt 0.449761 0
v 15 38 -435
vt 1.61912e-017 0.0133333
v 15 38 -425
f 93/171/7 94/172/7 95/3/7

v 485 38 -435
vt 0.449761 0.0133333
f 94/172/7 93/171/7 96/173/7

vt 0 0.0506667
v 485 0 -435
vt 0.00956938 0
vt 0.00956938 0.0506667
f 93/174/2 97/175/2 96/176/2

v 485 0 -425
f 97/175/2 93/174/2 98/3/2

vt 0.449761 0.0506667
v 15 0 -425
f 93/177/1 99/3/1 98/171/1

f 99/3/1 93/177/1 95/174/1

vt -0.00956938 0.0506667
vn -1 0 -1.69198e-015
f 94/178/28 99/3/28 95/174/28

v 15 0 -435
vt -0.00956938 0
f 99/3/28 94/178/28 100/179/28

vt -1.61912e-017 0.0506667
vt -0.449761 0
vt -1.61912e-017 0
f 94/180/4 97/181/4 100/182/4

vt -0.449761 0.0506667
f 97/181/4 94/180/4 96/183/4

vt -1.61912e-017 0.0133333
vt -0.449761 0.0133333
f 98/181/9 100/184/9 97/185/9

f 100/184/9 98/181/9 99/3/9

g Mesh13 Component_19_1 Component_42_1 Component_7_1 Component_1_1 Model

v 10 38 -440
vt -0.00956938 0.586667
v 15 38 -435
vt -0.0143541 0.58
v 10 38 -10
vt -0.00956938 0.0133333
f 101/186/9 102/187/9 103/188/9

v 490 38 -440
vt -0.4689 0.586667
f 102/187/9 101/186/9 104/189/9

v 10 48 -440
vt -0.00956938 0.0133333
vt -0.00956938 0
f 105/190/4 104/148/4 101/191/4

v 490 48 -440
vt -0.4689 0.0133333
f 104/148/4 105/190/4 106/192/4

vt 0.00956938 0.586667
v 490 48 -10
vt 0.4689 0.586667
f 105/193/7 107/164/7 106/194/7

v 10 48 -10
vt 0.00956938 0.0133333
f 107/164/7 105/193/7 108/195/7

vt -0.421053 0.0133333
vt -0.00956938 0.0133333
f 105/196/6 103/179/6 108/197/6

vt -0.421053 0
f 103/179/6 105/196/6 101/198/6

vt 0.00956938 0
vt 0.4689 0.0133333
vt 0.00956938 0.0133333
f 103/199/1 107/200/1 108/201/1

v 490 38 -10
vt 0.4689 0
f 107/200/1 103/199/1 109/202/1

v 15 38 -15
vt -0.0143541 0.02
f 103/188/9 110/203/9 109/154/9

f 110/203/9 103/188/9 102/187/9

vt -0.464115 0.58
f 96/204/9 110/203/9 102/187/9

v 485 38 -15
vt -0.464115 0.02
f 110/203/9 96/204/9 111/205/9

f 96/204/9 104/189/9 111/205/9

f 102/187/9 104/189/9 96/204/9

f 109/154/9 111/205/9 104/189/9

f 109/154/9 110/203/9 111/205/9

vt 0.421053 0
vt 0.00956938 0.0133333
f 104/206/2 107/207/2 109/175/2

vt 0.421053 0.0133333
f 107/207/2 104/206/2 106/208/2

g Mesh14 Component_41_1 Component_42_1 Component_7_1 Component_1_1 Model

v 484 0 -425
vt 0.382775 0
v 484 38 -25
v 484 0 -25
f 112/209/2 113/174/2 114/3/2

v 484 38 -425
vt 0.382775 0.0506667
f 113/174/2 112/209/2 115/210/2

v 474 38 -425
f 112/179/4 116/174/4 115/178/4

v 474 0 -425
f 116/174/4 112/179/4 117/3/4

vt -0.00956938 0.533333
v 474 0 -25
vt 0 0.533333
f 112/211/9 118/3/9 117/212/9

f 118/3/9 112/211/9 114/179/9

f 113/176/1 118/3/1 114/175/1

v 474 38 -25
f 118/3/1 113/176/1 119/174/1

f 113/175/7 116/212/7 119/3/7

vt 0.00956938 0.533333
f 116/212/7 113/175/7 115/213/7

vt -0.382775 0.0506667
f 116/214/6 118/3/6 119/174/6

vt -0.382775 0
f 118/3/6 116/214/6 117/215/6

g Mesh15 Component_40_2 Component_42_1 Component_7_1 Component_1_1 Model

v 15 38 -25
f 111/171/7 120/172/7 110/3/7

v 485 38 -25
f 120/172/7 111/171/7 121/173/7

v 485 0 -25
f 111/174/2 122/175/2 121/176/2

v 485 0 -15
f 122/175/2 111/174/2 123/3/2

v 15 0 -15
f 111/177/1 124/3/1 123/171/1

f 124/3/1 111/177/1 110/174/1

f 120/178/28 124/3/28 110/174/28

v 15 0 -25
f 124/3/28 120/178/28 125/179/28

f 120/180/4 122/181/4 125/182/4

f 122/181/4 120/180/4 121/183/4

f 123/181/9 125/184/9 122/185/9

f 125/184/9 123/181/9 124/3/9

g Mesh16 Component_41_2 Component_42_1 Component_7_1 Component_1_1 Model

v 26 0 -425
v 26 38 -25
v 26 0 -25
f 126/209/2 127/174/2 128/3/2

v 26 38 -425
f 127/174/2 126/209/2 129/210/2

v 16 38 -425
f 126/179/4 130/174/4 129/178/4

v 16 0 -425
f 130/174/4 126/179/4 131/3/4

v 16 0 -25
f 126/211/9 132/3/9 131/212/9

f 132/3/9 126/211/9 128/179/9

f 127/176/1 132/3/1 128/175/1

v 16 38 -25
f 132/3/1 127/176/1 133/174/1

f 127/175/7 130/212/7 133/3/7

f 130/212/7 127/175/7 129/213/7

f 130/214/6 132/3/6 133/174/6

f 132/3/6 130/214/6 131/215/6

g Mesh17 Component_13_1 Component_42_1 Component_7_1 Component_1_1 Model

usemtl lightgray
v 221.946 0 -311.236
vt 0.0191388 0.0266667
v 201.946 0 -291.236
v 201.946 0 -311.236
vt 0 0.0266667
f 134/216/9 135/3/9 136/217/9

v 221.946 0 -291.236
vt 0.0191388 0
f 135/3/9 134/216/9 137/218/9

usemtl mediumbrown
v 181.946 0 -291.236
vt -0.0191388 0.0266667
vt -0.0191388 0
f 138/3/9 136/219/9 135/220/9

v 181.946 0 -311.236
vt 0 0.0266667
f 136/219/9 138/3/9 139/221/9

g Mesh18 Component_48_1 Component_51_1 Component_1_1 Model

v 460 339 -350
vt -0.00956938 0.453333
v 450 339 -10
v 450 339 -350
vt 0 0.453333
f 140/222/9 141/3/9 142/223/9

v 460 339 -10
vt -0.00956938 0
f 141/3/9 140/222/9 143/224/9

vt 0.325359 0
v 460 459 -10
vt 0 0.16
f 140/225/2 144/226/2 143/3/2

v 460 459 -350
vt 0.325359 0.16
f 144/226/2 140/225/2 145/227/2

v 450 459 -350
vt -0.00956938 0.16
f 140/224/4 146/226/4 145/228/4

f 146/226/4 140/224/4 142/3/4

vt -0.325359 0.16
vt -0.325359 0
f 141/3/6 146/229/6 142/230/6

v 450 459 -10
f 146/229/6 141/3/6 147/226/6

vt 0.00956938 0.16
f 141/3/1 144/231/1 147/226/1

vt 0.00956938 0
f 144/231/1 141/3/1 143/232/1

f 144/232/7 146/223/7 147/3/7

vt 0.00956938 0.453333
f 146/223/7 144/232/7 145/233/7

g Mesh19 Component_48_2 Component_51_1 Component_1_1 Model

v 50 339 -350
v 40 339 -10
v 40 339 -350
f 148/222/9 149/3/9 150/223/9

v 50 339 -10
f 149/3/9 148/222/9 151/224/9

v 50 459 -10
f 148/225/2 152/226/2 151/3/2

v 50 459 -350
f 152/226/2 148/225/2 153/227/2

v 40 459 -350
f 148/224/4 154/226/4 153/228/4

f 154/226/4 148/224/4 150/3/4

f 149/3/6 154/229/6 150/230/6

v 40 459 -10
f 154/229/6 149/3/6 155/226/6

f 149/3/1 152/231/1 155/226/1

f 152/231/1 149/3/1 151/232/1

f 152/232/7 154/223/7 155/3/7

f 154/223/7 152/232/7 153/233/7

g Mesh20 Component_49_1 Component_51_1 Component_1_1 Model

vt -0.382775 0
f 153/226/4 142/234/4 148/3/4

vt -0.382775 0.16
f 142/234/4 153/226/4 146/235/4

v 450 459 -340
vt 0.382775 0
vt 0.382775 0.0133333
f 153/134/7 156/236/7 146/237/7

v 50 459 -340
f 156/236/7 153/134/7 157/3/7

vt -0.00956938 0.16
v 50 339 -340
f 153/238/6 158/3/6 157/226/6

f 158/3/6 153/238/6 148/179/6

vt -0.382775 0.0133333
f 142/239/9 158/3/9 148/134/9

v 450 339 -340
f 158/3/9 142/239/9 159/234/9

f 142/175/2 156/226/2 159/3/2

vt 0.00956938 0.16
f 156/226/2 142/175/2 146/240/2

vt 0.382775 0.16
f 156/241/1 158/3/1 159/236/1

f 158/3/1 156/241/1 157/226/1

g Mesh21 Component_49_2 Component_51_1 Component_1_1 Model

v 50 459 -20
v 450 339 -20
v 50 339 -20
f 160/226/4 161/234/4 162/3/4

v 450 459 -20
f 161/234/4 160/226/4 163/235/4

f 160/134/7 147/236/7 163/237/7

f 147/236/7 160/134/7 152/3/7

f 160/238/6 151/3/6 152/226/6

f 151/3/6 160/238/6 162/179/6

f 161/239/9 151/3/9 162/134/9

f 151/3/9 161/239/9 141/234/9

f 161/175/2 147/226/2 141/3/2

f 147/226/2 161/175/2 163/240/2

f 147/241/1 151/3/1 141/236/1

f 151/3/1 147/241/1 152/226/1

g Mesh22 Component_50_1 Component_51_1 Component_1_1 Model

vt -0.382775 0.426667
vt 0 0.426667
f 159/242/9 162/3/9 158/243/9

f 162/3/9 159/242/9 161/234/9

vt 0.30622 0
v 450 349 -20
f 159/244/2 164/134/2 161/3/2

v 450 349 -340
vt 0.30622 0.0133333
f 164/134/2 159/244/2 165/245/2

v 50 349 -340
f 159/234/4 166/134/4 165/239/4

f 166/134/4 159/234/4 158/3/4

vt -0.30622 0.0133333
vt -0.30622 0
f 162/3/6 166/246/6 158/247/6

v 50 349 -20
f 166/246/6 162/3/6 167/134/6

f 162/3/1 164/237/1 167/134/1

f 164/237/1 162/3/1 161/236/1

f 164/236/7 166/243/7 167/3/7

vt 0.382775 0.426667
f 166/243/7 164/236/7 165/248/7

