# Alias OBJ Model File
# Exported from SketchUp, (c) 2000-2006 Google, Inc.
# File units = millimeters

mtllib 17119ede9322092c2b5fb024f65f6da_obj0_object.mtl

g Mesh1 Group2 Group1 Model

usemtl Material3
v 1610.14 40.6586 -1593.25
vt -15.9449 15.3543
vn -2.93945e-018 -1 9.18564e-018
v 1954.48 40.6586 -1203.25
vt -29.5016 2.06043e-013
v 1610.14 40.6586 -1203.25
vt -15.9449 2.55083e-012
f 1/1/1 2/2/1 3/3/1

v 1954.48 40.6586 -1593.25
vt -29.5016 15.3543
f 2/2/1 1/1/1 4/4/1

v 1590.14 40.6586 -1593.25
vt 15.1575 1.60073
vn -1.71682e-013 6.0563e-017 1
vt 29.5016 1.60073
vt 15.9449 1.60073
f 5/5/2 4/6/2 1/7/2

v 1245.8 40.6586 -1593.25
vt 1.60073 1.60073
f 4/6/2 5/5/2 6/8/2

v 1590.14 40.6586 -1203.25
vt -15.1575 2.84216e-012
vn 2.98183e-017 -1 9.18564e-018
vt -1.60073 15.3543
vt -15.1575 15.3543
f 7/9/3 6/10/3 5/11/3

v 1245.8 40.6586 -1203.25
vt -1.60073 5.17984e-012
f 6/10/3 7/9/3 8/12/3

vt -29.5016 1.60073
vn 1.71696e-013 -9.18564e-018 -1
vt -1.60073 1.60073
vt -15.1575 1.60073
f 2/13/4 8/14/4 7/15/4

v 1205.14 2.31502e-013 -1203.25
vt 9.1498e-025 2.32463e-016
f 2/13/4 9/16/4 8/14/4

v 1995.14 2.2918e-013 -1203.25
vt -31.1024 1.41039e-016
f 2/13/4 10/17/4 9/16/4

v 1995.14 1490 -1203.25
vt -31.1024 58.6614
f 10/17/4 2/13/4 11/18/4

v 1954.48 377.829 -1203.25
vt -29.5016 14.8752
f 11/18/4 2/13/4 12/19/4

vt 15.3543 1.60073
vn 1 -2.93945e-018 1.71696e-013
vt 5.27137e-012 14.8752
vt 5.27137e-012 1.60073
f 4/20/5 12/21/5 2/22/5

v 1954.48 377.829 -1593.25
vt 15.3543 14.8752
f 12/21/5 4/20/5 13/23/5

v 1995.14 1490 -1593.25
vt 31.1024 58.6614
vt 29.5016 14.8752
f 4/6/2 14/24/2 13/25/2

v 1995.14 2.25597e-013 -1593.25
vt 31.1024 9.29905e-016
f 4/6/2 15/26/2 14/24/2

v 1205.14 2.27919e-013 -1593.25
vt -2.12713e-014 1.02133e-015
f 15/26/2 4/6/2 16/27/2

f 16/27/2 4/6/2 6/8/2

v 1205.14 1490 -1593.25
vt -2.12713e-014 58.6614
f 6/8/2 17/28/2 16/27/2

v 1245.8 377.829 -1593.25
vt 1.60073 14.8752
f 17/28/2 6/8/2 18/29/2

vt -5.45542e-012 1.60073
vn -1 -9.02409e-029 -1.72148e-013
vt -15.3543 14.8752
vt -15.3543 1.60073
f 8/30/6 18/31/6 6/32/6

v 1245.8 377.829 -1203.25
vt -5.45542e-012 14.8752
f 18/31/6 8/30/6 19/33/6

v 1205.14 1490 -1203.25
vt 9.1498e-025 58.6614
vt -1.60073 14.8752
f 8/14/4 20/34/4 19/35/4

f 20/34/4 8/14/4 9/16/4

vt 15.3543 9.14237e-017
vt 5.32907e-012 58.6614
vt 5.32907e-012 2.32463e-016
f 16/36/5 20/37/5 9/38/5

vt 15.3543 58.6614
f 20/37/5 16/36/5 17/39/5

vt -2.61462e-012 15.3543
vt -31.1024 -5.38842e-016
vt 1.72432e-016 5.32853e-012
f 17/40/1 11/41/1 20/42/1

vt -31.1024 15.3543
f 11/41/1 17/40/1 14/43/1

v 1245.8 1449.34 -1593.25
vt 1.60073 57.0607
f 17/28/2 21/44/2 14/24/2

v 1245.8 1112.17 -1593.25
vt 1.60073 43.7862
f 17/28/2 22/45/2 21/44/2

v 1245.8 1092.17 -1593.25
vt 1.60073 42.9988
f 17/28/2 23/46/2 22/45/2

v 1245.8 755 -1593.25
vt 1.60073 29.7244
f 17/28/2 24/47/2 23/46/2

v 1245.8 735 -1593.25
vt 1.60073 28.937
f 17/28/2 25/48/2 24/47/2

v 1245.8 397.829 -1593.25
vt 1.60073 15.6626
f 17/28/2 26/49/2 25/48/2

f 17/28/2 18/29/2 26/49/2

v 1954.48 397.829 -1593.25
vt 29.5016 15.6626
f 26/49/2 18/29/2 27/50/2

v 1590.14 377.829 -1593.25
vt 15.1575 14.8752
f 28/51/2 27/50/2 18/29/2

v 1610.14 377.829 -1593.25
vt 15.9449 14.8752
f 29/52/2 27/50/2 28/51/2

f 13/25/2 27/50/2 29/52/2

f 13/25/2 14/24/2 27/50/2

v 1954.48 735 -1593.25
vt 29.5016 28.937
f 27/50/2 14/24/2 30/53/2

v 1954.48 755 -1593.25
vt 29.5016 29.7244
f 30/53/2 14/24/2 31/54/2

v 1954.48 1092.17 -1593.25
vt 29.5016 42.9988
f 31/54/2 14/24/2 32/55/2

v 1954.48 1112.17 -1593.25
vt 29.5016 43.7862
f 32/55/2 14/24/2 33/56/2

v 1954.48 1449.34 -1593.25
vt 29.5016 57.0607
f 33/56/2 14/24/2 34/57/2

v 1610.14 1449.34 -1593.25
vt 15.9449 57.0607
f 34/57/2 14/24/2 35/58/2

v 1590.14 1449.34 -1593.25
vt 15.1575 57.0607
f 35/58/2 14/24/2 36/59/2

f 36/59/2 14/24/2 21/44/2

vt 1.60073 15.3543
vn 0 1 -0
v 1590.14 1449.34 -1203.25
vt 15.1575 2.62901e-012
vt 15.1575 15.3543
f 21/60/7 37/61/7 36/62/7

v 1245.8 1449.34 -1203.25
vt 1.60073 4.93827e-012
f 37/61/7 21/60/7 38/63/7

vt -15.3543 57.0607
vn -1 1.15867e-015 -1.71069e-013
v 1245.8 1437.26 -1203.25
vt -5.21211e-012 56.585
vt -5.21211e-012 57.0607
f 21/64/8 39/65/8 38/66/8

v 1245.8 1112.17 -1203.25
vt -5.21211e-012 43.7862
f 39/65/8 21/64/8 40/67/8

vt -15.3543 43.7862
f 40/67/8 21/64/8 22/68/8

vt -1.60073 15.3543
v 1590.14 1112.17 -1203.25
vt -15.1575 2.62861e-012
vt -1.60073 4.93787e-012
f 22/69/1 41/70/1 40/71/1

v 1590.14 1112.17 -1593.25
f 41/70/1 22/69/1 42/11/1

v 1610.14 1112.17 -1593.25
vt 15.9449 43.7862
vt 15.1575 43.7862
f 22/45/2 43/72/2 42/73/2

f 22/45/2 33/56/2 43/72/2

f 22/45/2 23/46/2 33/56/2

v 1590.14 1092.17 -1593.25
vt 15.1575 42.9988
f 44/74/2 33/56/2 23/46/2

v 1610.14 1092.17 -1593.25
vt 15.9449 42.9988
f 45/75/2 33/56/2 44/74/2

f 32/55/2 33/56/2 45/75/2

vt 15.9449 15.3543
vn 2.93945e-018 1 -9.18564e-018
v 1954.48 1092.17 -1203.25
vt 29.5016 2.05662e-013
vt 29.5016 15.3543
f 45/76/9 46/77/9 32/78/9

v 1610.14 1092.17 -1203.25
vt 15.9449 2.55045e-012
f 46/77/9 45/76/9 47/79/9

vt -15.3543 42.9988
vn -1 2.93945e-018 -1.71696e-013
v 1610.14 755 -1203.25
vt -5.28852e-012 29.7244
vt -5.28852e-012 42.9988
f 45/80/10 48/81/10 47/82/10

v 1610.14 755 -1593.25
vt -15.3543 29.7244
f 48/81/10 45/80/10 49/83/10

v 1590.14 755 -1593.25
vt 15.1575 29.7244
vt 15.9449 29.7244
f 45/75/2 50/84/2 49/85/2

f 50/84/2 45/75/2 44/74/2

v 1590.14 1092.17 -1203.25
vt 5.34517e-012 42.9988
vt 15.3543 29.7244
vt 15.3543 42.9988
f 51/86/5 50/87/5 44/88/5

v 1590.14 755 -1203.25
vt 5.34517e-012 29.7244
f 50/87/5 51/86/5 52/89/5

vt -15.1575 42.9988
vt -15.9449 29.7244
vt -15.1575 29.7244
f 51/90/4 48/91/4 52/92/4

vt -15.9449 42.9988
f 48/91/4 51/90/4 47/93/4

vt -1.60073 43.7862
f 51/90/4 40/94/4 47/93/4

v 1245.8 1092.17 -1203.25
vt -1.60073 42.9988
f 53/95/4 40/94/4 51/90/4

f 53/95/4 20/34/4 40/94/4

v 1245.8 755 -1203.25
vt -1.60073 29.7244
f 54/96/4 20/34/4 53/95/4

v 1245.8 735 -1203.25
vt -1.60073 28.937
f 55/97/4 20/34/4 54/96/4

v 1245.8 397.829 -1203.25
vt -1.60073 15.6626
f 56/98/4 20/34/4 55/97/4

f 19/35/4 20/34/4 56/98/4

v 1590.14 377.829 -1203.25
vt -15.1575 14.8752
f 19/35/4 56/98/4 57/99/4

v 1610.14 377.829 -1203.25
vt -15.9449 14.8752
f 57/99/4 56/98/4 58/100/4

f 58/100/4 56/98/4 12/19/4

v 1954.48 397.829 -1203.25
vt -29.5016 15.6626
f 59/101/4 12/19/4 56/98/4

f 11/18/4 12/19/4 59/101/4

v 1954.48 735 -1203.25
vt -29.5016 28.937
f 11/18/4 59/101/4 60/102/4

vt 15.3543 15.6626
vt 5.27137e-012 28.937
vt 5.27137e-012 15.6626
f 27/103/5 60/104/5 59/105/5

vt 15.3543 28.937
f 60/104/5 27/103/5 30/106/5

v 1610.14 735 -1593.25
vt 29.5016 2.05792e-013
f 61/76/9 60/107/9 30/78/9

v 1610.14 735 -1203.25
vt 15.9449 2.55058e-012
f 60/107/9 61/76/9 62/108/9

vt -15.3543 28.937
v 1610.14 397.829 -1203.25
vt -5.28852e-012 15.6626
vt -5.28852e-012 28.937
f 61/109/10 63/110/10 62/111/10

v 1610.14 397.829 -1593.25
vt -15.3543 15.6626
f 63/110/10 61/109/10 64/112/10

vt 15.9449 28.937
v 1590.14 397.829 -1593.25
vt 15.1575 15.6626
vt 15.9449 15.6626
f 61/113/2 65/114/2 64/115/2

v 1590.14 735 -1593.25
vt 15.1575 28.937
f 65/114/2 61/113/2 66/116/2

f 61/113/2 31/54/2 66/116/2

f 30/53/2 31/54/2 61/113/2

f 66/116/2 31/54/2 25/48/2

f 24/47/2 25/48/2 31/54/2

f 24/47/2 31/54/2 49/85/2

v 1954.48 755 -1203.25
vt -29.5016 2.05784e-013
f 67/117/1 49/1/1 31/4/1

vt -15.9449 2.55058e-012
f 49/1/1 67/117/1 48/118/1

vt -29.5016 29.7244
f 67/119/4 52/92/4 48/91/4

f 67/119/4 54/96/4 52/92/4

f 67/119/4 60/102/4 54/96/4

f 11/18/4 60/102/4 67/119/4

vt -29.5016 42.9988
f 11/18/4 67/119/4 46/120/4

vt 5.27137e-012 42.9988
vt 5.27137e-012 29.7244
f 31/87/5 46/121/5 67/122/5

f 46/121/5 31/87/5 32/88/5

v 1954.48 1112.17 -1203.25
vt -29.5016 43.7862
f 11/18/4 46/120/4 68/123/4

f 68/123/4 46/120/4 40/94/4

f 47/93/4 40/94/4 46/120/4

vt -15.1575 43.7862
f 68/123/4 40/94/4 41/124/4

v 1610.14 1112.17 -1203.25
vt -15.9449 43.7862
f 68/123/4 41/124/4 69/125/4

vt -15.1575 57.0607
f 37/126/4 69/125/4 41/124/4

v 1610.14 1449.34 -1203.25
vt -15.9449 57.0607
f 69/125/4 37/126/4 70/127/4

f 37/126/4 20/34/4 70/127/4

vt -1.60073 57.0607
f 38/128/4 20/34/4 37/126/4

vt -1.60073 56.585
f 39/129/4 20/34/4 38/128/4

f 40/94/4 20/34/4 39/129/4

v 1954.48 1449.34 -1203.25
vt -29.5016 57.0607
f 70/127/4 20/34/4 71/130/4

f 11/18/4 71/130/4 20/34/4

f 11/18/4 68/123/4 71/130/4

vt 15.3543 43.7862
vt 5.39927e-012 57.0607
vt 5.39927e-012 43.7862
f 33/131/5 71/132/5 68/133/5

vt 15.3543 57.0607
f 71/132/5 33/131/5 34/134/5

vt 29.5016 3.33431e-013
f 35/76/9 71/135/9 34/78/9

vt 15.9449 2.66401e-012
f 71/135/9 35/76/9 70/136/9

vt -15.3543 57.0607
vt -5.40221e-012 43.7862
vt -5.40221e-012 57.0607
f 35/137/10 69/138/10 70/139/10

vt -15.3543 43.7862
f 69/138/10 35/137/10 43/140/10

f 35/58/2 42/73/2 43/72/2

f 42/73/2 35/58/2 36/59/2

vt 5.23149e-012 57.0607
f 37/141/5 42/131/5 36/134/5

vt 5.23149e-012 43.7862
f 42/131/5 37/141/5 41/142/5

vt -29.5016 3.33553e-013
vt -15.9449 2.66413e-012
f 43/1/1 68/143/1 69/144/1

f 68/143/1 43/1/1 33/4/1

vt -15.9449 28.937
f 62/145/4 54/96/4 60/102/4

v 1590.14 735 -1203.25
vt -15.1575 28.937
f 72/146/4 54/96/4 62/145/4

f 55/97/4 54/96/4 72/146/4

vt 15.1575 2.68585e-012
vt 1.60073 4.99512e-012
f 72/147/7 25/60/7 55/148/7

f 25/60/7 72/147/7 66/62/7

vt 5.28833e-012 28.937
f 72/149/5 65/103/5 66/106/5

v 1590.14 397.829 -1203.25
vt 5.28833e-012 15.6626
f 65/103/5 72/149/5 73/150/5

vt -15.9449 15.6626
vt -15.1575 15.6626
f 72/146/4 63/151/4 73/152/4

f 63/151/4 72/146/4 62/145/4

f 59/101/4 73/152/4 63/151/4

f 59/101/4 56/98/4 73/152/4

vt -15.1575 2.68571e-012
vt -1.60073 4.99497e-012
f 26/69/1 73/153/1 56/154/1

f 73/153/1 26/69/1 65/11/1

f 26/49/2 64/115/2 65/114/2

f 26/49/2 27/50/2 64/115/2

vt -29.5016 2.05914e-013
f 59/155/1 64/1/1 27/4/1

vt -15.9449 2.5507e-012
f 64/1/1 59/155/1 63/156/1

vt -5.26772e-012 15.6626
vn -1 0 -1.70297e-013
vt -15.3543 28.937
vt -15.3543 15.6626
f 56/157/11 25/158/11 26/159/11

vt -5.26772e-012 28.937
f 25/158/11 56/157/11 55/160/11

vt -15.1575 2.74242e-012
vt -1.60073 5.0659e-012
f 24/69/1 52/161/1 54/162/1

f 52/161/1 24/69/1 50/11/1

f 24/47/2 49/85/2 50/84/2

vt -5.34172e-012 29.7244
vn -1 7.35617e-018 -1.7214e-013
vt -15.3543 42.9988
vt -15.3543 29.7244
f 54/163/12 23/164/12 24/165/12

vt -5.34172e-012 42.9988
f 23/164/12 54/163/12 53/166/12

vt 15.1575 2.74267e-012
vn 7.35617e-018 1 -6.11908e-019
vt 1.60073 5.06614e-012
f 51/167/13 23/60/13 53/168/13

f 23/60/13 51/167/13 44/62/13

vt 29.5016 2.05921e-013
vt 15.9449 2.55071e-012
f 12/169/9 29/76/9 58/170/9

f 29/76/9 12/169/9 13/78/9

vt -15.3543 14.8752
vt -5.28852e-012 1.60073
vt -5.28852e-012 14.8752
f 29/171/10 3/172/10 58/173/10

f 3/172/10 29/171/10 1/32/10

f 5/5/2 1/7/2 29/52/2

f 5/5/2 29/52/2 28/51/2

vt 5.44465e-012 14.8752
f 57/174/5 5/20/5 28/23/5

vt 5.44465e-012 1.60073
f 5/20/5 57/174/5 7/175/5

vt -15.9449 1.60073
f 57/99/4 3/176/4 7/15/4

f 3/176/4 57/99/4 58/100/4

f 2/13/4 7/15/4 3/176/4

vt 15.1575 2.84217e-012
f 18/60/7 57/177/7 28/62/7

vt 1.60073 5.17986e-012
f 57/177/7 18/60/7 19/178/7

vt -15.3543 58.6614
vt -5.34015e-012 2.32463e-016
vt -5.34015e-012 58.6614
f 14/179/10 10/180/10 11/181/10

vt -15.3543 9.14237e-017
f 10/180/10 14/179/10 15/182/10

vt 2.6148e-012 15.3543
vt 31.1024 -2.13532e-033
vt 31.1024 15.3543
f 16/183/9 10/184/9 15/185/9

vt -6.83313e-034 5.32907e-012
f 10/184/9 16/183/9 9/186/9

g Mesh2 Group3 Group1 Model

usemtl _auto_
v 1986.47 750.475 -56.9567
vt -1.19559e-012 29.5463
vn -1 2.60583e-017 -3.89333e-014
v 1986.47 710.475 -96.9567
vt -1.5748 27.9715
v 1986.47 0 -56.9567
vt -1.19559e-012 8.00215e-016
f 74/187/14 75/188/14 76/189/14

v 1986.47 750.475 -1206.96
vt -45.2756 29.5463
f 75/188/14 74/187/14 77/190/14

vt -30.7087 0
vn 0 -1 -0
v 1206.47 750.475 -1206.96
vt -1.59162e-012 45.2756
vt -30.7087 45.2756
f 74/191/15 78/192/15 77/193/15

v 1206.47 750.475 -56.9567
vt 0 1.1191e-012
f 78/192/15 74/191/15 79/194/15

vn 3.64426e-014 0 -1
vt 4.07831e-026 29.5463
vt -30.7087 29.5463
f 76/191/16 79/195/16 74/196/16

v 1206.47 0 -56.9567
vt 4.07831e-026 0
f 79/195/16 76/191/16 80/197/16

vt 30.7087 0
v 1206.47 0 -96.9567
vt 5.68434e-014 1.5748
f 76/198/7 81/199/7 80/194/7

v 1986.47 0 -96.9567
vt 30.7087 1.5748
f 81/199/7 76/198/7 82/200/7

vt -1.5748 8.00215e-016
f 82/201/14 76/189/14 75/188/14

vt 30.7087 27.9715
vn -3.65583e-014 0 1
vt -7.28762e-016 0
f 75/202/17 81/203/17 82/198/17

v 1206.47 710.475 -96.9567
vt -7.28762e-016 27.9715
f 81/203/17 75/202/17 83/204/17

vt 30.7087 1.5748
vn -5.78455e-017 1 6.09722e-017
v 1206.47 710.475 -1206.96
vt 1.59323e-012 45.2756
vt 5.84614e-014 1.5748
f 75/205/18 84/206/18 83/207/18

v 1986.47 710.475 -1206.96
vt 30.7087 45.2756
f 84/206/18 75/205/18 85/208/18

vt -45.2756 27.9715
f 75/188/14 77/190/14 85/209/14

vt 30.7087 29.5463
vn -3.65583e-014 1.78077e-029 1
vt -6.35845e-014 27.9715
vt 30.7087 27.9715
f 77/210/19 84/211/19 85/212/19

vt -6.35845e-014 29.5463
f 84/211/19 77/210/19 78/213/19

vt 45.2756 29.5463
vn 1 2.08989e-029 3.60956e-014
vt 1.5748 27.9715
vt 45.2756 27.9715
f 78/214/20 83/215/20 84/216/20

vt 1.1191e-012 29.5463
f 79/217/20 83/215/20 78/214/20

vt 1.5748 8.39241e-055
f 79/217/20 81/218/20 83/215/20

vt 1.1191e-012 8.44206e-055
f 81/218/20 79/217/20 80/219/20

