# Alias OBJ Model File
# Exported from SketchUp, (c) 2000-2006 Google, Inc.
# File units = meters

mtllib af419d40f33673c78b6e1abaaf2d0da4_obj0_object.mtl

g Mesh1 Group1 Model

usemtl FrontColor
v 2.12397 1.98 -1.42292
vt -23.8189 22.8505
vn 0 -1 -0
v 2.10397 1.98 -0.872919
vt -23.0315 1.19692
v 2.10397 1.98 -1.42292
vt -23.0315 22.8505
f 1/1/1 2/2/1 3/3/1

v 2.12397 1.98 -0.872919
vt -23.8189 1.19692
f 2/2/1 1/1/1 4/4/1

usemtl Color_009
vt 1.19692 77.9528
vn 1 0 -0
v 2.12397 0.02 -1.42292
vt 22.8505 0.787402
vt 22.8505 77.9528
f 4/5/2 5/6/2 1/7/2

v 2.12397 1.643 -0.872919
vt 1.19692 64.685
f 6/8/2 5/6/2 4/5/2

v 2.12397 1.623 -0.872919
vt 1.19692 63.8976
f 7/9/2 5/6/2 6/8/2

v 2.12397 0.02 -0.872919
vt 1.19692 0.787402
f 5/6/2 7/9/2 8/10/2

vt 23.8189 0.787402
vn 0 0 1
v 2.14397 0.42 -0.872919
vt 24.6063 16.5354
vt 23.8189 63.8976
f 8/11/3 9/12/3 7/13/3

v 2.14397 0.02 -0.872919
vt 24.6063 0.787402
f 9/12/3 8/11/3 10/14/3

usemtl FrontColor
vt 24.6063 1.19692
vn -1.28238e-013 1 -1.39896e-014
vt 23.8189 22.8505
vt 23.8189 1.19692
f 10/15/4 5/16/4 8/17/4

v 2.14397 0.02 -1.42292
vt 24.6063 22.8505
f 5/16/4 10/15/4 11/18/4

v 2.70897 0.02 -0.872919
vt 46.8504 1.19692
vn 1.36182e-014 1 -4.6632e-015
vt 24.6063 22.8505
vt 24.6063 1.19692
f 12/19/5 11/20/5 10/21/5

v 2.70897 0.02 -1.42292
vt 46.8504 22.8505
f 11/20/5 12/19/5 13/22/5

v 2.72897 0.02 -0.872919
vt 47.6378 1.19692
vn -1.40998e-016 1 1.53524e-034
vt 46.8504 22.8505
vt 46.8504 1.19692
f 14/23/6 13/24/6 12/25/6

v 2.72897 0.02 -1.42292
vt 47.6378 22.8505
f 13/24/6 14/23/6 15/26/6

usemtl Color_009
vt 1.19692 0.787402
v 2.72897 2.03038e-016 -1.42292
vt 22.8505 1.42109e-014
vt 22.8505 0.787402
f 14/27/2 16/28/2 15/29/2

v 2.72897 2.03038e-016 -0.872919
vt 1.19692 1.42109e-014
f 16/28/2 14/27/2 17/30/2

vt 47.6378 0.787402
v 2.70897 2.03038e-016 -0.872919
vt 46.8504 1.42109e-014
vt 47.6378 1.42109e-014
f 14/31/3 18/32/3 17/33/3

vt 46.8504 0.787402
f 18/32/3 14/31/3 12/34/3

v 2.70897 0.42 -0.872919
vt 46.8504 16.5354
f 14/31/3 19/35/3 12/34/3

v 2.72897 1.623 -0.872919
vt 47.6378 63.8976
f 19/35/3 14/31/3 20/36/3

vt 1.19692 63.8976
f 15/29/2 20/37/2 14/27/2

v 2.72897 1.643 -0.872919
f 20/37/2 15/29/2 21/8/2

v 2.72897 1.98 -0.872919
f 21/8/2 15/29/2 22/5/2

v 2.72897 1.98 -1.42292
f 22/5/2 15/29/2 23/7/2

usemtl M_0137_Black
vt -47.6378 0.787402
vn -2.25597e-015 -2.30201e-017 -1
v 2.70897 1.98 -1.42292
vt -46.8504 77.9528
vt -47.6378 77.9528
f 15/38/7 24/39/7 23/40/7

vt -46.8504 0.787402
f 24/39/7 15/38/7 13/41/7

vt -47.6378 1.42109e-014
vn -4.51195e-015 8.58839e-032 -1
vt -46.8504 0.787402
vt -47.6378 0.787402
f 16/42/8 13/43/8 15/44/8

v 2.70897 2.03038e-016 -1.42292
vt -46.8504 1.42109e-014
f 13/43/8 16/42/8 25/45/8

usemtl FrontColor
vt -47.6378 22.8505
vt -46.8504 1.19692
vt -46.8504 22.8505
f 16/46/1 18/47/1 25/48/1

vt -47.6378 1.19692
f 18/47/1 16/46/1 17/49/1

vt -1.19692 1.42109e-014
vn -1 0 -0
vt -22.8505 0.787402
vt -22.8505 1.42109e-014
f 18/50/9 13/51/9 25/52/9

vt -1.19692 0.787402
f 13/51/9 18/50/9 12/53/9

usemtl M_0137_Black
v 2.14397 2.03038e-016 -0.872919
vt 24.6063 1.42109e-014
f 12/34/3 26/54/3 18/32/3

f 26/54/3 12/34/3 10/14/3

usemtl FrontColor
f 19/35/3 10/14/3 12/34/3

v 2.406 0.42 -0.872919
vt 34.9225 16.5354
f 10/14/3 19/35/3 27/55/3

v 2.446 0.42 -0.872919
vt 36.4973 16.5354
f 27/55/3 19/35/3 28/56/3

usemtl Color_009
v 2.70897 0.44 -0.872919
vt 46.8504 17.3228
f 19/35/3 29/57/3 28/56/3

f 19/35/3 20/36/3 29/57/3

v 2.70897 1.0215 -0.872919
vt 46.8504 40.2165
f 29/57/3 20/36/3 30/58/3

v 2.70897 1.0415 -0.872919
vt 46.8504 41.0039
f 30/58/3 20/36/3 31/59/3

v 2.70897 1.623 -0.872919
vt 46.8504 63.8976
f 31/59/3 20/36/3 32/60/3

vt 47.6378 64.685
f 21/61/3 32/60/3 20/36/3

v 2.70897 1.643 -0.872919
vt 46.8504 64.685
f 32/60/3 21/61/3 33/62/3

vt 47.6378 77.9528
f 22/63/3 33/62/3 21/61/3

v 2.70897 1.98 -0.872919
vt 46.8504 77.9528
f 33/62/3 22/63/3 34/64/3

v 2.72897 2 -0.872919
vt 47.6378 78.7402
f 35/65/3 34/64/3 22/63/3

v 2.14397 1.98 -0.872919
vt 24.6063 77.9528
f 34/64/3 35/65/3 36/66/3

vt 23.8189 77.9528
f 36/66/3 35/65/3 4/67/3

v 2.12397 2 -0.872919
vt 23.8189 78.7402
f 4/67/3 35/65/3 37/68/3

usemtl M_0137_Black
vn 0 1 -0
v 2.12397 2 -1.42292
vt 23.8189 22.8505
vt 23.8189 1.19692
f 35/23/10 38/69/10 37/70/10

v 2.72897 2 -1.42292
f 38/69/10 35/23/10 39/26/10

usemtl Color_009
vt 1.19692 78.7402
vt 22.8505 78.7402
f 35/71/2 23/7/2 39/72/2

f 23/7/2 35/71/2 22/5/2

usemtl FrontColor
f 34/47/1 23/46/1 22/49/1

vt -46.8504 22.8505
f 23/46/1 34/47/1 24/73/1

vt -24.6063 1.19692
f 36/74/1 24/73/1 34/47/1

v 2.14397 1.98 -1.42292
vt -24.6063 22.8505
f 24/73/1 36/74/1 40/75/1

f 4/4/1 40/75/1 36/74/1

f 40/75/1 4/4/1 1/1/1

usemtl Color_009
f 1/7/2 37/71/2 4/5/2

f 37/71/2 1/7/2 38/72/2

usemtl M_0137_Black
vt -23.8189 78.7402
vn 0 0 -1
vt -24.6063 77.9528
vt -23.8189 77.9528
f 38/76/11 40/77/11 1/78/11

vt -46.8504 77.9528
f 40/77/11 38/76/11 24/79/11

vt -47.6378 77.9528
f 24/79/11 38/76/11 23/80/11

vt -47.6378 78.7402
f 23/80/11 38/76/11 39/81/11

usemtl FrontColor
vn 7.98575e-017 -2.30201e-017 -1
vt -24.6063 0.787402
f 24/79/12 11/82/12 40/77/12

vt -46.8504 0.787402
f 11/82/12 24/79/12 13/83/12

usemtl M_0137_Black
vt -46.8504 1.42109e-014
vn 1.59715e-016 7.33011e-032 -1
vt -24.6063 0.787402
vt -46.8504 0.787402
f 25/84/13 11/85/13 13/86/13

v 2.14397 2.84648e-017 -1.42292
vt -24.6063 7.33791e-015
f 11/85/13 25/84/13 41/87/13

usemtl FrontColor
vn 3.19339e-016 -1 -3.57882e-018
f 26/74/14 41/75/14 25/48/14

v 2.12397 -1.57918e-016 -0.872919
f 42/4/14 41/75/14 26/74/14

v 2.12397 2.25597e-017 -1.42292
f 41/75/14 42/4/14 43/1/14

usemtl Color_009
vt 22.8505 7.10543e-015
vt 1.19692 0
f 43/88/2 8/10/2 42/89/2

f 8/10/2 43/88/2 5/6/2

usemtl M_0137_Black
v 2.10397 3.60956e-016 -1.42292
vt -23.0315 2.04281e-014
vn -9.02389e-015 -3.37174e-031 -1
vt -23.8189 0.787402
vt -23.8189 7.10543e-015
f 44/90/15 5/91/15 43/92/15

v 2.10397 0.02 -1.42292
vt -23.0315 0.787402
f 5/91/15 44/90/15 45/93/15

vt -23.0315 2.04281e-014
v 1.53897 0.02 -1.42292
vt -0.787402 0.787402
vt -23.0315 0.787402
f 44/94/13 46/95/13 45/96/13

v 1.53897 1.86383e-016 -1.42292
vt -0.787402 1.35552e-014
f 46/95/13 44/94/13 47/97/13

usemtl FrontColor
v 1.53897 3.60956e-016 -0.872919
vt -0.787402 1.19692
vn 3.20585e-016 -1 -1.74516e-018
vt -0.787402 22.8505
vt -23.0315 22.8505
f 48/98/16 47/99/16 44/100/16

v 1.51897 0 -0.872919
vt -1.99316e-030 1.19692
f 49/101/16 47/99/16 48/98/16

v 1.51897 1.80478e-016 -1.42292
vt -4.27105e-030 22.8505
f 47/99/16 49/101/16 50/102/16

usemtl M_0137_Black
vt -1.19692 6.21725e-015
v 1.51897 0.02 -1.42292
vt -22.8505 0.787402
vt -22.8505 1.33227e-014
f 49/103/9 51/104/9 50/105/9

v 1.51897 0.02 -0.872919
vt -1.19692 0.787402
f 51/104/9 49/103/9 52/106/9

usemtl Color_009
vt 0.787402 2.04281e-014
vt 0 0.787402
vt 0 6.21725e-015
f 48/107/3 52/108/3 49/109/3

v 1.53897 0.02 -0.872919
vt 0.787402 0.787402
f 52/108/3 48/107/3 53/110/3

usemtl M_0137_Black
v 2.10397 0.02 -0.872919
vt 23.0315 0.787402
f 48/107/3 54/111/3 53/110/3

v 2.10397 3.60956e-016 -0.872919
vt 23.0315 2.04281e-014
f 54/111/3 48/107/3 55/112/3

usemtl FrontColor
f 48/98/16 44/100/16 55/2/16

vt -1.19692 2.04281e-014
vt -22.8505 0.787402
vt -22.8505 2.04281e-014
f 55/113/9 45/114/9 44/115/9

vt -1.19692 0.787402
f 45/114/9 55/113/9 54/116/9

usemtl Color_009
f 55/112/3 8/11/3 54/111/3

vt 23.8189 0
f 8/11/3 55/112/3 42/117/3

usemtl FrontColor
vn -2.14317e-014 -1 -1.64071e-016
f 55/2/17 43/1/17 42/4/17

f 43/1/17 55/2/17 44/100/17

usemtl Color_009
f 26/54/3 8/11/3 42/117/3

f 8/11/3 26/54/3 10/14/3

vn -8.16224e-017 -1.10716e-017 1
v 2.10397 0.42 -0.872919
vt 23.0315 16.5354
f 8/11/18 56/118/18 54/111/18

f 56/118/18 8/11/18 7/13/18

v 2.10397 0.44 -0.872919
vt 23.0315 17.3228
f 56/118/18 7/13/18 57/119/18

v 2.10397 1.01171 -0.872919
vt 23.0315 39.8312
f 57/119/18 7/13/18 58/120/18

v 2.10397 1.05171 -0.872919
vt 23.0315 41.406
f 58/120/18 7/13/18 59/121/18

v 2.10397 1.623 -0.872919
vt 23.0315 63.8976
f 59/121/18 7/13/18 60/122/18

vt 23.8189 64.685
f 6/123/3 60/122/3 7/13/3

v 2.10397 1.643 -0.872919
vt 23.0315 64.685
f 60/122/3 6/123/3 61/124/3

f 4/67/3 61/124/3 6/123/3

vt 23.0315 77.9528
f 61/124/3 4/67/3 2/125/3

f 37/68/3 2/125/3 4/67/3

v 1.53897 1.98 -0.872919
vt 0.787402 77.9528
f 2/125/3 37/68/3 62/126/3

v 1.51897 1.98 -0.872919
vt 0 77.9528
f 62/126/3 37/68/3 63/127/3

v 1.51897 2 -0.872919
vt 0 78.7402
f 63/127/3 37/68/3 64/128/3

usemtl M_0137_Black
v 1.51897 2 -1.42292
vt 0 22.8505
vt 0 1.19692
f 37/70/10 65/129/10 64/130/10

f 65/129/10 37/70/10 38/69/10

f 1/78/11 65/128/11 38/76/11

vt -23.0315 77.9528
f 3/131/11 65/128/11 1/78/11

v 1.53897 1.98 -1.42292
vt -0.787402 77.9528
f 66/132/11 65/128/11 3/131/11

v 1.51897 1.98 -1.42292
f 65/128/11 66/132/11 67/127/11

usemtl FrontColor
f 66/99/1 63/130/1 67/129/1

f 63/130/1 66/99/1 62/98/1

f 3/3/1 62/98/1 66/99/1

f 62/98/1 3/3/1 2/2/1

v 1.53897 1.643 -0.872919
vt 0.787402 64.685
f 68/133/3 2/125/3 62/126/3

f 2/125/3 68/133/3 61/124/3

usemtl M_0137_Black
v 1.53897 1.623 -0.872919
vt 0.787402 63.8976
f 69/134/3 61/124/3 68/133/3

f 61/124/3 69/134/3 60/122/3

usemtl FrontColor
vt 0.787402 63.8976
vn -1.59715e-016 -2.72779e-020 1
f 69/135/19 59/121/19 60/122/19

f 69/135/19 58/120/19 59/121/19

v 1.53897 0.44 -0.872919
vt 0.787402 17.3228
f 70/136/19 58/120/19 69/135/19

f 58/120/19 70/136/19 57/119/19

usemtl Color_009
vt 0.787402 17.3228
v 1.53897 0.42 -0.872919
vt 0.787402 16.5354
f 70/137/18 71/138/18 57/119/18

vt -9.76957e-017 77.9528
f 63/139/18 71/138/18 70/137/18

vt -9.76957e-017 0.787402
f 52/140/18 71/138/18 63/139/18

vt 0.787402 0.787402
f 71/138/18 52/140/18 53/141/18

usemtl FrontColor
vt 0.787402 1.19692
vn -1.28238e-013 1 -1.39896e-014
vt 1.00975e-013 22.8505
vt 1.00975e-013 1.19692
f 53/142/20 51/143/20 52/144/20

vt 0.787402 22.8505
f 51/143/20 53/142/20 46/145/20

vt 23.0315 1.19692
vt 0.787402 22.8505
vt 0.787402 1.19692
f 54/146/5 46/147/5 53/148/5

vt 23.0315 22.8505
f 46/147/5 54/146/5 45/149/5

vt 23.8189 1.19692
vn -2.4858e-013 1 -9.3264e-015
vt 23.0315 22.8505
vt 23.0315 1.19692
f 8/150/21 45/151/21 54/152/21

vt 23.8189 22.8505
f 45/151/21 8/150/21 5/153/21

usemtl M_0137_Black
vt -23.0315 0.787402
vn -4.51195e-015 -4.60403e-017 -1
vt -23.8189 77.9528
vt -23.8189 0.787402
f 45/154/22 1/155/22 5/156/22

vt -23.0315 77.9528
f 1/155/22 45/154/22 3/157/22

usemtl FrontColor
vt -0.787402 0.787402
vt -23.0315 0.787402
f 46/158/12 3/131/12 45/159/12

vt -0.787402 77.9528
f 3/131/12 46/158/12 66/160/12

usemtl M_0137_Black
vt -0.787402 0.787402
f 46/161/11 67/127/11 66/132/11

vt 0 0.787402
f 67/127/11 46/161/11 51/162/11

vt -0.787402 1.35552e-014
f 47/163/11 51/162/11 46/161/11

vt 0 1.33227e-014
f 51/162/11 47/163/11 50/164/11

vt -22.8505 77.9528
f 52/106/9 67/165/9 51/104/9

vt -1.19692 77.9528
f 67/165/9 52/106/9 63/166/9

vt -22.8505 78.7402
f 63/166/9 65/167/9 67/165/9

vt -1.19692 78.7402
f 65/167/9 63/166/9 64/168/9

vt -23.8189 0.787402
f 1/78/11 11/85/11 5/169/11

f 11/85/11 1/78/11 40/77/11

vt -24.6063 7.33791e-015
f 41/170/11 5/169/11 11/85/11

vt -23.8189 7.10543e-015
f 5/169/11 41/170/11 43/171/11

usemtl FrontColor
f 56/118/3 53/110/3 54/111/3

vt 0.787402 16.5354
f 53/110/3 56/118/3 71/172/3

usemtl Color_009
f 56/118/18 57/119/18 71/138/18

vt 0.787402 63.8976
f 63/139/18 70/137/18 69/173/18

vt 0.787402 64.685
f 63/139/18 69/173/18 68/174/18

vt 0.787402 77.9528
f 63/139/18 68/174/18 62/175/18

v 2.08397 1.01171 -0.842919
vt -12.352 39.8312
vn -0.83205 -3.32217e-009 -0.5547
vt -13.7715 41.406
vt -13.7715 39.8312
f 72/176/23 59/177/23 58/178/23

v 2.08397 1.05171 -0.842919
vt -12.352 41.406
f 59/177/23 72/176/23 73/179/23

f 6/123/3 36/66/3 4/67/3

v 2.14397 1.643 -0.872919
vt 24.6063 64.685
f 6/123/3 74/180/3 36/66/3

f 7/13/3 74/180/3 6/123/3

v 2.14397 1.623 -0.872919
vt 24.6063 63.8976
f 7/13/3 75/181/3 74/180/3

v 2.14397 1.35225 -0.872919
vt 24.6063 53.2382
f 7/13/3 76/182/3 75/181/3

v 2.14397 1.31225 -0.872919
vt 24.6063 51.6634
f 7/13/3 77/183/3 76/182/3

v 2.14397 1.0415 -0.872919
vt 24.6063 41.0039
f 7/13/3 78/184/3 77/183/3

v 2.14397 1.0215 -0.872919
vt 24.6063 40.2165
f 7/13/3 79/185/3 78/184/3

v 2.14397 0.75075 -0.872919
vt 24.6063 29.5571
f 7/13/3 80/186/3 79/185/3

v 2.14397 0.71075 -0.872919
vt 24.6063 27.9823
f 7/13/3 81/187/3 80/186/3

v 2.14397 0.44 -0.872919
vt 24.6063 17.3228
f 7/13/3 82/188/3 81/187/3

f 7/13/3 9/12/3 82/188/3

f 82/188/3 9/12/3 29/57/3

f 28/56/3 29/57/3 9/12/3

f 9/12/3 27/55/3 28/56/3

usemtl FrontColor
f 9/12/3 10/14/3 27/55/3

usemtl Color_009
vt -36.4973 10.1681
vn 2.55275e-013 -0.83205 -0.5547
v 2.406 0.4 -0.842919
vt -34.9225 8.7486
vt -34.9225 10.1681
f 28/189/24 83/190/24 27/191/24

v 2.446 0.4 -0.842919
vt -36.4973 8.7486
f 83/190/24 28/189/24 84/192/24

usemtl FrontColor
f 30/58/3 82/188/3 29/57/3

f 82/188/3 30/58/3 81/187/3

f 81/187/3 30/58/3 80/186/3

f 80/186/3 30/58/3 79/185/3

usemtl Color_009
f 30/58/3 31/59/3 79/185/3

f 78/184/3 79/185/3 31/59/3

usemtl FrontColor
f 32/60/3 78/184/3 31/59/3

f 78/184/3 32/60/3 77/183/3

f 77/183/3 32/60/3 76/182/3

f 76/182/3 32/60/3 75/181/3

usemtl M_0137_Black
f 33/62/3 75/181/3 32/60/3

f 75/181/3 33/62/3 74/180/3

v 2.44647 1.643 -0.872919
vt 36.5157 64.685
f 74/180/3 33/62/3 85/193/3

usemtl FrontColor
f 34/64/3 85/193/3 33/62/3

v 2.40647 1.643 -0.872919
vt 34.9409 64.685
f 85/193/3 34/64/3 86/194/3

f 86/194/3 34/64/3 74/180/3

f 74/180/3 34/64/3 36/66/3

usemtl M_0137_Black
f 74/180/3 85/193/3 86/194/3

usemtl Color_009
vt -34.9409 34.8849
vn 6.77544e-029 0.83205 -0.5547
v 2.44647 1.663 -0.842919
vt -36.5157 36.3044
vt -36.5157 34.8849
f 86/195/25 87/196/25 85/197/25

v 2.40647 1.663 -0.842919
vt -34.9409 36.3044
f 87/196/25 86/195/25 88/198/25

v 2.16397 1.35225 -0.842919
vt -14.0727 53.2382
vn 0.83205 1.98975e-013 -0.5547
vt -12.6532 51.6634
vt -12.6532 53.2382
f 89/199/26 77/200/26 76/201/26

v 2.16397 1.31225 -0.842919
vt -14.0727 51.6634
f 77/200/26 89/199/26 90/202/26

v 2.16397 0.75075 -0.842919
vt -14.0727 29.5571
vn 0.83205 1.98968e-013 -0.5547
vt -12.6532 27.9823
vt -12.6532 29.5571
f 91/203/27 81/204/27 80/205/27

v 2.16397 0.71075 -0.842919
vt -14.0727 27.9823
f 81/204/27 91/203/27 92/206/27

usemtl FrontColor
f 26/74/14 25/48/14 18/47/14

g Mesh2 Group1 Model

usemtl Color_009
v 1.84053 1.66282 -0.842919
vt -12.6601 36.3005
vn 0 0.83205 -0.5547
v 1.80053 1.64282 -0.872919
vt -11.0853 34.881
v 1.80053 1.66282 -0.842919
vt -11.0853 36.3005
f 93/207/28 94/208/28 95/209/28

v 1.84053 1.64282 -0.872919
vt -12.6601 34.881
f 94/208/28 93/207/28 96/210/28

g Mesh3 Group1 Model

v 1.84096 0.420909 -0.872517
vt -12.677 10.1748
vn 2.55085e-013 -0.83205 -0.5547
v 1.80096 0.400909 -0.842517
vt -11.1022 8.75528
v 1.80096 0.420909 -0.872517
vt -11.1022 10.1748
f 97/211/29 98/212/29 99/213/29

v 1.84096 0.400909 -0.842517
vt -12.677 8.75528
f 98/212/29 97/211/29 100/214/29

