# Alias OBJ Model File
# Exported from SketchUp, (c) 2000-2006 Google, Inc.
# File units = inches

mtllib billy_bookcase_5_obj0_object.mtl

g Mesh1 sjs_ikea_solid1 sjs_ikea_billy_bookcase_1_1 Group1 Model

usemtl FrontColor
v 10.25 53.7972 -30.7461
vt 0.75 79.5276
vn 8.5776e-014 3.30446e-014 -1
v 0.25 53.0472 -30.7461
vt 1.98952e-012 4.26326e-014
v 0.25 53.7972 -30.7461
vt 0.75 -2.10319e-045
f 1/1/1 2/2/1 3/3/1

v 10.25 53.0472 -30.7461
vt 1.99663e-012 79.5276
f 2/2/1 1/1/1 4/4/1

v 10.25 53.7972 -0.75
vt 0.75 11
vn 1 -7.971e-014 3.79833e-013
vt 1.00542e-012 0
vt 0.75 6.39488e-014
f 5/5/2 4/6/2 1/7/2

v 10.25 53.0472 -0.75
vt 9.98313e-013 11
f 4/6/2 5/5/2 6/8/2

vt -0.75 79.5276
vn -8.5776e-014 -3.30446e-014 1
v 0.25 53.0472 -0.75
vt -9.84102e-013 -2.4302e-026
vt -2.98073e-012 79.5276
f 5/9/3 7/10/3 6/11/3

v 0.25 53.7972 -0.75
vt -0.75 -2.84217e-014
f 7/10/3 5/9/3 8/12/3

vt 11 79.5276
vn 1.77338e-013 1 2.45722e-013
vt -8.07435e-017 9.34777e-015
vt 11 -1.90739e-014
f 5/13/4 3/14/4 8/15/4

vt -3.63346e-015 79.5276
f 3/14/4 5/13/4 1/16/4

vt -1.98952e-012 -2.70543e-029
vn -1 7.971e-014 -3.93595e-013
vt -0.75 11
vt -0.75 6.75016e-014
f 2/17/5 8/18/5 3/19/5

vt 7.10543e-015 11
f 8/18/5 2/17/5 7/20/5

vt 1.79275e-025 4.26326e-014
vn -1.77338e-013 -1 -2.45722e-013
vt -11 79.5276
vt -11 1.22655e-026
f 2/21/6 6/22/6 7/23/6

vt 1.79915e-025 79.5276
f 6/22/6 2/21/6 4/24/6

g Mesh2 sjs_ikea_solid2 sjs_ikea_billy_bookcase_1_1 Group1 Model

v 10.25 66.6624 -30.7461
v 0.25 65.9124 -30.7461
v 0.25 66.6624 -30.7461
f 9/1/1 10/2/1 11/3/1

v 10.25 65.9124 -30.7461
f 10/2/1 9/1/1 12/4/1

v 10.25 66.6624 -0.75
f 13/5/2 12/6/2 9/7/2

v 10.25 65.9124 -0.75
f 12/6/2 13/5/2 14/8/2

v 0.25 65.9124 -0.75
f 13/9/3 15/10/3 14/11/3

v 0.25 66.6624 -0.75
f 15/10/3 13/9/3 16/12/3

f 13/13/4 11/14/4 16/15/4

f 11/14/4 13/13/4 9/16/4

f 10/17/5 16/18/5 11/19/5

f 16/18/5 10/17/5 15/20/5

f 10/21/6 14/22/6 15/23/6

f 14/22/6 10/21/6 12/24/6

g Mesh3 sjs_ikea_solid3 sjs_ikea_billy_bookcase_1_1 Group1 Model

v 10.25 3.18198 -30.7461
v 0.25 2.43198 -30.7461
v 0.25 3.18198 -30.7461
f 17/1/1 18/2/1 19/3/1

v 10.25 2.43198 -30.7461
f 18/2/1 17/1/1 20/4/1

v 10.25 3.18198 -0.75
f 21/5/2 20/6/2 17/7/2

v 10.25 2.43198 -0.75
f 20/6/2 21/5/2 22/8/2

v 0.25 2.43198 -0.75
f 21/9/3 23/10/3 22/11/3

v 0.25 3.18198 -0.75
f 23/10/3 21/9/3 24/12/3

f 21/13/4 19/14/4 24/15/4

f 19/14/4 21/13/4 17/16/4

f 18/17/5 24/18/5 19/19/5

f 24/18/5 18/17/5 23/20/5

f 18/21/6 22/22/6 23/23/6

f 22/22/6 18/21/6 20/24/6

g Mesh4 sjs_ikea_solid4 sjs_ikea_billy_bookcase_1_1 Group1 Model

v 10.25 15.7653 -30.7461
v 0.25 15.0153 -30.7461
v 0.25 15.7653 -30.7461
f 25/1/1 26/2/1 27/3/1

v 10.25 15.0153 -30.7461
f 26/2/1 25/1/1 28/4/1

v 10.25 15.7653 -0.75
f 29/5/2 28/6/2 25/7/2

v 10.25 15.0153 -0.75
f 28/6/2 29/5/2 30/8/2

v 0.25 15.0153 -0.75
f 29/9/3 31/10/3 30/11/3

v 0.25 15.7653 -0.75
f 31/10/3 29/9/3 32/12/3

f 29/13/4 27/14/4 32/15/4

f 27/14/4 29/13/4 25/16/4

f 26/17/5 32/18/5 27/19/5

f 32/18/5 26/17/5 31/20/5

f 26/21/6 30/22/6 31/23/6

f 30/22/6 26/21/6 28/24/6

g Mesh5 sjs_ikea_solid5 sjs_ikea_billy_bookcase_1_1 Group1 Model

v 0.75 2.43198 -30.7461
vn 5.27314e-014 4.9207e-030 -1
v 1.5 6.06046e-012 -30.7461
v 0.75 6.05915e-012 -30.7461
f 33/1/7 34/2/7 35/3/7

v 1.5 2.43198 -30.7461
f 34/2/7 33/1/7 36/4/7

v 0.75 2.43198 -0.75
vn -4.07571e-013 1 -1.55869e-025
f 37/5/8 36/6/8 33/7/8

v 1.5 2.43198 -0.75
f 36/6/8 37/5/8 38/8/8

vn -5.27314e-014 2.01468e-029 1
v 1.5 6.05915e-012 -0.75
f 37/9/9 39/10/9 38/11/9

v 0.75 6.05828e-012 -0.75
f 39/10/9 37/9/9 40/12/9

vn -1 -3.81145e-016 -1.34111e-013
f 37/13/10 35/14/10 40/15/10

f 35/14/10 37/13/10 33/16/10

vn 4.07571e-013 -1 -5.6588e-014
f 34/17/11 40/18/11 35/19/11

f 40/18/11 34/17/11 39/20/11

vn 1 3.81145e-016 1.34111e-013
f 34/21/12 38/22/12 39/23/12

f 38/22/12 34/21/12 36/24/12

g Mesh6 sjs_ikea_solid6 sjs_ikea_billy_bookcase_1_1 Group1 Model

v 6.38968e-014 79.5276 -6.99441e-015
vn -1 2.60478e-029 9.00403e-014
v 3.9443e-031 1.27898e-013 -0.75
v 6.74495e-014 8.52651e-014 -6.99441e-015
f 41/1/13 42/2/13 43/3/13

v -9.86076e-032 79.5276 -0.75
f 42/2/13 41/1/13 44/4/13

v 11 79.5276 8.88178e-016
vn -8.64842e-031 1 1.24637e-014
f 45/5/14 44/6/14 41/7/14

v 11 79.5276 -0.75
f 44/6/14 45/5/14 46/8/14

vn 1 2.20927e-027 -9.00403e-014
v 11 8.52651e-014 -0.75
f 45/9/15 47/10/15 46/11/15

v 11 5.68434e-014 -1.99574e-012
f 47/10/15 45/9/15 48/12/15

vn 9.00403e-014 -1.24637e-014 1
f 45/13/16 43/14/16 48/15/16

f 43/14/16 45/13/16 41/16/16

vn -6.34593e-016 -1 -1.24637e-014
f 42/17/17 48/18/17 43/19/17

f 48/18/17 42/17/17 47/20/17

vn -9.00403e-014 1.24637e-014 -1
f 42/21/18 46/22/18 47/23/18

f 46/22/18 42/21/18 44/24/18

g Mesh7 sjs_ikea_solid7 sjs_ikea_billy_bookcase_1_1 Group1 Model

v 6.60302e-014 79.5276 -30.7461
v 2.13344e-015 7.10543e-014 -31.4961
v 6.9583e-014 2.84217e-014 -30.7461
f 49/1/13 50/2/13 51/3/13

v 2.13344e-015 79.5276 -31.4961
f 50/2/13 49/1/13 52/4/13

v 11 79.5276 -30.7461
f 53/5/14 52/6/14 49/7/14

v 11 79.5276 -31.4961
f 52/6/14 53/5/14 54/8/14

v 11 2.84217e-014 -31.4961
f 53/9/15 55/10/15 54/11/15

v 11 0 -30.7461
f 55/10/15 53/9/15 56/12/15

f 53/13/16 51/14/16 56/15/16

f 51/14/16 53/13/16 49/16/16

f 50/17/17 56/18/17 51/19/17

f 56/18/17 50/17/17 55/20/17

f 50/21/18 54/22/18 55/23/18

f 54/22/18 50/21/18 52/24/18

g Mesh8 sjs_ikea_solid8 sjs_ikea_billy_bookcase_1_1 Group1 Model

v 10.25 28.3487 -30.7461
v 0.25 27.5987 -30.7461
v 0.25 28.3487 -30.7461
f 57/1/1 58/2/1 59/3/1

v 10.25 27.5987 -30.7461
f 58/2/1 57/1/1 60/4/1

v 10.25 28.3487 -0.75
f 61/5/2 60/6/2 57/7/2

v 10.25 27.5987 -0.75
f 60/6/2 61/5/2 62/8/2

v 0.25 27.5987 -0.75
f 61/9/3 63/10/3 62/11/3

v 0.25 28.3487 -0.75
f 63/10/3 61/9/3 64/12/3

f 61/13/4 59/14/4 64/15/4

f 59/14/4 61/13/4 57/16/4

f 58/17/5 64/18/5 59/19/5

f 64/18/5 58/17/5 63/20/5

f 58/21/6 62/22/6 63/23/6

f 62/22/6 58/21/6 60/24/6

g Mesh9 sjs_ikea_solid9 sjs_ikea_billy_bookcase_1_1 Group1 Model

v 10.25 40.932 -30.7461
v 0.25 40.182 -30.7461
v 0.25 40.932 -30.7461
f 65/1/1 66/2/1 67/3/1

v 10.25 40.182 -30.7461
f 66/2/1 65/1/1 68/4/1

v 10.25 40.932 -0.75
f 69/5/2 68/6/2 65/7/2

v 10.25 40.182 -0.75
f 68/6/2 69/5/2 70/8/2

v 0.25 40.182 -0.75
f 69/9/3 71/10/3 70/11/3

v 0.25 40.932 -0.75
f 71/10/3 69/9/3 72/12/3

f 69/13/4 67/14/4 72/15/4

f 67/14/4 69/13/4 65/16/4

f 66/17/5 72/18/5 67/19/5

f 72/18/5 66/17/5 71/20/5

f 66/21/6 70/22/6 71/23/6

f 70/22/6 66/21/6 68/24/6

g Mesh10 sjs_ikea_solid10 sjs_ikea_billy_bookcase_1_1 Group1 Model

v 9.5 2.43198 -30.7461
v 10.25 2.33721e-012 -30.7461
v 9.5 2.33591e-012 -30.7461
f 73/1/7 74/2/7 75/3/7

v 10.25 2.43198 -30.7461
f 74/2/7 73/1/7 76/4/7

v 9.5 2.43198 -0.75
f 77/5/8 76/6/8 73/7/8

v 10.25 2.43198 -0.75
f 76/6/8 77/5/8 78/8/8

v 10.25 2.33591e-012 -0.75
f 77/9/9 79/10/9 78/11/9

v 9.5 2.33504e-012 -0.75
f 79/10/9 77/9/9 80/12/9

f 77/13/10 75/14/10 80/15/10

f 75/14/10 77/13/10 73/16/10

f 74/17/11 80/18/11 75/19/11

f 80/18/11 74/17/11 79/20/11

f 74/21/12 78/22/12 79/23/12

f 78/22/12 74/21/12 76/24/12

g Mesh11 sjs_ikea_solid11 sjs_ikea_billy_bookcase_1_1 Group1 Model

v 10.25 79.5276 -30.7461
v 0.25 78.7776 -30.7461
v 0.25 79.5276 -30.7461
f 81/1/1 82/2/1 83/3/1

v 10.25 78.7776 -30.7461
f 82/2/1 81/1/1 84/4/1

v 10.25 79.5276 -0.75
f 85/5/2 84/6/2 81/7/2

v 10.25 78.7776 -0.75
f 84/6/2 85/5/2 86/8/2

v 0.25 78.7776 -0.75
f 85/9/3 87/10/3 86/11/3

v 0.25 79.5276 -0.75
f 87/10/3 85/9/3 88/12/3

f 85/13/4 83/14/4 88/15/4

f 83/14/4 85/13/4 81/16/4

f 82/17/5 88/18/5 83/19/5

f 88/18/5 82/17/5 87/20/5

f 82/21/6 86/22/6 87/23/6

f 86/22/6 82/21/6 84/24/6

g Mesh12 sjs_ikea_solid12 sjs_ikea_billy_bookcase_1_1 Group1 Model

v 10.5 79.5276 -0.75
vn 1.11498e-014 9.26e-030 1
v 10.25 2.43198 -0.75
v 10.5 2.43198 -0.75
f 89/1/19 90/2/19 91/3/19

v 10.25 79.5276 -0.75
f 90/2/19 89/1/19 92/4/19

v 10.5 79.5276 -30.7461
vn 4.28562e-015 1 1.44887e-028
f 93/5/20 92/6/20 89/7/20

v 10.25 79.5276 -30.7461
f 92/6/20 93/5/20 94/8/20

vn -1.11498e-014 7.85396e-028 -1
v 10.25 2.43198 -30.7461
f 93/9/21 95/10/21 94/11/21

v 10.5 2.43198 -30.7461
f 95/10/21 93/9/21 96/12/21

vn 1 -3.62476e-014 -7.38001e-013
f 93/13/22 91/14/22 96/15/22

f 91/14/22 93/13/22 89/16/22

vn -4.28562e-015 -1 1.78507e-015
f 90/17/23 96/18/23 91/19/23

f 96/18/23 90/17/23 95/20/23

vn -1 3.62476e-014 7.38001e-013
f 90/21/24 94/22/24 95/23/24

f 94/22/24 90/21/24 92/24/24

g Mesh13 sjs_ikea_solid13 sjs_ikea_billy_height_extension_1_1 Group1 Model

v 1.27794e-013 92.7551 -30.7461
vn -1 -2.09111e-029 9.00403e-014
v 6.38968e-014 79.5276 -31.4961
v 1.31346e-013 79.5276 -30.7461
f 97/1/25 98/2/25 99/3/25

v 6.38968e-014 92.7551 -31.4961
f 98/2/25 97/1/25 100/4/25

v 11 92.7551 -30.7461
vn 7.0686e-029 1 7.49352e-014
f 101/5/26 100/6/26 97/7/26

v 11 92.7551 -31.4961
f 100/6/26 101/5/26 102/8/26

vn 1 3.92703e-028 -9.00403e-014
v 11 79.5276 -31.4961
f 101/9/27 103/10/27 102/11/27

v 11 79.5276 -30.7461
f 103/10/27 101/9/27 104/12/27

vn 9.00403e-014 -2.07304e-015 1
f 101/13/28 99/14/28 104/15/28

f 99/14/28 101/13/28 97/16/28

vn -3.81535e-015 -1 -7.49352e-014
f 98/17/29 104/18/29 99/19/29

f 104/18/29 98/17/29 103/20/29

vn -9.00403e-014 2.07304e-015 -1
f 98/21/30 102/22/30 103/23/30

f 102/22/30 98/21/30 100/24/30

g Mesh14 sjs_ikea_solid14 sjs_ikea_billy_height_extension_1_1 Group1 Model

v 1.2566e-013 92.7551 -2.85327e-014
v 6.17634e-014 79.5276 -0.75
v 1.29213e-013 79.5276 -2.85327e-014
f 105/1/25 106/2/25 107/3/25

v 6.17634e-014 92.7551 -0.75
f 106/2/25 105/1/25 108/4/25

v 11 92.7551 -2.06501e-014
f 109/5/26 108/6/26 105/7/26

v 11 92.7551 -0.75
f 108/6/26 109/5/26 110/8/26

v 11 79.5276 -0.75
f 109/9/27 111/10/27 110/11/27

v 11 79.5276 -2.01716e-012
f 111/10/27 109/9/27 112/12/27

f 109/13/28 107/14/28 112/15/28

f 107/14/28 109/13/28 105/16/28

f 106/17/29 112/18/29 107/19/29

f 112/18/29 106/17/29 111/20/29

f 106/21/30 110/22/30 111/23/30

f 110/22/30 106/21/30 108/24/30

g Mesh15 sjs_ikea_solid15 sjs_ikea_billy_height_extension_1_1 Group1 Model

v 10.5 92.7551 -0.75
vn 1.11498e-014 -3.54886e-029 1
v 10.25 79.9321 -0.75
v 10.5 79.9321 -0.75
f 113/1/31 114/2/31 115/3/31

v 10.25 92.7551 -0.75
f 114/2/31 113/1/31 116/4/31

v 10.5 92.7551 -30.7461
vn 2.57664e-014 1 8.71102e-028
f 117/5/32 116/6/32 113/7/32

v 10.25 92.7551 -30.7461
f 116/6/32 117/5/32 118/8/32

vn -1.11498e-014 1.67661e-028 -1
v 10.25 79.9321 -30.7461
f 117/9/33 119/10/33 118/11/33

v 10.5 79.9321 -30.7461
f 119/10/33 117/9/33 120/12/33

vn 1 -6.02894e-015 -7.38001e-013
f 117/13/34 115/14/34 120/15/34

f 115/14/34 117/13/34 113/16/34

vn -2.57664e-014 -1 1.07323e-014
f 114/17/35 120/18/35 115/19/35

f 120/18/35 114/17/35 119/20/35

vn -1 6.02894e-015 7.38001e-013
f 114/21/36 118/22/36 119/23/36

f 118/22/36 114/21/36 116/24/36

g Mesh16 sjs_ikea_solid16 sjs_ikea_billy_height_extension_1_1 Group1 Model

v 10.25 92.7551 -30.7461
v 0.25 92.0051 -30.7461
v 0.25 92.7551 -30.7461
f 121/1/1 122/2/1 123/3/1

v 10.25 92.0051 -30.7461
f 122/2/1 121/1/1 124/4/1

v 10.25 92.7551 -0.75
f 125/5/2 124/6/2 121/7/2

v 10.25 92.0051 -0.75
f 124/6/2 125/5/2 126/8/2

v 0.25 92.0051 -0.75
f 125/9/3 127/10/3 126/11/3

v 0.25 92.7551 -0.75
f 127/10/3 125/9/3 128/12/3

f 125/13/4 123/14/4 128/15/4

f 123/14/4 125/13/4 121/16/4

f 122/17/5 128/18/5 123/19/5

f 128/18/5 122/17/5 127/20/5

f 122/21/6 126/22/6 127/23/6

f 126/22/6 122/21/6 124/24/6

