# Alias OBJ Model File
# Exported from SketchUp, (c) 2000-2006 Google, Inc.
# File units = inches

mtllib billy_bookcase_7_obj0_object.mtl

g Mesh1 sjs_ikea_solid1 sjs_ikea_billy_bookcase_5_1 Model

usemtl FrontColor
v 17.3914 53.7972 -31.6426
vt 0.75 79.5276
vn 2.3155e-013 3.30446e-014 -1
v 3.11581 53.0472 -31.6426
vt 1.98952e-012 4.26326e-014
v 3.11581 53.7972 -31.6426
vt 0.75 -2.10319e-045
f 1/1/1 2/2/1 3/3/1

v 17.3914 53.0472 -31.6426
vt 1.99663e-012 79.5276
f 2/2/1 1/1/1 4/4/1

v 17.3914 53.7972 -1.64656
vt 0.75 11
vn 1 -5.58367e-014 3.75223e-013
vt 1.00542e-012 0
vt 0.75 6.39488e-014
f 5/5/2 4/6/2 1/7/2

v 17.3914 53.0472 -1.64656
vt 9.98313e-013 11
f 4/6/2 5/5/2 6/8/2

vt -0.75 79.5276
vn -2.3155e-013 -3.30446e-014 1
v 3.11581 53.0472 -1.64656
vt -9.84102e-013 -2.4302e-026
vt -2.98073e-012 79.5276
f 5/9/3 7/10/3 6/11/3

v 3.11581 53.7972 -1.64656
vt -0.75 -2.84217e-014
f 7/10/3 5/9/3 8/12/3

vt 11 79.5276
vn 2.5316e-013 1 2.45722e-013
vt -8.07435e-017 9.34777e-015
vt 11 -1.90739e-014
f 5/13/4 3/14/4 8/15/4

vt -3.63346e-015 79.5276
f 3/14/4 5/13/4 1/16/4

vt -1.98952e-012 -2.70543e-029
vn -1 5.58367e-014 -3.84863e-013
vt -0.75 11
vt -0.75 6.75016e-014
f 2/17/5 8/18/5 3/19/5

vt 7.10543e-015 11
f 8/18/5 2/17/5 7/20/5

vt 1.79275e-025 4.26326e-014
vn -2.5316e-013 -1 -2.45722e-013
vt -11 79.5276
vt -11 1.22655e-026
f 2/21/6 6/22/6 7/23/6

vt 1.79915e-025 79.5276
f 6/22/6 2/21/6 4/24/6

g Mesh2 sjs_ikea_solid2 sjs_ikea_billy_bookcase_5_1 Model

v 17.3914 66.6624 -31.6426
v 3.11581 65.9124 -31.6426
v 3.11581 66.6624 -31.6426
f 9/1/1 10/2/1 11/3/1

v 17.3914 65.9124 -31.6426
f 10/2/1 9/1/1 12/4/1

v 17.3914 66.6624 -1.64656
f 13/5/2 12/6/2 9/7/2

v 17.3914 65.9124 -1.64656
f 12/6/2 13/5/2 14/8/2

v 3.11581 65.9124 -1.64656
f 13/9/3 15/10/3 14/11/3

v 3.11581 66.6624 -1.64656
f 15/10/3 13/9/3 16/12/3

f 13/13/4 11/14/4 16/15/4

f 11/14/4 13/13/4 9/16/4

f 10/17/5 16/18/5 11/19/5

f 16/18/5 10/17/5 15/20/5

f 10/21/6 14/22/6 15/23/6

f 14/22/6 10/21/6 12/24/6

g Mesh3 sjs_ikea_solid3 sjs_ikea_billy_bookcase_5_1 Model

v 17.3914 3.18198 -31.6426
v 3.11581 2.43198 -31.6426
v 3.11581 3.18198 -31.6426
f 17/1/1 18/2/1 19/3/1

v 17.3914 2.43198 -31.6426
f 18/2/1 17/1/1 20/4/1

v 17.3914 3.18198 -1.64656
f 21/5/2 20/6/2 17/7/2

v 17.3914 2.43198 -1.64656
f 20/6/2 21/5/2 22/8/2

v 3.11581 2.43198 -1.64656
f 21/9/3 23/10/3 22/11/3

v 3.11581 3.18198 -1.64656
f 23/10/3 21/9/3 24/12/3

f 21/13/4 19/14/4 24/15/4

f 19/14/4 21/13/4 17/16/4

f 18/17/5 24/18/5 19/19/5

f 24/18/5 18/17/5 23/20/5

f 18/21/6 22/22/6 23/23/6

f 22/22/6 18/21/6 20/24/6

g Mesh4 sjs_ikea_solid4 sjs_ikea_billy_bookcase_5_1 Model

v 17.3914 15.7653 -31.6426
v 3.11581 15.0153 -31.6426
v 3.11581 15.7653 -31.6426
f 25/1/1 26/2/1 27/3/1

v 17.3914 15.0153 -31.6426
f 26/2/1 25/1/1 28/4/1

v 17.3914 15.7653 -1.64656
f 29/5/2 28/6/2 25/7/2

v 17.3914 15.0153 -1.64656
f 28/6/2 29/5/2 30/8/2

v 3.11581 15.0153 -1.64656
f 29/9/3 31/10/3 30/11/3

v 3.11581 15.7653 -1.64656
f 31/10/3 29/9/3 32/12/3

f 29/13/4 27/14/4 32/15/4

f 27/14/4 29/13/4 25/16/4

f 26/17/5 32/18/5 27/19/5

f 32/18/5 26/17/5 31/20/5

f 26/21/6 30/22/6 31/23/6

f 30/22/6 26/21/6 28/24/6

g Mesh5 sjs_ikea_solid5 sjs_ikea_billy_bookcase_5_1 Model

v 3.51638 2.43198 -31.6426
vn 1.61861e-013 4.9207e-030 -1
v 4.26638 6.08176e-012 -31.6426
v 3.51638 6.08046e-012 -31.6426
f 33/1/7 34/2/7 35/3/7

v 4.26638 2.43198 -31.6426
f 34/2/7 33/1/7 36/4/7

v 3.51638 2.43198 -1.64656
vn -4.07571e-013 1 -2.00347e-025
f 37/5/8 36/6/8 33/7/8

v 4.26638 2.43198 -1.64656
f 36/6/8 37/5/8 38/8/8

vn -1.61861e-013 2.01468e-029 1
v 4.26638 6.08046e-012 -1.64656
f 37/9/9 39/10/9 38/11/9

v 3.51638 6.07959e-012 -1.64656
f 39/10/9 37/9/9 40/12/9

vn -1 -3.81145e-016 -2.43241e-013
f 37/13/10 35/14/10 40/15/10

f 35/14/10 37/13/10 33/16/10

vn 4.07571e-013 -1 -5.6588e-014
f 34/17/11 40/18/11 35/19/11

f 40/18/11 34/17/11 39/20/11

vn 1 3.81145e-016 2.43241e-013
f 34/21/12 38/22/12 39/23/12

f 38/22/12 34/21/12 36/24/12

g Mesh6 sjs_ikea_solid6 sjs_ikea_billy_bookcase_5_1 Model

v 2.76638 79.5276 -0.896564
vn -1 1.86358e-029 -4.47307e-014
v 2.76638 1.49205e-013 -1.64656
v 2.76638 1.06572e-013 -0.896564
f 41/1/13 42/2/13 43/3/13

v 2.76638 79.5276 -1.64656
f 42/2/13 41/1/13 44/4/13

v 18.1414 79.5276 -0.896564
vn -1.34339e-027 1 1.24637e-014
f 45/5/14 44/6/14 41/7/14

v 18.1414 79.5276 -1.64656
f 44/6/14 45/5/14 46/8/14

vn 1 1.58061e-027 4.47307e-014
v 18.1414 1.06572e-013 -1.64656
f 45/9/15 47/10/15 46/11/15

v 18.1414 7.81502e-014 -0.896564
f 47/10/15 45/9/15 48/12/15

vn 1.67494e-014 -1.24637e-014 1
f 45/13/16 43/14/16 48/15/16

f 43/14/16 45/13/16 41/16/16

vn -8.86988e-016 -1 -1.24637e-014
f 42/17/17 48/18/17 43/19/17

f 48/18/17 42/17/17 47/20/17

vn -1.67494e-014 1.24637e-014 -1
f 42/21/18 46/22/18 47/23/18

f 46/22/18 42/21/18 44/24/18

g Mesh7 sjs_ikea_solid7 sjs_ikea_billy_bookcase_5_1 Model

v 2.76638 79.5276 -31.6426
v 2.76638 1.63415e-013 -32.3926
v 2.76638 1.20783e-013 -31.6426
f 49/1/13 50/2/13 51/3/13

v 2.76638 79.5276 -32.3926
f 50/2/13 49/1/13 52/4/13

v 18.1414 79.5276 -31.6426
f 53/5/14 52/6/14 49/7/14

v 18.1414 79.5276 -32.3926
f 52/6/14 53/5/14 54/8/14

v 18.1414 1.20783e-013 -32.3926
f 53/9/15 55/10/15 54/11/15

v 18.1414 9.23611e-014 -31.6426
f 55/10/15 53/9/15 56/12/15

f 53/13/16 51/14/16 56/15/16

f 51/14/16 53/13/16 49/16/16

f 50/17/17 56/18/17 51/19/17

f 56/18/17 50/17/17 55/20/17

f 50/21/18 54/22/18 55/23/18

f 54/22/18 50/21/18 52/24/18

g Mesh8 sjs_ikea_solid8 sjs_ikea_billy_bookcase_5_1 Model

v 17.3914 28.3487 -31.6426
v 3.11581 27.5987 -31.6426
v 3.11581 28.3487 -31.6426
f 57/1/1 58/2/1 59/3/1

v 17.3914 27.5987 -31.6426
f 58/2/1 57/1/1 60/4/1

v 17.3914 28.3487 -1.64656
f 61/5/2 60/6/2 57/7/2

v 17.3914 27.5987 -1.64656
f 60/6/2 61/5/2 62/8/2

v 3.11581 27.5987 -1.64656
f 61/9/3 63/10/3 62/11/3

v 3.11581 28.3487 -1.64656
f 63/10/3 61/9/3 64/12/3

f 61/13/4 59/14/4 64/15/4

f 59/14/4 61/13/4 57/16/4

f 58/17/5 64/18/5 59/19/5

f 64/18/5 58/17/5 63/20/5

f 58/21/6 62/22/6 63/23/6

f 62/22/6 58/21/6 60/24/6

g Mesh9 sjs_ikea_solid9 sjs_ikea_billy_bookcase_5_1 Model

v 17.3914 40.932 -31.6426
v 3.11581 40.182 -31.6426
v 3.11581 40.932 -31.6426
f 65/1/1 66/2/1 67/3/1

v 17.3914 40.182 -31.6426
f 66/2/1 65/1/1 68/4/1

v 17.3914 40.932 -1.64656
f 69/5/2 68/6/2 65/7/2

v 17.3914 40.182 -1.64656
f 68/6/2 69/5/2 70/8/2

v 3.11581 40.182 -1.64656
f 69/9/3 71/10/3 70/11/3

v 3.11581 40.932 -1.64656
f 71/10/3 69/9/3 72/12/3

f 69/13/4 67/14/4 72/15/4

f 67/14/4 69/13/4 65/16/4

f 66/17/5 72/18/5 67/19/5

f 72/18/5 66/17/5 71/20/5

f 66/21/6 70/22/6 71/23/6

f 70/22/6 66/21/6 68/24/6

g Mesh10 sjs_ikea_solid10 sjs_ikea_billy_bookcase_5_1 Model

v 16.8914 2.43198 -31.6426
v 17.6414 1.3985e-013 -31.6426
v 16.8914 1.38546e-013 -31.6426
f 73/1/7 74/2/7 75/3/7

v 17.6414 2.43198 -31.6426
f 74/2/7 73/1/7 76/4/7

v 16.8914 2.43198 -1.64656
f 77/5/8 76/6/8 73/7/8

v 17.6414 2.43198 -1.64656
f 76/6/8 77/5/8 78/8/8

v 17.6414 1.38546e-013 -1.64656
f 77/9/9 79/10/9 78/11/9

v 16.8914 1.37677e-013 -1.64656
f 79/10/9 77/9/9 80/12/9

f 77/13/10 75/14/10 80/15/10

f 75/14/10 77/13/10 73/16/10

f 74/17/11 80/18/11 75/19/11

f 80/18/11 74/17/11 79/20/11

f 74/21/12 78/22/12 79/23/12

f 78/22/12 74/21/12 76/24/12

g Mesh11 sjs_ikea_solid11 sjs_ikea_billy_bookcase_5_1 Model

v 17.3914 79.5276 -31.6426
v 3.11581 78.7776 -31.6426
v 3.11581 79.5276 -31.6426
f 81/1/1 82/2/1 83/3/1

v 17.3914 78.7776 -31.6426
f 82/2/1 81/1/1 84/4/1

v 17.3914 79.5276 -1.64656
f 85/5/2 84/6/2 81/7/2

v 17.3914 78.7776 -1.64656
f 84/6/2 85/5/2 86/8/2

v 3.11581 78.7776 -1.64656
f 85/9/3 87/10/3 86/11/3

v 3.11581 79.5276 -1.64656
f 87/10/3 85/9/3 88/12/3

f 85/13/4 83/14/4 88/15/4

f 83/14/4 85/13/4 81/16/4

f 82/17/5 88/18/5 83/19/5

f 88/18/5 82/17/5 87/20/5

f 82/21/6 86/22/6 87/23/6

f 86/22/6 82/21/6 84/24/6

g Mesh12 sjs_ikea_solid12 sjs_ikea_billy_bookcase_5_1 Model

v 17.6414 79.5276 -1.64656
vn -9.79802e-014 9.26e-030 1
v 17.3914 2.43198 -1.64656
v 17.6414 2.43198 -1.64656
f 89/1/19 90/2/19 91/3/19

v 17.3914 79.5276 -1.64656
f 90/2/19 89/1/19 92/4/19

v 17.6414 79.5276 -31.6426
vn 4.28562e-015 1 6.12577e-028
f 93/5/20 92/6/20 89/7/20

v 17.3914 79.5276 -31.6426
f 92/6/20 93/5/20 94/8/20

vn 9.79802e-014 7.85396e-028 -1
v 17.3914 2.43198 -31.6426
f 93/9/21 95/10/21 94/11/21

v 17.6414 2.43198 -31.6426
f 95/10/21 93/9/21 96/12/21

vn 1 -3.62476e-014 -6.28871e-013
f 93/13/22 91/14/22 96/15/22

f 91/14/22 93/13/22 89/16/22

vn -4.28562e-015 -1 1.78507e-015
f 90/17/23 96/18/23 91/19/23

f 96/18/23 90/17/23 95/20/23

vn -1 3.62476e-014 6.28871e-013
f 90/21/24 94/22/24 95/23/24

f 94/22/24 90/21/24 92/24/24

g Mesh13 sjs_ikea_billy_olsbo_1_1 Model

v 2.76638 1.73311 -16.6466
vt 0 3.55271e-015
vn 1 -5.75768e-015 1.25375e-013
v 2.76638 3.35811 -15.0216
vt -1.625 1.625
v 2.76638 3.35811 -2.52156
vt -14.125 1.625
f 97/25/25 98/26/25 99/27/25

v 2.76638 79.5276 -16.6466
vt 0 77.7944
f 98/26/25 97/25/25 100/28/25

v 2.14138 1.73311 -16.6466
vt 0.625 3.55271e-015
vn 1.25375e-013 -9.90973e-014 -1
f 101/29/26 100/28/26 97/25/26

v 2.14138 79.5276 -16.6466
vt 0.625 77.7944
f 100/28/26 101/29/26 102/30/26

vn -1 5.75768e-015 -1.25375e-013
v 2.14138 3.35811 -15.0216
vt 1.625 1.625
f 101/25/27 103/31/27 102/28/27

v 2.14138 3.35811 -2.52156
vt 14.125 1.625
f 103/31/27 101/25/27 104/32/27

v 2.14138 1.73311 -0.896564
vt 15.75 0
f 105/33/27 104/32/27 101/25/27

v 2.14138 79.5276 -0.896564
vt 15.75 77.7944
f 104/32/27 105/33/27 106/34/27

v 2.76638 1.73311 -0.896564
vt 0 0
vn -1.25375e-013 9.90973e-014 1
vt -0.625 77.7944
vt -0.625 0
f 107/35/28 106/36/28 105/37/28

v 2.76638 79.5276 -0.896564
f 106/36/28 107/35/28 108/28/28

vt -15.75 0
vt -15.75 77.7944
f 107/38/25 99/27/25 108/39/25

f 99/27/25 107/38/25 97/25/25

vn -5.75768e-015 -1 9.88717e-014
vt 8.01483e-031 -0.625
vt 8.01483e-031 0
f 107/38/29 101/40/29 97/41/29

vt -15.75 -0.625
f 101/40/29 107/38/29 105/42/29

v 2.76638 39.8178 -2.52156
vt -14.125 38.0847
f 108/39/25 99/27/25 109/43/25

vt 0.625 1.625
vt -1.42109e-014 38.0847
vt -1.42109e-014 1.625
f 104/44/26 109/45/26 99/46/26

v 2.14138 39.8178 -2.52156
vt 0.625 38.0847
f 109/45/26 104/44/26 110/47/26

vt 14.125 38.0847
f 104/32/27 106/34/27 110/48/27

v 2.14138 41.4428 -2.52156
vt 14.125 39.7097
f 110/48/27 106/34/27 111/49/27

v 2.14138 77.9026 -2.52156
vt 14.125 76.1694
f 111/49/27 106/34/27 112/50/27

v 2.14138 77.9026 -15.0216
vt 1.625 76.1694
f 112/50/27 106/34/27 113/51/27

f 102/28/27 113/51/27 106/34/27

v 2.14138 41.4428 -15.0216
vt 1.625 39.7097
f 102/28/27 114/52/27 113/51/27

v 2.14138 39.8178 -15.0216
vt 1.625 38.0847
f 102/28/27 115/53/27 114/52/27

f 102/28/27 103/31/27 115/53/27

vt 1.42109e-014 1.625
vt -0.625 38.0847
vt -0.625 1.625
f 98/54/28 115/55/28 103/56/28

v 2.76638 39.8178 -15.0216
vt 1.42109e-014 38.0847
f 115/55/28 98/54/28 116/57/28

vt -1.625 38.0847
f 98/26/25 100/28/25 116/58/25

v 2.76638 41.4428 -15.0216
vt -1.625 39.7097
f 116/58/25 100/28/25 117/59/25

v 2.76638 77.9026 -15.0216
vt -1.625 76.1694
f 117/59/25 100/28/25 118/60/25

v 2.76638 77.9026 -2.52156
vt -14.125 76.1694
f 118/60/25 100/28/25 119/61/25

f 108/39/25 119/61/25 100/28/25

v 2.76638 41.4428 -2.52156
vt -14.125 39.7097
f 108/39/25 120/62/25 119/61/25

f 108/39/25 109/43/25 120/62/25

f 120/62/25 109/43/25 117/59/25

f 116/58/25 117/59/25 109/43/25

vt -14.125 1.42109e-014
vn -5.75768e-015 -1 9.90973e-014
vt -1.625 -0.625
vt -1.625 1.42109e-014
f 109/63/30 115/64/30 116/65/30

vt -14.125 -0.625
f 115/64/30 109/63/30 110/66/30

f 110/48/27 111/49/27 115/53/27

f 114/52/27 115/53/27 111/49/27

vt 14.125 -0.625
vn 5.75768e-015 1 -9.90973e-014
vt 1.625 1.42109e-014
vt 1.625 -0.625
f 111/67/31 117/68/31 114/69/31

vt 14.125 1.42109e-014
f 117/68/31 111/67/31 120/70/31

vt 0.625 39.7097
vt -1.42109e-014 76.1694
vt -1.42109e-014 39.7097
f 111/71/26 119/72/26 120/73/26

vt 0.625 76.1694
f 119/72/26 111/71/26 112/74/26

f 113/64/30 119/63/30 112/66/30

f 119/63/30 113/64/30 118/65/30

vt -0.625 76.1694
vt 1.42109e-014 39.7097
vt 1.42109e-014 76.1694
f 113/75/28 117/76/28 118/77/28

vt -0.625 39.7097
f 117/76/28 113/75/28 114/78/28

usemtl Translucent_Glass_Gray
f 118/60/25 120/62/25 117/59/25

f 120/62/25 118/60/25 119/61/25

f 109/43/25 98/26/25 116/58/25

f 98/26/25 109/43/25 99/27/25

usemtl FrontColor
vn 5.75768e-015 1 -9.88841e-014
f 98/68/32 104/67/32 99/70/32

f 104/67/32 98/68/32 103/69/32

vt 15.75 -0.625
f 100/35/31 106/79/31 108/33/31

vt 0 -0.625
f 106/79/31 100/35/31 102/80/31

g Mesh14 sjs_ikea_billy_olsbo_1_2 Model

v 2.76638 1.73311 -32.3926
v 2.76638 3.35811 -30.7676
v 2.76638 3.35811 -18.2676
f 121/25/25 122/26/25 123/27/25

v 2.76638 79.5276 -32.3926
f 122/26/25 121/25/25 124/28/25

v 2.14138 1.73311 -32.3926
f 125/29/26 124/28/26 121/25/26

v 2.14138 79.5276 -32.3926
f 124/28/26 125/29/26 126/30/26

v 2.14138 3.35811 -30.7676
f 125/25/27 127/31/27 126/28/27

v 2.14138 3.35811 -18.2676
f 127/31/27 125/25/27 128/32/27

v 2.14138 1.73311 -16.6426
f 129/33/27 128/32/27 125/25/27

v 2.14138 79.5276 -16.6426
f 128/32/27 129/33/27 130/34/27

v 2.76638 1.73311 -16.6426
f 131/35/28 130/36/28 129/37/28

v 2.76638 79.5276 -16.6426
f 130/36/28 131/35/28 132/28/28

f 131/38/25 123/27/25 132/39/25

f 123/27/25 131/38/25 121/25/25

f 131/38/29 125/40/29 121/41/29

f 125/40/29 131/38/29 129/42/29

v 2.76638 39.8178 -18.2676
f 132/39/25 123/27/25 133/43/25

f 128/44/26 133/45/26 123/46/26

v 2.14138 39.8178 -18.2676
f 133/45/26 128/44/26 134/47/26

f 128/32/27 130/34/27 134/48/27

v 2.14138 41.4428 -18.2676
f 134/48/27 130/34/27 135/49/27

v 2.14138 77.9026 -18.2676
f 135/49/27 130/34/27 136/50/27

v 2.14138 77.9026 -30.7676
f 136/50/27 130/34/27 137/51/27

f 126/28/27 137/51/27 130/34/27

v 2.14138 41.4428 -30.7676
f 126/28/27 138/52/27 137/51/27

v 2.14138 39.8178 -30.7676
f 126/28/27 139/53/27 138/52/27

f 126/28/27 127/31/27 139/53/27

f 122/54/28 139/55/28 127/56/28

v 2.76638 39.8178 -30.7676
f 139/55/28 122/54/28 140/57/28

f 122/26/25 124/28/25 140/58/25

v 2.76638 41.4428 -30.7676
f 140/58/25 124/28/25 141/59/25

v 2.76638 77.9026 -30.7676
f 141/59/25 124/28/25 142/60/25

v 2.76638 77.9026 -18.2676
f 142/60/25 124/28/25 143/61/25

f 132/39/25 143/61/25 124/28/25

v 2.76638 41.4428 -18.2676
f 132/39/25 144/62/25 143/61/25

f 132/39/25 133/43/25 144/62/25

f 144/62/25 133/43/25 141/59/25

f 140/58/25 141/59/25 133/43/25

f 133/63/30 139/64/30 140/65/30

f 139/64/30 133/63/30 134/66/30

f 134/48/27 135/49/27 139/53/27

f 138/52/27 139/53/27 135/49/27

f 135/67/31 141/68/31 138/69/31

f 141/68/31 135/67/31 144/70/31

f 135/71/26 143/72/26 144/73/26

f 143/72/26 135/71/26 136/74/26

f 137/64/30 143/63/30 136/66/30

f 143/63/30 137/64/30 142/65/30

f 137/75/28 141/76/28 142/77/28

f 141/76/28 137/75/28 138/78/28

usemtl Translucent_Glass_Gray
f 142/60/25 144/62/25 141/59/25

f 144/62/25 142/60/25 143/61/25

f 133/43/25 122/26/25 140/58/25

f 122/26/25 133/43/25 123/27/25

usemtl FrontColor
f 122/68/32 128/67/32 123/70/32

f 128/67/32 122/68/32 127/69/32

f 124/35/31 130/79/31 132/33/31

f 130/79/31 124/35/31 126/80/31

