# Alias OBJ Model File
# Exported from SketchUp, (c) 2000-2006 Google, Inc.
# File units = inches

mtllib 3a84dd5330a903d88f9bfe79e5eafb6d_obj0_object.mtl

g Mesh1 Model

usemtl FrontColor
v 39.25 0 -23.5
vt -39.25 23.5
vn 0 -1 -0
v 0 0 -1
vt 0 1
v 0 0 -23.5
vt 0 23.5
f 1/1/1 2/2/1 3/3/1

v 39.25 0 -1
vt -39.25 1
f 2/2/1 1/1/1 4/4/1

vt 23.5 0
vn 1 0 -0
v 39.25 2 -1
vt 1 2
vt 1 0
f 1/5/2 5/6/2 4/7/2

v 39.25 93.125 -23.5
vt 23.5 93.125
f 6/8/2 5/6/2 1/5/2

v 39.25 93.125 -0
vt 0 93.125
f 7/9/2 5/6/2 6/8/2

v 39.25 2 -0
vt 0 2
f 5/6/2 7/9/2 8/10/2

v 37.25 4 -0
vt 37.25 4
vn 0 0 1
vt 39.25 2
vt 39.25 93.125
f 9/11/3 8/12/3 7/13/3

v 19.625 2 -0
vt 19.625 2
f 8/12/3 9/11/3 10/14/3

v 21.625 4 -0
vt 21.625 4
f 11/15/3 10/14/3 9/11/3

v 19.625 93.125 -0
vt 19.625 93.125
f 10/14/3 11/15/3 12/16/3

v 21.625 20 -0
vt 21.625 20
f 12/16/3 11/15/3 13/17/3

usemtl Color_002
v 37.25 20 -0
vt 37.25 20
f 11/15/3 14/18/3 13/17/3

f 14/18/3 11/15/3 9/11/3

usemtl FrontColor
f 9/11/3 7/13/3 14/18/3

v 37.25 22 -0
vt 37.25 22
f 14/18/3 7/13/3 15/19/3

v 37.25 38 -0
vt 37.25 38
f 15/19/3 7/13/3 16/20/3

v 37.25 40 -0
vt 37.25 40
f 16/20/3 7/13/3 17/21/3

v 37.25 56 -0
vt 37.25 56
f 17/21/3 7/13/3 18/22/3

v 37.25 58 -0
vt 37.25 58
f 18/22/3 7/13/3 19/23/3

v 37.25 74 -0
vt 37.25 74
f 19/23/3 7/13/3 20/24/3

v 37.25 76 -0
vt 37.25 76
f 20/24/3 7/13/3 21/25/3

v 37.25 91.125 -0
vt 37.25 91.125
f 21/25/3 7/13/3 22/26/3

v 21.625 91.125 -0
vt 21.625 91.125
f 22/26/3 7/13/3 23/27/3

f 12/16/3 23/27/3 7/13/3

v 21.625 76 -0
vt 21.625 76
f 12/16/3 24/28/3 23/27/3

v 21.625 74 -0
vt 21.625 74
f 12/16/3 25/29/3 24/28/3

v 21.625 58 -0
vt 21.625 58
f 12/16/3 26/30/3 25/29/3

v 21.625 56 -0
vt 21.625 56
f 12/16/3 27/31/3 26/30/3

v 21.625 40 -0
vt 21.625 40
f 12/16/3 28/32/3 27/31/3

v 21.625 38 -0
vt 21.625 38
f 12/16/3 29/33/3 28/32/3

v 21.625 22 -0
vt 21.625 22
f 12/16/3 30/34/3 29/33/3

f 12/16/3 13/17/3 30/34/3

f 30/34/3 13/17/3 15/19/3

f 14/18/3 15/19/3 13/17/3

usemtl Color_002
f 16/20/3 30/34/3 15/19/3

f 30/34/3 16/20/3 29/33/3

usemtl FrontColor
f 16/20/3 17/21/3 29/33/3

f 28/32/3 29/33/3 17/21/3

usemtl Color_002
f 18/22/3 28/32/3 17/21/3

f 28/32/3 18/22/3 27/31/3

usemtl FrontColor
f 18/22/3 19/23/3 27/31/3

f 26/30/3 27/31/3 19/23/3

usemtl Color_002
f 20/24/3 26/30/3 19/23/3

f 26/30/3 20/24/3 25/29/3

usemtl FrontColor
f 20/24/3 21/25/3 25/29/3

f 24/28/3 25/29/3 21/25/3

usemtl Color_002
f 22/26/3 24/28/3 21/25/3

f 24/28/3 22/26/3 23/27/3

usemtl Color_000
vt 39.25 23.5
vn 0 1 -0
vt 19.625 0
vt 39.25 0
f 6/35/4 12/36/4 7/37/4

v 0 93.125 -23.5
f 31/3/4 12/36/4 6/35/4

v 0 93.125 -0
vt 0 0
f 12/36/4 31/3/4 32/38/4

usemtl FrontColor
vt -23.5 93.125
vn -1 0 -0
v 0 2 -0
f 31/39/5 33/10/5 32/9/5

v 0 2 -1
vt -1 2
f 33/10/5 31/39/5 34/40/5

vt -1 0
f 34/40/5 31/39/5 2/41/5

vt -23.5 0
f 2/41/5 31/39/5 3/42/5

usemtl Color_000
vn 0 0 -1
vt -39.25 0
f 31/9/6 1/43/6 3/38/6

vt -39.25 93.125
f 1/43/6 31/9/6 6/44/6

usemtl FrontColor
f 2/38/3 5/12/3 34/10/3

f 5/12/3 2/38/3 4/37/3

f 5/4/1 33/38/1 34/2/1

vt -19.625 0
f 33/38/1 5/4/1 10/45/1

f 10/45/1 5/4/1 8/43/1

v 17.625 4 -0
vt 17.625 4
f 10/14/3 35/46/3 33/10/3

f 35/46/3 10/14/3 12/16/3

v 17.625 20 -0
vt 17.625 20
f 35/46/3 12/16/3 36/47/3

v 17.625 22 -0
vt 17.625 22
f 36/47/3 12/16/3 37/48/3

v 17.625 38 -0
vt 17.625 38
f 37/48/3 12/16/3 38/49/3

v 17.625 40 -0
vt 17.625 40
f 38/49/3 12/16/3 39/50/3

v 17.625 56 -0
vt 17.625 56
f 39/50/3 12/16/3 40/51/3

v 17.625 58 -0
vt 17.625 58
f 40/51/3 12/16/3 41/52/3

v 17.625 74 -0
vt 17.625 74
f 41/52/3 12/16/3 42/53/3

v 17.625 76 -0
vt 17.625 76
f 42/53/3 12/16/3 43/54/3

v 17.625 91.125 -0
vt 17.625 91.125
f 43/54/3 12/16/3 44/55/3

v 2 91.125 -0
vt 2 91.125
f 44/55/3 12/16/3 45/56/3

f 32/9/3 45/56/3 12/16/3

v 2 76 -0
vt 2 76
f 32/9/3 46/57/3 45/56/3

v 2 74 -0
vt 2 74
f 32/9/3 47/58/3 46/57/3

v 2 58 -0
vt 2 58
f 32/9/3 48/59/3 47/58/3

v 2 56 -0
vt 2 56
f 32/9/3 49/60/3 48/59/3

v 2 40 -0
vt 2 40
f 32/9/3 50/61/3 49/60/3

v 2 38 -0
vt 2 38
f 32/9/3 51/62/3 50/61/3

v 2 22 -0
vt 2 22
f 32/9/3 52/63/3 51/62/3

v 2 20 -0
vt 2 20
f 32/9/3 53/64/3 52/63/3

v 2 4 -0
vt 2 4
f 32/9/3 54/65/3 53/64/3

f 33/10/3 54/65/3 32/9/3

f 54/65/3 33/10/3 35/46/3

usemtl Color_002
f 36/47/3 54/65/3 35/46/3

f 54/65/3 36/47/3 53/64/3

usemtl FrontColor
f 36/47/3 37/48/3 53/64/3

f 52/63/3 53/64/3 37/48/3

usemtl Color_002
f 38/49/3 52/63/3 37/48/3

f 52/63/3 38/49/3 51/62/3

usemtl FrontColor
f 38/49/3 39/50/3 51/62/3

f 50/61/3 51/62/3 39/50/3

usemtl Color_002
f 40/51/3 50/61/3 39/50/3

f 50/61/3 40/51/3 49/60/3

usemtl FrontColor
f 40/51/3 41/52/3 49/60/3

f 48/59/3 49/60/3 41/52/3

usemtl Color_002
f 42/53/3 48/59/3 41/52/3

f 48/59/3 42/53/3 47/58/3

usemtl FrontColor
f 42/53/3 43/54/3 47/58/3

f 46/57/3 47/58/3 43/54/3

usemtl Color_002
f 44/55/3 46/57/3 43/54/3

f 46/57/3 44/55/3 45/56/3

