# Alias OBJ Model File
# Exported from SketchUp, (c) 2000-2006 Google, Inc.
# File units = inches

mtllib 700ea6f4c8639e8e40e18b0142f8d004_obj0_object.mtl

g Mesh1 Component_1_1 Model

usemtl Wood_Bamboo_Light
v 0.5 14.75 -11.75
vt -0.244792 0.307292
vn -1 0 -0
v 0.5 14.25 -0
vt 0 0.296875
v 0.5 14.75 -0
vt 0 0.307292
f 1/1/1 2/2/1 3/3/1

v 0.5 14.25 -11.75
vt -0.244792 0.296875
f 2/2/1 1/1/1 4/4/1

vt -0.0104167 0.307292
vn 0 0 -1
v 20 14.25 -11.75
vt -0.416667 0.296875
vt -0.0104167 0.296875
f 1/5/2 5/6/2 4/7/2

v 20 14.75 -11.75
vt -0.416667 0.307292
f 5/6/2 1/5/2 6/8/2

vt 0.0104167 0.244792
vn 0 1 -0
v 20 14.75 -0
vt 0.416667 0
vt 0.416667 0.244792
f 1/9/3 7/10/3 6/11/3

vt 0.0104167 0
f 7/10/3 1/9/3 3/12/3

vt 0.0104167 0.296875
vn 0 0 1
vt 0.416667 0.307292
vt 0.0104167 0.307292
f 2/13/4 7/14/4 3/15/4

v 20 14.25 -0
vt 0.416667 0.296875
f 7/14/4 2/13/4 8/16/4

vt -0.0104167 0
vn 0 -1 -0
vt -0.416667 0.244792
vt -0.416667 0
f 2/17/5 5/18/5 8/19/5

vt -0.0104167 0.244792
f 5/18/5 2/17/5 4/20/5

vn 1 0 -0
v 0.5 4.09705 -11.75
vt 0.244792 0.0853552
vt 0.244792 0.296875
f 2/2/6 9/21/6 4/22/6

v 0.5 4.09705 -0
vt 0 0.0853552
f 9/21/6 2/2/6 10/23/6

v 0 15.75 -0
vt 0 0.328125
vt 0.0104167 0.0853552
f 11/24/4 10/25/4 2/13/4

v 0.5 3.59705 -0
vt 0.0104167 0.0749385
f 11/24/4 12/26/4 10/25/4

v 0 0 -0
vt 0 0
f 13/27/4 12/26/4 11/24/4

v 0.5 0 -0
f 12/26/4 13/27/4 14/12/4

v 0.5 0 -11.75
f 13/27/5 15/20/5 14/17/5

v 0 0 -11.75
vt 0 0.244792
f 15/20/5 13/27/5 16/28/5

v 0 15.75 -11.75
vt -0.244792 0.328125
vt -0.244792 0
f 13/27/1 17/29/1 16/30/1

f 17/29/1 13/27/1 11/24/1

v 0.5 15.75 -0
f 18/12/3 17/28/3 11/27/3

v 0.5 15.75 -11.75
f 17/28/3 18/12/3 19/9/3

vt 0.244792 0.328125
f 18/24/6 4/22/6 19/31/6

f 3/3/6 4/22/6 18/24/6

f 4/22/6 3/3/6 2/2/6

f 11/24/4 2/13/4 3/15/4

vt 0.0104167 0.328125
f 11/24/4 3/15/4 18/32/4

vt 0.244792 0.307292
f 19/31/6 4/22/6 1/33/6

f 4/7/2 17/24/2 1/5/2

vt -0.0104167 0.0853552
f 9/34/2 17/24/2 4/7/2

v 0.5 3.59705 -11.75
vt -0.0104167 0.0749385
f 20/35/2 17/24/2 9/34/2

f 15/17/2 17/24/2 20/35/2

f 17/24/2 15/17/2 16/27/2

vt 0 0.0749385
vt 0.244792 0
vt 0.244792 0.0749385
f 12/36/6 15/37/6 20/38/6

f 15/37/6 12/36/6 14/27/6

v 20 3.59705 -11.75
f 21/18/5 12/17/5 20/20/5

v 20 3.59705 -0
f 12/17/5 21/18/5 22/19/5

v 20 4.09705 -11.75
vt -0.244792 0.0853552
vt -0.244792 0.0749385
f 22/36/1 23/39/1 21/40/1

v 20 4.09705 -0
f 23/39/1 22/36/1 24/23/1

vt 0.416667 0.0749385
v 20.5 15.75 -0
vt 0.427083 0.328125
vt 0.416667 0.0853552
f 22/41/4 25/42/4 24/43/4

v 20 0 -0
f 26/10/4 25/42/4 22/41/4

v 20.5 0 -0
vt 0.427083 0
f 25/42/4 26/10/4 27/44/4

v 20.5 0 -11.75
vt -0.427083 0.244792
vt -0.427083 0
f 26/19/5 28/45/5 27/46/5

v 20 0 -11.75
f 28/45/5 26/19/5 29/18/5

f 26/27/1 21/40/1 29/30/1

f 21/40/1 26/27/1 22/36/1

vt -0.416667 0.0749385
f 21/47/2 28/46/2 29/19/2

v 20.5 15.75 -11.75
vt -0.427083 0.328125
f 28/46/2 21/47/2 30/48/2

vt -0.416667 0.0853552
f 30/48/2 21/47/2 23/49/2

f 21/47/2 9/34/2 23/49/2

f 9/34/2 21/47/2 20/35/2

f 10/23/6 20/38/6 9/21/6

f 20/38/6 10/23/6 12/36/6

f 12/26/4 24/43/4 10/25/4

f 24/43/4 12/26/4 22/41/4

f 24/10/3 9/9/3 10/12/3

f 9/9/3 24/10/3 23/11/3

f 24/23/1 5/4/1 23/39/1

f 5/4/1 24/23/1 8/2/1

f 24/43/4 25/42/4 8/16/4

f 8/16/4 25/42/4 7/14/4

v 20 15.75 -0
vt 0.416667 0.328125
f 7/14/4 25/42/4 31/50/4

v 20 15.75 -11.75
f 25/44/3 32/11/3 31/10/3

vt 0.427083 0.244792
f 32/11/3 25/44/3 30/51/3

f 25/24/6 28/37/6 30/31/6

f 28/37/6 25/24/6 27/27/6

vt -0.416667 0.328125
f 30/48/2 6/8/2 32/52/2

f 30/48/2 5/6/2 6/8/2

f 30/48/2 23/49/2 5/6/2

f 5/4/1 32/29/1 6/1/1

f 8/2/1 32/29/1 5/4/1

f 7/3/1 32/29/1 8/2/1

f 32/29/1 7/3/1 31/24/1

f 5/22/6 7/3/6 8/2/6

f 7/3/6 5/22/6 6/33/6

vt -0.0104167 0.328125
f 1/5/2 17/24/2 19/53/2

