# Alias OBJ Model File
# Exported from SketchUp, (c) 2000-2006 Google, Inc.
# File units = inches

mtllib f45535dcbc2cd7be544e2c39d2bb6399_obj0_object.mtl

g Mesh1 Model

usemtl wood_2
v 31.875 29.125 21.5
vt 0.809625 -0.5461
vn 0 1 -0
v 0 29.125 -0
vt 0 0
v 0 29.125 21.5
vt 0 -0.5461
f 1/1/1 2/2/1 3/3/1

v 31.875 29.125 -0
vt 0.809625 0
f 2/2/1 1/1/1 4/4/1

usemtl wood_pine_lt
vt -2.6875 3.64063
vn 1 0 -0
v 31.875 28.1875 0.814545
vt -0.101818 3.52344
vt 0 3.64063
f 1/5/2 5/6/2 4/7/2

v 31.875 28.1875 21.5
vt -2.6875 3.52344
f 5/6/2 1/5/2 6/8/2

vt 3.98438 3.64063
vn 0 0 1
v 0 28.1875 21.5
vt 0 3.52344
vt 3.98438 3.52344
f 1/9/3 7/10/3 6/11/3

f 7/10/3 1/9/3 3/7/3

vn -1 0 -0
vt 2.6875 3.52344
vt 2.6875 3.64063
f 2/7/4 7/12/4 3/13/4

v 0 28.1875 0.814545
vt 0.101818 3.52344
f 7/12/4 2/7/4 8/14/4

v 0 26.5 0.814545
vt 0.101818 3.3125
f 8/14/4 2/7/4 9/15/4

v 0 26.5 -0
vt 0 3.3125
f 9/15/4 2/7/4 10/16/4

vn 0 0 -1
v 14.9375 26.5 -0
vt -1.86719 3.3125
f 2/7/5 11/17/5 10/16/5

v 16.9375 26.5 -0
vt -2.11719 3.3125
f 11/17/5 2/7/5 12/18/5

v 31.875 26.5 -0
vt -3.98438 3.3125
f 12/18/5 2/7/5 13/19/5

vt -3.98438 3.64063
f 13/19/5 2/7/5 4/20/5

f 4/7/2 5/6/2 13/16/2

v 31.875 26.5 0.814545
vt -0.101818 3.3125
f 13/16/2 5/6/2 14/21/2

v 16.9375 26.5 0.814545
vt 2.11719 3.3125
vt 3.98438 3.3125
f 5/11/3 15/22/3 14/23/3

v 16.9375 28.1875 0.814545
vt 2.11719 3.52344
f 15/22/3 5/11/3 16/24/3

vt -3.98438 -0.101818
vn 0 -1 -0
v 16.9375 28.1875 16.8145
vt -2.11719 -2.10182
vt -2.11719 -0.101818
f 5/25/6 17/26/6 16/27/6

vt -3.98438 -2.6875
f 6/28/6 17/26/6 5/25/6

v 14.9375 28.1875 16.8145
vt -1.86719 -2.10182
f 6/28/6 18/29/6 17/26/6

vt 0 -2.6875
f 7/30/6 18/29/6 6/28/6

v 14.9375 28.1875 0.814545
vt -1.86719 -0.101818
f 7/30/6 19/31/6 18/29/6

vt 0 -0.101818
f 19/31/6 7/30/6 8/32/6

vt 1.86719 3.52344
f 9/16/3 19/33/3 8/10/3

v 14.9375 26.5 0.814545
vt 1.86719 3.3125
f 19/33/3 9/16/3 20/34/3

vt -1.86719 0
f 9/32/6 11/35/6 20/31/6

f 11/35/6 9/32/6 10/2/6

v 14.9375 14.7265 0.814545
vt 0.101818 1.84082
f 11/16/4 21/36/4 20/15/4

v 14.9375 12.1875 0.814545
vt 0.101818 1.52344
f 21/36/4 11/16/4 22/37/4

v 14.9375 12.1875 -0
vt 0 1.52344
f 22/37/4 11/16/4 23/38/4

v 16.9375 12.1875 -0
vt -2.11719 1.52344
vt -1.86719 1.52344
f 11/17/5 24/39/5 23/40/5

f 24/39/5 11/17/5 12/18/5

vt 1.86719 0
vt 2.11719 -0.101818
vt 2.11719 0
f 11/41/1 15/42/1 12/43/1

vt 1.86719 -0.101818
f 15/42/1 11/41/1 20/44/1

vt 1.86719 1.84082
f 21/45/3 15/22/3 20/34/3

v 16.9375 14.7265 0.814545
vt 2.11719 1.84082
f 15/22/3 21/45/3 25/46/3

vt 1.86719 1.52344
f 22/47/3 25/46/3 21/45/3

v 16.9375 12.1875 0.814545
vt 2.11719 1.52344
f 25/46/3 22/47/3 26/48/3

vt -2.11719 0
f 22/31/6 24/49/6 26/27/6

f 24/49/6 22/31/6 23/35/6

vt -0.101818 1.84082
vt -0.101818 1.52344
f 24/38/2 25/50/2 26/51/2

f 25/50/2 24/38/2 15/21/2

f 15/21/2 24/38/2 12/16/2

vt -3.98438 0
f 13/52/6 15/27/6 12/49/6

f 15/27/6 13/52/6 14/25/6

v 16.9375 26.5 14.1149
vt -1.76436 3.3125
f 27/53/2 26/51/2 25/50/2

v 16.9375 26.5 16.8145
vt -2.10182 3.3125
f 26/51/2 27/53/2 28/54/2

v 14.9375 26.5 16.8145
vt -2.11719 -1.76436
f 29/29/6 27/55/6 28/26/6

v 14.9375 26.5 14.1149
vt -1.86719 -1.76436
f 27/55/6 29/29/6 30/56/6

vt 2.10182 3.3125
vt 1.76436 3.3125
f 29/57/4 19/14/4 30/58/4

vt 2.10182 3.52344
f 19/14/4 29/57/4 18/59/4

f 29/34/3 17/24/3 18/33/3

f 17/24/3 29/34/3 28/22/3

vt 1.86719 3.775
vn 0 -0.745317 0.66671
vt 2.11719 1.09158
vt 2.11719 3.775
f 29/60/7 26/61/7 28/62/7

vt 1.86719 1.09158
f 26/61/7 29/60/7 22/63/7

f 30/58/4 22/37/4 29/57/4

f 22/37/4 30/58/4 21/36/4

vt -2.11719 3.51671
vn 0 0.74878 -0.662819
vt -1.86719 1.29637
vt -1.86719 3.51671
f 27/64/8 21/65/8 30/66/8

vt -2.11719 1.29637
f 21/65/8 27/64/8 25/67/8

f 30/56/6 15/27/6 27/55/6

f 15/27/6 30/56/6 20/31/6

f 30/58/4 19/14/4 20/15/4

f 16/6/2 27/53/2 15/21/2

vt -2.10182 3.52344
f 17/68/2 27/53/2 16/6/2

f 27/53/2 17/68/2 28/54/2

