# Alias OBJ Model File
# Exported from SketchUp, (c) 2000-2006 Google, Inc.
# File units = inches

mtllib billy_bookcase_6_obj0_object.mtl

g Mesh1 sjs_ikea_solid1 sjs_ikea_billy_wall_shelf1 Model

usemtl FrontColor
v 11 12.3632 -0.75
vt 0.75 79.5276
vn 7.58273e-015 -2.93827e-029 1
v 10.75 0.11322 -0.75
vt 1.98952e-012 4.26326e-014
v 11 0.11322 -0.75
vt 0.75 -2.10319e-045
f 1/1/1 2/2/1 3/3/1

v 10.75 12.3632 -0.75
vt 1.99663e-012 79.5276
f 2/2/1 1/1/1 4/4/1

v 11 12.3632 -46.5
vt 0.75 11
vn 2.69716e-014 1 9.89263e-028
vt 1.00542e-012 0
vt 0.75 6.39488e-014
f 5/5/2 4/6/2 1/7/2

v 10.75 12.3632 -46.5
vt 9.98313e-013 11
f 4/6/2 5/5/2 6/8/2

vt -0.75 79.5276
vn -7.58273e-015 1.12169e-028 -1
v 10.75 0.11322 -46.5
vt -9.84102e-013 -2.4302e-026
vt -2.98073e-012 79.5276
f 5/9/3 7/10/3 6/11/3

v 11 0.11322 -46.5
vt -0.75 -2.84217e-014
f 7/10/3 5/9/3 8/12/3

vt 11 79.5276
vn 1 -5.75952e-015 -1.12468e-012
vt -8.07435e-017 9.34777e-015
vt 11 -1.90739e-014
f 5/13/4 3/14/4 8/15/4

vt -3.63346e-015 79.5276
f 3/14/4 5/13/4 1/16/4

vt -1.98952e-012 -2.70543e-029
vn -2.69716e-014 -1 1.71347e-014
vt -0.75 11
vt -0.75 6.75016e-014
f 2/17/5 8/18/5 3/19/5

vt 7.10543e-015 11
f 8/18/5 2/17/5 7/20/5

vt 1.79275e-025 4.26326e-014
vn -1 5.75952e-015 1.12468e-012
vt -11 79.5276
vt -11 1.22655e-026
f 2/21/6 6/22/6 7/23/6

vt 1.79915e-025 79.5276
f 6/22/6 2/21/6 4/24/6

g Mesh2 sjs_ikea_solid2 sjs_ikea_billy_wall_shelf1 Model

v 6.06702e-014 13.1132 -1.43219e-014
vn -1 5.49907e-029 9.00403e-014
v -3.22659e-015 -0.63678 -0.75
v 6.42229e-014 -0.63678 -1.43219e-014
f 9/1/7 10/2/7 11/3/7

v -3.22659e-015 13.1132 -0.75
f 10/2/7 9/1/7 12/4/7

v 11 13.1132 -6.43929e-015
vn 6.8e-029 1 7.20878e-014
f 13/5/8 12/6/8 9/7/8

v 11 13.1132 -0.75
f 12/6/8 13/5/8 14/8/8

vn 1 3.31487e-028 -9.00403e-014
v 11 -0.63678 -0.75
f 13/9/9 15/10/9 14/11/9

v 11 -0.63678 -2.00295e-012
f 15/10/9 13/9/9 16/12/9

vn 9.00403e-014 -2.15492e-015 1
f 13/13/10 11/14/10 16/15/10

f 11/14/10 13/13/10 9/16/10

vn -3.67038e-015 -1 -7.20878e-014
f 10/17/11 16/18/11 11/19/11

f 16/18/11 10/17/11 15/20/11

vn -9.00403e-014 2.15492e-015 -1
f 10/21/12 14/22/12 15/23/12

f 14/22/12 10/21/12 12/24/12

g Mesh3 sjs_ikea_solid3 sjs_ikea_billy_wall_shelf1 Model

v 1.93613e-012 12.3632 -15.5
vn -1 2.99362e-029 9.21359e-014
v 1.87368e-012 0.11322 -16.25
v 1.9396e-012 0.11322 -15.5
f 17/1/13 18/2/13 19/3/13

v 1.87368e-012 12.3632 -16.25
f 18/2/13 17/1/13 20/4/13

v 10.75 12.3632 -15.5
vn -8.56934e-029 1 8.09149e-014
f 21/5/14 20/6/14 17/7/14

v 10.75 12.3632 -16.25
f 20/6/14 21/5/14 22/8/14

vn 1 3.22387e-028 -9.21359e-014
v 10.75 0.11322 -16.25
f 21/9/15 23/10/15 22/11/15

v 10.75 0.11322 -15.5
f 23/10/15 21/9/15 24/12/15

vn 8.79924e-014 -1.91984e-015 1
f 21/13/16 19/14/16 24/15/16

f 19/14/16 21/13/16 17/16/16

vn -4.02618e-015 -1 -8.09149e-014
f 18/17/17 24/18/17 19/19/17

f 24/18/17 18/17/17 23/20/17

vn -8.79924e-014 1.91984e-015 -1
f 18/21/18 22/22/18 23/23/18

f 22/22/18 18/21/18 20/24/18

g Mesh4 sjs_ikea_solid4 sjs_ikea_billy_wall_shelf1 Model

v 1.2074e-013 13.1132 -46.5
v 5.68434e-014 -0.63678 -47.25
v 1.24293e-013 -0.63678 -46.5
f 25/1/7 26/2/7 27/3/7

v 5.68434e-014 13.1132 -47.25
f 26/2/7 25/1/7 28/4/7

v 11 13.1132 -46.5
f 29/5/8 28/6/8 25/7/8

v 11 13.1132 -47.25
f 28/6/8 29/5/8 30/8/8

v 11 -0.63678 -47.25
f 29/9/9 31/10/9 30/11/9

v 11 -0.63678 -46.5
f 31/10/9 29/9/9 32/12/9

f 29/13/10 27/14/10 32/15/10

f 27/14/10 29/13/10 25/16/10

f 26/17/11 32/18/11 27/19/11

f 32/18/11 26/17/11 31/20/11

f 26/21/12 30/22/12 31/23/12

f 30/22/12 26/21/12 28/24/12

g Mesh5 sjs_ikea_solid5 sjs_ikea_billy_wall_shelf1 Model

v 1.9372e-012 12.3632 -31
v 1.87476e-012 0.11322 -31.75
v 1.94067e-012 0.11322 -31
f 33/1/13 34/2/13 35/3/13

v 1.87476e-012 12.3632 -31.75
f 34/2/13 33/1/13 36/4/13

v 10.75 12.3632 -31
f 37/5/14 36/6/14 33/7/14

v 10.75 12.3632 -31.75
f 36/6/14 37/5/14 38/8/14

v 10.75 0.11322 -31.75
f 37/9/15 39/10/15 38/11/15

v 10.75 0.11322 -31
f 39/10/15 37/9/15 40/12/15

f 37/13/16 35/14/16 40/15/16

f 35/14/16 37/13/16 33/16/16

f 34/17/17 40/18/17 35/19/17

f 40/18/17 34/17/17 39/20/17

f 34/21/18 38/22/18 39/23/18

f 38/22/18 34/21/18 36/24/18

g Mesh6 sjs_ikea_solid6 sjs_ikea_billy_wall_shelf1 Model

v 6.07223e-014 12.3632 -0.75
vn -1 -9.01097e-014 -6.93889e-017
v -5.20417e-017 13.1132 -46.5
v 6.74495e-014 12.3632 -46.5
f 41/1/19 42/2/19 43/3/19

v -3.22659e-015 13.1132 -0.75
f 42/2/19 41/1/19 44/4/19

v 11 12.3632 -0.75
vn -6.93889e-017 6.86042e-014 1
f 45/5/20 44/6/20 41/7/20

v 11 13.1132 -0.75
f 44/6/20 45/5/20 46/8/20

vn 1 9.01097e-014 6.93889e-017
v 11 13.1132 -46.5
f 45/9/21 47/10/21 46/11/21

v 11 12.3632 -46.5
f 47/10/21 45/9/21 48/12/21

vn 9.01097e-014 -1 8.32021e-014
f 45/13/22 43/14/22 48/15/22

f 43/14/22 45/13/22 41/16/22

vn -1.03373e-015 -6.86042e-014 -1
f 42/17/23 48/18/23 43/19/23

f 48/18/23 42/17/23 47/20/23

vn -9.01097e-014 1 -8.32021e-014
f 42/21/24 46/22/24 47/23/24

f 46/22/24 42/21/24 44/24/24

g Mesh7 sjs_ikea_solid7 sjs_ikea_billy_wall_shelf1 Model

v 6.07223e-014 -0.63678 -0.75
v -5.20417e-017 0.11322 -46.5
v 6.74495e-014 -0.63678 -46.5
f 49/1/19 50/2/19 51/3/19

v -3.22659e-015 0.11322 -0.75
f 50/2/19 49/1/19 52/4/19

v 11 -0.63678 -0.75
f 53/5/20 52/6/20 49/7/20

v 11 0.11322 -0.75
f 52/6/20 53/5/20 54/8/20

v 11 0.11322 -46.5
f 53/9/21 55/10/21 54/11/21

v 11 -0.63678 -46.5
f 55/10/21 53/9/21 56/12/21

f 53/13/22 51/14/22 56/15/22

f 51/14/22 53/13/22 49/16/22

f 50/17/23 56/18/23 51/19/23

f 56/18/23 50/17/23 55/20/23

f 50/21/24 54/22/24 55/23/24

f 54/22/24 50/21/24 52/24/24

