# Alias OBJ Model File
# Exported from SketchUp, (c) 2000-2006 Google, Inc.
# File units = inches

mtllib jokkmokk_table_1_obj0_object.mtl

g Mesh1 Ikea_Jokkmokk_Table1 Model

usemtl wood_maple
v 4.66117 28.2721 -26.5923
vt 0.236787 1.35089
vn 0 1 -0
v 2.47092 28.2721 -25.4972
vt 0.125523 1.29526
v 2.47092 28.2721 -24.4021
vt 0.125523 1.23963
f 1/1/1 2/2/1 3/3/1

v 3.01848 28.2721 -26.0448
vt 0.153339 1.32308
f 2/2/1 1/1/1 4/4/1

v 3.56605 28.2721 -26.5923
vt 0.181155 1.35089
f 4/4/1 1/1/1 5/5/1

v 41.7763 28.2721 -26.599
vt 2.12224 1.35123
f 6/6/1 5/5/1 1/1/1

v 3.01848 28.2721 -26.5923
vt 0.153339 1.35089
f 6/6/1 7/7/1 5/5/1

v 3.01848 28.2721 -26.599
vt 0.153339 1.35123
f 7/7/1 6/6/1 8/8/1

v 41.7763 26.3347 -26.599
vt -2.12224 1.3378
vn -3.66658e-016 0 -1
vt -0.153339 1.43622
vt -2.12224 1.43622
f 9/9/2 8/10/2 6/11/2

v 3.01848 26.3347 -26.599
vt -0.153339 1.3378
f 8/10/2 9/9/2 10/12/2

v 3.01848 26.3347 -27.3199
vt 0.153339 1.38785
f 9/6/1 11/13/1 10/8/1

v 43.419 26.3347 -27.3199
vt 2.20569 1.38785
f 11/13/1 9/6/1 12/14/1

v 42.8715 26.3347 -26.599
vt 2.17787 1.35123
f 12/14/1 9/6/1 13/15/1

vn 0 0 -1
vt -2.17787 1.3378
f 6/11/3 13/16/3 9/9/3

v 42.8715 28.2721 -26.599
vt -2.17787 1.43622
f 13/16/3 6/11/3 14/17/3

v 43.419 28.2721 -27.3199
vn 2.27418e-032 1 1.27295e-031
f 15/14/4 6/6/4 14/15/4

v 3.01848 28.2721 -27.3199
f 16/13/4 6/6/4 15/14/4

f 6/6/4 16/13/4 8/8/4

v 3.01848 28.2721 -27.5699
vt 0.153339 1.40055
f 17/18/4 8/8/4 16/13/4

f 17/18/4 4/4/4 8/8/4

v 2.47092 28.2721 -26.0448
vt 0.125523 1.32308
f 17/18/4 18/19/4 4/4/4

v 1.75 28.2721 -26.0448
vt 0.0889 1.32308
f 17/18/4 19/20/4 18/19/4

v 1.5 28.2721 -27.5699
vt 0.0762 1.40055
f 20/21/4 19/20/4 17/18/4

v 1.5 28.2721 -26.0448
vt 0.0762 1.32308
f 19/20/4 20/21/4 21/22/4

vt -1.40055 1.43622
vn -1 0 -0
v 1.5 0 -26.0448
vt -1.32308 0
vt -1.32308 1.43622
f 20/23/5 22/24/5 21/25/5

v 1.5 0 -27.5699
vt -1.40055 0
f 22/24/5 20/23/5 23/26/5

vt -0.0762 1.43622
v 3.01848 0 -27.5699
vt -0.153339 0
vt -0.0762 0
f 20/27/3 24/28/3 23/29/3

vt -0.153339 1.43622
f 24/28/3 20/27/3 17/30/3

v 46.4375 28.2721 -29.0699
vt 2.35902 1.47675
f 25/31/1 20/21/1 17/18/1

v 0 28.2721 -29.0699
vt 0 1.47675
f 26/32/1 20/21/1 25/31/1

v 1.5 28.2721 -1.5
vt 0.0762 0.0762
f 20/21/1 26/32/1 27/33/1

v 0 28.2721 -0
vt 0 0
f 28/34/1 27/33/1 26/32/1

v 46.4375 28.2721 -0
vt 2.35902 0
f 27/33/1 28/34/1 29/35/1

v 46.4375 29 -0
vt 2.35902 1.4732
vn 0 0 1
vt 0 1.43622
vt 2.35902 1.43622
f 30/36/6 28/37/6 29/38/6

v 0 29 -0
vt 0 1.4732
f 28/37/6 30/36/6 31/39/6

v 0 29 -29.0699
f 30/35/1 32/32/1 31/34/1

v 46.4375 29 -29.0699
f 32/32/1 30/35/1 33/31/1

vn 1 0 -0
vt 1.47675 1.43622
vt 1.47675 1.4732
f 30/39/7 25/40/7 33/41/7

f 25/40/7 30/39/7 29/37/7

v 44.9375 28.2721 -27.5699
vt 2.28282 1.40055
f 25/31/1 34/42/1 29/35/1

v 43.419 28.2721 -27.5699
vt 2.20569 1.40055
f 25/31/1 35/43/1 34/42/1

f 25/31/1 17/18/1 35/43/1

f 35/43/1 17/18/1 15/14/1

f 15/14/1 17/18/1 16/13/1

vt 1.38785 1.43622
vn 1 1.3366e-017 1.88075e-015
vt 1.40055 -2.04953e-018
vt 1.40055 1.43622
f 16/44/8 24/45/8 17/46/8

vt 1.38785 1.3378
f 11/47/8 24/45/8 16/44/8

vt 1.35123 1.3378
f 10/48/8 24/45/8 11/47/8

vt 1.32308 1.43622
f 4/49/8 24/45/8 10/48/8

v 3.01848 0 -26.0448
vt 1.32308 -2.04953e-018
f 4/49/8 36/50/8 24/45/8

v 3.01848 26.3347 -26.0448
vt 1.32308 1.3378
f 36/50/8 4/49/8 37/51/8

vt 0.153339 1.43622
vn -4.52293e-015 -8.93953e-017 1
v 2.47092 26.3347 -26.0448
vt 0.125523 1.3378
vt 0.153339 1.3378
f 4/52/9 38/53/9 37/54/9

vt 0.125523 1.43622
f 38/53/9 4/52/9 18/55/9

f 4/4/1 18/19/1 2/2/1

f 2/2/4 18/19/4 3/3/4

vt -1.32308 1.43622
vn -1 0 8.1103e-016
v 2.47092 26.3347 -25.4972
vt -1.29526 1.3378
vt -1.29526 1.43622
f 18/56/10 39/57/10 2/58/10

vt -1.32308 1.3378
f 39/57/10 18/56/10 38/59/10

v 2.47092 26.3347 -24.4021
f 38/19/1 40/3/1 39/2/1

v 1.75 26.3347 -26.0448
f 40/3/1 38/19/1 41/20/1

vt 0.0889 1.3378
f 41/60/9 37/54/9 38/53/9

vt 0.0762 -1.18277e-016
f 22/61/9 37/54/9 41/60/9

vt 0.153339 -1.18277e-016
f 37/54/9 22/61/9 36/62/9

vt -0.0762 1.32308
vn 0 -1 -0
vt -0.153339 1.40055
vt -0.153339 1.32308
f 22/63/11 24/64/11 36/65/11

vt -0.0762 1.40055
f 24/64/11 22/63/11 23/66/11

vt 0.0762 1.43622
f 22/61/9 41/60/9 21/67/9

vt 0.0889 1.43622
f 21/67/9 41/60/9 19/68/9

v 1.75 26.3347 -3.01848
vt -0.153339 1.3378
f 42/69/5 19/25/5 41/59/5

v 1.75 28.2721 -3.01848
f 19/25/5 42/69/5 43/30/5

vt -0.0889 1.3378
vn -1.88461e-016 -3.7452e-018 -1
v 1.5 28.2721 -3.01848
vt -0.0762 1.43622
vt -0.0889 1.43622
f 42/70/12 44/71/12 43/72/12

v 3.01848 0.1875 -3.01848
vt -0.153339 0.009525
f 45/73/12 44/71/12 42/70/12

v 1.5 0.1875 -3.01848
vt -0.0762 0.009525
f 44/71/12 45/73/12 46/74/12

v 3.01848 0 -3.01848
vt -0.0762 0.009525
f 47/28/3 46/75/3 45/73/3

v 1.5 0 -3.01848
f 46/75/3 47/28/3 48/29/3

vt -0.153339 0.153339
v 1.5 0 -1.5
vt -0.0762 0.0762
vt -0.0762 0.153339
f 47/76/11 49/77/11 48/78/11

v 3.01848 0 -1.5
vt -0.153339 0.0762
f 49/77/11 47/76/11 50/79/11

vt 0.153339 0
v 3.01848 0.1875 -1.5
vt 0.0762 0.009525
vt 0.0762 0
f 47/80/7 51/81/7 50/82/7

vt 0.153339 0.009525
f 51/81/7 47/80/7 45/83/7

vn 1 -3.7452e-018 1.88461e-016
v 3.01848 28.2721 -1.5
vt 0.0762 1.43622
vt 0.0762 0.009525
f 45/83/13 52/84/13 51/85/13

v 3.01848 26.3347 -1.75
vt 0.0889 1.3378
f 52/84/13 45/83/13 53/86/13

v 3.01848 26.3347 -2.47092
vt 0.125523 1.3378
f 53/86/13 45/83/13 54/87/13

v 3.01848 28.2721 -2.47092
vt 0.125523 1.43622
f 54/87/13 45/83/13 55/88/13

v 3.01848 28.2721 -3.01848
vt 0.153339 1.43622
f 55/88/13 45/83/13 56/89/13

v 3.01848 26.3347 -3.01848
vt 0.153339 1.3378
f 56/89/13 45/83/13 57/90/13

vt -0.153339 1.3378
f 42/70/12 57/91/12 45/73/12

v 2.47092 26.3347 -3.01848
vt -0.125523 1.3378
f 57/91/12 42/70/12 58/92/12

vt 0.125523 0.153339
vt 0.0889 0.153339
f 58/93/1 41/20/1 42/94/1

f 41/20/1 58/93/1 40/3/1

v 2.47092 26.3347 -4.66117
vt 0.125523 0.236787
f 40/3/1 58/93/1 59/95/1

v 2.47092 26.3347 -3.56605
vt 0.125523 0.181155
f 59/95/1 58/93/1 60/96/1

v 2.47092 28.2721 -3.56605
vt -0.181155 1.43622
vt -0.181155 1.3378
f 58/69/5 61/97/5 60/98/5

v 2.47092 28.2721 -3.01848
vt -0.153339 1.43622
f 61/97/5 58/69/5 62/99/5

vt -0.125523 1.43622
f 57/91/12 58/92/12 62/100/12

f 57/91/12 62/100/12 56/99/12

vt 0.153339 0.0762
vt 0.153339 0.153339
f 62/93/4 52/101/4 56/102/4

f 43/94/4 52/101/4 62/93/4

vt 0.0762 0.153339
f 44/103/4 52/101/4 43/94/4

f 52/101/4 44/103/4 27/33/4

f 20/21/1 27/33/1 44/103/1

f 44/30/5 49/29/5 27/27/5

f 49/29/5 44/30/5 48/28/5

f 48/28/5 44/30/5 46/73/5

vt 0.0762 1.43622
f 49/82/6 51/83/6 27/104/6

f 51/83/6 49/82/6 50/80/6

vt 0.153339 1.43622
f 27/104/6 51/83/6 52/105/6

f 27/33/1 29/35/1 52/101/1

v 3.01848 28.2721 -1.75
vt 0.153339 0.0889
f 52/101/1 29/35/1 63/106/1

v 43.419 28.2721 -1.5
vt 2.20569 0.0762
f 63/106/1 29/35/1 64/107/1

v 44.9375 28.2721 -1.5
vt 2.28282 0.0762
f 64/107/1 29/35/1 65/108/1

v 44.9375 28.2721 -3.01848
vt 2.28282 0.153339
f 65/108/1 29/35/1 66/109/1

v 44.9375 28.2721 -26.0514
vt 2.28282 1.32341
f 66/109/1 29/35/1 67/110/1

f 67/110/1 29/35/1 34/42/1

v 44.6875 28.2721 -26.0514
vt 2.27012 1.32341
f 34/42/4 68/111/4 67/110/4

v 43.9666 28.2721 -26.0514
vt 2.2335 1.32341
f 34/42/4 69/112/4 68/111/4

f 35/43/4 69/112/4 34/42/4

f 15/14/4 69/112/4 35/43/4

v 43.419 28.2721 -26.599
vt 2.20569 1.35123
f 70/113/4 69/112/4 15/14/4

v 43.419 28.2721 -26.0514
vt 2.20569 1.32341
f 69/112/4 70/113/4 71/114/4

f 70/113/1 14/15/1 71/114/1

f 15/14/4 14/15/4 70/113/4

v 43.419 26.3347 -26.599
vt -2.20569 1.3378
vn 2.5953e-014 -3.83817e-031 -1
vt -2.17787 1.43622
vt -2.20569 1.43622
f 72/115/14 14/116/14 70/117/14

vt -2.17787 1.3378
f 14/116/14 72/115/14 13/118/14

f 12/14/1 13/15/1 72/113/1

v 43.419 0 -27.5699
vt -1.40055 -2.62904e-016
vn -1 -1.19194e-016 -6.03057e-015
vt -1.35123 1.3378
vt -1.38785 1.3378
f 73/119/15 72/120/15 12/121/15

v 43.419 0 -26.0514
vt -1.32341 -2.62904e-016
f 74/122/15 72/120/15 73/119/15

vt -1.35123 1.43622
f 74/122/15 70/123/15 72/120/15

vt -1.32341 1.43622
f 74/122/15 71/124/15 70/123/15

v 43.419 26.3347 -26.0514
vt -1.32341 1.3378
f 71/124/15 74/122/15 75/125/15

v 44.6875 26.3347 -26.0514
vt 2.27013 1.3378
vn 5.45212e-015 -1.76164e-016 1
vt 2.20569 1.3378
vt 2.20569 -2.33137e-016
f 76/126/16 75/127/16 74/128/16

v 43.9666 26.3347 -26.0514
vt 2.2335 1.3378
f 75/127/16 76/126/16 77/129/16

v 44.6875 26.3347 -3.01848
vt 2.27012 0.153339
f 77/112/1 78/130/1 76/111/1

v 43.9666 26.3347 -4.66117
vt 2.2335 0.236787
f 79/131/1 78/130/1 77/112/1

v 43.9666 26.3347 -3.56605
vt 2.2335 0.181155
f 80/132/1 78/130/1 79/131/1

v 43.9666 26.3347 -3.01848
vt 2.2335 0.153339
f 78/130/1 80/132/1 81/133/1

vt 0.181155 1.3378
v 43.9666 28.2721 -3.01848
vt 0.153339 1.3378
f 80/134/7 82/89/7 81/135/7

v 43.9666 28.2721 -3.56605
vt 0.181155 1.43622
f 82/89/7 80/134/7 83/136/7

vt 0.236787 1.3378
f 79/137/7 83/136/7 80/134/7

v 43.9666 28.2721 -4.66117
vt 0.236787 1.43622
f 83/136/7 79/137/7 84/138/7

v 43.9666 26.3347 -24.4087
vt 1.23996 1.3378
vn 1 -6.04956e-046 -3.59813e-016
vt 0.236787 1.43622
vt 0.236787 1.3378
f 85/139/17 84/140/17 79/141/17

v 43.9666 28.2721 -24.4087
vt 1.23996 1.43622
f 84/140/17 85/139/17 86/142/17

vt -0.702538 1.3378
vn 0.707107 0 -0.707107
vt -0.545186 1.43622
vt -0.702538 1.43622
f 85/143/18 6/144/18 86/145/18

vt -0.545186 1.3378
f 6/144/18 85/143/18 9/146/18

vt 2.2335 1.23996
f 85/147/1 13/15/1 9/6/1

vt 2.20569 1.32341
f 13/15/1 85/147/1 75/148/1

v 43.9666 26.3347 -25.5039
vt 2.2335 1.2956
f 75/148/1 85/147/1 87/149/1

vt 1.2956 1.3378
vn 1 0 -3.89294e-014
vt 1.23996 1.43622
vt 1.23996 1.3378
f 87/150/19 86/151/19 85/152/19

v 43.9666 28.2721 -25.5039
vt 1.2956 1.43622
f 86/151/19 87/150/19 88/153/19

vt 1.32341 1.3378
vn 1 1.34336e-030 9.08354e-014
vt 1.2956 1.43622
vt 1.2956 1.3378
f 77/154/20 88/155/20 87/156/20

vt 1.32341 1.43622
f 88/155/20 77/154/20 69/157/20

vt 2.2335 1.43622
f 75/127/16 77/129/16 69/158/16

vt 2.20569 1.43622
f 75/127/16 69/158/16 71/159/16

f 69/112/1 71/114/1 88/149/1

f 71/114/1 86/147/1 88/149/1

f 14/15/1 86/147/1 71/114/1

f 86/147/1 14/15/1 6/6/1

v 41.7763 28.2721 -2.47092
vt 2.12224 0.125523
f 6/6/1 89/160/1 86/147/1

v 4.66117 28.2721 -2.47092
vt 0.236787 0.125523
f 6/6/1 90/161/1 89/160/1

f 6/6/1 1/1/1 90/161/1

v 2.47092 28.2721 -4.66117
f 1/1/1 91/95/1 90/161/1

f 91/95/1 1/1/1 3/3/1

v 4.66117 26.3347 -26.5923
vt -1.12266 1.3378
vn -0.707107 2.97216e-031 -0.707107
vt -0.965306 1.43622
vt -1.12266 1.43622
f 92/162/21 3/163/21 1/164/21

vt -0.965306 1.3378
f 3/163/21 92/162/21 40/165/21

f 92/1/1 39/2/1 40/3/1

vt 0.153339 1.32308
f 39/2/1 92/1/1 37/166/1

v 3.56605 26.3347 -26.5923
f 37/166/1 92/1/1 93/5/1

vt -0.181155 1.43622
vn 2.5953e-014 1.09087e-044 -1
vt -0.236787 1.3378
vt -0.181155 1.3378
f 5/167/22 92/168/22 93/169/22

vt -0.236787 1.43622
f 92/168/22 5/167/22 1/170/22

vt -1.08332 1.3378
vn -0.707107 -2.00781e-015 -0.707107
vt -1.04398 1.43622
vt -1.08332 1.43622
f 93/171/23 4/172/23 5/173/23

vt -1.04398 1.3378
f 4/172/23 93/171/23 37/174/23

f 5/5/1 7/7/1 4/4/1

f 7/7/4 8/8/4 4/4/4

vt 1.35123 1.43622
vt 1.35089 1.43622
f 8/175/8 7/176/8 10/48/8

f 4/49/8 10/48/8 7/176/8

vt -1.23963 1.3378
vn -1 0 -1.29765e-014
vt -1.29526 1.43622
vt -1.29526 1.3378
f 40/177/24 2/178/24 39/179/24

vt -1.23963 1.43622
f 2/178/24 40/177/24 3/180/24

vt -0.236787 1.3378
vn -1 0 6.97372e-016
vt -1.23963 1.43622
vt -1.23963 1.3378
f 59/181/25 3/182/25 40/183/25

vt -0.236787 1.43622
f 3/182/25 59/181/25 91/184/25

vt -0.236787 1.43622
vt -0.236787 1.3378
f 60/98/5 91/185/5 59/186/5

f 91/185/5 60/98/5 61/97/5

vt -0.039338 1.3378
vn -0.707107 -3.24178e-016 0.707107
vt 1.80478e-016 1.43622
vt -0.039338 1.43622
f 60/187/26 56/188/26 61/189/26

vt 2.03038e-016 1.3378
f 56/188/26 60/187/26 57/190/26

vt 0.153339 0.153339
f 57/191/1 59/95/1 60/96/1

v 4.66117 26.3347 -2.47092
f 59/95/1 57/191/1 94/161/1

v 3.56605 26.3347 -2.47092
vt 0.181155 0.125523
f 94/161/1 57/191/1 95/192/1

v 3.56605 28.2721 -2.47092
vt 0.039338 1.43622
vn -0.707107 -3.24178e-016 0.707107
vt 4.96314e-016 1.3378
vt 0.039338 1.3378
f 96/193/27 57/194/27 95/195/27

vt 5.18874e-016 1.43622
f 57/194/27 96/193/27 56/196/27

f 90/161/1 56/102/1 96/192/1

f 91/95/1 56/102/1 90/161/1

f 56/102/1 91/95/1 61/96/1

f 91/95/4 62/93/4 61/96/4

f 62/93/4 91/95/4 3/3/4

f 19/20/4 62/93/4 3/3/4

f 43/94/4 62/93/4 19/20/4

f 21/22/1 43/94/1 19/20/1

f 43/94/1 21/22/1 44/103/1

f 20/21/1 44/103/1 21/22/1

f 18/19/4 19/20/4 3/3/4

f 56/102/1 61/96/1 62/93/1

vt -0.078676 1.3378
vn -0.707107 0 0.707107
vt 0.078676 1.43622
vt -0.078676 1.43622
f 59/197/28 90/198/28 91/199/28

vt 0.078676 1.3378
f 90/198/28 59/197/28 94/200/28

vt 0.236787 1.3378
vn 4.06816e-016 0 1
vt 2.12224 1.43622
vt 0.236787 1.43622
f 94/201/29 89/202/29 90/203/29

v 41.7763 26.3347 -2.47092
vt 2.12224 1.3378
f 89/202/29 94/201/29 97/204/29

v 43.419 26.3347 -1.75
vt 2.20569 0.0889
f 94/161/1 98/205/1 97/160/1

f 95/192/1 98/205/1 94/161/1

vt 0.153339 0.125523
f 54/206/1 98/205/1 95/192/1

f 98/205/1 54/206/1 53/106/1

v 43.419 28.2721 -1.75
vt 2.20569 1.43622
vt 2.20569 1.3378
f 99/207/6 53/135/6 98/208/6

f 53/135/6 99/207/6 63/105/6

f 99/205/1 63/106/1 64/107/1

f 99/205/4 55/206/4 63/106/4

f 55/206/4 99/205/4 96/192/4

f 96/192/4 99/205/4 90/161/4

f 90/161/4 99/205/4 89/160/4

v 42.8715 28.2721 -2.47092
vt 2.17787 0.125523
f 89/160/4 99/205/4 100/209/4

v 43.419 28.2721 -2.47092
vt 2.20569 0.125523
f 100/209/4 99/205/4 101/210/4

f 99/205/4 65/108/4 101/210/4

f 65/108/4 99/205/4 64/107/4

vt -0.0889 1.43622
vn -1 -2.97984e-017 1.50764e-015
v 43.419 0 -1.5
vt -0.0762 -6.5726e-017
vt -0.0762 1.43622
f 99/211/30 102/212/30 64/213/30

vt -0.0889 1.3378
f 102/212/30 99/211/30 98/214/30

v 43.419 0 -3.01848
vt -0.153339 -6.5726e-017
f 102/212/30 98/214/30 103/215/30

v 43.419 26.3347 -2.47092
vt -0.125523 1.3378
f 103/215/30 98/214/30 104/216/30

v 42.8715 26.3347 -2.47092
f 105/209/1 98/205/1 104/210/1

f 97/160/1 98/205/1 105/209/1

vt 2.17787 1.43622
vt 2.17787 1.3378
f 100/217/6 97/204/6 105/218/6

f 97/204/6 100/217/6 89/202/6

f 100/209/1 84/131/1 89/160/1

v 43.419 28.2721 -3.01848
vt 2.20569 0.153339
f 84/131/1 100/209/1 106/219/1

f 106/219/1 100/209/1 101/210/1

vt 1.62874 1.3378
vn 0.707107 -2.49931e-015 0.707107
vt 1.66808 1.43622
vt 1.62874 1.43622
f 105/220/31 106/221/31 100/222/31

v 43.419 26.3347 -3.01848
vt 1.66808 1.3378
f 106/221/31 105/220/31 107/223/31

vt 2.20569 0.153339
f 79/131/1 105/209/1 107/224/1

f 105/209/1 79/131/1 97/160/1

vt 1.74676 1.43622
vn 0.707107 -4.16103e-030 0.707107
vt 1.58941 1.3378
vt 1.74676 1.3378
f 84/225/32 97/226/32 79/227/32

vt 1.58941 1.43622
f 97/226/32 84/225/32 89/228/32

f 86/147/1 89/160/1 84/131/1

f 69/112/4 86/147/4 84/131/4

f 86/147/4 69/112/4 88/149/4

v 44.6875 28.2721 -3.01848
f 84/131/4 108/130/4 69/112/4

f 84/131/4 65/108/4 108/130/4

f 83/132/4 65/108/4 84/131/4

f 82/133/4 65/108/4 83/132/4

f 106/219/4 65/108/4 82/133/4

f 101/210/4 65/108/4 106/219/4

vt -0.153339 1.43622
vt -0.125523 1.43622
f 106/229/30 104/216/30 101/230/30

f 103/215/30 104/216/30 106/229/30

vt -0.153339 1.3378
f 103/215/30 106/229/30 107/231/30

vt 1.66808 1.3378
vn 0.707107 -2.50977e-015 0.707107
vt 1.70742 1.43622
vt 1.66808 1.43622
f 107/232/33 83/233/33 106/234/33

vt 1.70742 1.3378
f 83/233/33 107/232/33 80/235/33

f 79/131/1 107/224/1 80/132/1

f 83/132/1 106/219/1 82/133/1

f 84/131/1 106/219/1 83/132/1

vt -2.2335 1.3378
vn 1.41341e-015 -2.7936e-017 -1
vt -2.20569 1.43622
vt -2.2335 1.43622
f 81/236/34 106/237/34 82/238/34

vt -2.20569 1.3378
f 106/237/34 81/236/34 107/239/34

vt -2.27012 1.3378
f 78/240/34 107/239/34 81/236/34

v 44.9375 0 -3.01848
vt -2.28282 4.28368e-018
f 109/241/34 107/239/34 78/240/34

vt -2.20569 4.28368e-018
f 107/239/34 109/241/34 103/242/34

vt -2.28282 0.153339
vt -2.20569 0.0762
vt -2.20569 0.153339
f 109/243/11 102/244/11 103/245/11

v 44.9375 0 -1.5
vt -2.28282 0.0762
f 102/244/11 109/243/11 110/246/11

f 109/80/7 65/104/7 110/82/7

f 65/104/7 109/80/7 66/105/7

vt -2.28282 1.43622
f 109/241/34 78/240/34 66/247/34

vt -2.27012 1.43622
f 66/247/34 78/240/34 108/248/34

vt 1.32341 1.3378
f 76/249/7 108/105/7 78/135/7

vt 1.32341 1.43622
f 108/105/7 76/249/7 68/250/7

vt 2.28283 1.43622
vt 2.27013 1.43622
f 76/126/16 67/251/16 68/252/16

f 74/128/16 67/251/16 76/126/16

v 44.9375 0 -26.0514
vt 2.28283 -2.33137e-016
f 67/251/16 74/128/16 111/253/16

vt -2.20569 1.32341
v 44.9375 0 -27.5699
vt -2.28282 1.40055
vt -2.28282 1.32341
f 74/254/11 112/255/11 111/256/11

vt -2.20569 1.40055
f 112/255/11 74/254/11 73/257/11

vt -2.20569 1.43622
vt -2.28282 0
vt -2.20569 0
f 35/258/3 112/259/3 73/260/3

vt -2.28282 1.43622
f 112/259/3 35/258/3 34/261/3

vt 1.32341 0
vt 1.40055 0
f 34/46/7 111/262/7 112/263/7

f 111/262/7 34/46/7 67/250/7

vt -1.40055 1.43622
f 73/119/15 12/121/15 35/264/15

vt -1.38785 1.43622
f 35/264/15 12/121/15 15/265/15

vt -2.20569 1.3378
f 12/266/3 16/30/3 15/258/3

f 16/30/3 12/266/3 11/69/3

f 68/111/1 66/109/1 67/110/1

f 66/109/1 68/111/1 108/130/1

f 68/111/4 69/112/4 108/130/4

f 108/130/4 65/108/4 66/109/4

vt 2.28282 1.43622
vt 2.20569 0
vt 2.28282 0
f 65/267/6 102/268/6 110/269/6

f 102/268/6 65/267/6 64/207/6

vt 2.20569 1.43622
vn -2.7575e-014 -3.70897e-043 1
vt 2.17787 1.3378
vt 2.20569 1.3378
f 101/270/35 105/271/35 104/272/35

vt 2.17787 1.43622
f 105/271/35 101/270/35 100/273/35

vt 0.181155 1.3378
vt 0.181155 1.43622
f 95/274/6 90/203/6 96/275/6

f 90/203/6 95/274/6 94/201/6

f 96/275/6 54/135/6 95/274/6

f 54/135/6 96/275/6 55/89/6

f 96/192/1 56/102/1 55/206/1

f 56/102/4 63/106/4 55/206/4

f 56/102/4 52/101/4 63/106/4

vt 0.0889 1.43622
f 63/276/13 52/84/13 53/86/13

vt -0.6632 1.43622
vn 0.707107 -1.10116e-014 -0.707107
vt -0.623862 1.3378
vt -0.623862 1.43622
f 88/277/36 75/278/36 71/279/36

vt -0.6632 1.3378
f 75/278/36 88/277/36 87/280/36

f 85/147/1 77/112/1 87/149/1

f 77/112/1 85/147/1 79/131/1

vt -2.35902 1.43622
vt -2.35902 1.4732
f 25/281/3 32/39/3 33/282/3

f 32/39/3 25/281/3 26/37/3

vt -1.47675 1.4732
vt -1.47675 1.43622
f 28/37/5 32/283/5 26/284/5

f 32/283/5 28/37/5 31/39/5

