# Alias OBJ Model File
# Exported from SketchUp, (c) 2000-2006 Google, Inc.
# File units = millimeters

mtllib dc1bef092851c6012f6548d8d576841c_obj0_object.mtl

g Mesh1 shelve1_1 Model

usemtl Material1
v 15 470 -170
vt -1.7 0.15
vn -1 0 -0
v 15 455 -70
vt -0.7 0
v 15 470 -70
vt -0.7 0.15
f 1/1/1 2/2/1 3/3/1

v 15 455 -170
vt -1.7 0
f 2/2/1 1/1/1 4/4/1

vt 0 1.7
vn 0 -1 -0
v 605 455 -240
vt -5.9 2.4
vt 0 0.7
f 4/5/2 5/6/2 2/7/2

v 15 455 -240
vt 0 2.4
f 5/6/2 4/5/2 6/8/2

v 15 470 -240
vt 0 0.15
vn 0 0 -1
vt -5.9 0
vt 0 0
f 7/9/3 5/10/3 6/11/3

v 605 470 -240
vt -5.9 0.15
f 5/10/3 7/9/3 8/12/3

vt 5.9 2.4
vn 1.57867e-032 1 2.66979e-016
vt -2.36801e-033 2.4
v 605 470 -170
vt 5.9 1.7
f 8/13/4 7/14/4 9/15/4

v 605 470 -0
vt 5.9 4.00469e-017
f 7/14/4 10/16/4 9/15/4

vt -2.36801e-033 1.7
f 1/17/4 10/16/4 7/14/4

vt -2.36801e-033 0.7
f 3/18/4 10/16/4 1/17/4

v 15 470 -0
vt -2.36801e-033 4.00469e-017
f 10/16/4 3/18/4 11/19/4

v 15 455 -0
vn 0 0 1
vt 5.9 0.15
f 12/11/5 10/20/5 11/9/5

v 605 455 -0
vt 5.9 0
f 10/20/5 12/11/5 13/21/5

v 605 455 -170
vt -5.9 1.7
f 14/22/2 13/10/2 12/11/2

v 605 455 -70
vt -5.9 0.7
f 13/10/2 14/22/2 15/23/2

vt 1.7 2.66912e-032
vn 1 -4.52392e-033 -9.02389e-016
v 605 470 -70
vt 0.7 0.15
vt 0.7 2.66912e-032
f 14/24/6 16/25/6 15/26/6

vt 1.7 0.15
f 16/25/6 14/24/6 9/27/6

vt 5.9 0.7
f 9/15/4 10/16/4 16/28/4

f 12/11/2 5/6/2 14/22/2

f 2/7/2 5/6/2 12/11/2

g Mesh2 shelve1_2 Model

v 15 830 -170
v 15 815 -70
v 15 830 -70
f 17/1/1 18/2/1 19/3/1

v 15 815 -170
f 18/2/1 17/1/1 20/4/1

v 605 815 -240
f 20/5/2 21/6/2 18/7/2

v 15 815 -240
f 21/6/2 20/5/2 22/8/2

v 15 830 -240
f 23/9/3 21/10/3 22/11/3

v 605 830 -240
f 21/10/3 23/9/3 24/12/3

v 605 830 -170
f 24/13/4 23/14/4 25/15/4

v 605 830 -0
f 23/14/4 26/16/4 25/15/4

f 17/17/4 26/16/4 23/14/4

f 19/18/4 26/16/4 17/17/4

v 15 830 -0
f 26/16/4 19/18/4 27/19/4

v 15 815 -0
f 28/11/5 26/20/5 27/9/5

v 605 815 -0
f 26/20/5 28/11/5 29/21/5

v 605 815 -170
f 30/22/2 29/10/2 28/11/2

v 605 815 -70
f 29/10/2 30/22/2 31/23/2

v 605 830 -70
f 30/24/6 32/25/6 31/26/6

f 32/25/6 30/24/6 25/27/6

f 25/15/4 26/16/4 32/28/4

f 28/11/2 21/6/2 30/22/2

f 18/7/2 21/6/2 28/11/2

g Mesh3 shelve1_3 Model

v 15 1180 -170
v 15 1165 -70
v 15 1180 -70
f 33/1/1 34/2/1 35/3/1

v 15 1165 -170
f 34/2/1 33/1/1 36/4/1

v 605 1165 -240
f 36/5/2 37/6/2 34/7/2

v 15 1165 -240
f 37/6/2 36/5/2 38/8/2

v 15 1180 -240
f 39/9/3 37/10/3 38/11/3

v 605 1180 -240
f 37/10/3 39/9/3 40/12/3

v 605 1180 -170
f 40/13/4 39/14/4 41/15/4

v 605 1180 -0
f 39/14/4 42/16/4 41/15/4

f 33/17/4 42/16/4 39/14/4

f 35/18/4 42/16/4 33/17/4

v 15 1180 -0
f 42/16/4 35/18/4 43/19/4

v 15 1165 -0
f 44/11/5 42/20/5 43/9/5

v 605 1165 -0
f 42/20/5 44/11/5 45/21/5

v 605 1165 -170
f 46/22/2 45/10/2 44/11/2

v 605 1165 -70
f 45/10/2 46/22/2 47/23/2

v 605 1180 -70
f 46/24/6 48/25/6 47/26/6

f 48/25/6 46/24/6 41/27/6

f 41/15/4 42/16/4 48/28/4

f 44/11/2 37/6/2 46/22/2

f 34/7/2 37/6/2 44/11/2

g Mesh4 Backplate_1_1 Model

v -3.60956e-013 1345 -243
vt 0 1.8
v 620 1167.5 -243
vt -6.2 0.025
v -3.60956e-013 1167.5 -243
vt 0 0.025
f 49/29/3 50/30/3 51/31/3

v 620 1345 -243
vt -6.2 1.8
f 50/30/3 49/29/3 52/32/3

vt 0 0.03
vn 0 1 -0
v 15 1345 -240
vt 0.15 0
vt 6.2 0.03
f 49/33/7 53/34/7 52/35/7

v -3.60956e-013 1345 -240
f 53/34/7 49/33/7 54/11/7

vt -0.03 1.8
v -3.60956e-013 1167.5 -240
f 49/36/1 55/31/1 54/29/1

vt -0.03 0.025
f 55/31/1 49/36/1 51/37/1

vt -6.2 0.03
f 50/38/2 55/11/2 51/33/2

v 620 1167.5 -240
vt -6.2 0
f 55/11/2 50/38/2 56/39/2

vt 0.03 0.025
vn 1 0 -0
v 620 1345 -240
f 50/40/8 57/29/8 56/31/8

vt 0.03 1.8
f 57/29/8 50/40/8 52/41/8

v 605 1345 -240
vt 6.05 0
vt 6.2 0
f 52/35/7 58/42/7 57/43/7

f 52/35/7 53/34/7 58/42/7

vt 6.05 1.8
vt 0.15 1.8
f 54/29/5 58/44/5 53/45/5

vt 6.2 1.8
f 54/29/5 57/46/5 58/44/5

f 55/31/5 57/46/5 54/29/5

vt 6.2 0.025
f 57/46/5 55/31/5 56/47/5

g Mesh5 Backplate_1_2 Model

v 0 470 -243
v 620 292.5 -243
v 0 292.5 -243
f 59/29/3 60/30/3 61/31/3

v 620 470 -243
f 60/30/3 59/29/3 62/32/3

v 15 470 -240
f 59/33/7 63/34/7 62/35/7

v 0 470 -240
f 63/34/7 59/33/7 64/11/7

v 0 292.5 -240
f 59/36/1 65/31/1 64/29/1

f 65/31/1 59/36/1 61/37/1

f 60/38/2 65/11/2 61/33/2

v 620 292.5 -240
f 65/11/2 60/38/2 66/39/2

v 620 470 -240
f 60/40/8 67/29/8 66/31/8

f 67/29/8 60/40/8 62/41/8

v 605 470 -240
f 62/35/7 68/42/7 67/43/7

f 62/35/7 63/34/7 68/42/7

f 64/29/5 68/44/5 63/45/5

f 64/29/5 67/46/5 68/44/5

f 65/31/5 67/46/5 64/29/5

f 67/46/5 65/31/5 66/47/5

g Mesh6 Backplate_1_3 Model

v 0 285 -243
v 620 107.5 -243
v 0 107.5 -243
f 69/29/3 70/30/3 71/31/3

v 620 285 -243
f 70/30/3 69/29/3 72/32/3

v 15 285 -240
f 69/33/7 73/34/7 72/35/7

v 0 285 -240
f 73/34/7 69/33/7 74/11/7

v 0 107.5 -240
f 69/36/1 75/31/1 74/29/1

f 75/31/1 69/36/1 71/37/1

f 70/38/2 75/11/2 71/33/2

v 620 107.5 -240
f 75/11/2 70/38/2 76/39/2

v 620 285 -240
f 70/40/8 77/29/8 76/31/8

f 77/29/8 70/40/8 72/41/8

v 605 285 -240
f 72/35/7 78/42/7 77/43/7

f 72/35/7 73/34/7 78/42/7

f 74/29/5 78/44/5 73/45/5

f 74/29/5 77/46/5 78/44/5

f 75/31/5 77/46/5 74/29/5

f 77/46/5 75/31/5 76/47/5

g Mesh7 Backplate_1_4 Model

v -1.80478e-013 1530 -243
v 620 1352.5 -243
v -1.80478e-013 1352.5 -243
f 79/29/3 80/30/3 81/31/3

v 620 1530 -243
f 80/30/3 79/29/3 82/32/3

v 15 1530 -240
f 79/33/7 83/34/7 82/35/7

v -1.80478e-013 1530 -240
f 83/34/7 79/33/7 84/11/7

v -1.80478e-013 1352.5 -240
f 79/36/1 85/31/1 84/29/1

f 85/31/1 79/36/1 81/37/1

f 80/38/2 85/11/2 81/33/2

v 620 1352.5 -240
f 85/11/2 80/38/2 86/39/2

v 620 1530 -240
f 80/40/8 87/29/8 86/31/8

f 87/29/8 80/40/8 82/41/8

v 605 1530 -240
f 82/35/7 88/42/7 87/43/7

f 82/35/7 83/34/7 88/42/7

f 84/29/5 88/44/5 83/45/5

f 84/29/5 87/46/5 88/44/5

f 85/31/5 87/46/5 84/29/5

f 87/46/5 85/31/5 86/47/5

g Mesh8 Model

v 0 1650 -240
vt -2.4 16.5
v 0 1580 -170
vt -1.7 15.8
v 0 1650 -170
vt -1.7 16.5
f 89/48/1 90/49/1 91/50/1

v 0 120 -170
vt -1.7 1.2
f 90/49/1 89/48/1 92/51/1

v 0 50 -170
vt -1.7 0.5
f 92/51/1 89/48/1 93/52/1

v 0 0 -170
f 93/52/1 89/48/1 94/4/1

v 0 0 -240
vt -2.4 0
f 94/4/1 89/48/1 95/53/1

v 0 1165 -240
vt -2.4 11.65
f 95/53/1 89/48/1 96/54/1

vt 0 16.5
vt -0.15 11.65
vt 0 11.65
f 89/55/3 38/56/3 96/57/3

v 15 1515 -240
vt -0.15 15.15
f 38/56/3 89/55/3 97/58/3

v 15 1530 -240
vt -0.15 15.3
f 97/58/3 89/55/3 98/59/3

v 15 1650 -240
vt -0.15 16.5
f 98/59/3 89/55/3 99/60/3

v 3 1650 -170
vt 0.03 1.7
vt 0.15 2.4
f 89/8/7 100/61/7 99/62/7

f 100/61/7 89/8/7 91/5/7

vt 0 15.8
vt 0.03 16.5
f 90/63/5 100/64/5 91/55/5

v 3 1580 -170
vt 0.03 15.8
f 100/64/5 90/63/5 101/65/5

v 13 1580 -170
vt 0.13 15.8
f 90/63/5 102/66/5 101/65/5

v 15 1580 -170
vt 0.15 15.8
f 90/63/5 103/67/5 102/66/5

v 15 1530 -170
vt 0.15 15.3
f 90/63/5 104/68/5 103/67/5

v 15 1515 -170
vt 0.15 15.15
f 90/63/5 105/69/5 104/68/5

vt 0 1.2
f 92/70/5 105/69/5 90/63/5

v 3 120 -170
vt 0.03 1.2
f 106/71/5 105/69/5 92/70/5

v 15 120 -170
vt 0.15 1.2
f 105/69/5 106/71/5 107/72/5

vn 0 1 2.25597e-016
v 15 120 -70
vt 0.15 0.7
vt 0.15 1.7
f 106/61/9 108/73/9 107/74/9

v 3 120 -70
vt 0.03 0.7
f 108/73/9 106/61/9 109/75/9

v 3 50 -70
vt -0.7 0.5
vt -0.7 1.2
f 106/51/1 110/76/1 109/77/1

v 3 50 -170
f 110/76/1 106/51/1 111/52/1

vt 0.03 0.5
vn -5.94316e-016 -5.82187e-017 1
v 15 105 -170
vt 0.15 1.05
vt 0.03 1.2
f 111/78/10 112/79/10 106/80/10

v 15 50 -170
vt 0.15 0.5
f 112/79/10 111/78/10 113/81/10

vt -0.15 1.7
vn 0 -1 -2.25597e-016
vt -0.03 0.7
vt -0.03 1.7
f 113/82/11 110/83/11 111/84/11

v 15 50 -70
vt -0.15 0.7
f 110/83/11 113/82/11 114/85/11

vt 1.7 1.05
vt 0.7 0.5
vt 1.7 0.5
f 112/86/8 114/87/8 113/88/8

v 15 105 -70
vt 0.7 1.05
f 114/87/8 112/86/8 115/89/8

vt 0.7 1.2
f 112/86/8 108/90/8 115/89/8

vt 1.7 1.2
f 108/90/8 112/86/8 107/91/8

vt 0.15 1.2
f 106/80/10 112/79/10 107/92/10

v 15 105 -240
vt -2.4 1.05
vt -1.7 1.05
f 107/51/1 116/93/1 112/94/1

v 15 120 -240
vt -2.4 1.2
f 116/93/1 107/51/1 117/95/1

vn 7.31028e-034 1 3.33724e-017
v 605 120 -0
vt 6.05 4.00469e-017
f 107/74/12 118/96/12 117/62/12

vt 0.15 0.7
f 108/97/12 118/96/12 107/74/12

v 15 120 -0
vt 0.15 4.00469e-017
f 118/96/12 108/97/12 119/98/12

v 15 1515 -0
vt 0 15.15
f 108/90/8 120/99/8 119/70/8

v 15 1515 -70
vt 0.7 15.15
f 120/99/8 108/90/8 121/100/8

vt -0.15 1.2
vn -3.11883e-016 -1.53945e-018 -1
v 0 1580 -70
vt -2.18318e-016 15.8
vt -0.15 15.15
f 108/101/13 122/102/13 121/103/13

vt -0.03 1.2
f 109/104/13 122/102/13 108/101/13

v 0 120 -70
vt -2.18318e-016 1.2
f 122/102/13 109/104/13 123/105/13

vt -0.03 0.5
vn 0 1.61141e-016 -1
vt -0.03 1.2
f 110/106/14 123/70/14 109/107/14

v 0 50 -70
vt 0 0.5
f 123/70/14 110/106/14 124/108/14

vt -0.15 0.5
vn 0 -2.25597e-016 -1
vt 0 0.5
vt -0.03 0.5
f 114/109/15 124/110/15 110/111/15

v 15 0 -70
vt -0.15 1.57918e-016
f 125/112/15 124/110/15 114/109/15

v 0 0 -70
vt 0 1.57918e-016
f 124/110/15 125/112/15 126/113/15

vt -0.15 0.7
v 0 0 -0
vt 0 0.7
f 125/114/2 127/11/2 126/115/2

v 15 0 -0
vt -0.15 0
f 127/11/2 125/114/2 128/116/2

vt 0.7 0
v 15 105 -0
vt 0 1.05
f 125/117/8 129/118/8 128/11/8

f 129/118/8 125/117/8 115/89/8

f 115/89/8 125/117/8 114/87/8

vt -0.15 0.5
vn 6.36767e-017 1.67379e-016 -1
vt -0.03 1.2
vt -0.15 1.05
f 114/119/16 109/120/16 115/121/16

vt -0.03 0.5
f 109/120/16 114/119/16 110/122/16

vt -0.15 1.2
f 115/121/16 109/120/16 108/123/16

vt -0.7 1.05
f 129/118/1 108/77/1 115/124/1

f 108/77/1 129/118/1 119/70/1

v 0 1650 -0
vt 0.15 1.05
f 130/55/5 129/125/5 119/72/5

f 127/11/5 129/125/5 130/55/5

vt 0.15 0
f 129/125/5 127/11/5 128/126/5

v 0 1650 -70
vt -0.7 16.5
f 131/127/1 127/11/1 130/55/1

vt -0.7 0
f 127/11/1 131/127/1 126/128/1

vt -0.7 15.8
f 126/128/1 131/127/1 122/129/1

v 3 1580 -70
vt -0.03 15.8
f 131/55/14 132/130/14 122/63/14

v 3 1650 -70
vt -0.03 16.5
f 132/130/14 131/55/14 133/131/14

vt 0 0.7
v 15 1650 -0
vt 0.03 0.7
f 131/132/7 134/126/7 133/133/7

f 134/126/7 131/132/7 130/11/7

v 15 1530 -0
vt 0.15 16.5
f 130/55/5 135/68/5 134/134/5

f 130/55/5 120/69/5 135/68/5

f 130/55/5 119/72/5 120/69/5

v 605 1530 -0
vt 6.05 15.3
f 120/69/5 136/135/5 135/68/5

v 605 1515 -0
vt 6.05 15.15
f 136/135/5 120/69/5 137/136/5

v 605 1515 -170
vt -6.05 1.7
vt -6.05 0
f 138/137/2 137/138/2 120/116/2

v 605 1515 -70
vt -6.05 0.7
f 137/138/2 138/137/2 139/139/2

vt 1.7 15.15
v 605 1530 -70
vt 0.7 15.3
vt 0.7 15.15
f 138/140/6 140/141/6 139/142/6

v 605 1530 -170
vt 1.7 15.3
f 140/141/6 138/140/6 141/143/6

vt 6.05 15.15
v 620 1580 -170
vt 6.2 15.8
vt 6.05 15.3
f 138/144/5 142/145/5 141/146/5

v 605 120 -170
vt 6.05 1.2
f 143/147/5 142/145/5 138/144/5

v 617 120 -170
vt 6.17 1.2
f 144/148/5 142/145/5 143/147/5

v 620 120 -170
vt 6.2 1.2
f 142/145/5 144/148/5 145/149/5

v 617 50 -170
vt 6.17 0.5
f 146/150/5 145/149/5 144/148/5

v 620 50 -170
vt 6.2 0.5
f 145/149/5 146/150/5 147/151/5

v 605 50 -170
vt 6.05 0.5
f 148/152/5 147/151/5 146/150/5

v 605 0 -170
vt 6.05 0
f 149/153/5 147/151/5 148/152/5

v 620 0 -170
vt 6.2 0
f 147/151/5 149/153/5 150/154/5

vt -6.05 1.7
v 620 0 -240
vt -6.2 2.4
vt -6.2 1.7
f 149/155/2 151/156/2 150/157/2

v 605 0 -240
vt -6.05 2.4
f 151/156/2 149/155/2 152/158/2

v 605 105 -240
f 149/4/1 153/93/1 152/53/1

f 148/52/1 153/93/1 149/4/1

v 605 105 -170
f 153/93/1 148/52/1 154/94/1

vt 6.05 0.5
vn 5.94316e-016 -5.82187e-017 1
vt 6.17 1.2
vt 6.05 1.05
f 148/159/17 144/160/17 154/161/17

vt 6.17 0.5
f 144/160/17 148/159/17 146/162/17

vt -6.17 1.7
v 605 50 -70
vt -6.05 0.7
f 146/163/11 155/164/11 148/155/11

v 617 50 -70
vt -6.17 0.7
f 155/164/11 146/163/11 156/165/11

f 144/91/8 156/87/8 146/88/8

v 617 120 -70
f 156/87/8 144/91/8 157/90/8

vt 6.05 1.7
vt 6.17 0.7
vt 6.17 1.7
f 143/166/9 157/167/9 144/168/9

v 605 120 -70
vt 6.05 0.7
f 157/167/9 143/166/9 158/169/9

v 605 120 -240
vt 6.05 2.4
vt 6.05 0.7
f 159/170/12 158/171/12 143/166/12

f 159/170/12 118/96/12 158/171/12

f 117/62/12 118/96/12 159/170/12

vt -6.05 1.05
vt -6.05 1.2
f 153/172/3 117/123/3 159/173/3

f 117/123/3 153/172/3 116/121/3

vt -0.15 2.4
f 153/158/2 112/82/2 116/174/2

f 112/82/2 153/158/2 115/114/2

f 115/114/2 153/158/2 129/116/2

v 605 105 -0
f 129/116/2 153/158/2 160/138/2

f 160/138/2 153/158/2 154/155/2

vt 2.4 1.05
f 153/175/8 143/91/8 154/86/8

vt 2.4 1.2
f 143/91/8 153/175/8 159/176/8

v 620 105 -240
vt -6.2 1.05
f 159/173/3 161/177/3 153/172/3

v 620 455 -240
vt -6.2 4.55
f 161/177/3 159/173/3 162/178/3

vt -6.05 4.55
f 162/178/3 159/173/3 5/179/3

v 605 1515 -240
vt 2.4 15.15
vn 1 2.948e-017 7.19317e-016
vt 2.4 1.2
vt 2.4 4.55
f 163/180/18 159/181/18 5/182/18

vt 1.7 15.15
f 138/183/18 159/181/18 163/180/18

vt 1.7 1.2
f 159/181/18 138/183/18 143/184/18

f 120/116/2 163/158/2 138/137/2

vt -0.15 0.7
f 121/185/2 163/158/2 120/116/2

f 105/82/2 163/158/2 121/185/2

f 163/158/2 105/82/2 97/174/2

vt 2.4 15.15
vt 1.7 15.3
vt 1.7 15.15
f 97/186/8 104/187/8 105/188/8

vt 2.4 15.3
f 104/187/8 97/186/8 98/189/8

vt -6.05 15.15
f 98/59/3 163/190/3 97/58/3

v 620 1530 -240
vt -6.2 15.3
f 164/191/3 163/190/3 98/59/3

v 620 1165 -240
vt -6.2 11.65
f 165/192/3 163/190/3 164/191/3

vt -6.05 11.65
f 163/190/3 165/192/3 37/193/3

f 162/178/3 37/193/3 165/192/3

f 37/193/3 162/178/3 5/179/3

vt 2.4 11.65
f 163/180/18 5/182/18 37/194/18

v 620 1650 -240
vt 2.4 16.5
vt 2.4 4.55
vt 2.4 11.65
f 166/195/8 162/196/8 165/197/8

f 166/195/8 161/175/8 162/196/8

vt 2.4 0
f 166/195/8 151/198/8 161/175/8

v 620 1650 -170
vt 1.7 16.5
f 167/199/8 151/198/8 166/195/8

vt 1.7 15.8
f 142/200/8 151/198/8 167/199/8

f 145/91/8 151/198/8 142/200/8

f 147/88/8 151/198/8 145/91/8

vt 1.7 0
f 151/198/8 147/88/8 150/201/8

vt 6.2 16.5
v 617 1580 -170
vt 6.17 15.8
f 167/202/5 168/203/5 142/145/5

v 617 1650 -170
vt 6.17 16.5
f 168/203/5 167/202/5 169/204/5

vt 6.2 2.4
vt 6.2 1.7
f 166/205/7 169/168/7 167/206/7

v 607 1650 -170
vt 6.07 1.7
f 166/205/7 170/207/7 169/168/7

v 605 1650 -240
f 171/170/7 170/207/7 166/205/7

v 605 1650 -170
f 170/207/7 171/170/7 172/166/7

vt -2.4 16.5
vn -1 4.78225e-016 -1.69606e-015
v 605 1580 -170
vt -1.7 15.8
vt -1.7 16.5
f 171/208/19 173/209/19 172/210/19

vt -1.7 15.3
f 173/209/19 171/208/19 141/211/19

v 605 1530 -240
vt -2.4 15.3
f 141/211/19 171/208/19 174/212/19

vt -6.05 16.5
vt -6.05 15.3
f 171/213/3 164/191/3 174/214/3

vt -6.2 16.5
f 164/191/3 171/213/3 166/215/3

f 166/195/8 165/197/8 164/189/8

f 164/191/3 98/59/3 174/214/3

vt 6.05 2.4
vn 1.49078e-032 1 2.66979e-016
vt 0.15 2.4
vt 6.05 1.7
f 174/216/20 98/217/20 141/218/20

vt 6.05 4.08478e-015
f 98/217/20 136/219/20 141/218/20

vt 0.15 1.7
f 104/220/20 136/219/20 98/217/20

v 15 1530 -70
vt 0.15 0.7
f 175/221/20 136/219/20 104/220/20

vt 0.15 4.08478e-015
f 136/219/20 175/221/20 135/222/20

vt 0.7 15.3
vt 0 15.3
f 175/223/8 134/55/8 135/224/8

v 15 1580 -70
vt 0.7 15.8
f 134/55/8 175/223/8 176/225/8

vt -0.15 15.3
vt -0.15 15.8
f 175/226/13 122/102/13 176/227/13

f 121/103/13 122/102/13 175/226/13

f 135/224/8 121/100/8 175/223/8

f 121/100/8 135/224/8 120/99/8

vt -1.7 15.3
vt -0.7 15.15
vt -0.7 15.3
f 104/228/1 121/229/1 175/230/1

vt -1.7 15.15
f 121/229/1 104/228/1 105/231/1

vt -0.03 15.8
f 176/227/13 122/102/13 132/232/13

v 13 1580 -70
vt -0.13 15.8
f 176/227/13 132/232/13 177/233/13

vt -0.03 0.7
vt -0.13 1.7
vt -0.13 0.7
f 132/234/2 102/235/2 177/236/2

f 102/235/2 132/234/2 101/84/2

f 132/129/1 100/50/1 101/49/1

f 100/50/1 132/129/1 133/127/1

f 133/133/7 134/126/7 100/61/7

v 13 1650 -70
vt 0.13 0.7
f 100/61/7 134/126/7 178/237/7

v 15 1650 -70
vt 0.15 0.7
f 178/237/7 134/126/7 179/238/7

vt 0.7 16.5
f 134/55/8 176/225/8 179/239/8

vt -0.15 15.8
vt -0.13 16.5
f 176/240/14 178/241/14 179/60/14

vt -0.13 15.8
f 178/241/14 176/240/14 177/242/14

v 13 1650 -170
f 177/225/8 180/199/8 178/239/8

f 180/199/8 177/225/8 102/200/8

v 15 1650 -170
vt 0.13 16.5
f 102/66/5 181/134/5 180/243/5

f 181/134/5 102/66/5 103/67/5

f 103/200/8 98/189/8 181/199/8

f 98/189/8 103/200/8 104/187/8

f 181/199/8 98/189/8 99/195/8

vt 0.13 1.7
f 99/62/7 180/244/7 181/74/7

f 99/62/7 100/61/7 180/244/7

f 180/244/7 100/61/7 178/237/7

vt 6.05 0.7
f 141/218/20 136/219/20 140/245/20

v 605 1580 -70
f 136/224/1 182/129/1 140/230/1

v 605 1650 -70
f 136/224/1 183/127/1 182/129/1

v 605 1650 -0
f 183/127/1 136/224/1 184/55/1

v 620 1650 -0
vt 6.05 16.5
f 136/135/5 185/202/5 184/246/5

f 137/136/5 185/202/5 136/135/5

f 118/147/5 185/202/5 137/136/5

vt 6.05 1.05
f 160/247/5 185/202/5 118/147/5

v 605 0 -0
f 186/153/5 185/202/5 160/247/5

v 620 0 -0
f 185/202/5 186/153/5 187/154/5

v 620 0 -70
vt -6.2 0.7
vt -6.2 0
f 186/138/2 188/248/2 187/249/2

v 605 0 -70
vt -6.05 0.7
f 188/248/2 186/138/2 189/250/2

v 605 105 -70
f 186/11/1 190/124/1 189/128/1

f 190/124/1 186/11/1 160/118/1

f 160/138/2 154/155/2 190/250/2

f 154/94/1 155/76/1 190/124/1

f 155/76/1 154/94/1 148/52/1

f 189/128/1 190/124/1 155/76/1

vn -6.36767e-017 1.67379e-016 -1
vt -6.17 0.5
vt -6.05 0.5
f 190/172/21 156/251/21 155/252/21

vt -6.17 1.2
f 156/251/21 190/172/21 157/253/21

f 157/253/21 190/172/21 158/173/21

f 118/70/8 190/89/8 158/90/8

f 190/89/8 118/70/8 160/118/8

f 118/147/5 129/125/5 160/247/5

f 129/125/5 118/147/5 119/72/5

f 143/51/1 190/124/1 158/77/1

f 190/124/1 143/51/1 154/94/1

vt 6.05 1.2
f 154/161/17 144/160/17 143/254/17

f 118/70/1 139/229/1 158/77/1

f 139/229/1 118/70/1 137/99/1

f 137/99/1 140/230/1 139/229/1

f 140/230/1 137/99/1 136/224/1

v 620 1580 -70
vt -6.2 15.8
vn 3.11883e-016 -1.53945e-018 -1
f 191/255/22 139/190/22 140/214/22

v 620 120 -70
vt -6.2 1.2
f 192/256/22 139/190/22 191/255/22

f 157/253/22 139/190/22 192/256/22

f 139/190/22 157/253/22 158/173/22

v 620 50 -70
vt -6.2 0.5
f 193/257/14 157/253/14 192/256/14

f 157/253/14 193/257/14 156/251/14

vt -6.2 0.5
vn -1.43409e-032 -2.25597e-016 -1
vt -6.05 0.5
vt -6.17 0.5
f 193/258/23 155/259/23 156/260/23

vt -6.2 1.57918e-016
f 188/261/23 155/259/23 193/258/23

vt -6.05 1.57918e-016
f 155/259/23 188/261/23 189/262/23

f 193/87/8 192/90/8 188/117/8

v 620 1650 -70
vt 0.7 16.5
f 194/263/8 188/117/8 192/90/8

f 185/55/8 188/117/8 194/263/8

f 188/117/8 185/55/8 187/11/8

v 617 1650 -70
vt 6.17 0.7
vt 6.2 0.7
f 195/264/7 185/154/7 194/265/7

f 170/207/7 185/154/7 195/264/7

v 607 1650 -70
vt 6.07 0.7
f 196/266/7 185/154/7 170/207/7

vt 6.05 0.7
f 183/267/7 185/154/7 196/266/7

f 185/154/7 183/267/7 184/153/7

v 607 1580 -70
vt -6.07 15.8
vn -1.35358e-015 1.61141e-016 -1
vt -6.05 16.5
vt -6.07 16.5
f 197/268/24 183/269/24 196/270/24

vt -6.05 15.8
f 183/269/24 197/268/24 182/271/24

vt -6.05 15.8
vt -6.07 15.8
f 191/255/22 182/272/22 197/273/22

f 191/255/22 140/214/22 182/272/22

v 617 1580 -70
vt -6.17 15.8
f 191/255/22 197/273/22 198/274/22

vt -6.07 0.7
vt -6.17 0.7
f 197/275/2 168/163/2 198/276/2

v 607 1580 -170
vt -6.07 1.7
f 168/163/2 197/275/2 199/277/2

vt -0.7 15.8
vn -1 1.93369e-015 1.35358e-015
vt -1.7 16.5
vt -1.7 15.8
f 197/278/25 170/279/25 199/280/25

vt -0.7 16.5
f 170/279/25 197/278/25 196/281/25

vt 6.07 16.5
vn 1.35358e-015 -5.23483e-030 1
vt 6.05 15.8
vt 6.07 15.8
f 170/282/26 173/283/26 199/284/26

vt 6.05 16.5
f 173/283/26 170/282/26 172/285/26

vt 6.05 15.8
vt 6.07 15.8
f 173/286/5 168/203/5 199/287/5

f 173/286/5 142/145/5 168/203/5

f 141/146/5 142/145/5 173/286/5

f 168/200/8 195/263/8 198/225/8

f 195/263/8 168/200/8 169/199/8

f 169/168/7 170/207/7 195/264/7

vt -6.17 16.5
f 195/288/3 191/255/3 198/274/3

f 191/255/3 195/288/3 194/215/3

f 194/263/8 192/90/8 191/225/8

f 151/249/3 153/172/3 161/177/3

f 153/172/3 151/249/3 152/138/3

vt -2.4 15.15
vn -1 3.07213e-018 -8.43302e-017
f 97/289/27 107/51/27 105/231/27

f 107/51/27 97/289/27 117/95/27

f 117/95/27 97/289/27 38/54/27

vt -2.4 4.7
f 117/95/27 38/54/27 7/290/27

v 0 470 -240
vt 0 4.7
vt -0.15 4.7
f 200/291/3 38/56/3 7/292/3

f 38/56/3 200/291/3 96/57/3

vt -2.4 4.7
f 95/53/1 96/54/1 200/293/1

v 15 0 -240
f 200/291/3 201/116/3 95/11/3

f 201/116/3 200/291/3 116/121/3

f 116/121/3 200/291/3 117/123/3

f 117/123/3 200/291/3 7/292/3

f 116/175/8 113/88/8 201/198/8

f 113/88/8 116/175/8 112/86/8

v 15 0 -170
f 201/198/8 113/88/8 202/201/8

vt 0.15 0.5
f 113/294/5 94/11/5 202/126/5

f 94/11/5 113/294/5 93/110/5

vt 0.03 0.5
f 93/110/5 113/294/5 111/295/5

f 106/71/5 93/110/5 111/295/5

f 93/110/5 106/71/5 92/70/5

f 94/5/2 201/174/2 202/82/2

f 201/174/2 94/5/2 95/8/2

f 126/128/1 122/129/1 123/77/1

f 126/128/1 123/77/1 124/76/1

