# Alias OBJ Model File
# Exported from SketchUp, (c) 2000-2006 Google, Inc.
# File units = meters

mtllib a2feb840c1cd7fd1ca72f4e46c3d7447_obj0_object.mtl

g Mesh1 Model

usemtl M_0104226_PE251177_S4
v 0 0.75 -0
vt 1 1
vn -1 -8.88864e-010 6.83613e-009
v 7.00364e-009 0.53 -0.0205181
vt 0.959768 0.706667
v 0 0 -0
vt 1 8.4666e-018
f 1/1/1 2/2/1 3/3/1

v 0 0.75 -0.51
vt 0 1
f 2/2/1 1/1/1 4/4/1

usemtl FrontColor
v 1.05 0.75 -0
vt 41.3386 0
vn 0 1 -0
vt 0 20.0787
vt 0 0
f 5/5/2 4/6/2 1/7/2

v 1.05 0.75 -0.51
vt 41.3386 20.0787
f 4/6/2 5/5/2 6/8/2

vt 0 29.5276
vn 1 0 -0
v 1.05 0 -0.51
vt 20.0787 0
vt 20.0787 29.5276
f 5/9/3 7/10/3 6/11/3

v 1.05 0 -0
f 7/10/3 5/9/3 8/7/3

v 0.706704 0.564999 -9.37898e-009
vt 27.823 22.2441
vn 2.9041e-009 1.24112e-009 1
vt 41.3386 -1.48998e-016
vt 41.3386 29.5276
f 9/12/4 8/13/4 5/14/4

v 0.706704 -1.4853e-009 -5.73212e-009
vt 27.823 -5.84763e-008
f 8/13/4 9/12/4 10/15/4

usemtl _Dark_Brown_1
vt -7.42794e-008 22.2441
vn -1 4.92715e-015 1.06017e-008
v 0.706704 0 -0.51
vt -20.0787 1.37088e-013
vt 6.92978e-008 -5.84762e-008
f 9/16/5 11/17/5 10/18/5

v 0.706704 0.564999 -0.51
vt -20.0787 22.2441
f 11/17/5 9/16/5 12/19/5

usemtl M_0104226_PE251177_S4_1
v 0.737164 0.0272336 -0.51
vt 0.297939 0.0363114
vn -3.14318e-009 1.58322e-009 -1
vt 0.326948 7.11462e-018
vt 0.326948 0.753333
f 13/20/6 11/21/6 12/22/6

vt 0 6.96689e-018
f 11/21/6 13/20/6 7/23/6

v 1.01834 0.0272336 -0.51
vt 0.0301504 0.0363114
f 14/24/6 7/23/6 13/20/6

f 7/23/6 14/24/6 6/4/6

v 1.01834 0.589082 -0.51
vt 0.0301504 0.785442
f 6/4/6 14/24/6 15/25/6

usemtl M_0039_DarkOrange
vt -40.0922 1.07219
vn -3.14318e-009 0 -1
v 0.737164 0.589082 -0.51
vt -29.0222 23.1922
vt -40.0922 23.1922
f 14/26/7 16/27/7 15/28/7

vt -29.0222 1.07219
f 16/27/7 14/26/7 13/29/7

usemtl M_0104226_PE251177_S4_1
vt 0.297939 0.785442
f 13/20/6 12/22/6 16/30/6

v 0.706744 0.595065 -0.51
vt 0.326911 0.79342
f 16/30/6 12/22/6 17/31/6

f 16/30/6 17/31/6 15/25/6

v 1.02235 0.621744 -0.51
vt 0.0263359 0.828992
f 18/32/6 15/25/6 17/31/6

f 6/4/6 15/25/6 18/32/6

v 1.02235 0.709374 -0.51
vt 0.0263359 0.945832
f 6/4/6 18/32/6 19/33/6

usemtl M_0039_DarkOrange
vt -40.2499 24.4781
vn -1.95052e-013 1.58322e-009 -1
v 0.740661 0.709374 -0.51
vt -29.1599 27.9281
vt -40.2499 27.9281
f 18/34/8 20/35/8 19/36/8

v 0.740661 0.621744 -0.51
vt -29.1599 24.4781
f 20/35/8 18/34/8 21/37/8

usemtl M_0104226_PE251177_S4_1
vt 0.294608 0.828992
f 18/32/6 17/31/6 21/38/6

v 0.0313915 0.624794 -0.51
vt 0.970103 0.833059
f 17/31/6 22/39/6 21/38/6

v 0.0267439 0.595065 -0.51
vt 0.97453 0.79342
f 23/40/6 22/39/6 17/31/6

f 23/40/6 4/1/6 22/39/6

v 0.0267439 0.585065 -0.51
vt 0.97453 0.780087
f 24/41/6 4/1/6 23/40/6

v 0.0267041 0.585065 -0.51
vt 0.974568 0.780087
f 25/42/6 4/1/6 24/41/6

v 0.0267041 0 -0.51
vt 0.974568 1.1585e-017
f 26/43/6 4/1/6 25/42/6

v 0 0 -0.51
vt 1 0
f 4/1/6 26/43/6 27/44/6

usemtl FrontColor
v 7.00363e-009 0 -0.0205181
vt -2.75734e-007 0.807801
vn -2.78103e-008 -1 -1.45617e-009
vt -1.05134 20.0787
f 28/45/9 27/6/9 26/46/9

v -5.77529e-015 0 -0.490518
vt 2.27374e-013 19.3117
f 27/6/9 28/45/9 29/47/9

usemtl M_0104226_PE251177_S4
vt 0.0381997 4.4925e-018
vt 0 4.33466e-018
f 29/48/1 4/4/1 27/49/1

v -5.77529e-015 0.53 -0.490518
vt 0.0381997 0.706667
f 30/50/1 4/4/1 29/48/1

f 2/2/1 4/4/1 30/50/1

usemtl FrontColor
v 0.0267041 -1.4853e-009 -1.47705e-009
vt -1.05134 5.81516e-008
f 31/51/9 28/45/9 26/46/9

f 28/45/9 31/51/9 3/7/9

v 0.0267041 0.585065 3.25179e-009
vt 1.05134 23.0341
vt 1.05134 -5.84763e-008
f 32/52/4 3/7/4 31/53/4

f 3/7/4 32/52/4 1/9/4

v 0.0267439 0.595065 -5.27407e-009
vt 1.05291 23.4278
f 1/9/4 32/52/4 33/54/4

v 0.0267439 0.585065 -5.27407e-009
vt 1.05291 23.0341
f 33/54/4 32/52/4 34/55/4

usemtl M_0104226_PE251177_S4_1_
vt 0.999864 0
vn -0.000721821 -1 -5.92604e-008
vt 2.47831e-005 1
vt 0 1.67174e-008
f 32/56/10 24/57/10 34/58/10

vt 1 1
f 24/57/10 32/56/10 25/59/10

usemtl M_0104226_PE251177_S4_2_
vt 1 5.89645e-006
vn 1 3.91303e-024 -1.85141e-009
vt 1.65436e-024 0.999994
vt 1.65436e-024 0
f 24/60/11 33/61/11 34/62/11

f 33/61/11 24/60/11 23/1/11

usemtl M_0104226_PE251177_S4_3_
vt 1.38856e-009 1
vn 0 -1 -1.15617e-007
vt 1 0
f 17/63/12 33/64/12 23/1/12

v 0.706744 0.595065 -5.27407e-009
f 33/64/12 17/63/12 35/7/12

usemtl FrontColor
vt 27.8246 23.4278
f 35/65/4 5/14/4 33/54/4

f 9/12/4 5/14/4 35/65/4

f 1/9/4 33/54/4 5/14/4

usemtl M_0104226_PE251177_S4
vt 0.959768 0
f 28/66/1 3/3/1 2/2/1

usemtl M_0104226_PE251177_S4_1
v 0.0313915 0.712424 -0.51
vt 0.970103 0.949899
f 22/39/6 4/1/6 36/67/6

v 0.701697 0.712424 -0.51
vt 0.331717 0.949899
f 36/67/6 4/1/6 37/68/6

f 6/4/6 37/68/6 4/1/6

f 6/4/6 19/33/6 37/68/6

vt 0.294608 0.945832
f 20/69/6 37/68/6 19/33/6

v 0.701697 0.624794 -0.51
vt 0.331717 0.833059
f 20/69/6 38/70/6 37/68/6

f 21/38/6 38/70/6 20/69/6

f 38/70/6 21/38/6 22/39/6

usemtl M_0039_DarkOrange
vt -1.23588 28.0482
vt -27.6259 24.5982
vt -1.23588 24.5982
f 36/71/8 38/72/8 22/73/8

vt -27.6259 28.0482
f 38/72/8 36/71/8 37/74/8

usemtl FrontColor
vt -41.3386 20.0787
vn 2.16329e-009 -1 -1.45617e-009
vt -27.823 2.25674e-007
vt -27.823 20.0787
f 7/75/13 10/76/13 11/77/13

vt -41.3386 -1.30222e-016
f 10/76/13 7/75/13 8/78/13

