# Alias OBJ Model File
# Exported from SketchUp, (c) 2000-2006 Google, Inc.
# File units = inches

mtllib 4fe4ece12ccf5fc787c4d5470f8b581_obj0_object.mtl

g Mesh1 Group1 Model

usemtl _Wood_cherry_5
v 45.6978 0 -22.7348
vt 2.26114 0
vn 1 0 -0
v 45.6978 5.69991 -20.1698
vt 2.07364 0.378472
v 45.6978 0 -20.1698
vt 2.07364 0
f 1/1/1 2/2/1 3/3/1

v 45.6978 5.69991 -22.7348
vt 2.26114 0.378472
f 2/2/1 1/1/1 4/4/1

vt -3.44631 0
vn 0 0 -1
v 43.1328 5.69991 -22.7348
vt -3.25881 0.378472
vt -3.44631 0.378472
f 1/5/2 5/6/2 4/7/2

v 43.1328 0 -22.7348
vt -3.25881 0
f 5/6/2 1/5/2 6/8/2

vt -3.44631 2.26114
vn 0 -1 -0
v 43.1328 0 -20.1698
vt -3.25881 2.07364
vt -3.25881 2.26114
f 1/9/3 7/10/3 6/11/3

vt -3.44631 2.07364
f 7/10/3 1/9/3 3/12/3

vt 3.44631 0.378472
vn 0 0 1
vt 3.25881 0
vt 3.44631 0
f 2/13/4 7/14/4 3/15/4

v 43.1328 5.69991 -20.1698
vt 3.25881 0.378472
f 7/14/4 2/13/4 8/16/4

v 43.1328 5.69991 4.07511
vt -3.25881 0.301357
f 2/12/3 9/17/3 8/10/3

v 45.6978 5.69991 4.07511
vt -3.44631 0.301357
f 9/17/3 2/12/3 10/18/3

v 45.9729 5.69991 -23.0098
vt -3.46641 2.28125
f 2/12/3 11/19/3 10/18/3

f 4/9/3 11/19/3 2/12/3

f 5/11/3 11/19/3 4/9/3

v 1.39239 5.69991 -20.1698
vt -0.207607 2.07364
f 12/20/3 11/19/3 5/11/3

v 1.39239 5.69991 -22.7348
vt -0.207607 2.26114
f 13/21/3 11/19/3 12/20/3

v -1.17261 5.69991 -22.7348
vt -0.0201065 2.26114
f 14/22/3 11/19/3 13/21/3

v -1.44767 5.69991 -23.0098
vt 0 2.28125
f 14/22/3 15/23/3 11/19/3

v -1.44767 5.69991 6.91517
vt 0 0.09375
f 15/23/3 14/22/3 16/24/3

v -1.17261 5.69991 -20.1698
vt -0.0201065 2.07364
f 17/25/3 16/24/3 14/22/3

v -1.17261 5.69991 6.64011
vt -0.0201065 0.113857
f 18/26/3 16/24/3 17/25/3

v 45.9729 5.69991 6.91517
vt -3.46641 0.09375
f 16/24/3 18/26/3 19/27/3

v 1.39239 5.69991 6.64011
vt -0.207607 0.113857
f 19/27/3 18/26/3 20/28/3

v -1.17261 0 6.64011
vt 0.0201065 0
vt 0.207607 0.378472
vt 0.0201065 0.378472
f 21/29/4 20/30/4 18/31/4

v 1.39239 0 6.64011
vt 0.207607 0
f 20/30/4 21/29/4 22/32/4

v 1.39239 0 4.07511
vt -0.207607 0.301357
f 21/26/3 23/33/3 22/28/3

v -1.17261 0 4.07511
vt -0.0201065 0.301357
f 23/33/3 21/26/3 24/34/3

vt -0.113857 0
vn -1 0 -0
v -1.17261 5.69991 4.07511
vt -0.301357 0.378472
vt -0.301357 0
f 21/35/5 25/36/5 24/37/5

vt -0.113857 0.378472
f 25/36/5 21/35/5 18/38/5

f 18/26/3 17/25/3 25/34/3

f 12/20/3 25/34/3 17/25/3

v 1.39239 5.69991 4.07511
f 25/34/3 12/20/3 26/33/3

f 12/20/3 5/11/3 26/33/3

f 26/33/3 5/11/3 20/28/3

v 43.1328 5.69991 6.64011
vt -3.25881 0.113857
f 27/39/3 20/28/3 5/11/3

f 19/27/3 20/28/3 27/39/3

v 45.6978 5.69991 6.64011
vt -3.44631 0.113857
f 19/27/3 27/39/3 28/40/3

v 43.1328 1.189e-014 6.64011
vt 3.25881 7.89492e-016
f 29/41/4 28/13/4 27/16/4

v 45.6978 1.189e-014 6.64011
vt 3.44631 7.89492e-016
f 28/13/4 29/41/4 30/42/4

v 45.6978 1.189e-014 4.07511
f 29/39/3 31/18/3 30/40/3

v 43.1328 1.189e-014 4.07511
f 31/18/3 29/39/3 32/17/3

vt -0.113857 7.89492e-016
vt -0.301357 7.89492e-016
f 29/43/5 9/36/5 32/44/5

f 9/36/5 29/43/5 27/38/5

f 27/39/3 8/10/3 9/17/3

f 27/39/3 5/11/3 8/10/3

vt -2.26114 0.378472
vt -2.07364 0
vt -2.07364 0.378472
f 5/45/5 7/46/5 8/47/5

vt -2.26114 0
f 7/46/5 5/45/5 6/48/5

vt -3.44631 7.89492e-016
vt -3.25881 7.89492e-016
f 9/6/2 31/49/2 32/50/2

f 31/49/2 9/6/2 10/7/2

vt 0.113857 0.378472
vt 0.301357 7.89492e-016
vt 0.301357 0.378472
f 28/51/1 31/52/1 10/53/1

vt 0.113857 7.89492e-016
f 31/52/1 28/51/1 30/54/1

f 10/18/3 11/19/3 28/40/3

f 19/27/3 28/40/3 11/19/3

vt 2.28125 0.378472
v 45.9729 7.25989 6.91517
vt 0.09375 0.482054
vt 0.09375 0.378472
f 11/55/1 33/56/1 19/57/1

v 45.9729 96.4661 6.91517
vt 0.09375 6.40532
f 33/56/1 11/55/1 34/58/1

v 45.9729 98.1012 6.91517
vt 0.09375 6.51389
f 34/58/1 11/55/1 35/59/1

v 45.9729 98.1012 -23.0098
vt 2.28125 6.51389
f 35/59/1 11/55/1 36/60/1

vt -3.46641 0.378472
v -1.44767 98.1012 -23.0098
vt 0 6.51389
vt -3.46641 6.51389
f 11/61/2 37/62/2 36/63/2

vt 0 0.378472
f 37/62/2 11/61/2 15/64/2

vt -0.09375 0.378472
vt -2.28125 6.51389
vt -2.28125 0.378472
f 16/65/5 37/66/5 15/67/5

v -1.44767 7.25989 6.91517
vt -0.09375 0.482054
f 38/68/5 37/66/5 16/65/5

v -1.44767 96.4661 6.91517
vt -0.09375 6.40532
f 39/69/5 37/66/5 38/68/5

v -1.44767 98.1012 6.91517
vt -0.09375 6.51389
f 37/66/5 39/69/5 40/70/5

vt 0 6.40532
vt 3.46641 6.51389
f 39/71/4 35/72/4 40/62/4

v 4.3659 96.4661 6.91517
vt 0.424969 6.40532
f 41/73/4 35/72/4 39/71/4

v 16.449 96.4661 6.91517
vt 1.30824 6.40532
f 42/74/4 35/72/4 41/73/4

v 22.2626 96.4661 6.91517
vt 1.73321 6.40532
f 43/75/4 35/72/4 42/74/4

v 28.0762 96.4661 6.91517
vt 2.15818 6.40532
f 44/76/4 35/72/4 43/75/4

v 40.1593 96.4661 6.91517
vt 3.04144 6.40532
f 45/77/4 35/72/4 44/76/4

vt 3.46641 6.40532
f 35/72/4 45/77/4 34/78/4

v 40.1593 7.25989 6.91517
vt 3.04144 0.482054
f 46/79/4 34/78/4 45/77/4

vt 3.46641 0.482054
f 34/78/4 46/79/4 33/80/4

v 22.2626 7.25989 6.91517
vt 1.73321 0.482054
f 46/79/4 47/81/4 33/80/4

v 28.0762 7.25989 6.91517
vt 2.15818 0.482054
f 47/81/4 46/79/4 48/82/4

vt 3.04144 0.09375
vn 0 1 -0
v 28.0762 7.25989 6.29767
vt 2.15818 0.138889
vt 2.15818 0.09375
f 46/83/6 49/84/6 48/85/6

v 40.1593 7.25989 6.29767
vt 3.04144 0.138889
f 49/84/6 46/83/6 50/86/6

vt -0.09375 0.482054
v 40.1593 96.4661 6.29767
vt -0.138889 6.40532
vt -0.138889 0.482054
f 46/87/5 51/88/5 50/89/5

f 51/88/5 46/87/5 45/69/5

vt -2.15818 0.09375
vt -3.04144 0.138889
vt -3.04144 0.09375
f 44/90/3 51/91/3 45/92/3

v 28.0762 96.4661 6.29767
vt -2.15818 0.138889
f 51/91/3 44/90/3 52/93/3

vt 0.138889 0.482054
vt 0.138889 6.40532
f 44/58/1 49/94/1 52/95/1

vt 0.09375 0.482054
f 49/94/1 44/58/1 48/96/1

v 25.7967 46.9251 6.91517
vt 1.99155 3.11581
f 44/76/4 53/97/4 48/82/4

v 25.7967 56.2679 6.91517
vt 1.99155 3.73617
f 53/97/4 44/76/4 54/98/4

v 24.5421 56.2679 6.91517
vt 1.89984 3.73617
f 54/98/4 44/76/4 55/99/4

f 43/75/4 55/99/4 44/76/4

v 24.5421 46.9251 6.91517
vt 1.89984 3.11581
f 43/75/4 56/100/4 55/99/4

f 47/81/4 56/100/4 43/75/4

f 56/100/4 47/81/4 48/82/4

f 56/100/4 48/82/4 53/97/4

vt -1.99155 0.09375
v 24.5421 46.9251 8.19767
vt -1.89984 0
vt -1.89984 0.09375
f 53/101/3 57/102/3 56/103/3

v 25.7967 46.9251 8.19767
vt -1.99155 0
f 57/102/3 53/101/3 58/104/3

vt 0.09375 3.11581
v 25.7967 56.2679 8.19767
vt 0 3.73617
vt 0 3.11581
f 53/105/1 59/106/1 58/107/1

vt 0.09375 3.73617
f 59/106/1 53/105/1 54/108/1

vt 1.89984 0.09375
vt 1.99155 0
vt 1.99155 0.09375
f 55/109/6 59/110/6 54/111/6

v 24.5421 56.2679 8.19767
vt 1.89984 0
f 59/110/6 55/109/6 60/112/6

vt -0.09375 3.73617
f 55/113/5 57/107/5 60/106/5

vt -0.09375 3.11581
f 57/107/5 55/113/5 56/114/5

f 57/100/4 59/98/4 60/99/4

f 59/98/4 57/100/4 58/97/4

v 19.9831 46.9251 6.91517
vt 1.56658 3.11581
f 61/115/4 47/81/4 43/75/4

v 16.449 7.25989 6.91517
vt 1.30824 0.482054
f 47/81/4 61/115/4 62/116/4

v 18.7285 46.9251 6.91517
vt 1.47487 3.11581
f 63/117/4 62/116/4 61/115/4

f 62/116/4 63/117/4 42/74/4

v 18.7285 56.2679 6.91517
vt 1.47487 3.73617
f 42/74/4 63/117/4 64/118/4

v 18.7285 46.9251 8.19767
f 65/107/5 64/113/5 63/114/5

v 18.7285 56.2679 8.19767
f 64/113/5 65/107/5 66/106/5

v 19.9831 56.2679 8.19767
vt 1.56658 3.73617
f 65/117/4 67/119/4 66/118/4

v 19.9831 46.9251 8.19767
f 67/119/4 65/117/4 68/115/4

vt -1.47487 0
vt -1.56658 0.09375
vt -1.56658 0
f 65/120/3 61/121/3 68/122/3

vt -1.47487 0.09375
f 61/121/3 65/120/3 63/123/3

f 61/105/1 67/106/1 68/107/1

v 19.9831 56.2679 6.91517
f 67/106/1 61/105/1 69/108/1

f 61/115/4 43/75/4 69/119/4

f 69/119/4 43/75/4 64/118/4

f 42/74/4 64/118/4 43/75/4

vt 1.47487 0.09375
vt 1.56658 0
vt 1.56658 0.09375
f 64/124/6 67/125/6 69/126/6

vt 1.47487 0
f 67/125/6 64/124/6 66/127/6

v 16.449 96.4661 6.29767
f 70/88/5 62/87/5 42/69/5

v 16.449 7.25989 6.29767
f 62/87/5 70/88/5 71/89/5

v 16.449 90.066 6.29767
vt -0.138889 5.98035
f 71/89/5 70/88/5 72/128/5

v 4.3659 90.066 6.29767
vt 0.424969 5.98035
vt 1.30824 5.98035
f 70/74/4 73/129/4 72/130/4

v 4.3659 96.4661 6.29767
f 73/129/4 70/74/4 74/73/4

vt -1.30824 0.138889
vt -0.424969 0.09375
vt -0.424969 0.138889
f 70/131/3 41/132/3 74/133/3

vt -1.30824 0.09375
f 41/132/3 70/131/3 42/134/3

v 4.3659 7.25989 6.29767
f 41/58/1 75/94/1 74/95/1

v 4.3659 7.25989 6.91517
f 75/94/1 41/58/1 76/96/1

vt 0.424969 0.482054
f 39/71/4 76/135/4 41/73/4

vt 0 0.482054
f 76/135/4 39/71/4 38/136/4

f 38/136/4 62/116/4 76/135/4

f 38/136/4 47/81/4 62/116/4

f 38/136/4 33/80/4 47/81/4

f 16/64/4 33/80/4 38/136/4

vt 3.46641 0.378472
f 33/80/4 16/64/4 19/137/4

vt 1.30824 0.09375
vt 0.424969 0.138889
vt 0.424969 0.09375
f 62/138/6 75/139/6 76/140/6

vt 1.30824 0.138889
f 75/139/6 62/138/6 71/141/6

v 16.449 13.6601 6.29767
vt 1.30824 0.907023
f 77/142/4 75/135/4 71/116/4

v 4.3659 13.6601 6.29767
vt 0.424969 0.907023
f 75/135/4 77/142/4 78/143/4

v 4.3659 13.6601 5.72767
vt 0.424969 0.180556
f 77/141/6 79/144/6 78/139/6

v 16.449 13.6601 5.72767
vt 1.30824 0.180556
f 79/144/6 77/141/6 80/145/6

vt -0.138889 0.907023
v 16.449 90.066 5.72767
vt -0.180556 5.98035
vt -0.180556 0.907023
f 77/146/5 81/147/5 80/148/5

f 81/147/5 77/146/5 72/128/5

f 71/89/5 72/128/5 77/146/5

vt -1.30824 0.180556
f 73/133/3 81/149/3 72/131/3

v 4.3659 90.066 5.72767
vt -0.424969 0.180556
f 81/149/3 73/133/3 82/150/3

vt 0.138889 5.98035
vt 0.180556 0.907023
vt 0.180556 5.98035
f 73/151/1 79/152/1 82/153/1

vt 0.138889 0.907023
f 79/152/1 73/151/1 78/154/1

f 74/95/1 78/154/1 73/151/1

f 74/95/1 75/94/1 78/154/1

usemtl _CorrogateRust_5
vt 1.52989 1.72556
vt 4.70966 11.3773
vt 1.52989 11.3773
f 79/155/4 81/156/4 82/157/4

vt 4.70966 1.72556
f 81/156/4 79/155/4 80/158/4

usemtl _Wood_cherry_5
v 28.0762 13.6601 6.29767
f 52/95/1 49/94/1 83/154/1

v 40.1593 13.6601 6.29767
vt 3.04144 0.907023
vt 2.15818 0.907023
f 49/82/4 84/159/4 83/160/4

f 84/159/4 49/82/4 50/79/4

v 40.1593 90.066 6.29767
f 50/89/5 85/128/5 84/146/5

f 50/89/5 51/88/5 85/128/5

v 28.0762 90.066 6.29767
vt 2.15818 5.98035
vt 3.04144 5.98035
f 51/77/4 86/161/4 85/162/4

f 86/161/4 51/77/4 52/76/4

f 52/95/1 83/154/1 86/151/1

v 28.0762 13.6601 5.72767
f 87/152/1 86/151/1 83/154/1

v 28.0762 90.066 5.72767
f 86/151/1 87/152/1 88/153/1

usemtl _CorrogateRust_5
vt 7.76943 1.72556
v 40.1593 90.066 5.72767
vt 10.9492 11.3773
vt 7.76943 11.3773
f 87/163/4 89/164/4 88/165/4

v 40.1593 13.6601 5.72767
vt 10.9492 1.72556
f 89/164/4 87/163/4 90/166/4

usemtl _Wood_cherry_5
vt 2.15818 0.180556
vt 3.04144 0.180556
f 87/167/6 84/86/6 90/168/6

f 84/86/6 87/167/6 83/84/6

f 84/146/5 89/147/5 90/148/5

f 89/147/5 84/146/5 85/128/5

vt -3.04144 0.180556
f 86/93/3 89/169/3 85/91/3

vt -2.15818 0.180556
f 89/169/3 86/93/3 88/170/3

vt 3.46641 0.09375
f 35/171/6 37/23/6 40/24/6

vt 3.46641 2.28125
f 37/23/6 35/171/6 36/172/6

vt 0.301357 0
f 20/51/1 23/173/1 26/53/1

vt 0.113857 0
f 23/173/1 20/51/1 22/174/1

vt -0.207607 0
vt -0.0201065 0.378472
vt -0.207607 0.378472
f 23/175/2 25/176/2 26/177/2

vt -0.0201065 0
f 25/176/2 23/175/2 24/178/2

v -1.17261 0 -20.1698
vt 0.0201065 0
vt 0.0201065 0.378472
f 91/179/4 12/30/4 17/180/4

v 1.39239 0 -20.1698
f 12/30/4 91/179/4 92/32/4

v 1.39239 0 -22.7348
f 91/25/3 93/21/3 92/20/3

v -1.17261 0 -22.7348
f 93/21/3 91/25/3 94/22/3

f 91/46/5 14/45/5 94/48/5

f 14/45/5 91/46/5 17/47/5

vt -0.0201065 0.378472
vt -0.0201065 0
f 14/181/2 93/175/2 94/182/2

f 93/175/2 14/181/2 13/177/2

f 12/2/1 93/1/1 13/4/1

f 93/1/1 12/2/1 92/3/1

