# Alias OBJ Model File
# Exported from SketchUp, (c) 2000-2006 Google, Inc.
# File units = inches

mtllib cf5ff6be0bd01eb37d973a687f2079_obj0_object.mtl

g Mesh1 Model

usemtl ikea_wardrobe1
v 34.75 77.9172 -0
vt 1 1
vn 0 0 1
v 32.9085 0 -0
vt 0.947006 0
v 34.75 0 -0
vt 1 0
f 1/1/1 2/2/1 3/3/1

v 32.9085 4.5 -0
vt 0.947006 0.0577536
f 2/2/1 1/1/1 4/4/1

v 20.6091 37.9323 -0
vt 0.593066 0.486828
f 4/4/1 1/1/1 5/5/1

v 20.6091 44.9323 -0
vt 0.593066 0.576667
f 5/5/1 1/1/1 6/6/1

v 19.6091 44.9323 -0
vt 0.564289 0.576667
f 6/6/1 1/1/1 7/7/1

v 15.3591 44.9323 -0
vt 0.441987 0.576667
f 7/7/1 1/1/1 8/8/1

v 14.3591 44.9323 -0
vt 0.41321 0.576667
f 8/8/1 1/1/1 9/9/1

v 0 77.9172 -0
vt 0 1
f 10/10/1 9/9/1 1/1/1

v 14.3591 37.9323 -0
vt 0.41321 0.486828
f 10/10/1 11/11/1 9/9/1

v 2.65846 4.5 -0
vt 0.0765023 0.0577536
f 10/10/1 12/12/1 11/11/1

v 0 0 -0
vt 0 0
f 13/13/1 12/12/1 10/10/1

v 2.65846 0 -0
vt 0.0765023 0
f 12/12/1 13/13/1 14/14/1

usemtl Material1
vn 0 -1 -0
v 2.65846 0 -3.10952
vt -2.65846 3.10952
vt -2.65846 0
f 13/13/2 15/15/2 14/16/2

v 0 0 -3.10952
vt 0 3.10952
f 15/15/2 13/13/2 16/17/2

usemtl ikea_wardrobe1_2_
vt 0.857042 0
vn -1 0 -0
vt 0.989362 0
v 0 4.5 -3.10952
vt 0.857042 0.0573248
f 16/18/3 13/19/3 17/20/3

v 0 78.5 -23.25
vt 1.11022e-016 1
f 13/19/3 18/21/3 17/20/3

vt 0.989362 0.992576
f 10/22/3 18/21/3 13/19/3

v 0 77.9172 0.25
vt 1 0.992576
f 19/23/3 18/21/3 10/22/3

v 0 78.5 0.25
f 18/21/3 19/23/3 20/1/3

usemtl ikea_wardrobe1_17_
v 34.75 78.5 0.25
f 19/13/1 21/1/1 20/10/1

v 34.75 77.9172 0.25
f 21/1/1 19/13/1 22/3/1

usemtl ikea_wardrobe1_18_
f 19/3/2 1/10/2 22/13/2

f 1/10/2 19/3/2 10/1/2

usemtl ikea_wardrobe1_3_
vt 0.0106383 0.992576
vn 1 0 -0
vt 0 0.992576
f 1/24/4 21/10/4 22/25/4

v 34.75 78.5 -23.25
vt 1 1
f 21/10/4 1/24/4 23/26/4

v 34.75 4.25 -2.50291
vt 0.117145 0.0541401
f 23/26/4 1/24/4 24/27/4

v 34.75 0 -2.50291
vt 0.117145 0
f 24/27/4 1/24/4 25/28/4

vt 0.0106383 0
f 25/28/4 1/24/4 3/29/4

usemtl Material1
vt -32.9085 0
vt -34.75 2.50291
vt -34.75 0
f 2/30/2 25/31/2 3/32/2

v 32.9085 0 -2.50291
vt -32.9085 2.50291
f 25/31/2 2/30/2 26/33/2

usemtl ikea_wardrobe1_2_
vt 0.882855 0
v 32.9085 4.25 -2.50291
vt 0.882855 0.0541401
f 26/34/3 2/19/3 27/35/3

vt 0.989362 0.0573248
f 4/36/3 27/35/3 2/19/3

v 32.9085 4.5 -23.25
vt 1.11022e-016 0.0573248
f 27/35/3 4/36/3 28/37/3

usemtl Material1
vt -32.9085 23.25
f 12/16/2 28/38/2 4/30/2

v 2.65846 4.5 -3.10952
f 29/15/2 28/38/2 12/16/2

v 2.65846 4.5 -20.1845
vt -2.65846 20.1845
f 30/39/2 28/38/2 29/15/2

v 2.65846 4.5 -23.25
vt -2.65846 23.25
f 28/38/2 30/39/2 31/40/2

usemtl ikea_wardrobe1_6_
vt 8.88178e-016 1
v 2.65846 0 -23.25
vt 1 0
vt 1 1
f 30/41/4 32/42/4 31/43/4

v 2.65846 0 -20.1845
vt 8.88178e-016 0
f 32/42/4 30/41/4 33/44/4

usemtl ikea_wardrobe1_8_
v 0 0 -20.1845
f 30/1/1 34/13/1 33/3/1

v 0 4.5 -20.1845
f 34/13/1 30/1/1 35/10/1

usemtl Material1
vt 0 20.1845
f 30/39/2 17/17/2 35/45/2

f 17/17/2 30/39/2 29/15/2

usemtl ikea_wardrobe1_7_
vn 0 0 -1
f 15/13/5 17/1/5 29/10/5

f 17/1/5 15/13/5 16/3/5

usemtl ikea_wardrobe1_3_
vt 0.0106383 0.0573248
vt 0.142958 0
vt 0.142958 0.0573248
f 12/46/4 15/47/4 29/48/4

f 15/47/4 12/46/4 14/29/4

usemtl ikea_wardrobe1_2_
vt 0.130447 0.0573248
f 17/20/3 18/21/3 35/49/3

vt 0.130447 0
f 35/49/3 18/21/3 34/50/3

v 0 0 -23.25
vt 1.11022e-016 0
f 34/50/3 18/21/3 36/51/3

usemtl Material1
vt 0 78.5
f 18/52/5 32/16/5 36/13/5

vt -2.65846 4.5
f 32/16/5 18/52/5 31/53/5

vt -32.9085 4.5
f 31/53/5 18/52/5 28/54/5

vt -34.75 78.5
f 23/55/5 28/54/5 18/52/5

v 34.75 0 -23.25
f 37/32/5 28/54/5 23/55/5

v 32.9085 0 -23.25
f 28/54/5 37/32/5 38/30/5

vt -34.75 23.25
v 32.9085 0 -20.5029
vt -32.9085 20.5029
f 37/56/2 39/57/2 38/38/2

v 34.75 0 -20.5029
vt -34.75 20.5029
f 39/57/2 37/56/2 40/58/2

usemtl ikea_wardrobe1_3_
vt 1 0
v 34.75 4.25 -20.5029
vt 0.883102 0.0541401
vt 0.883102 0
f 37/59/4 41/60/4 40/61/4

f 23/26/4 41/60/4 37/59/4

f 23/26/4 24/27/4 41/60/4

usemtl ikea_wardrobe1_5_
vt 1 0.122076
vt 0 0.122076
f 27/62/2 41/10/2 24/63/2

v 32.9085 4.25 -20.5029
f 41/10/2 27/62/2 42/1/2

usemtl ikea_wardrobe1_2_
vt 0.116898 0.0541401
f 27/35/3 28/37/3 42/64/3

vt 0.116898 0
f 42/64/3 28/37/3 39/65/3

f 39/65/3 28/37/3 38/51/3

usemtl ikea_wardrobe1_4_
f 39/13/1 41/1/1 42/10/1

f 41/1/1 39/13/1 40/3/1

usemtl ikea_wardrobe1_5_
vt 1 0.207288
vt 0 0.207288
f 25/13/5 27/66/5 24/67/5

f 27/66/5 25/13/5 26/3/5

usemtl ikea_wardrobe1_1_
vt 0 1
vn 0 1 -0
vt 1 1
f 18/68/6 21/3/6 23/69/6

f 21/3/6 18/68/6 20/13/6

usemtl Material1
vt 0 23.25
f 32/40/2 34/45/2 36/70/2

f 34/45/2 32/40/2 33/39/2

usemtl ikea_wardrobe1
f 4/4/1 5/5/1 12/12/1

f 11/11/1 12/12/1 5/5/1

v 19.6091 37.9323 -0
vt 0.564289 0.486828
f 11/11/1 5/5/1 43/71/1

usemtl ikea_wardrobe1_16_
v 19.6091 37.9323 1.25
f 5/10/2 44/3/2 43/1/2

v 20.6091 37.9323 1.25
f 44/3/2 5/10/2 45/13/2

usemtl ikea_wardrobe1_13_
v 20.6091 44.9323 1.25
f 5/3/4 46/10/4 45/13/4

f 46/10/4 5/3/4 6/1/4

usemtl ikea_wardrobe1_14_
f 7/10/6 46/3/6 6/1/6

v 19.6091 44.9323 1.25
f 46/3/6 7/10/6 47/13/6

usemtl ikea_wardrobe1_11_
vt 0.92474 1
vt 1 0.848427
f 7/72/3 44/73/3 47/1/3

vt 0.92474 0.848427
f 44/73/3 7/72/3 43/74/3

usemtl ikea_wardrobe1
v 15.3591 37.9323 -0
vt 0.441987 0.486828
f 7/7/1 48/75/1 43/71/1

f 48/75/1 7/7/1 8/8/1

usemtl ikea_wardrobe1_12_
v 15.3591 44.9323 1.25
f 49/10/4 48/3/4 8/1/4

v 15.3591 37.9323 1.25
f 48/3/4 49/10/4 50/13/4

usemtl ikea_wardrobe1_9_
v 14.3591 37.9323 1.25
f 49/1/1 51/13/1 50/3/1

v 14.3591 44.9323 1.25
f 51/13/1 49/1/1 52/10/1

usemtl ikea_wardrobe1_10_
f 49/3/6 9/10/6 52/13/6

f 9/10/6 49/3/6 8/1/6

usemtl ikea_wardrobe1_11_
f 9/72/3 51/73/3 52/1/3

f 51/73/3 9/72/3 11/74/3

vt 0 0.0270666
vt 0.0602081 0
vt 0.0602081 0.0270666
f 48/76/2 51/77/2 11/78/2

f 51/77/2 48/76/2 50/13/2

usemtl ikea_wardrobe1
f 11/11/1 43/71/1 48/75/1

usemtl ikea_wardrobe1_15_
f 44/13/1 46/1/1 47/10/1

f 46/1/1 44/13/1 45/3/1

