# Alias OBJ Model File
# Exported from SketchUp, (c) 2000-2006 Google, Inc.
# File units = meters

mtllib d6ab34db1f32ea8d3beb7107549c0121_obj0_object.mtl

g Mesh1 doors1 Model

usemtl Material1
v 1 0.1016 0.02
vt 4.85403 0
vn 0 0 1
v 0.98 0.1216 0.02
vt 4.81894 0.2
v 0.5 0.1016 0.02
vt 3.97684 0
f 1/1/1 2/2/1 3/3/1

v 1 2.3616 0.02
vt 4.85403 22.6
f 2/2/1 1/1/1 4/4/1

v 1 0.1016 8.4599e-018
vt 0.0350877 0
vn 1 0 -0
vt 0 22.6
vt 0 0
f 5/5/2 4/6/2 1/7/2

v 1 2.3616 8.4599e-018
vt 0.0350877 22.6
f 4/6/2 5/5/2 6/8/2

vt -1.75439 0
vn 0 0 -1
v 1.80478e-016 2.3616 8.4599e-018
vt -1.75439 22.6
f 5/9/3 7/6/3 6/10/3

v 1.80478e-016 0.1016 8.4599e-018
f 7/6/3 5/9/3 8/7/3

vt -1.75439 0.2
vn 0 -1 -0
v 1.80478e-016 0.1016 0.02
vt 0 0.2
f 5/11/4 9/7/4 8/12/4

vt -0.877193 0
f 9/7/4 5/11/4 3/13/4

f 3/13/4 5/11/4 1/9/4

v 0.48 0.1216 0.02
vt 3.94175 0.2
vt 3.09965 0
f 3/3/1 10/14/1 9/15/1

v 0.5 2.3616 0.02
vt 3.97684 22.6
f 10/14/1 3/3/1 11/16/1

v 0.52 0.1216 0.02
vt 4.01193 0.2
f 12/17/1 11/16/1 3/3/1

v 0.52 2.3416 0.02
vt 4.01193 22.4
f 11/16/1 12/17/1 13/18/1

usemtl Material2
vt 4.81894 0.200669
vt 4.01193 22.4749
vt 4.01193 0.200669
f 2/19/1 13/20/1 12/21/1

v 0.98 2.3416 0.02
vt 4.81894 22.4749
f 13/20/1 2/19/1 14/22/1

usemtl Material1
vt 4.81894 22.4
f 2/2/1 4/4/1 14/23/1

f 14/23/1 4/4/1 13/18/1

f 11/16/1 13/18/1 4/4/1

vt 1.75439 0.2
vn 0 1 -0
vt 0.877193 0
vt 1.75439 0
f 6/24/5 11/25/5 4/26/5

f 7/12/5 11/25/5 6/24/5

v 1.80478e-016 2.3616 0.02
f 11/25/5 7/12/5 15/7/5

vt -0.0350877 22.6
vn -1 0 -0
f 7/27/6 9/7/6 15/6/6

vt -0.0350877 0
f 9/7/6 7/27/6 8/28/6

v 0.02 0.1216 0.02
vt 3.13473 0.2
vt 3.09965 22.6
f 9/15/1 16/29/1 15/30/1

f 16/29/1 9/15/1 10/14/1

usemtl Material2
v 0.48 2.3416 0.02
vt 3.94175 22.4749
vt 3.13473 0.200669
vt 3.94175 0.200669
f 17/31/1 16/32/1 10/33/1

v 0.02 2.3416 0.02
vt 3.13473 22.4749
f 16/32/1 17/31/1 18/34/1

usemtl Material1
vt 3.94175 22.4
vt 3.13473 22.4
f 17/35/1 11/16/1 18/36/1

f 10/14/1 11/16/1 17/35/1

f 15/30/1 18/36/1 11/16/1

f 15/30/1 16/29/1 18/36/1

f 3/3/1 2/2/1 12/17/1

g Mesh2 Model

usemtl FrontColor
v 0.02 2.36 -0.59
vt -0.787402 23.2283
v 0 2.36 -0
v 0 2.36 -0.59
vt 0 23.2283
f 19/37/4 20/7/4 21/38/4

v 0.02 2.36 -0
vt -0.787402 0
f 20/7/4 19/37/4 22/39/4

v 0.98 2.36 -0.59
vt -38.5827 23.2283
f 23/40/4 22/39/4 19/37/4

v 0.98 2.36 -0
vt -38.5827 0
f 22/39/4 23/40/4 24/41/4

v 1 2.36 -0.59
vt -39.3701 23.2283
f 25/42/4 24/41/4 23/40/4

v 1 2.36 -0
vt -39.3701 0
f 24/41/4 25/42/4 26/43/4

vt -23.2283 92.9134
v 1 0 -0
vt 0 92.9134
f 25/44/6 27/7/6 26/45/6

v 1 0 -0.59
vt -23.2283 0
f 27/7/6 25/44/6 28/46/6

vt 39.3701 92.9134
v 0.98 0 -0.59
vt 38.5827 0
vt 39.3701 0
f 25/47/1 29/48/1 28/49/1

v 0.98 0.1 -0.59
vt 38.5827 3.93701
f 29/48/1 25/47/1 30/50/1

v 0.98 0.12 -0.59
vt 38.5827 4.72441
f 30/50/1 25/47/1 31/51/1

v 0.98 2.34 -0.59
vt 38.5827 92.126
f 31/51/1 25/47/1 32/52/1

vt 38.5827 92.9134
f 32/52/1 25/47/1 23/53/1

vt 23.2283 92.9134
vt 23.2283 4.72441
vt 23.2283 92.126
f 23/54/2 31/55/2 32/56/2

vt 23.2283 3.93701
f 23/54/2 30/57/2 31/55/2

v 0.98 2.34 -0.57
vt 22.4409 92.126
f 23/54/2 33/58/2 30/57/2

f 24/45/2 33/58/2 23/54/2

v 0.98 2.34 -0
vt 0 92.126
f 33/58/2 24/45/2 34/59/2

vt -38.5827 92.126
vt -0.787402 92.9134
vt -38.5827 92.9134
f 34/60/3 22/61/3 24/62/3

v 0.02 2.34 -0
vt -0.787402 92.126
f 22/61/3 34/60/3 35/63/3

vt 38.5827 22.4409
vt 0.787402 0
f 33/64/5 35/65/5 34/48/5

v 0.02 2.34 -0.57
vt 0.787402 22.4409
f 35/65/5 33/64/5 36/66/5

v 0.98 0.12 -0.57
vt -38.5827 4.72441
vt -0.787402 92.126
f 37/67/3 36/68/3 33/60/3

v 0.02 0.12 -0.57
vt -0.787402 4.72441
f 36/68/3 37/67/3 38/69/3

vt -38.5827 22.4409
v 0.02 0.12 -0
vt -0.787402 0
vt -0.787402 22.4409
f 37/70/4 39/71/4 38/72/4

v 0.98 0.12 -0
f 39/71/4 37/70/4 40/41/4

vt 22.4409 4.72441
vt 0 4.72441
f 37/73/2 34/59/2 40/74/2

f 34/59/2 37/73/2 33/58/2

f 37/73/2 30/57/2 33/58/2

v 0.98 0.1 -0.04
vt 1.5748 3.93701
f 37/73/2 41/75/2 30/57/2

v 0.98 0.1 -0.02
vt 0.787402 3.93701
f 37/73/2 42/76/2 41/75/2

f 40/74/2 42/76/2 37/73/2

v 0.98 0.1 -0
vt 0 3.93701
f 42/76/2 40/74/2 43/77/2

vt -38.5827 3.93701
vt -0.787402 4.72441
f 43/78/3 39/79/3 40/67/3

v 0.02 0.1 -0
vt -0.787402 3.93701
f 39/79/3 43/78/3 44/80/3

v 0.02 0.1 -0.02
vt 0.787402 0.787402
vt 0.787402 0
f 43/48/5 45/81/5 44/82/5

vt 38.5827 0.787402
f 45/81/5 43/48/5 42/83/5

v 0.98 0 -0.02
vt 0.787402 0
f 43/77/2 46/84/2 42/76/2

v 0.98 0 -0
f 46/84/2 43/77/2 47/7/2

f 43/78/3 27/43/3 47/41/3

vt -39.3701 92.9134
f 27/43/3 43/78/3 26/85/3

f 26/85/3 43/78/3 40/67/3

f 26/85/3 40/67/3 34/60/3

f 26/85/3 34/60/3 24/62/3

f 46/41/3 45/80/3 42/78/3

v 0.02 0 -0.02
f 45/80/3 46/41/3 48/71/3

v 0.02 0 -0.04
vt 0.787402 1.5748
f 46/83/5 49/86/5 48/81/5

v 0.98 0 -0.04
vt 38.5827 1.5748
f 49/86/5 46/83/5 50/87/5

vt 1.5748 0
f 50/88/2 42/76/2 46/84/2

f 41/75/2 42/76/2 50/88/2

vt 23.2283 0
f 29/89/2 41/75/2 50/88/2

f 41/75/2 29/89/2 30/57/2

v 0.02 0.1 -0.59
vt 0.787402 23.2283
vt 38.5827 23.2283
f 51/90/5 41/87/5 30/91/5

v 0.02 0.1 -0.04
f 41/87/5 51/90/5 52/86/5

vn 1 -5.83055e-017 -7.3578e-017
f 38/73/7 52/75/7 51/57/7

vt 0.787402 3.93701
f 38/73/7 45/92/7 52/75/7

vt -5.79354e-017 4.72441
f 39/93/7 45/92/7 38/73/7

vt -5.79354e-017 3.93701
f 45/92/7 39/93/7 44/94/7

f 44/80/3 20/45/3 39/79/3

v 0.02 0 -0
f 53/39/3 20/45/3 44/80/3

v 0 0 -0
f 20/45/3 53/39/3 54/7/3

v 0 0 -0.59
f 55/89/2 20/45/2 54/7/2

f 20/45/2 55/89/2 21/54/2

vt 0.787402 3.93701
f 55/7/1 51/95/1 21/45/1

v 0.02 0 -0.59
f 51/95/1 55/7/1 56/84/1

vt -1.5748 2.10942e-016
vn -1 2.67897e-016 4.87085e-017
vt -23.2283 3.93701
vt -23.2283 2.10942e-016
f 49/96/8 51/97/8 56/98/8

vt -1.5748 3.93701
f 51/97/8 49/96/8 52/99/8

vt 1.5748 4.59098e-017
f 52/75/7 45/92/7 49/100/7

vt 0.787402 4.59098e-017
f 49/100/7 45/92/7 48/101/7

vt -1.05471e-015 2.10942e-016
vn -1 2.67897e-016 -1.33948e-015
vt -0.787402 3.93701
vt -0.787402 2.10942e-016
f 53/102/9 45/103/9 48/104/9

vt -1.05471e-015 3.93701
f 45/103/9 53/102/9 44/105/9

f 49/82/1 41/50/1 52/95/1

f 41/50/1 49/82/1 50/48/1

v 0.02 0.12 -0.59
vt 0.787402 4.72441
f 21/45/1 51/95/1 57/106/1

v 0.02 2.34 -0.59
f 58/56/7 51/57/7 57/55/7

f 36/58/7 51/57/7 58/56/7

f 38/73/7 51/57/7 36/58/7

vt 3.11642e-016 4.72441
vn -1 6.09722e-017 3.95785e-016
vt -22.4409 92.126
vt -22.4409 4.72441
f 39/107/10 36/108/10 38/109/10

vt 3.11642e-016 92.126
f 36/108/10 39/107/10 35/110/10

f 39/79/3 20/45/3 35/63/3

f 35/63/3 20/45/3 22/61/3

f 51/95/1 31/51/1 57/106/1

f 31/51/1 51/95/1 30/50/1

f 32/52/1 57/106/1 31/51/1

vt 0.787402 92.126
f 57/106/1 32/52/1 58/111/1

f 23/53/1 58/111/1 32/52/1

vt 0.787402 92.9134
f 58/111/1 23/53/1 19/112/1

f 21/45/1 58/111/1 19/112/1

f 21/45/1 57/106/1 58/111/1

