# Alias OBJ Model File
# Exported from SketchUp, (c) 2000-2006 Google, Inc.
# File units = centimeters

mtllib 25a3e06371306912df6cfab91d65bb91_obj0_object.mtl

g Mesh1 Group1 Model

usemtl Color_009
v 3.91774 78.1712 1
vt -1.5748 0.436772
vn 0.83205 2.47965e-008 -0.5547
v 1.91774 82.1712 -2
vt 0 -0.982737
v 3.91774 82.1712 1
vt 0 0.436772
f 1/1/1 2/2/1 3/3/1

v 1.91774 78.1712 -2
vt -1.5748 -0.982737
f 2/2/1 1/1/1 4/4/1

g Mesh2 Model

usemtl M_0137_Black
v 0 198 -57
vt -22.4409 77.9528
vn -1 0 -0
v 0 2 -2
vt -0.787402 0.787402
v 0 198 -2
vt -0.787402 77.9528
f 5/5/2 6/6/2 7/7/2

v 0 2 -57
vt -22.4409 0.787402
f 6/6/2 5/5/2 8/8/2

vt 0 77.9528
vn 0 0 -1
v 2 2 -57
vt -0.787402 0.787402
vt 0 0.787402
f 5/9/3 9/10/3 8/11/3

v 2 198 -57
vt -0.787402 77.9528
f 9/10/3 5/9/3 10/12/3

usemtl FrontColor
vt -0.787402 22.4409
vn 0 -1 -0
vt 0 0.787402
vt 0 22.4409
f 10/13/4 7/14/4 5/15/4

v 2 198 -2
vt -0.787402 0.787402
f 7/14/4 10/13/4 11/16/4

v 58.5 198 -57
vt -23.0315 22.4409
f 12/17/4 11/16/4 10/13/4

v 58.5 198 -2
vt -23.0315 0.787402
f 11/16/4 12/17/4 13/18/4

v 58.5 164.3 -2
vt -0.787402 64.685
f 12/5/2 14/19/2 13/7/2

v 58.5 162.3 -2
vt -0.787402 63.8976
f 14/19/2 12/5/2 15/20/2

v 58.5 2 -2
vt -0.787402 0.787402
f 15/20/2 12/5/2 16/21/2

v 58.5 2 -57
f 16/21/2 12/5/2 17/8/2

vt -0.787402 0.787402
vn 7.98575e-017 -2.30201e-017 -1
vt -23.0315 77.9528
vt -23.0315 0.787402
f 9/22/5 12/23/5 17/24/5

vt -0.787402 77.9528
f 12/23/5 9/22/5 10/25/5

v 2 2 -2
vt -22.4409 0.787402
f 18/6/2 10/5/2 9/26/2

v 2 162.3 -2
f 19/20/2 10/5/2 18/6/2

v 2 164.3 -2
f 20/19/2 10/5/2 19/20/2

f 10/5/2 20/19/2 11/7/2

vt 0.787402 64.685
vn 0 0 1
vt 23.0315 77.9528
vt 0.787402 77.9528
f 20/27/6 13/28/6 11/29/6

vt 23.0315 64.685
f 13/28/6 20/27/6 14/30/6

usemtl M_0137_Black
vt 0.787402 63.8976
f 19/31/6 14/30/6 20/27/6

vt 23.0315 63.8976
f 14/30/6 19/31/6 15/32/6

usemtl FrontColor
vt 0.787402 0.787402
f 18/33/6 15/32/6 19/31/6

vt 23.0315 0.787402
f 15/32/6 18/33/6 16/34/6

usemtl M_0137_Black
v 2 3.60956e-014 -2
vt 0.787402 1.42109e-014
f 21/35/6 16/34/6 18/33/6

v 58.5 3.60956e-014 -2
vt 23.0315 1.42109e-014
f 16/34/6 21/35/6 22/36/6

usemtl FrontColor
vn 3.20585e-016 -1 -1.74516e-018
v 58.5 3.60956e-014 -57
f 21/16/7 23/17/7 22/18/7

v 2 1.86383e-014 -57
f 21/16/7 24/13/7 23/17/7

v 0 0 -2
f 25/14/7 24/13/7 21/16/7

v 0 1.80478e-014 -57
vt -2.27789e-030 22.4409
f 24/13/7 25/14/7 26/37/7

usemtl M_0137_Black
vt -0.787402 0
vt -22.4409 7.10543e-015
f 25/38/2 8/8/2 26/39/2

f 8/8/2 25/38/2 6/6/2

usemtl Color_009
vt 0 0.787402
vt 0 0
f 21/35/6 6/40/6 25/41/6

f 6/40/6 21/35/6 18/33/6

usemtl FrontColor
vt 0.787402 0.787402
vn -1.28238e-013 1 -1.39896e-014
vt 1.00975e-013 22.4409
vt 1.00975e-013 0.787402
f 18/42/8 8/43/8 6/44/8

vt 0.787402 22.4409
f 8/43/8 18/42/8 9/45/8

vt 23.0315 0.787402
vn 1.36182e-014 1 -4.6632e-015
vt 0.787402 22.4409
vt 0.787402 0.787402
f 16/46/9 9/47/9 18/48/9

vt 23.0315 22.4409
f 9/47/9 16/46/9 17/49/9

v 60.5 2 -2
vt 23.8189 0.787402
vn -1.40998e-016 1 1.53524e-034
vt 23.0315 22.4409
vt 23.0315 0.787402
f 27/50/10 17/51/10 16/52/10

v 60.5 2 -57
vt 23.8189 22.4409
f 17/51/10 27/50/10 28/53/10

usemtl Color_009
vt 0.787402 0.787402
vn 1 0 -0
v 60.5 3.60956e-014 -57
vt 22.4409 1.42109e-014
vt 22.4409 0.787402
f 27/54/11 29/55/11 28/56/11

v 60.5 3.60956e-014 -2
vt 0.787402 1.42109e-014
f 29/55/11 27/54/11 30/57/11

vt 23.8189 0.787402
vt 23.8189 1.42109e-014
f 27/58/6 22/36/6 30/59/6

f 22/36/6 27/58/6 16/34/6

f 27/58/6 15/32/6 16/34/6

v 60.5 162.3 -2
vt 23.8189 63.8976
f 15/32/6 27/58/6 31/60/6

vt 0.787402 63.8976
f 28/56/11 31/61/11 27/54/11

v 60.5 164.3 -2
vt 0.787402 64.685
f 31/61/11 28/56/11 32/62/11

v 60.5 198 -2
vt 0.787402 77.9528
f 32/62/11 28/56/11 33/63/11

v 60.5 198 -57
vt 22.4409 77.9528
f 33/63/11 28/56/11 34/64/11

usemtl M_0137_Black
vt -23.8189 0.787402
vn -2.25597e-015 -2.30201e-017 -1
vt -23.0315 77.9528
vt -23.8189 77.9528
f 28/65/12 12/66/12 34/67/12

vt -23.0315 0.787402
f 12/66/12 28/65/12 17/68/12

vt -23.8189 1.42109e-014
vn -4.51195e-015 8.58839e-032 -1
vt -23.0315 0.787402
vt -23.8189 0.787402
f 29/69/13 17/70/13 28/71/13

vt -23.0315 1.42109e-014
f 17/70/13 29/69/13 23/72/13

usemtl FrontColor
vt -23.8189 22.4409
f 29/73/4 22/18/4 23/17/4

vt -23.8189 0.787402
f 22/18/4 29/73/4 30/74/4

vt -0.787402 1.42109e-014
vt -22.4409 1.42109e-014
f 22/75/2 17/8/2 23/76/2

f 17/8/2 22/75/2 16/21/2

usemtl M_0137_Black
vt -23.0315 1.42109e-014
vn 1.59715e-016 7.33011e-032 -1
vt -0.787402 0.787402
vt -23.0315 0.787402
f 23/77/14 9/78/14 17/79/14

vt -0.787402 7.33791e-015
f 9/78/14 23/77/14 24/80/14

vt -0.787402 7.33791e-015
f 24/81/3 8/11/3 9/10/3

vt 0 7.10543e-015
f 8/11/3 24/81/3 26/82/3

usemtl FrontColor
f 34/73/4 13/18/4 12/17/4

f 13/18/4 34/73/4 33/74/4

usemtl Color_009
v 60.5 200 -2
vt 0.787402 78.7402
f 34/64/11 35/83/11 33/63/11

v 60.5 200 -57
vt 22.4409 78.7402
f 35/83/11 34/64/11 36/84/11

usemtl M_0137_Black
vt -23.8189 77.9528
v 0 200 -57
vt 0 78.7402
vt -23.8189 78.7402
f 34/85/3 37/86/3 36/87/3

vt -23.0315 77.9528
f 12/88/3 37/86/3 34/85/3

f 10/12/3 37/86/3 12/88/3

f 37/86/3 10/12/3 5/9/3

vt -22.4409 78.7402
f 7/7/2 37/89/2 5/5/2

v 0 200 -2
vt -0.787402 78.7402
f 37/89/2 7/7/2 38/90/2

usemtl Color_009
vt 23.8189 78.7402
f 7/9/6 35/91/6 38/86/6

f 11/29/6 35/91/6 7/9/6

f 13/28/6 35/91/6 11/29/6

vt 23.8189 77.9528
f 35/91/6 13/28/6 33/92/6

f 14/30/6 33/92/6 13/28/6

vt 23.8189 64.685
f 33/92/6 14/30/6 32/93/6

f 15/32/6 32/93/6 14/30/6

f 32/93/6 15/32/6 31/60/6

usemtl M_0137_Black
f 7/9/6 20/27/6 11/29/6

f 7/9/6 19/31/6 20/27/6

f 6/40/6 19/31/6 7/9/6

f 19/31/6 6/40/6 18/33/6

vn 0 1 -0
f 35/50/15 37/15/15 38/14/15

f 37/15/15 35/50/15 36/53/15

