# Alias OBJ Model File
# Exported from SketchUp, (c) 2000-2006 Google, Inc.
# File units = inches

mtllib malm_table_2_obj0_object.mtl

g Mesh1 Group1 Model

usemtl oak
v 42.4232 0 -30.043
vt -0.786164 0.943396
vn 0 -1 -0
v 27.4626 0 -12.1167
vt -0.0393082 0.0484866
v 26.6752 0 -30.043
vt -7.09426e-016 0.943396
f 1/1/1 2/2/1 3/3/1

v 41.6358 0 -12.1167
vt -0.746855 0.0484866
f 2/2/1 1/1/1 4/4/1

v 41.6358 0 -11.7359
vt -0.746855 0.0294811
f 4/4/1 1/1/1 5/5/1

v 42.4232 0 -11.7359
vt -0.786164 0.0294811
f 5/5/1 1/1/1 6/6/1

vt -0.0294811 0
vn -1 0 -0
v 42.4232 21.6535 -30.043
vt -0.943396 1.08097
vt -0.943396 0
f 6/7/2 7/8/2 1/9/2

v 42.4232 1.9685 -11.7359
vt -0.0294811 0.0982704
f 8/10/2 7/8/2 6/7/2

v 42.4232 20.8661 -11.7359
vt -0.0294811 1.04167
f 9/11/2 7/8/2 8/10/2

v 42.4232 20.8661 -11.1454
vt 0 1.04167
f 10/12/2 7/8/2 9/11/2

v 42.4232 21.6535 -11.1454
vt 0 1.08097
f 7/8/2 10/12/2 11/13/2

vt -0.786164 1.04167
vn 0 0 -1
v 26.6752 21.6535 -11.1454
vt -0.786164 1.08097
f 10/14/3 12/13/3 11/15/3

v 26.6752 20.8661 -11.1454
f 12/13/3 10/14/3 13/12/3

vt 0.786164 0
vn 0 1 -0
v 26.6752 20.8661 -11.7359
vt 0 0.0294811
vt 0 0
f 10/16/4 14/17/4 13/18/4

vt 0.786164 0.0294811
f 14/17/4 10/16/4 9/19/4

vt -0.786164 0.0982704
f 8/20/3 14/12/3 9/14/3

v 41.6358 1.9685 -11.7359
vt -0.746855 0.0982704
f 15/21/3 14/12/3 8/20/3

v 27.4626 1.9685 -11.7359
vt -0.0393082 0.0982704
f 16/22/3 14/12/3 15/21/3

v 27.4626 0 -11.7359
vt -0.0393082 0
f 17/23/3 14/12/3 16/22/3

v 26.6752 0 -11.7359
f 14/12/3 17/23/3 18/18/3

vt -0.0393082 0.0294811
f 3/3/1 17/24/1 18/17/1

f 17/24/1 3/3/1 2/2/1

v 27.4626 1.9685 -12.1167
vt -0.0484866 0.0982704
vt -0.0484866 0
f 17/7/2 19/25/2 2/26/2

f 19/25/2 17/7/2 16/10/2

vt 0.746855 0.0294811
vt 0.0393082 0.0484866
vt 0.0393082 0.0294811
f 15/27/4 19/28/4 16/29/4

v 41.6358 1.9685 -12.1167
vt 0.746855 0.0484866
f 19/28/4 15/27/4 20/30/4

vt 0.0294811 0.0982704
vn 1 0 -0
vt 0.0484866 0
vt 0.0484866 0.0982704
f 15/31/5 4/32/5 20/33/5

vt 0.0294811 0
f 4/32/5 15/31/5 5/34/5

vt -0.786164 0
vt -0.746855 0
f 15/21/3 6/35/3 5/36/3

f 6/35/3 15/21/3 8/20/3

f 4/36/3 19/22/3 20/21/3

f 19/22/3 4/36/3 2/23/3

vt 0.943396 -1.60355e-034
vn 1 -9.0686e-018 7.70734e-016
vt 0.0294811 1.04167
vt 0.0294811 -2.06058e-034
f 3/37/6 14/38/6 18/39/6

v 26.6752 21.6535 -30.043
vt 0.943396 1.08097
f 21/40/6 14/38/6 3/37/6

f 12/13/6 14/38/6 21/40/6

f 14/38/6 12/13/6 13/12/6

f 21/3/1 11/35/1 12/18/1

f 11/35/1 21/3/1 7/1/1

vt 7.09426e-016 0
vn 0 0 1
vt 0.786164 1.08097
vt 7.09426e-016 1.08097
f 3/41/7 7/42/7 21/43/7

f 7/42/7 3/41/7 1/16/7

g Mesh2 Group1 Model

v 27.4626 1.9685 -11.1454
vt 0.0393082 0
v 26.6752 1.9685 -11.6572
vt 0 0.0255503
v 26.6752 1.9685 -11.1454
f 22/44/4 23/45/4 24/18/4

v 27.4626 1.9685 -11.6572
vt 0.0393082 0.0255503
f 23/45/4 22/44/4 25/46/4

v 41.6358 1.9685 -11.1454
vt 0.746855 0
f 26/47/4 25/46/4 22/44/4

v 41.6358 1.9685 -11.6572
vt 0.746855 0.0255503
f 25/46/4 26/47/4 27/48/4

v 42.4232 1.9685 -11.1454
f 28/16/4 27/48/4 26/47/4

v 42.4232 1.9685 -11.6572
vt 0.786164 0.0255503
f 27/48/4 28/16/4 29/49/4

vt 0 0.0982704
v 42.4232 10.6299 -11.6572
vt -0.0255503 0.53066
vt -0.0255503 0.0982704
f 28/50/2 30/51/2 29/52/2

v 42.4232 10.6299 -11.1454
vt 0 0.53066
f 30/51/2 28/50/2 31/53/2

v 26.6752 10.6299 -11.1454
vt -0.786164 0.53066
f 28/20/3 32/53/3 31/54/3

f 26/21/3 32/53/3 28/20/3

f 22/22/3 32/53/3 26/21/3

f 32/53/3 22/22/3 24/50/3

vt 0.0255503 0.0982704
f 23/55/5 32/53/5 24/50/5

v 26.6752 10.6299 -11.6572
vt 0.0255503 0.53066
f 32/53/5 23/55/5 33/56/5

vt 0.786164 0.53066
f 23/50/7 30/57/7 33/53/7

vt 0.0393082 0.0982704
f 25/58/7 30/57/7 23/50/7

vt 0.746855 0.0982704
f 27/59/7 30/57/7 25/58/7

vt 0.786164 0.0982704
f 30/57/7 27/59/7 29/60/7

vt -0.786164 0.0255503
f 30/61/1 32/18/1 33/45/1

f 32/18/1 30/61/1 31/35/1

g Mesh3 Group1 Model

v 26.6752 20.0787 -11.1454
vt 0 1.00236
v 42.4232 11.4173 -11.1454
vt -0.786164 0.569969
v 26.6752 11.4173 -11.1454
vt 0 0.569969
f 34/62/3 35/63/3 36/64/3

v 42.4232 20.0787 -11.1454
vt -0.786164 1.00236
f 35/63/3 34/62/3 37/65/3

v 42.4232 20.0787 -11.6572
f 34/18/1 38/61/1 37/35/1

v 26.6752 20.0787 -11.6572
f 38/61/1 34/18/1 39/45/1

v 26.6752 11.4173 -11.6572
vt 0.0255503 0.569969
vt 0.0255503 1.00236
f 34/62/5 40/66/5 39/67/5

f 40/66/5 34/62/5 36/64/5

f 35/16/4 40/45/4 36/18/4

v 42.4232 11.4173 -11.6572
f 40/45/4 35/16/4 41/49/4

vt -0.0255503 1.00236
vt -0.0255503 0.569969
f 35/64/2 38/68/2 41/69/2

f 38/68/2 35/64/2 37/62/2

vt 0.786164 1.00236
vt 0.786164 0.569969
f 38/70/7 40/64/7 41/71/7

f 40/64/7 38/70/7 39/62/7

