# Alias OBJ Model File
# Exported from SketchUp, (c) 2000-2006 Google, Inc.
# File units = centimeters

mtllib 68bdc363716f181c61b4bfc684868124_obj0_object.mtl

g Mesh1 BJ_RKUDDEN_bar1 Model

usemtl _Wood_floor_light_
v 286.491 102 -361.38
vt -0.229659 0.836614
vn -1 0 -0
v 286.491 99 -291.38
vt -1.18424e-016 0.812008
v 286.491 102 -291.38
vt -1.18424e-016 0.836614
f 1/1/1 2/2/1 3/3/1

v 286.491 99 -361.38
vt -0.229659 0.812008
f 2/2/1 1/1/1 4/4/1

vt 0 0.836614
vn 0 0 -1
v 356.491 99 -361.38
vt 0 0.812008
f 1/5/2 5/4/2 4/6/2

v 356.491 102 -361.38
f 5/4/2 1/5/2 6/1/2

vt 0 0.574147
vn 0 1 -0
v 356.491 102 -291.38
vt 0.229659 0
vt 0.229659 0.574147
f 1/7/3 7/8/3 6/9/3

vt 0 2.96059e-016
f 7/8/3 1/7/3 3/10/3

vt -6.10653e-032 0.812008
vn -5.15651e-016 0 1
vt 0.229659 0.836614
vt -6.10653e-032 0.836614
f 2/11/4 7/12/4 3/13/4

v 356.491 99 -291.38
vt 0.229659 0.812008
f 7/12/4 2/11/4 8/14/4

vn 0 -1 -0
v 288.491 99 -293.38
vt -0.00656168 0.0164042
vt -0.229659 0
f 2/10/5 9/15/5 8/16/5

v 288.491 99 -359.38
vt -0.00656168 0.557743
f 9/15/5 2/10/5 10/17/5

f 4/7/5 10/17/5 2/10/5

vt -0.229659 0.574147
f 10/17/5 4/7/5 5/18/5

v 291.491 99 -359.38
vt -0.0164042 0.557743
f 10/17/5 5/18/5 11/19/5

v 351.491 99 -359.38
vt -0.213255 0.557743
f 11/19/5 5/18/5 12/20/5

v 354.491 99 -359.38
vt -0.223097 0.557743
f 12/20/5 5/18/5 13/21/5

v 354.491 99 -356.38
vt -0.223097 0.533136
f 13/21/5 5/18/5 14/22/5

v 354.491 99 -296.38
vt -0.223097 0.0410105
f 14/22/5 5/18/5 15/23/5

v 354.491 99 -293.38
vt -0.223097 0.0164042
f 15/23/5 5/18/5 16/24/5

f 8/16/5 16/24/5 5/18/5

v 351.491 99 -293.38
vt -0.213255 0.0164042
f 8/16/5 17/25/5 16/24/5

v 291.491 99 -293.38
vt -0.0164042 0.0164042
f 8/16/5 18/26/5 17/25/5

f 8/16/5 9/15/5 18/26/5

vt 0.00656168 0.812008
vn -4.65682e-015 1.4175e-016 1
v 291.491 92 -293.38
vt 0.0164042 0.754593
vt 0.0164042 0.812008
f 9/27/6 19/28/6 18/29/6

v 291.491 25 -293.38
vt 0.0164042 0.205052
f 9/27/6 20/30/6 19/28/6

v 291.491 18 -293.38
vt 0.0164042 0.147638
f 9/27/6 21/31/6 20/30/6

v 288.491 1.80478e-014 -293.38
vt 0.00656168 1.50355e-016
f 22/32/6 21/31/6 9/27/6

v 291.491 1.80478e-014 -293.38
vt 0.0164042 1.50355e-016
f 21/31/6 22/32/6 23/33/6

v 291.491 1.80478e-014 -296.38
vt -0.0164042 0.0410105
f 22/15/5 24/34/5 23/26/5

v 288.491 1.80478e-014 -296.38
vt -0.00656168 0.0410105
f 24/34/5 22/15/5 25/35/5

vt -0.00656168 1.4803e-016
v 288.491 99 -296.38
vt -0.0164042 0.812008
vt -0.0164042 1.4803e-016
f 22/36/1 26/37/1 25/38/1

vt -0.00656168 0.812008
f 26/37/1 22/36/1 9/39/1

v 288.491 99 -356.38
vt -0.00656168 0.533136
f 9/15/5 27/40/5 26/35/5

f 9/15/5 10/17/5 27/40/5

vt -0.223097 0.812008
v 288.491 92 -356.38
vt -0.213255 0.754593
vt -0.213255 0.812008
f 10/41/1 28/42/1 27/43/1

v 288.491 1.80478e-014 -356.38
vt -0.213255 1.4803e-016
f 28/42/1 10/41/1 29/44/1

v 288.491 1.80478e-014 -359.38
vt -0.223097 1.4803e-016
f 29/44/1 10/41/1 30/45/1

vt -0.00656168 0.812008
vn -9.31364e-015 2.83499e-016 -1
v 291.491 1.80478e-014 -359.38
vt -0.0164042 -1.00899e-017
vt -0.00656168 -1.00899e-017
f 10/46/7 31/47/7 30/48/7

v 291.491 18 -359.38
vt -0.0164042 0.147638
f 31/47/7 10/46/7 32/49/7

v 291.491 25 -359.38
vt -0.0164042 0.205052
f 32/49/7 10/46/7 33/50/7

v 291.491 92 -359.38
vt -0.0164042 0.754593
f 33/50/7 10/46/7 34/51/7

vt -0.0164042 0.812008
f 34/51/7 10/46/7 11/52/7

vt -0.0164042 0.812008
v 351.491 92 -359.38
vt -0.0164042 0.754593
f 11/53/2 35/42/2 34/54/2

f 35/42/2 11/53/2 12/43/2

vt -0.223097 0.812008
vn 9.31364e-015 2.83499e-016 -1
vt -0.213255 0.754593
vt -0.213255 0.812008
f 13/55/8 35/56/8 12/57/8

v 351.491 25 -359.38
vt -0.213255 0.205052
f 13/55/8 36/58/8 35/56/8

v 351.491 18 -359.38
vt -0.213255 0.147638
f 13/55/8 37/59/8 36/58/8

v 354.491 0 -359.38
vt -0.223097 -1.5812e-016
f 38/60/8 37/59/8 13/55/8

v 351.491 0 -359.38
vt -0.213255 -1.5812e-016
f 37/59/8 38/60/8 39/61/8

v 351.491 0 -356.38
vt -0.213255 0.533136
f 38/21/5 40/62/5 39/20/5

v 354.491 0 -356.38
f 40/62/5 38/21/5 41/22/5

vt 0.223097 0
vn 1 0 -0
v 354.491 92 -356.38
vt 0.213255 0.754593
vt 0.213255 0
f 38/63/9 42/64/9 41/65/9

vt 0.213255 0.812008
f 42/64/9 38/63/9 14/66/9

vt 0.223097 0.812008
f 14/66/9 38/63/9 13/67/9

vt 0.0164042 0.812008
f 15/68/9 42/64/9 14/66/9

v 354.491 92 -296.38
vt 0.0164042 0.754593
f 42/64/9 15/68/9 43/69/9

v 354.491 0 -296.38
vt 0.0164042 0
f 15/68/9 44/70/9 43/69/9

vt 0.00656168 0.812008
f 16/71/9 44/70/9 15/68/9

v 354.491 0 -293.38
vt 0.00656168 0
f 44/70/9 16/71/9 45/72/9

vn 0 0 1
v 351.491 0 -293.38
f 16/67/10 46/65/10 45/63/10

v 351.491 18 -293.38
vt 0.213255 0.147638
f 46/65/10 16/67/10 47/73/10

v 351.491 25 -293.38
vt 0.213255 0.205052
f 47/73/10 16/67/10 48/74/10

v 351.491 92 -293.38
f 48/74/10 16/67/10 49/64/10

f 49/64/10 16/67/10 17/66/10

vn -6.01593e-016 5.64244e-032 1
vt 0.0164042 0.754593
f 17/66/11 19/75/11 49/64/11

vt 0.0164042 0.812008
f 19/75/11 17/66/11 18/76/11

v 351.491 92 -296.38
vt -0.213255 0.0410105
f 19/26/5 50/77/5 49/25/5

v 291.491 92 -296.38
f 50/77/5 19/26/5 51/34/5

vt 0.00656168 0.754593
vn 1 1.89287e-016 -1.25126e-028
v 291.491 25 -296.38
vt 0.0164042 0.205052
vt 0.0164042 0.754593
f 19/78/12 52/79/12 51/80/12

v 291.491 18 -296.38
vt 0.0164042 0.147638
f 52/79/12 19/78/12 53/81/12

vt 0.0164042 1.40267e-016
f 19/78/12 24/82/12 53/81/12

vt 0.00656168 1.40267e-016
f 19/78/12 23/83/12 24/82/12

vt 0.00656168 0.205052
f 20/84/12 23/83/12 19/78/12

vt 0.00656168 0.147638
f 23/83/12 20/84/12 21/85/12

vt 0.0164042 0.147638
vt 0.0164042 0.205052
f 21/86/10 48/74/10 20/87/10

f 48/74/10 21/86/10 47/73/10

vt -0.0164042 0.0164042
vn 1.1757e-032 -1 7.51991e-016
v 320.491 18 -296.38
vt -0.111549 0.0410105
vt -0.213255 0.0164042
f 21/88/13 54/89/13 47/90/13

vt -0.0164042 0.0410105
f 54/89/13 21/88/13 53/91/13

vt -0.00656168 0.147638
vt -0.0164042 0.205052
vt -0.0164042 0.147638
f 21/92/1 52/93/1 53/94/1

vt -0.00656168 0.205052
f 52/93/1 21/92/1 20/95/1

vt 0.213255 0.0164042
vt 0.0164042 0.0410105
vt 0.0164042 0.0164042
f 48/96/3 52/97/3 20/98/3

v 320.491 25 -296.38
vt 0.111549 0.0410105
f 52/97/3 48/96/3 55/99/3

v 323.491 25 -296.38
vt 0.121391 0.0410105
f 55/99/3 48/96/3 56/100/3

v 351.491 25 -296.38
vt 0.213255 0.0410105
f 56/100/3 48/96/3 57/101/3

f 48/95/1 50/54/1 57/93/1

vt -0.00656168 0.754593
f 50/54/1 48/95/1 49/102/1

vt -0.223097 0.754593
vt -0.213255 0.205052
f 43/103/2 57/104/2 50/42/2

v 351.491 18 -296.38
vt -0.213255 0.147638
f 43/103/2 58/105/2 57/104/2

vt -0.223097 0
f 44/106/2 58/105/2 43/103/2

v 351.491 0 -296.38
vt -0.213255 0
f 58/105/2 44/106/2 59/107/2

f 44/23/5 46/25/5 59/77/5

f 46/25/5 44/23/5 45/24/5

vt -0.00656168 0
vt -0.0164042 0
f 46/108/1 58/94/1 59/109/1

f 58/94/1 46/108/1 47/92/1

f 47/92/1 57/93/1 58/94/1

f 57/93/1 47/92/1 48/95/1

vt -0.121391 0.205052
f 58/105/2 56/110/2 57/104/2

v 323.491 18 -296.38
vt -0.121391 0.147638
f 56/110/2 58/105/2 60/111/2

vt -0.121391 0.0410105
vt -0.213255 0.0410105
f 47/90/13 60/112/13 58/113/13

f 47/90/13 54/89/13 60/112/13

vt -0.111549 0.205052
vn -1.20319e-014 6.86113e-032 -1
vt -0.121391 0.147638
vt -0.111549 0.147638
f 55/114/14 60/115/14 54/116/14

vt -0.121391 0.205052
f 60/115/14 55/114/14 56/117/14

v 323.491 25 -356.38
vt 0.121391 0.533136
f 61/118/3 55/99/3 56/100/3

v 320.491 25 -356.38
vt 0.111549 0.533136
f 55/99/3 61/118/3 62/119/3

vt 0.213255 0.557743
f 36/120/3 62/119/3 61/118/3

vt 0.0164042 0.557743
f 33/121/3 62/119/3 36/120/3

v 291.491 25 -356.38
vt 0.0164042 0.533136
f 62/119/3 33/121/3 63/122/3

vt 0.223097 0.147638
vt 0.223097 0.205052
f 63/74/9 32/123/9 33/124/9

v 291.491 18 -356.38
vt 0.213255 0.147638
f 32/123/9 63/74/9 64/125/9

vt 0.0164042 0.147638
vn 2.53302e-015 2.01562e-031 1
vt 0.111549 0.205052
vt 0.0164042 0.205052
f 64/126/15 62/127/15 63/128/15

v 320.491 18 -356.38
vt 0.111549 0.147638
f 62/127/15 64/126/15 65/129/15

vt -0.0164042 0.533136
vn 1.12658e-017 -1 -2.25597e-015
vt -0.213255 0.557743
vt -0.111549 0.533136
f 64/130/16 37/131/16 65/132/16

vt -0.0164042 0.557743
f 37/131/16 64/130/16 32/133/16

vt -0.213255 0.147638
vt -0.223097 0.205052
vt -0.223097 0.147638
f 64/134/1 33/135/1 32/136/1

f 33/135/1 64/134/1 63/104/1

vt 0.00656168 0.754593
vt 0.0164042 0.147638
vt 0.0164042 0.205052
f 28/137/10 64/138/10 63/139/10

vt 0.00656168 1.4803e-016
f 29/140/10 64/138/10 28/137/10

v 291.491 1.80478e-014 -356.38
vt 0.0164042 1.4803e-016
f 64/138/10 29/140/10 66/141/10

vt -0.0164042 0.533136
f 29/40/5 31/19/5 66/142/5

f 31/19/5 29/40/5 30/17/5

vt 0.223097 9.37522e-016
vn 1 -1.9251e-014 -1.14236e-030
vt 0.213255 0.147638
vt 0.213255 9.37522e-016
f 31/143/17 64/144/17 66/145/17

vt 0.223097 0.147638
f 64/144/17 31/143/17 32/146/17

v 291.491 92 -356.38
f 28/137/10 63/139/10 67/69/10

vt 0.223097 0.205052
vn 1 4.30992e-015 2.51796e-031
vt 0.213255 0.754593
vt 0.213255 0.205052
f 33/147/18 67/148/18 63/149/18

vt 0.223097 0.754593
f 67/148/18 33/147/18 34/150/18

f 35/20/5 67/142/5 34/19/5

v 351.491 92 -356.38
f 67/142/5 35/20/5 68/62/5

v 351.491 25 -356.38
f 35/103/1 69/104/1 68/42/1

f 69/104/1 35/103/1 36/135/1

vt 0.213255 0.533136
f 36/120/3 61/118/3 69/151/3

v 323.491 18 -356.38
vt 0.121391 0.147638
vn -2.53302e-015 -1.03031e-032 1
vt 0.213255 0.205052
vt 0.121391 0.205052
f 70/152/19 69/153/19 61/154/19

v 351.491 18 -356.38
vt 0.213255 0.147638
f 69/153/19 70/152/19 71/155/19

vt -0.121391 0.533136
vt -0.213255 0.533136
f 70/156/16 37/131/16 71/157/16

f 65/132/16 37/131/16 70/156/16

vt 0.121391 0.147638
vt 0.111549 0.205052
vt 0.111549 0.147638
f 70/158/10 62/159/10 65/160/10

vt 0.121391 0.205052
f 62/159/10 70/158/10 61/161/10

vt 0.0164042 0.205052
vn 1 -1.08955e-030 -4.81274e-015
vt 0.213255 0.147638
vt 0.213255 0.205052
f 56/162/20 70/163/20 61/164/20

vt 0.0164042 0.147638
f 70/163/20 56/162/20 60/165/20

vt -0.111549 0.0410105
vn 4.51195e-015 -1 -3.75996e-016
vt -0.121391 0.533136
vt -0.121391 0.0410105
f 54/166/21 70/167/21 60/168/21

vt -0.111549 0.533136
f 70/167/21 54/166/21 65/169/21

vt -0.0164042 0.147638
vn -1 7.77275e-031 3.60956e-015
vt -0.213255 0.205052
vt -0.213255 0.147638
f 54/170/22 62/171/22 65/172/22

vt -0.0164042 0.205052
f 62/171/22 54/170/22 55/173/22

vt -0.0164042 0.147638
vn 1.26651e-015 4.03307e-032 -1
vt -0.111549 0.205052
vt -0.111549 0.147638
f 53/174/23 55/175/23 54/176/23

vt -0.0164042 0.205052
f 55/175/23 53/174/23 52/177/23

vt -0.0164042 0.147638
vn 5.57341e-015 -1.0212e-016 -1
v 288.491 92 -296.38
vt -0.00656168 0.754593
vt -0.0164042 0.205052
f 53/178/24 72/179/24 52/180/24

vt -0.0164042 1.52218e-016
f 24/181/24 72/179/24 53/178/24

vt -0.00656168 1.52218e-016
f 72/179/24 24/181/24 25/182/24

vt -0.0164042 0.754593
f 25/38/1 26/37/1 72/183/1

f 27/43/1 72/183/1 26/37/1

f 72/183/1 27/43/1 28/42/1

f 67/142/5 72/35/5 28/40/5

f 72/35/5 67/142/5 51/34/5

v 291.491 99 -296.38
vt 0.0164042 0.812008
f 67/64/9 73/184/9 51/80/9

v 291.491 99 -356.38
vt 0.213255 0.812008
f 73/184/9 67/64/9 74/185/9

v 351.491 99 -356.38
vt 0.0164042 0.812008
f 67/69/10 75/185/10 74/186/10

f 75/185/10 67/69/10 68/64/10

vt -0.213255 0.812008
f 50/54/1 75/187/1 68/42/1

v 351.491 99 -296.38
vt -0.0164042 0.812008
f 75/187/1 50/54/1 76/188/1

vn 6.01593e-016 0 -1
vt -0.0164042 0.812008
f 50/42/25 73/189/25 76/187/25

vt -0.0164042 0.754593
f 73/189/25 50/42/25 51/190/25

f 73/34/5 75/62/5 76/77/5

f 75/62/5 73/34/5 74/142/5

f 42/22/5 50/77/5 68/62/5

f 50/77/5 42/22/5 43/23/5

vt 0.223097 0.754593
f 69/74/10 42/191/10 68/64/10

f 71/125/10 42/191/10 69/74/10

f 40/65/10 42/191/10 71/125/10

f 42/191/10 40/65/10 41/63/10

f 37/136/1 40/107/1 71/134/1

f 40/107/1 37/136/1 39/106/1

f 71/134/1 36/135/1 37/136/1

f 36/135/1 71/134/1 69/104/1

f 36/135/1 71/134/1 69/104/1

f 71/134/1 36/135/1 37/136/1

vt -0.0164042 0.205052
f 37/134/2 33/192/2 36/104/2

vt -0.0164042 0.147638
f 33/192/2 37/134/2 32/193/2

vt -0.0164042 0.754593
f 52/180/24 72/179/24 51/194/24

f 5/14/9 7/5/9 8/6/9

f 7/5/9 5/14/9 6/12/9

