# Alias OBJ Model File
# Exported from SketchUp, (c) 2000-2006 Google, Inc.
# File units = millimeters

mtllib f8888a2819d315ac2f6548d8d576841c_obj0_object.mtl

g Mesh1 Handle1_1 Model

usemtl M_0131_Silver
v 463 860 65
vt 0 0
vn 1 0 -0
v 463 872 53
vt 0.472441 0.472441
v 463 1010 65
vt 0 5.90551
f 1/1/1 2/2/1 3/3/1

v 463 860 15
vt 1.9685 0
f 2/2/1 1/1/1 4/4/1

v 451 860 65
vn 0 -1 -0
vt -0.472441 1.9685
vt -0.472441 0
f 5/1/2 4/5/2 1/6/2

v 451 860 15
vt 0 1.9685
f 4/5/2 5/1/2 6/7/2

vn -1 0 -0
v 451 872 53
vt -0.472441 0.472441
vt -1.9685 0
f 5/1/3 7/8/3 6/9/3

v 451 998 53
vt -0.472441 5.43307
f 7/8/3 5/1/3 8/10/3

v 451 1010 65
f 9/3/3 8/10/3 5/1/3

v 451 1010 15
vt -1.9685 5.90551
f 8/10/3 9/3/3 10/11/3

vt 0.472441 0
vn 0 1 -0
vt 0 1.9685
f 3/12/4 10/13/4 9/1/4

v 463 1010 15
vt 0.472441 1.9685
f 10/13/4 3/12/4 11/14/4

v 463 998 53
vt 0.472441 5.43307
vt 1.9685 5.90551
f 3/3/1 12/15/1 11/16/1

f 12/15/1 3/3/1 2/2/1

vt -0.472441 0.472441
vn 0 0 -1
vt 0 5.43307
vt -0.472441 5.43307
f 2/17/5 8/18/5 12/19/5

vt 0 0.472441
f 8/18/5 2/17/5 7/20/5

vt 0.472441 0.472441
v 451 872 15
vt 0 0.472441
f 2/21/4 13/7/4 7/22/4

v 463 872 15
vt 0.472441 1.9685
f 13/7/4 2/21/4 14/23/4

vt 1.9685 0.472441
f 2/2/1 4/4/1 14/24/1

vt -1.9685 0.472441
f 6/9/3 7/8/3 13/25/3

v 463 998 15
vt -0.472441 1.9685
vt -0.472441 0.472441
f 8/22/2 15/26/2 12/27/2

v 451 998 15
f 15/26/2 8/22/2 16/13/2

vt -1.9685 5.43307
f 8/10/3 10/11/3 16/28/3

vt 1.9685 5.43307
f 11/16/1 12/15/1 15/29/1

vn 0 0 1
vt 0.472441 5.90551
f 5/1/6 3/30/6 9/3/6

f 3/30/6 5/1/6 1/12/6

g Mesh2 Handle1_2 Model

v 864 860 65
v 864 872 53
v 864 1010 65
f 17/1/1 18/2/1 19/3/1

v 864 860 15
f 18/2/1 17/1/1 20/4/1

v 852 860 65
f 21/1/2 20/5/2 17/6/2

v 852 860 15
f 20/5/2 21/1/2 22/7/2

v 852 872 53
f 21/1/3 23/8/3 22/9/3

v 852 998 53
f 23/8/3 21/1/3 24/10/3

v 852 1010 65
f 25/3/3 24/10/3 21/1/3

v 852 1010 15
f 24/10/3 25/3/3 26/11/3

f 19/12/4 26/13/4 25/1/4

v 864 1010 15
f 26/13/4 19/12/4 27/14/4

v 864 998 53
f 19/3/1 28/15/1 27/16/1

f 28/15/1 19/3/1 18/2/1

f 18/17/5 24/18/5 28/19/5

f 24/18/5 18/17/5 23/20/5

v 852 872 15
f 18/21/4 29/7/4 23/22/4

v 864 872 15
f 29/7/4 18/21/4 30/23/4

f 18/2/1 20/4/1 30/24/1

f 22/9/3 23/8/3 29/25/3

v 864 998 15
f 24/22/2 31/26/2 28/27/2

v 852 998 15
f 31/26/2 24/22/2 32/13/2

f 24/10/3 26/11/3 32/28/3

f 27/16/1 28/15/1 31/29/1

f 21/1/6 19/30/6 25/3/6

f 19/30/6 21/1/6 17/12/6

g Mesh3 Model

usemtl M_0129_WhiteSmoke
v 1400 1810 -0
vt 55.1181 0
v 0 1810 -510
vt 0 20.0787
v 0 1810 -0
f 33/31/4 34/32/4 35/1/4

v 1400 1810 -510
vt 55.1181 20.0787
f 34/32/4 33/31/4 36/33/4

vt 0 71.2598
v 1400 0 -510
vt 20.0787 0
vt 20.0787 71.2598
f 33/34/1 37/35/1 36/36/1

v 1400 0 -0
f 37/35/1 33/34/1 38/1/1

v 1385 65 2.01407e-032
vt 54.5276 2.55906
vt 55.1181 71.2598
f 39/37/6 38/31/6 33/38/6

v 0 0 -0
f 38/31/6 39/37/6 40/1/6

v 800 65 2.01407e-032
vt 31.4961 2.55906
f 40/1/6 39/37/6 41/39/6

vt 54.5276 2.64314e-033
vn -3.08509e-016 1 1.34272e-033
v 800 65 -505
vt 31.4961 19.8819
vt 31.4961 2.64314e-033
f 39/40/7 42/41/7 41/42/7

v 1385 65 -505
vt 54.5276 19.8819
f 42/41/7 39/40/7 43/43/7

v 1385 426.278 1.73491e-032
vt 6.83034e-034 16.7826
vt -19.8819 2.55906
vt 7.92943e-034 2.55906
f 44/44/3 43/45/3 39/46/3

v 1385 426.278 -505
vt -19.8819 16.7826
f 43/45/3 44/44/3 45/47/3

v 800 426.278 1.53699e-032
vt -31.4961 -6.05114e-034
vt -54.5276 19.8819
vt -54.5276 -6.83034e-034
f 46/48/2 45/49/2 44/50/2

v 800 426.278 -505
vt -31.4961 19.8819
f 45/49/2 46/48/2 47/51/2

vt -6.05114e-034 16.7826
vt 19.8819 2.55906
vt 19.8819 16.7826
f 46/52/1 42/53/1 47/54/1

vt -7.92943e-034 2.55906
f 42/53/1 46/52/1 41/55/1

v 785 65 -9.98345e-033
vt 30.9055 2.55906
vt 31.4961 16.7826
f 48/56/6 41/39/6 46/57/6

v 15 65 -9.98345e-033
vt 0.590551 2.55906
f 41/39/6 48/56/6 49/58/6

vt 30.9055 -1.31016e-033
vn -8.78951e-017 1 -6.65563e-034
v 15 65 -505
vt 0.590551 19.8819
vt 0.590551 -1.31016e-033
f 48/59/8 50/60/8 49/61/8

v 785 65 -505
vt 30.9055 19.8819
f 50/60/8 48/59/8 51/62/8

vt -3.93049e-034 2.55906
v 785 1795 -505
vt -19.8819 70.6693
vt -19.8819 2.55906
f 48/63/3 52/64/3 51/65/3

v 785 1795 -0
vt 0 70.6693
f 52/64/3 48/63/3 53/66/3

vt 30.9055 70.6693
f 48/56/6 46/57/6 53/67/6

v 800 435 1.52684e-032
vt 31.4961 17.126
f 53/67/6 46/57/6 54/68/6

vn -3.36405e-034 -2.23243e-032 1
v 1385 435 4.06883e-031
vt 54.5276 17.126
f 46/57/9 55/69/9 54/68/9

vt 54.5276 16.7826
f 55/69/9 46/57/9 44/70/9

v 1385 435 -505
vt -19.8819 17.126
vt 1.6019e-032 17.126
f 56/71/3 44/44/3 55/72/3

f 44/44/3 56/71/3 45/47/3

f 56/69/6 47/57/6 45/70/6

v 800 435 -505
f 47/57/6 56/69/6 57/68/6

vt 31.4961 19.8819
vt 54.5276 -1.6019e-032
vt 54.5276 19.8819
f 57/73/4 55/74/4 56/75/4

vt 31.4961 -6.01117e-034
f 55/74/4 57/73/4 54/76/4

vt 19.8819 17.126
v 800 766.278 1.09402e-032
vt -4.30715e-034 30.1684
vt -6.01117e-034 17.126
f 57/77/1 58/78/1 54/79/1

v 800 766.278 -505
vt 19.8819 30.1684
f 58/78/1 57/77/1 59/80/1

vt -31.4961 17.126
vn -9.19518e-015 -8.74704e-018 -1
vt -30.9055 70.6693
vt -31.4961 30.1684
f 57/81/10 52/82/10 59/83/10

vt -31.4961 16.7826
f 47/84/10 52/82/10 57/81/10

vt -30.9055 2.55906
f 47/84/10 51/85/10 52/82/10

vt -31.4961 2.55906
f 42/86/10 51/85/10 47/84/10

v 785 50 -505
vt -30.9055 1.9685
f 42/86/10 60/87/10 51/85/10

v 800 50 -505
vt -31.4961 1.9685
f 60/87/10 42/86/10 61/88/10

vt 54.5276 2.55906
vn 1.28903e-018 3.03221e-016 1
vt 31.4961 16.7826
vt 31.4961 2.55906
f 43/89/11 47/90/11 42/91/11

vt 54.5276 16.7826
f 47/90/11 43/89/11 45/92/11

v 15 1795 -505
vt 0.590551 70.6693
vn 1.17193e-016 -2.82286e-033 1
f 62/93/12 51/56/12 52/67/12

vt 0.590551 2.55906
f 51/56/12 62/93/12 50/94/12

vt 19.8819 70.6693
vn 1 3.23205e-018 -0
vt 3.93049e-034 2.55906
vt 19.8819 2.55906
f 62/95/13 49/96/13 50/97/13

v 15 1795 -0
f 49/96/13 62/95/13 63/66/13

vt -30.9055 19.8819
vt -0.590551 0
vt -0.590551 19.8819
f 52/98/2 63/99/2 62/100/2

vt -30.9055 0
f 63/99/2 52/98/2 53/101/2

v 800 1795 -505
vt -31.4961 19.8819
f 64/102/2 53/101/2 52/98/2

v 800 1795 -0
vt -31.4961 0
f 53/101/2 64/102/2 65/103/2

v 1385 1795 -505
vt -54.5276 19.8819
f 66/104/2 65/103/2 64/102/2

v 1385 1795 -0
vt -54.5276 0
f 65/103/2 66/104/2 67/105/2

v 1385 1455 -505
vt -19.8819 57.2835
f 68/106/3 67/66/3 66/64/3

v 1385 1455 3.93594e-031
vt 1.54958e-032 57.2835
f 67/66/3 68/106/3 69/107/3

v 1385 1446.28 4.05984e-033
vt 1.59836e-034 56.9401
f 68/106/3 70/108/3 69/107/3

v 1385 1446.28 -505
vt -19.8819 56.9401
f 70/108/3 68/106/3 71/109/3

vt -54.5276 56.9401
v 800 1455 -505
vt -31.4961 57.2835
vt -54.5276 57.2835
f 71/110/5 72/111/5 68/112/5

v 800 1446.28 -505
vt -31.4961 56.9401
f 72/111/5 71/110/5 73/113/5

v 800 1446.28 2.08069e-033
vt -31.4961 -8.1917e-035
f 71/49/2 74/114/2 73/51/2

vt -54.5276 -1.59836e-034
f 74/114/2 71/49/2 70/115/2

v 1385 1115 -505
vt -19.8819 43.8976
f 75/116/3 70/108/3 71/109/3

v 1385 1115 3.98023e-031
vt 1.56702e-032 43.8976
f 70/108/3 75/116/3 76/117/3

v 800 1115 -505
vt 54.5276 -1.56702e-032
f 77/73/4 76/118/4 75/75/4

v 800 1115 6.40889e-033
vt 31.4961 -2.52318e-034
f 76/118/4 77/73/4 78/119/4

vt 19.8819 43.8976
vt -8.1917e-035 56.9401
vt -2.52318e-034 43.8976
f 77/120/1 74/121/1 78/122/1

vt 19.8819 56.9401
f 74/121/1 77/120/1 73/123/1

vt -31.4961 43.8976
vt -31.4961 56.9401
f 77/124/10 52/82/10 73/125/10

v 800 1106.28 -505
vt -31.4961 43.5542
f 79/126/10 52/82/10 77/124/10

v 800 775 -505
vt -31.4961 30.5118
f 80/127/10 52/82/10 79/126/10

f 59/83/10 52/82/10 80/127/10

vt 31.4961 30.1684
v 1385 775 -505
vt 54.5276 30.5118
vt 31.4961 30.5118
f 59/128/6 81/129/6 80/130/6

v 1385 766.278 -505
vt 54.5276 30.1684
f 81/129/6 59/128/6 82/131/6

vt -31.4961 -4.30715e-034
f 82/49/2 58/132/2 59/51/2

v 1385 766.278 1.29193e-032
vt -54.5276 -5.08634e-034
f 58/132/2 82/49/2 83/133/2

vt 5.08634e-034 30.1684
vt -19.8819 30.5118
vt -19.8819 30.1684
f 83/134/3 81/135/3 82/136/3

v 1385 775 4.02453e-031
vt 1.58446e-032 30.5118
f 81/135/3 83/134/3 84/137/3

f 84/129/9 58/128/9 83/131/9

v 800 775 1.08386e-032
f 58/128/9 84/129/9 85/130/9

vt 54.5276 -1.58446e-032
vt 31.4961 -4.26717e-034
f 84/138/4 80/73/4 85/139/4

f 80/73/4 84/138/4 81/75/4

v 1385 1106.28 8.48958e-033
vt 3.34235e-034 43.5542
f 86/140/3 81/135/3 84/137/3

v 1385 1106.28 -505
vt -19.8819 43.5542
f 81/135/3 86/140/3 87/141/3

v 800 1106.28 6.51043e-033
vt -31.4961 -2.56316e-034
vt -54.5276 -3.34235e-034
f 88/142/2 87/49/2 86/143/2

f 87/49/2 88/142/2 79/51/2

vt -2.56316e-034 43.5542
vt 19.8819 30.5118
vt 19.8819 43.5542
f 88/144/1 80/145/1 79/146/1

vt -4.26717e-034 30.5118
f 80/145/1 88/144/1 85/147/1

vt 31.4961 43.5542
f 53/67/6 85/130/6 88/148/6

f 53/67/6 58/128/6 85/130/6

f 53/67/6 54/68/6 58/128/6

f 59/80/1 85/147/1 58/78/1

f 85/147/1 59/80/1 80/145/1

vt 31.4961 43.8976
f 53/67/6 88/148/6 78/149/6

vt 54.5276 43.8976
f 88/148/9 76/150/9 78/149/9

vt 54.5276 43.5542
f 76/150/9 88/148/9 86/151/9

f 75/116/3 86/140/3 76/117/3

f 86/140/3 75/116/3 87/141/3

f 75/150/6 79/148/6 87/151/6

f 79/148/6 75/150/6 77/149/6

vt 54.5276 56.9401
f 71/152/6 77/149/6 75/150/6

vt 31.4961 56.9401
f 77/149/6 71/152/6 73/153/6

f 78/122/1 79/146/1 77/120/1

f 79/146/1 78/122/1 88/144/1

f 80/130/6 87/151/6 79/148/6

f 87/151/6 80/130/6 81/129/6

f 86/151/6 33/38/6 76/150/6

f 84/129/6 33/38/6 86/151/6

f 83/131/6 33/38/6 84/129/6

f 55/69/6 33/38/6 83/131/6

f 44/70/6 33/38/6 55/69/6

f 39/37/6 33/38/6 44/70/6

f 83/134/3 56/71/3 55/72/3

f 56/71/3 83/134/3 82/136/3

f 82/131/6 57/68/6 56/69/6

f 57/68/6 82/131/6 59/128/6

f 76/150/6 33/38/6 70/152/6

vt 54.5276 57.2835
f 70/152/6 33/38/6 69/154/6

vt 54.5276 70.6693
f 69/154/6 33/38/6 67/155/6

vt 31.4961 70.6693
f 67/155/6 33/38/6 65/156/6

f 65/156/6 33/38/6 53/67/6

vt 0.590551 70.6693
f 53/67/6 33/38/6 63/157/6

f 35/34/6 63/157/6 33/38/6

f 35/34/6 49/58/6 63/157/6

f 40/1/6 49/58/6 35/34/6

f 49/58/6 40/1/6 41/39/6

vt -20.0787 71.2598
f 34/158/3 40/1/3 35/34/3

v 0 0 -510
vt -20.0787 0
f 40/1/3 34/158/3 89/159/3

vt -55.1181 0
f 34/34/5 37/160/5 89/1/5

vt -55.1181 71.2598
f 37/160/5 34/34/5 36/161/5

vt -55.1181 20.0787
f 37/162/2 40/1/2 89/32/2

f 40/1/2 37/162/2 38/160/2

v 800 1455 1.97915e-033
vt 31.4961 57.2835
f 53/67/6 90/163/6 65/156/6

f 53/67/6 74/153/6 90/163/6

f 53/67/6 78/149/6 74/153/6

vt -7.79192e-035 57.2835
f 73/123/1 90/164/1 74/121/1

vt 19.8819 57.2835
f 90/164/1 73/123/1 72/165/1

vt -31.4961 57.2835
f 73/125/10 52/82/10 72/166/10

vt -31.4961 70.6693
f 72/166/10 52/82/10 64/167/10

vt 31.4961 57.2835
vn -7.71273e-017 -6.63522e-016 1
vt 54.5276 70.6693
vt 31.4961 70.6693
f 72/168/14 66/169/14 64/170/14

vt 54.5276 57.2835
f 66/169/14 72/168/14 68/171/14

vt 54.5276 -1.54958e-032
f 72/73/4 69/172/4 68/75/4

vt 31.4961 -7.79192e-035
f 69/172/4 72/73/4 90/173/4

f 72/165/1 65/66/1 90/164/1

f 65/66/1 72/165/1 64/95/1

f 74/153/9 69/154/9 90/163/9

f 69/154/9 74/153/9 70/152/9

f 54/79/1 47/54/1 57/77/1

f 47/54/1 54/79/1 46/52/1

g Mesh4 Model

v 399 50 1
vt -15.7087 -0.0393701
v 0 50 15
vt 0 -0.590551
v 0 50 1
vt 0 -0.0393701
f 91/174/2 92/175/2 93/176/2

v 399 50 15
vt -15.7087 -0.590551
f 92/175/2 91/174/2 94/177/2

vt -0.0393701 1.9685
v 399 1810 15
vt -0.590551 71.2598
vt -0.590551 1.9685
f 91/178/1 95/179/1 94/180/1

v 399 1810 1
vt -0.0393701 71.2598
f 95/179/1 91/178/1 96/181/1

vt -15.7087 1.9685
vn -5.74241e-018 0 -1
v 0 1810 1
vt 2.26079e-019 71.2598
vt -15.7087 71.2598
f 91/182/15 97/183/15 96/184/15

vt 2.26079e-019 1.9685
f 97/183/15 91/182/15 93/185/15

vt 0.590551 1.9685
vt 0.0393701 71.2598
vt 0.0393701 1.9685
f 92/186/3 97/187/3 93/188/3

v 0 1810 15
vt 0.590551 71.2598
f 97/187/3 92/186/3 98/189/3

vt -4.17377e-018 1.9685
vn 7.06759e-018 0 1
vt 15.7087 71.2598
vt -4.17377e-018 71.2598
f 92/190/16 95/191/16 98/192/16

vt 15.7087 1.9685
f 95/191/16 92/190/16 94/193/16

vt 15.7087 -0.590551
f 95/194/4 97/176/4 98/175/4

vt 15.7087 -0.0393701
f 97/176/4 95/194/4 96/195/4

g Mesh5 Model

v 800 50 1
vt -31.4961 -0.0393701
v 401 50 15
vt -15.7874 -0.590551
v 401 50 1
vt -15.7874 -0.0393701
f 99/196/2 100/197/2 101/198/2

v 800 50 15
vt -31.4961 -0.590551
f 100/197/2 99/196/2 102/199/2

v 800 1810 15
vt -0.590551 71.2598
f 99/178/1 103/200/1 102/180/1

v 800 1810 1
vt -0.0393701 71.2598
f 103/200/1 99/178/1 104/201/1

vt -31.4961 1.9685
v 401 1810 1
vt -15.7874 71.2598
vt -31.4961 71.2598
f 99/202/5 105/203/5 104/204/5

vt -15.7874 1.9685
f 105/203/5 99/202/5 101/205/5

vt 0.590551 1.9685
vt 0.0393701 71.2598
vt 0.0393701 1.9685
f 100/206/3 105/207/3 101/208/3

v 401 1810 15
vt 0.590551 71.2598
f 105/207/3 100/206/3 106/209/3

vt 15.7874 1.9685
vt 31.4961 71.2598
vt 15.7874 71.2598
f 100/210/6 103/211/6 106/212/6

vt 31.4961 1.9685
f 103/211/6 100/210/6 102/213/6

vt 31.4961 -0.590551
vt 15.7874 -0.0393701
vt 15.7874 -0.590551
f 103/214/4 105/215/4 106/216/4

vt 31.4961 -0.0393701
f 105/215/4 103/214/4 104/217/4

g Mesh6 Model

v 1400 50 1
vt -55.1181 -0.0393701
v 802 50 15
vt -31.5748 -0.590551
v 802 50 1
vt -31.5748 -0.0393701
f 107/218/2 108/219/2 109/220/2

v 1400 50 15
vt -55.1181 -0.590551
f 108/219/2 107/218/2 110/221/2

vt -0.0393701 1.9685
v 1400 1810 15
vt -0.590551 71.2598
vt -0.590551 1.9685
f 107/222/1 111/223/1 110/224/1

v 1400 1810 1
vt -0.0393701 71.2598
f 111/223/1 107/222/1 112/225/1

vt -55.1181 1.9685
v 802 1810 1
vt -31.5748 71.2598
vt -55.1181 71.2598
f 107/226/5 113/227/5 112/228/5

vt -31.5748 1.9685
f 113/227/5 107/226/5 109/229/5

vt 0.590551 1.9685
vt 0.0393701 71.2598
vt 0.0393701 1.9685
f 108/230/3 113/231/3 109/232/3

v 802 1810 15
vt 0.590551 71.2598
f 113/231/3 108/230/3 114/233/3

vt 31.5748 1.9685
vt 55.1181 71.2598
vt 31.5748 71.2598
f 108/234/6 111/235/6 114/236/6

vt 55.1181 1.9685
f 111/235/6 108/234/6 110/237/6

vt 55.1181 -0.590551
vt 31.5748 -0.0393701
vt 31.5748 -0.590551
f 111/238/4 113/239/4 114/240/4

vt 55.1181 -0.0393701
f 113/239/4 111/238/4 112/241/4

g Mesh7 Model

usemtl M_0131_Silver
v 349 860 65
vt -2.55906 33.8583
v 349 872 53
vt -2.08661 34.3307
v 349 1010 65
vt -2.55906 39.7638
f 115/242/1 116/243/1 117/244/1

v 349 860 15
vt -0.590551 33.8583
f 116/243/1 115/242/1 118/245/1

v 337 860 65
vt -13.2677 -2.55906
vt -13.7402 -0.590551
vt -13.7402 -2.55906
f 119/246/2 118/247/2 115/248/2

v 337 860 15
vt -13.2677 -0.590551
f 118/247/2 119/246/2 120/249/2

vt 2.55906 33.8583
v 337 872 53
vt 2.08661 34.3307
vt 0.590551 33.8583
f 119/250/3 121/251/3 120/252/3

v 337 998 53
vt 2.08661 39.2913
f 121/251/3 119/250/3 122/253/3

v 337 1010 65
vt 2.55906 39.7638
f 123/254/3 122/253/3 119/250/3

v 337 1010 15
vt 0.590551 39.7638
f 122/253/3 123/254/3 124/255/3

vt 13.7402 -2.55906
vt 13.2677 -0.590551
vt 13.2677 -2.55906
f 117/256/4 124/257/4 123/258/4

v 349 1010 15
vt 13.7402 -0.590551
f 124/257/4 117/256/4 125/259/4

v 349 998 53
vt -2.08661 39.2913
vt -0.590551 39.7638
f 117/244/1 126/260/1 125/261/1

f 126/260/1 117/244/1 116/243/1

vt -13.7402 34.3307
vt -13.2677 39.2913
vt -13.7402 39.2913
f 116/262/5 122/263/5 126/264/5

vt -13.2677 34.3307
f 122/263/5 116/262/5 121/265/5

vt 13.7402 -2.08661
v 337 872 15
vt 13.2677 -0.590551
vt 13.2677 -2.08661
f 116/266/4 127/267/4 121/268/4

v 349 872 15
vt 13.7402 -0.590551
f 127/267/4 116/266/4 128/269/4

vt -0.590551 34.3307
f 116/243/1 118/245/1 128/270/1

usemtl M_0129_WhiteSmoke
vt -13.7402 33.8583
f 118/271/5 127/265/5 128/262/5

vt -13.2677 33.8583
f 127/265/5 118/271/5 120/272/5

usemtl M_0131_Silver
vt 0.590551 34.3307
f 120/252/3 121/251/3 127/273/3

vt -13.2677 -2.08661
v 349 998 15
vt -13.7402 -0.590551
vt -13.7402 -2.08661
f 122/274/2 129/275/2 126/276/2

v 337 998 15
vt -13.2677 -0.590551
f 129/275/2 122/274/2 130/277/2

vt 0.590551 39.2913
f 122/253/3 124/255/3 130/278/3

usemtl M_0129_WhiteSmoke
vt -13.2677 39.7638
f 124/279/5 129/264/5 130/263/5

vt -13.7402 39.7638
f 129/264/5 124/279/5 125/280/5

usemtl M_0131_Silver
vt -0.590551 39.2913
f 125/261/1 126/260/1 129/281/1

vt 13.2677 33.8583
vt 13.7402 39.7638
vt 13.2677 39.7638
f 119/282/6 117/283/6 123/284/6

vt 13.7402 33.8583
f 117/283/6 119/282/6 115/285/6

