# Alias OBJ Model File
# Exported from SketchUp, (c) 2000-2006 Google, Inc.
# File units = millimeters

mtllib 13b744116e4f23c340914702d8ab1d37_obj0_object.mtl

g Mesh1 Granas1 Model

usemtl Color_D18
v 0 490 -0
vt 0 0
vn 0 1 -0
v 30 490 -30
vt 1.1811 1.1811
v 0 490 -780
vt 0 30.7087
f 1/1/1 2/2/1 3/3/1

v 1180 490 -0
vt 46.4567 0
f 2/2/1 1/1/1 4/4/1

vt 0 19.2913
vn 0 0 1
v 30 460 -0
vt 1.1811 18.1102
vt 46.4567 19.2913
f 1/5/2 5/6/2 4/7/2

v 0 0 -0
f 6/1/2 5/6/2 1/5/2

v 30 0 -0
vt 1.1811 0
f 5/6/2 6/1/2 7/8/2

vn 0 -1 -0
v 30 0 -30
vt -1.1811 1.1811
vt -1.1811 0
f 6/1/3 8/9/3 7/10/3

v 0 0 -30
vt 0 1.1811
f 8/9/3 6/1/3 9/11/3

vn -1 0 -0
v 0 460 -30
vt -1.1811 18.1102
vt -1.1811 0
f 6/1/4 10/12/4 9/13/4

f 1/5/4 10/12/4 6/1/4

vt -30.7087 19.2913
f 10/12/4 1/5/4 3/14/4

v 0 460 -750
vt -29.5276 18.1102
f 10/12/4 3/14/4 11/15/4

v 0 0 -750
vt -29.5276 0
f 11/15/4 3/14/4 12/16/4

v 0 0 -780
vt -30.7087 0
f 12/16/4 3/14/4 13/17/4

vt -4.64201e-016 19.2913
vn -1.51163e-017 -7.30253e-017 -1
v 30 0 -780
vt -1.1811 2.24251e-015
vt -4.64201e-016 2.24251e-015
f 3/18/5 14/19/5 13/20/5

v 30 460 -780
vt -1.1811 18.1102
f 14/19/5 3/18/5 15/21/5

v 1150 460 -780
vt -45.2756 18.1102
f 15/21/5 3/18/5 16/22/5

v 1180 490 -780
vt -46.4567 19.2913
f 17/23/5 16/22/5 3/18/5

v 1180 0 -780
vt -46.4567 2.24251e-015
f 18/24/5 16/22/5 17/23/5

v 1150 0 -780
vt -45.2756 2.24251e-015
f 16/22/5 18/24/5 19/25/5

vt -46.4567 30.7087
v 1150 0 -750
vt -45.2756 29.5276
vt -45.2756 30.7087
f 18/26/3 20/27/3 19/28/3

v 1180 0 -750
vt -46.4567 29.5276
f 20/27/3 18/26/3 21/29/3

vt 30.7087 0
vn 1 0 -0
v 1180 460 -750
vt 29.5276 18.1102
vt 29.5276 0
f 18/30/6 22/31/6 21/32/6

vt 30.7087 19.2913
f 17/33/6 22/31/6 18/30/6

v 1180 460 -30
f 17/33/6 23/6/6 22/31/6

f 4/5/6 23/6/6 17/33/6

v 1180 0 -30
f 4/5/6 24/8/6 23/6/6

v 1180 0 -0
f 24/8/6 4/5/6 25/1/6

v 1150 0 -0
vt 45.2756 0
f 4/7/2 26/34/2 25/4/2

v 1150 460 -0
vt 45.2756 18.1102
f 26/34/2 4/7/2 27/35/2

f 27/35/2 4/7/2 5/6/2

v 30 460 -30
vt -1.1811 1.1811
vt -45.2756 0
f 28/36/3 27/37/3 5/10/3

v 1150 460 -30
vt -45.2756 1.1811
f 27/37/3 28/36/3 29/38/3

vt -1.1811 19.2913
vn 1.00713e-017 3.75996e-016 -1
vt -1.1811 18.1102
f 2/39/7 29/22/7 28/40/7

v 1150 490 -30
vt -45.2756 19.2913
f 29/22/7 2/39/7 30/41/7

vt 45.2756 1.1811
f 2/2/1 4/4/1 30/42/1

v 1150 490 -750
vt 45.2756 29.5276
f 30/42/1 4/4/1 31/43/1

vt 46.4567 30.7087
f 17/44/1 31/43/1 4/4/1

v 30 490 -750
vt 1.1811 29.5276
f 17/44/1 32/45/1 31/43/1

f 3/3/1 32/45/1 17/44/1

f 32/45/1 3/3/1 2/2/1

vt 1.1811 19.2913
vn 1 -5.63993e-016 -0
v 30 460 -750
vt 29.5276 19.2913
f 2/46/8 33/31/8 32/47/8

vt 1.1811 18.1102
f 33/31/8 2/46/8 28/48/8

vt 0 1.1811
vt -1.1811 29.5276
f 10/49/3 33/50/3 28/36/3

vt 0 29.5276
f 33/50/3 10/49/3 11/51/3

vt 0 18.1102
v 30 230 -750
vt 1.1811 9.05512
f 11/52/2 34/53/2 33/6/2

v 30 210 -750
vt 1.1811 8.26772
f 11/52/2 35/54/2 34/53/2

f 12/1/2 35/54/2 11/52/2

v 30 0 -750
f 35/54/2 12/1/2 36/8/2

vt -1.1811 30.7087
f 12/51/3 14/55/3 36/50/3

f 14/55/3 12/51/3 13/3/3

vt 30.7087 3.0336e-017
vn 1 -2.56845e-017 7.09263e-015
vt 29.5276 8.26772
vt 29.5276 3.0336e-017
f 14/56/9 35/57/9 36/58/9

vt 29.5276 9.05512
f 35/57/9 14/56/9 34/59/9

vt 29.5276 18.1102
f 34/59/9 14/56/9 33/60/9

vt 30.7087 18.1102
f 33/60/9 14/56/9 15/61/9

vt -1.1811 30.7087
v 1150 460 -750
f 15/62/3 37/27/3 33/50/3

f 37/27/3 15/62/3 16/28/3

vt -30.7087 18.1102
v 1150 230 -750
vt -29.5276 9.05512
f 16/63/4 38/64/4 37/15/4

v 1150 210 -750
vt -29.5276 8.26772
f 38/64/4 16/63/4 39/65/4

f 39/65/4 16/63/4 20/16/4

vt -30.7087 0
f 20/16/4 16/63/4 19/66/4

vt 45.2756 2.89213e-015
vn 1.48766e-015 9.79469e-017 1
vt 46.4567 18.1102
vt 45.2756 8.26772
f 20/67/10 22/68/10 39/69/10

vt 46.4567 2.89213e-015
f 22/68/10 20/67/10 21/70/10

vt 45.2756 9.05512
f 39/69/10 22/68/10 38/71/10

vt 45.2756 18.1102
f 38/71/10 22/68/10 37/72/10

f 22/29/3 29/38/3 37/27/3

vt -46.4567 1.1811
f 29/38/3 22/29/3 23/73/3

vt -46.4567 18.1102
vn 6.66288e-016 -4.97719e-017 -1
v 1150 230 -30
vt -45.2756 9.05512
f 23/74/11 40/75/11 29/22/11

v 1150 210 -30
vt -45.2756 8.26772
f 23/74/11 41/76/11 40/75/11

vt -46.4567 5.87858e-017
f 24/77/11 41/76/11 23/74/11

v 1150 0 -30
vt -45.2756 5.87858e-017
f 41/76/11 24/77/11 42/78/11

vt -45.2756 0
vt -45.2756 1.1811
f 24/73/3 26/79/3 42/80/3

vt -46.4567 0
f 26/79/3 24/73/3 25/81/3

vt -5.91281e-015 3.54768e-014
vn -1 7.83575e-016 -1.30596e-016
vt -1.1811 8.26772
vt -1.1811 3.54768e-014
f 26/82/12 41/83/12 42/84/12

vt -1.1811 18.1102
f 26/82/12 29/85/12 41/83/12

vt -5.91281e-015 18.1102
f 29/85/12 26/82/12 27/86/12

vt -1.1811 9.05512
f 41/83/12 29/85/12 40/87/12

vt -31.1795 8.26772
vn 0.707107 -1.2662e-016 -0.707107
v 1050 230 -130
vt -25.6117 9.05512
vt -31.1795 9.05512
f 41/88/13 43/89/13 40/90/13

v 1050 210 -130
vt -25.6117 8.26772
f 43/89/13 41/88/13 44/91/13

v 1050 210 -650
vt 25.5906 8.26772
vt 5.11811 9.05512
vt 5.11811 8.26772
f 45/92/6 43/93/6 44/94/6

v 1050 230 -650
vt 25.5906 9.05512
f 43/93/6 45/92/6 46/95/6

vt -41.3386 8.26772
vn -9.80858e-017 -1.40512e-031 -1
v 130 230 -650
vt -5.11811 9.05512
vt -41.3386 9.05512
f 45/96/14 47/97/14 46/98/14

v 130 210 -650
vt -5.11811 8.26772
f 47/97/14 45/96/14 48/99/14

v 150 210 -630
vt -5.90551 24.8031
vt -5.11811 25.5906
vt -41.3386 25.5906
f 49/100/3 48/101/3 45/102/3

v 130 210 -130
vt -5.11811 5.11811
f 48/101/3 49/100/3 50/103/3

v 150 210 -150
vt -5.90551 5.90551
f 51/104/3 50/103/3 49/100/3

vt -41.3386 5.11811
f 50/103/3 51/104/3 44/105/3

v 1030 210 -150
vt -40.5512 5.90551
f 44/105/3 51/104/3 52/106/3

v 150 230 -150
vt -5.90551 9.05512
vn 0 0 -1
vt -40.5512 8.26772
vt -5.90551 8.26772
f 53/107/15 52/108/15 51/109/15

v 1030 230 -150
vt -40.5512 9.05512
f 52/108/15 53/107/15 54/110/15

v 205 230 -150
vt -8.07087 9.05512
f 54/110/15 53/107/15 55/111/15

usemtl FrontColor
vt -8.07087 5.90551
f 43/105/3 53/104/3 55/112/3

v 130 230 -130
f 56/103/3 53/104/3 43/105/3

v 150 230 -630
f 53/104/3 56/103/3 57/100/3

f 47/101/3 57/100/3 56/103/3

f 57/100/3 47/101/3 46/102/3

v 205 230 -630
vt -8.07087 24.8031
f 57/100/3 46/102/3 58/113/3

v 260 230 -630
vt -10.2362 24.8031
f 58/113/3 46/102/3 59/114/3

v 315 230 -630
vt -12.4016 24.8031
f 59/114/3 46/102/3 60/115/3

v 370 230 -630
vt -14.5669 24.8031
f 60/115/3 46/102/3 61/116/3

v 425 230 -630
vt -16.7323 24.8031
f 61/116/3 46/102/3 62/117/3

v 480 230 -630
vt -18.8976 24.8031
f 62/117/3 46/102/3 63/118/3

v 535 230 -630
vt -21.063 24.8031
f 63/118/3 46/102/3 64/119/3

v 590 230 -630
vt -23.2283 24.8031
f 64/119/3 46/102/3 65/120/3

v 645 230 -630
vt -25.3937 24.8031
f 65/120/3 46/102/3 66/121/3

v 700 230 -630
vt -27.5591 24.8031
f 66/121/3 46/102/3 67/122/3

v 755 230 -630
vt -29.7244 24.8031
f 67/122/3 46/102/3 68/123/3

v 810 230 -630
vt -31.8898 24.8031
f 68/123/3 46/102/3 69/124/3

v 865 230 -630
vt -34.0551 24.8031
f 69/124/3 46/102/3 70/125/3

v 920 230 -630
vt -36.2205 24.8031
f 70/125/3 46/102/3 71/126/3

v 975 230 -630
vt -38.3858 24.8031
f 71/126/3 46/102/3 72/127/3

v 1030 230 -630
vt -40.5512 24.8031
f 72/127/3 46/102/3 73/128/3

v 1030 230 -570
vt -40.5512 22.4409
f 73/128/3 46/102/3 74/129/3

v 1030 230 -510
vt -40.5512 20.0787
f 74/129/3 46/102/3 75/130/3

v 1030 230 -450
vt -40.5512 17.7165
f 75/130/3 46/102/3 76/131/3

v 1030 230 -390
vt -40.5512 15.3543
f 76/131/3 46/102/3 77/132/3

v 1030 230 -330
vt -40.5512 12.9921
f 77/132/3 46/102/3 78/133/3

v 1030 230 -270
vt -40.5512 10.6299
f 78/133/3 46/102/3 79/134/3

v 1030 230 -210
vt -40.5512 8.26772
f 79/134/3 46/102/3 80/135/3

f 80/135/3 46/102/3 54/106/3

f 43/105/3 54/106/3 46/102/3

v 975 230 -150
vt -38.3858 5.90551
f 43/105/3 81/136/3 54/106/3

v 920 230 -150
vt -36.2205 5.90551
f 43/105/3 82/137/3 81/136/3

v 865 230 -150
vt -34.0551 5.90551
f 43/105/3 83/138/3 82/137/3

v 810 230 -150
vt -31.8898 5.90551
f 43/105/3 84/139/3 83/138/3

v 755 230 -150
vt -29.7244 5.90551
f 43/105/3 85/140/3 84/139/3

v 700 230 -150
vt -27.5591 5.90551
f 43/105/3 86/141/3 85/140/3

v 645 230 -150
vt -25.3937 5.90551
f 43/105/3 87/142/3 86/141/3

v 590 230 -150
vt -23.2283 5.90551
f 43/105/3 88/143/3 87/142/3

v 535 230 -150
vt -21.063 5.90551
f 43/105/3 89/144/3 88/143/3

v 480 230 -150
vt -18.8976 5.90551
f 43/105/3 90/145/3 89/144/3

v 425 230 -150
vt -16.7323 5.90551
f 43/105/3 91/146/3 90/145/3

v 370 230 -150
vt -14.5669 5.90551
f 43/105/3 92/147/3 91/146/3

v 315 230 -150
vt -12.4016 5.90551
f 43/105/3 93/148/3 92/147/3

v 260 230 -150
vt -10.2362 5.90551
f 43/105/3 94/149/3 93/148/3

f 43/105/3 55/112/3 94/149/3

usemtl Color_D18
vt -10.2362 9.05512
f 54/110/15 55/111/15 94/150/15

vt -12.4016 9.05512
f 54/110/15 94/150/15 93/151/15

vt -14.5669 9.05512
f 54/110/15 93/151/15 92/152/15

vt -16.7323 9.05512
f 54/110/15 92/152/15 91/153/15

vt -18.8976 9.05512
f 54/110/15 91/153/15 90/154/15

vt -21.063 9.05512
f 54/110/15 90/154/15 89/155/15

vt -23.2283 9.05512
f 54/110/15 89/155/15 88/156/15

vt -25.3937 9.05512
f 54/110/15 88/156/15 87/157/15

vt -27.5591 9.05512
f 54/110/15 87/157/15 86/158/15

vt -29.7244 9.05512
f 54/110/15 86/158/15 85/159/15

vt -31.8898 9.05512
f 54/110/15 85/159/15 84/160/15

vt -34.0551 9.05512
f 54/110/15 84/160/15 83/161/15

vt -36.2205 9.05512
f 54/110/15 83/161/15 82/162/15

vt -38.3858 9.05512
f 54/110/15 82/162/15 81/163/15

vt -8.26772 9.05512
f 80/164/4 52/109/4 54/107/4

v 1030 210 -630
vt -24.8031 8.26772
f 52/109/4 80/164/4 95/165/4

vt -10.6299 9.05512
f 95/165/4 80/164/4 79/166/4

vt -12.9921 9.05512
f 95/165/4 79/166/4 78/167/4

vt -15.3543 9.05512
f 95/165/4 78/167/4 77/168/4

vt -17.7165 9.05512
f 95/165/4 77/168/4 76/169/4

vt -20.0787 9.05512
f 95/165/4 76/169/4 75/170/4

vt -22.4409 9.05512
f 95/165/4 75/170/4 74/171/4

vt -24.8031 9.05512
f 95/165/4 74/171/4 73/172/4

vt 40.5512 9.05512
vt 5.90551 8.26772
vt 40.5512 8.26772
f 73/173/2 49/174/2 95/175/2

vt 5.90551 9.05512
f 49/174/2 73/173/2 57/176/2

vt 38.3858 9.05512
f 57/176/2 73/173/2 72/177/2

vt 36.2205 9.05512
f 57/176/2 72/177/2 71/178/2

vt 34.0551 9.05512
f 57/176/2 71/178/2 70/179/2

vt 31.8898 9.05512
f 57/176/2 70/179/2 69/180/2

vt 29.7244 9.05512
f 57/176/2 69/180/2 68/181/2

vt 27.5591 9.05512
f 57/176/2 68/181/2 67/182/2

vt 25.3937 9.05512
f 57/176/2 67/182/2 66/183/2

vt 23.2283 9.05512
f 57/176/2 66/183/2 65/184/2

vt 21.063 9.05512
f 57/176/2 65/184/2 64/185/2

vt 18.8976 9.05512
f 57/176/2 64/185/2 63/186/2

vt 16.7323 9.05512
f 57/176/2 63/186/2 62/187/2

vt 14.5669 9.05512
f 57/176/2 62/187/2 61/188/2

vt 12.4016 9.05512
f 57/176/2 61/188/2 60/189/2

vt 10.2362 9.05512
f 57/176/2 60/189/2 59/190/2

vt 8.07087 9.05512
f 57/176/2 59/190/2 58/191/2

v 150 230 -570
vt 22.4409 9.05512
vt 24.8031 8.26772
vt 24.8031 9.05512
f 96/192/6 49/193/6 57/194/6

v 150 230 -510
vt 20.0787 9.05512
f 97/195/6 49/193/6 96/192/6

v 150 230 -450
vt 17.7165 9.05512
f 98/196/6 49/193/6 97/195/6

v 150 230 -390
vt 15.3543 9.05512
f 99/197/6 49/193/6 98/196/6

v 150 230 -330
vt 12.9921 9.05512
f 100/198/6 49/193/6 99/197/6

v 150 230 -270
vt 10.6299 9.05512
f 101/199/6 49/193/6 100/198/6

v 150 230 -210
vt 8.26772 9.05512
f 102/200/6 49/193/6 101/199/6

f 53/176/6 49/193/6 102/200/6

f 49/193/6 53/176/6 51/174/6

usemtl FrontColor
vt -5.90551 10.6299
vt -5.90551 8.26772
f 53/104/3 101/201/3 102/202/3

vt -5.90551 12.9921
f 53/104/3 100/203/3 101/201/3

vt -5.90551 15.3543
f 53/104/3 99/204/3 100/203/3

vt -5.90551 17.7165
f 53/104/3 98/205/3 99/204/3

vt -5.90551 20.0787
f 53/104/3 97/206/3 98/205/3

vt -5.90551 22.4409
f 53/104/3 96/207/3 97/206/3

f 53/104/3 57/100/3 96/207/3

usemtl Color_D18
f 49/100/3 45/102/3 95/128/3

f 95/128/3 45/102/3 52/106/3

f 44/105/3 52/106/3 45/102/3

vt -25.5906 9.05512
vn -1 6.62399e-046 1.30152e-016
vt -5.11811 8.26772
vt -5.11811 9.05512
f 47/208/16 50/209/16 56/210/16

vt -25.5906 8.26772
f 50/209/16 47/208/16 48/211/16

vt -20.044 9.05512
vn -0.707107 3.7986e-016 0.707107
vt -14.4762 8.26772
vt -14.4762 9.05512
f 34/212/17 48/213/17 47/214/17

vt -20.044 8.26772
f 48/213/17 34/212/17 35/215/17

vt 5.11811 8.26772
vt 41.3386 9.05512
vt 5.11811 9.05512
f 50/216/2 43/217/2 56/218/2

vt 41.3386 8.26772
f 43/217/2 50/216/2 44/219/2

vt 7.2381 9.05512
vn 0.707107 -1.10284e-030 0.707107
v 30 210 -30
vt 1.67033 8.26772
vt 7.2381 8.26772
f 56/220/18 103/221/18 50/222/18

v 30 230 -30
vt 1.67033 9.05512
f 103/221/18 56/220/18 104/223/18

vt -1.1811 8.26772
vn -1.02028e-016 -4.8175e-017 -1
vt -1.20506e-016 18.1102
vt -1.1811 9.05512
f 103/224/19 10/225/19 104/226/19

vt -1.1811 5.68996e-017
f 8/227/19 10/225/19 103/224/19

vt -1.20506e-016 5.68996e-017
f 10/225/19 8/227/19 9/228/19

vt 1.1811 8.26772
vn 1 -5.45628e-018 1.41908e-016
vt 1.1811 9.05512
vt 1.1811 6.44443e-018
f 103/229/20 104/230/20 8/231/20

f 28/48/20 8/231/20 104/230/20

vt 1.67608e-016 18.1102
f 5/232/20 8/231/20 28/48/20

vt 1.67608e-016 6.44443e-018
f 8/231/20 5/232/20 7/233/20

vt -1.1811 18.1102
f 104/226/19 10/225/19 28/234/19

vt 47.326 8.26772
vn 0.707107 -2.5324e-016 0.707107
vt 52.8938 9.05512
vt 47.326 9.05512
f 45/235/21 38/236/21 46/237/21

vt 52.8938 8.26772
f 38/236/21 45/235/21 39/238/21

vt -29.5276 19.2913
f 29/12/4 31/239/4 37/15/4

f 31/239/4 29/12/4 30/39/4

vt 45.2756 19.2913
f 31/240/2 33/6/2 37/35/2

vt 1.1811 19.2913
f 33/6/2 31/240/2 32/241/2

g Mesh2 Granas1 Model

usemtl Translucent_Glass_Gray
v 1180 492 -0
v 0 492 -780
v 0 492 -0
f 105/4/1 106/3/1 107/1/1

v 1180 492 -780
f 106/3/1 105/4/1 108/44/1

vt 30.7087 19.3701
v 1180 494 -0
vt 0 19.4488
vt 0 19.3701
f 108/242/6 109/243/6 105/244/6

v 1180 494 -780
vt 30.7087 19.4488
f 109/243/6 108/242/6 110/245/6

vt -46.4567 19.3701
v 0 494 -780
vt -46.4567 19.4488
f 108/246/15 111/243/15 110/247/15

f 111/243/15 108/246/15 106/244/15

vt -30.7087 19.4488
vt -30.7087 19.3701
f 107/244/4 111/248/4 106/249/4

v 0 494 -0
f 111/248/4 107/244/4 112/243/4

vt 46.4567 19.4488
f 107/244/2 109/250/2 112/243/2

vt 46.4567 19.3701
f 109/250/2 107/244/2 105/251/2

f 109/4/1 111/3/1 112/1/1

f 111/3/1 109/4/1 110/44/1

